<svg width="137" height="137" viewBox="0 0 137 137" fill="none" xmlns="http://www.w3.org/2000/svg">
<circle cx="68.3441" cy="68.3441" r="61.3273" transform="rotate(7 68.3441 68.3441)" fill="black"/>
<path d="M121.61 45.6873C121.706 46.4831 120.826 44.0641 121.192 45.763C121.032 45.4454 120.868 45.1281 120.702 44.8145C120.779 44.6816 120.855 44.546 120.931 44.4119C121.163 44.8331 121.389 45.2569 121.611 45.6871C121.611 45.6871 121.611 45.6872 121.61 45.6873ZM123.308 45.7012C122.808 45.4133 122.163 44.1487 122.46 45.6886C122.62 45.7542 122.78 45.8234 122.94 45.8908C123.055 46.423 123.162 46.9572 123.261 47.4888C123.372 47.6517 123.482 47.8153 123.591 47.9801C123.475 48.2824 123.355 48.5809 123.234 48.8794C123.193 48.6663 123.15 48.4504 123.106 48.2376C122.653 47.4975 122.343 46.8127 121.87 45.7638C121.863 45.8763 121.856 45.9886 121.848 46.1008C121.705 45.5306 121.552 44.9622 121.391 44.3975C121.675 44.8227 121.986 45.305 122.239 45.7092C122.259 44.8835 121.541 43.7376 121.177 43.1463C120.682 42.3397 120.916 42.4616 120.542 41.8674C120.482 41.7726 120.366 41.8178 120.263 41.6232C119.754 40.6367 118.728 38.734 119.608 39.689C120.477 41.307 121.392 42.6082 122.058 44.2964C122.164 43.7237 122.672 44.54 123.308 45.7012ZM101.206 20.6632C101.761 20.8257 102.667 21.5126 103.221 22.0483C103.222 22.0488 103.222 22.0493 103.223 22.0498C103.346 22.1676 103.528 22.5639 103.089 22.2388C102.373 21.7131 102.202 21.1913 101.683 21.1229C101.532 20.9712 101.368 20.8184 101.206 20.6632ZM99.5438 19.6551C99.1133 19.3039 99.4592 19.2071 100.016 19.6238C100.016 19.6236 100.016 19.6234 100.016 19.6233C100.247 19.7987 99.6607 19.6732 100.646 20.0413C100.74 20.2886 100.837 20.5219 100.927 20.7635C100.715 20.6306 100.519 20.5121 100.295 20.375C100.584 20.2458 99.973 20.0063 99.5438 19.6551ZM119.017 38.9531C118.769 38.9983 118.957 39.3096 119.117 39.9245C118.839 39.4169 118.552 38.9123 118.259 38.4155C118.513 38.5926 118.765 38.7703 119.017 38.9531ZM124.397 51.5152C124.397 51.5161 124.397 51.5169 124.398 51.5178C124.487 51.6913 124.575 51.8652 124.661 52.0369C124.611 52.1696 124.56 52.3005 124.508 52.4324C124.762 53.0601 125.005 53.6985 125.236 54.3403C124.969 54.3177 124.725 53.1304 124.374 52.5385C124.19 51.5689 124.188 51.0674 124.38 50.9425C124.387 51.1328 124.392 51.3228 124.397 51.5152ZM15.4068 71.5416C15.4968 71.7656 15.588 71.9856 15.6806 72.2072C15.6844 71.9008 15.6831 71.596 15.6969 71.2879C15.3286 70.5127 15.5943 70.4173 15.5256 69.3684C15.3779 66.1603 14.9039 66.9729 15.7114 64.1014C15.5831 66.4257 15.9526 65.5435 16.1925 66.9395C15.996 67.2317 15.5649 65.8357 15.4683 66.7809C15.6708 68.4095 15.9201 69.9637 16.2055 71.7339C16.2345 71.6787 16.2637 71.6239 16.2928 71.5689C16.2478 71.2861 16.2054 71.0101 16.1648 70.7285C16.2755 71.0276 16.3872 71.316 16.5044 71.6189C16.2668 71.2444 16.4678 72.2329 16.223 72.1212C16.1131 72.0717 15.9284 71.6408 15.8083 71.3848C15.8084 72.0691 15.8274 72.7694 15.8554 73.4588C15.7311 73.1145 15.6099 72.7681 15.4922 72.4214C15.461 72.1298 15.433 71.8398 15.4063 71.547C15.4065 71.5452 15.4066 71.5434 15.4068 71.5416ZM121.374 90.1432C121.239 91.0217 120.574 92.4358 119.943 93.0244C120.45 92.0755 120.924 91.1194 121.374 90.1432ZM124.534 50.8281C124.522 50.9332 124.51 51.0351 124.498 51.1399C124.303 50.7508 124.103 50.3627 123.899 49.9808C123.988 49.8663 124.075 49.7496 124.162 49.632C124.29 50.028 124.414 50.4286 124.534 50.8281ZM110.433 27.627C110.659 27.8432 110.677 27.8655 110.938 28.1558C110.937 28.1554 110.937 28.155 110.937 28.1546C111.044 28.267 111.883 29.2528 111.715 29.2119C111.277 28.7446 110.803 28.2529 110.339 27.7902C110.368 27.7333 110.407 27.6877 110.433 27.627ZM115.371 33.3418C115.371 33.3426 115.372 33.3435 115.372 33.3443C115.503 33.5385 115.613 33.7322 115.753 33.9286C115.118 33.3221 115.24 33.0564 114.693 32.4821C114.143 31.9108 113.725 31.6321 113.562 30.8912C113.765 31.0463 113.996 31.2029 114.208 31.3617C114.814 32.3208 115.102 32.4739 115.765 33.107C115.633 33.1852 115.503 33.2634 115.371 33.3418ZM16.7769 57.3044C16.6406 57.0613 16.8539 56.8548 16.8604 56.8309C16.8605 56.8314 16.8606 56.8319 16.8608 56.8324C17.0606 54.9319 16.8997 57.0886 17.2829 55.3403C17.2708 55.6093 17.2638 55.8748 17.2565 56.1417C17.0944 56.525 16.9228 56.9226 16.7769 57.3044ZM55.8657 13.6445C55.8969 13.6888 55.9313 13.7322 55.9624 13.7765C54.9262 14.0702 54.7294 14.3468 53.8263 14.4529C54.4985 14.1701 55.1783 13.9005 55.8655 13.644C55.8656 13.6441 55.8656 13.6443 55.8657 13.6445ZM106.646 23.7071C107.636 24.3929 108.339 24.9479 109.085 25.8416C109.085 25.8423 109.086 25.8431 109.086 25.8438C109.129 25.8956 108.82 25.7577 108.865 25.8362C109.051 25.9844 109.248 26.1328 109.436 26.283C109.401 26.3678 109.365 26.4515 109.33 26.5358C108.857 26.0574 108.375 25.5868 107.882 25.1231C107.924 25.2266 107.968 25.3315 108.009 25.435C107.563 25.0748 107.115 24.7246 106.659 24.3794C106.901 24.3981 107.144 24.4183 107.386 24.4385C107.142 24.1927 106.895 23.9493 106.646 23.7071ZM39.4367 20.8977C39.6256 20.8344 39.3885 21.1132 39.6595 20.9837C39.9294 20.8537 40.3238 20.4622 40.3059 20.6646C39.9874 20.9046 39.6572 21.1618 39.3391 21.4136C40.5636 20.8939 41.5153 19.9846 41.7221 20.2697C40.6251 20.8631 39.8011 21.4782 38.8861 22.264C38.7581 22.0088 39.608 21.1071 38.8324 21.3382C39.0309 21.1917 39.2397 21.038 39.4348 20.8997C39.4354 20.899 39.436 20.8983 39.4367 20.8977ZM130.381 68.1391C130.349 68.9151 130.374 70.7326 130.124 71.7013C130.065 71.9419 129.473 72.6968 129.404 72.6844C129.178 72.6367 129.24 71.6642 128.99 72.6888C129.024 72.3391 129.046 71.9995 129.071 71.6531C128.912 71.7023 128.753 71.7507 128.594 71.7964C128.581 72.2166 128.563 72.6384 128.541 73.0608C128.488 73.0758 128.435 73.0908 128.382 73.1058C128.536 71.6016 128.249 72.469 128.136 71.6775C127.983 72.382 127.816 73.09 127.636 73.7882C127.698 73.3801 127.76 72.8984 127.809 72.5393C127.554 72.4651 127.525 73.3286 127.458 73.4704C127.112 74.2608 127.66 70.0827 127.256 69.7137C127.179 70.3809 127.089 71.0794 126.988 71.7525C126.958 71.5537 126.927 71.353 126.895 71.1555C127.279 69.6312 127.441 67.8954 127.58 66.0756C127.567 65.912 127.553 65.7482 127.539 65.5875C127.422 65.6378 127.305 65.6854 127.187 65.7352C127.169 65.4897 127.148 65.2444 127.126 64.9973C127.535 65.7128 127.515 64.7058 127.679 63.4701C127.856 64.1122 127.801 64.9238 128.054 64.8593C127.787 62.6216 127.805 59.9808 127.23 57.85C127.086 57.3238 126.772 57.3843 126.565 56.1331C126.609 56.1684 126.674 56.1632 126.726 56.1816C126.143 54.0591 125.739 52.8023 125.244 50.575C125.168 50.7353 125.092 50.893 125.015 51.0521C125.208 51.4969 125.396 51.9429 125.577 52.3901C125.47 52.7574 125.274 52.3094 125.622 53.6973C125.896 54.8388 125.818 54.1391 125.947 54.4369C126.12 54.8409 126.048 55.2443 126.228 55.682C126.365 56.0218 126.451 55.6062 126.588 56.5405C126.313 56.2059 126.026 55.8706 125.742 55.545C125.742 55.3131 125.741 55.0826 125.739 54.8503C125.843 55.0627 125.944 55.2725 126.046 55.4871C125.782 54.7123 125.517 53.9876 125.21 53.2016C125.571 53.3919 125.247 52.5779 125.086 52.1354C124.836 51.4453 125.206 51.9933 125.041 51.54C124.873 51.0853 124.506 50.6549 124.288 49.8161C124.558 50.2175 124.479 49.5781 124.635 49.6561C124.792 49.7338 125.097 50.61 124.957 49.7199C124.324 48.128 124.459 50.034 124.022 48.9709C123.487 47.7048 124.08 47.1301 124.382 47.461C124.62 47.7218 124.969 48.7986 125.193 49.0713C124.763 47.0731 124.294 47.2234 124.094 46.9327C123.335 45.8883 124.467 46.3441 123.607 45.085C123.769 45.0473 123.914 45.0113 124.071 44.9766C123.943 44.7492 123.84 44.6066 123.694 44.3294C123.761 45.3009 123.48 44.6023 123.325 44.2511C123.081 43.6971 123.313 44.616 123.211 44.4852C122.942 44.1321 122.706 43.4934 122.748 43.9314C122.732 43.7341 122.708 43.5213 122.686 43.3187C122.318 42.7041 120.976 41.5359 121.784 42.8785C121.491 42.857 121.383 42.3515 121.241 41.9825C121.099 41.6137 120.958 41.6942 120.826 41.3735C120.294 40.1012 120.957 40.764 121.253 40.8597C120.252 39.3177 121.039 40.9255 119.652 38.6916C119.373 38.5634 119.815 39.701 119.222 38.8852C119.393 38.5716 119.216 37.8121 118.516 36.5326C118.38 36.4524 118.243 36.3735 118.107 36.2948C117.906 35.4801 118.382 35.6401 117.253 34.6331C118.235 34.9108 117.598 34.6973 117.031 33.4699C116.914 33.2204 117.392 33.6448 117.224 33.2997C117.147 33.1429 116.819 32.8692 116.628 32.4889C116.537 32.303 116.148 31.3894 115.634 30.9492C115.694 31.5228 114.7 30.7222 115.17 31.716C113.98 30.1453 112.937 29.2112 114.709 30.614C114.459 30.1671 114.201 29.7226 113.938 29.2811C113.648 29.0667 113.356 28.8529 113.062 28.6427C113.214 28.4307 113.313 28.4113 112.321 27.4371C112.782 27.8288 113.239 28.2267 113.692 28.636C113.744 28.6162 113.841 28.6428 113.865 28.5937C113.299 28.098 111.815 26.6181 111.399 26.3177C110.99 26.0106 111.673 26.7119 111.521 26.6569C110.273 26.197 110.625 25.9789 109.928 25.4519C109.518 25.1461 110.363 26.0189 110.147 25.8506C109.356 25.2256 109.205 24.6968 108.531 24.1028C108.662 24.4371 108.786 24.7719 108.903 25.1025C108.216 24.4717 107.427 23.7974 106.72 23.2936C106.443 23.096 106.565 23.3536 106.516 23.3251C106.277 23.1825 105.358 22.5491 105.262 22.4802C104.554 21.9448 104.635 21.7923 103.937 21.2776C104.222 21.4638 104.489 21.6417 104.764 21.8287C105.051 21.6961 105.342 21.5672 105.631 21.4378C104.955 20.9025 104.265 20.3817 103.564 19.8764C104.033 20.3102 104.495 20.7517 104.948 21.1998C104.021 20.7961 103.093 20.4236 102.156 20.076C101.808 19.6822 101.456 19.2945 101.096 18.909C99.8938 18.216 99.8488 18.8497 99.5288 18.0949C99.1555 17.9273 98.7811 17.7642 98.405 17.6046C98.4895 17.5713 98.5737 17.5377 98.6585 17.5048C98.2072 17.3047 97.7537 17.1103 97.297 16.9226C97.6423 17.3801 97.9625 17.8471 98.287 18.3012C97.4269 17.8898 97.5057 17.7015 97.4044 17.5872C97.1333 17.2859 96.3788 17.1116 96.1666 16.8647C96.0952 16.7785 96.9965 17.0775 96.7793 16.7897C96.741 16.7332 95.8614 15.6402 95.0573 15.4243C95.027 15.5271 95.0298 15.6715 95.0113 15.7901C93.9975 15.3946 93.7037 14.6761 93.8976 14.5885C93.3176 14.4556 92.5199 14.1437 92.3453 14.2581C92.065 14.1513 91.7906 14.0491 91.5106 13.9474C91.9498 13.6699 90.7511 13.303 90.554 13.6137C91.0331 13.7947 91.509 13.9826 91.981 14.1758C91.4589 14.452 92.8278 15.2151 89.9461 13.7405C89.4386 13.3221 90.9689 14.1349 90.5521 13.8076C89.7612 13.4184 88.9587 13.2382 88.2123 12.8417C87.2777 12.3576 88.5555 12.5157 86.158 12.1074C91.0883 14.2104 85.3655 12.2149 82.8837 11.9661C82.4068 11.3079 80.7466 10.7369 78.3292 10.5253C78.0161 10.498 77.6914 10.477 77.3565 10.4629C77.5239 10.5828 77.9116 10.6362 78.3091 10.6886C78.5868 10.7251 78.8682 10.7607 79.0804 10.8134C79.595 10.9426 79.017 10.9639 79.6533 11.1373C80.2893 11.3083 81.634 11.6502 82.2579 11.9014C81.6878 11.8732 78.9509 11.6672 80.7817 11.684C79.8059 11.3914 79.2147 11.1744 78.2727 10.9849C77.9547 10.9217 77.5973 10.8629 77.1727 10.8109C76.6401 11.0319 76.6651 11.1856 75.0332 11.0769C76.034 10.7683 74.174 10.3858 74.6084 10.0268C75.7855 10.1907 75.1024 10.5241 75.7616 10.7528C75.8283 10.7736 76.9201 10.7751 77.1727 10.8109C76.111 10.3648 75.7317 10.2156 76.4493 9.87173C75.6617 9.83732 75.1754 9.75762 75.0899 9.94389C74.9309 9.85 74.7703 9.75666 74.6126 9.66426C74.3549 9.65171 74.1228 9.64765 73.8503 9.63414C74.2124 9.94057 73.493 9.72756 72.9749 9.84524C72.4571 9.96532 73.1438 10.2013 71.7314 10.1863C72.2011 10.2574 72.6303 10.3239 73.0779 10.4018C72.1765 10.4485 71.2607 10.5174 70.3648 10.6075C71.0002 10.7683 72.3642 11.0455 72.3214 11.2803C71.9094 11.1799 70.5036 11.34 70.3525 11.3533C69.7603 11.3891 70.0799 11.236 70.035 11.2332C69.0977 11.1835 68.3263 11.2769 67.9582 11.0765C67.2608 11.2202 66.728 11.2039 65.9809 11.2809C65.5706 11.3244 65.6674 11.4795 65.425 11.4738C63.8172 11.4607 65.2884 11.0241 62.2923 11.8838C62.6789 11.9352 63.0598 11.994 63.4441 12.0545C63.1071 12.1467 62.7738 12.2418 62.4401 12.34C62.2089 12.357 61.9798 12.3749 61.7489 12.3947C61.7108 12.1508 61.6736 11.9062 61.6357 11.6623C61.3813 11.6935 61.1233 11.7277 60.8677 11.7628C61.2985 11.6558 61.7288 11.5542 62.1605 11.4577C62.1932 11.4082 62.2233 11.3592 62.2562 11.3098C61.5969 11.3499 60.9373 11.4012 60.2751 11.465C60.2796 11.5517 60.2844 11.6389 60.2889 11.7255C58.8138 11.9106 58.7578 11.8505 57.4468 12.4215C56.3939 12.6891 55.6471 13.2835 55.0982 13.6098C54.8708 13.6292 54.643 13.6495 54.4132 13.6726C54.2987 13.7842 54.1834 13.8964 54.0703 14.0087C53.771 14.0025 53.4675 13.9999 53.1659 13.9997C53.0898 14.2667 53.0371 14.3508 54.1059 14.0786C53.8344 14.4544 51.9713 14.9791 51.2064 15.1884C50.623 15.3417 51.1557 14.8798 51.0759 14.8809C50.8055 14.8805 49.9158 15.3335 49.7191 15.4017C48.8809 15.6846 48.322 15.949 47.5774 16.2418C47.4325 16.2982 46.9763 16.353 46.941 16.3654C46.6706 16.467 46.0029 16.7213 45.9302 16.7571C42.1976 18.6262 46.4019 17.0484 43.0169 18.8904C43.1594 18.9046 43.2933 18.9236 43.4332 18.9401C43.1857 19.0907 42.9368 19.2445 42.6919 19.3989C42.3418 19.5294 42.6526 19.1864 42.0859 19.6584C42.071 19.5446 42.0566 19.4305 42.0446 19.3156C41.8027 19.5315 41.5727 19.7425 41.3287 19.9661C40.6981 19.9287 39.0965 20.9234 38.964 20.5034C38.9151 20.3565 39.948 19.4724 39.2704 19.7466C38.7735 20.0506 39.1962 19.9703 39.0065 20.1123C37.6449 21.1455 37.5907 20.9051 37.0668 21.3742C37.0415 21.5235 37.0135 21.6779 36.9881 21.8294C36.761 21.9645 36.534 22.1018 36.3064 22.242C36.3014 22.3348 36.2946 22.4292 36.2901 22.5219C36.4865 22.3723 36.7086 22.205 36.8909 22.0706C36.7919 22.4645 34.6464 24.3905 35.3469 23.5129C35.6313 23.1528 36.3005 22.6673 35.6933 22.7458C35.1164 23.2712 34.4718 23.8767 33.89 24.4529C33.8253 24.4182 33.7618 24.3823 33.6971 24.3477C32.9025 25.1179 33.8355 24.6515 33.9311 24.7647C33.7463 24.9345 33.5604 25.1069 33.3779 25.2792C33.2544 25.3017 33.1325 25.3188 33.0065 25.3472C33.0714 25.4329 33.1332 25.706 32.5292 26.1534C32.141 26.4432 32.5017 25.723 31.8661 26.3896C32.0323 26.4605 32.4047 26.3721 31.7187 27.1255C31.5251 27.0745 31.3139 27.0622 31.1293 26.9905C30.3535 28.0166 29.7581 28.2541 28.9054 29.504C28.3638 30.2987 27.8815 31.564 26.9793 31.63C26.5337 32.1653 26.8029 32.0948 26.7059 32.2795C26.254 33.1508 25.5788 33.546 25.4563 33.6829C24.6841 34.5517 24.485 35.0417 23.8405 35.7466C23.972 35.7716 24.0851 35.8127 24.2081 35.8451C24.5293 35.0265 24.7799 34.6668 25.5171 33.7102C25.2992 34.0534 25.0868 34.3974 24.8772 34.7439C24.9974 34.7467 25.117 34.7504 25.2351 34.7556C27.1 31.5138 27.0619 32.5886 25.385 35.1815C25.0809 35.2951 24.7717 35.4205 24.4687 35.5386C23.7113 37.1969 23.0599 37.7782 22.0089 39.5293C21.884 39.7373 21.5589 40.5647 21.3906 40.9045C21.3941 40.8992 21.3977 40.8939 21.4012 40.8886C21.4483 41.1787 21.667 40.9325 21.8234 40.972C21.7464 41.1617 21.6698 41.353 21.5954 41.5425C21.2848 41.8938 21.2647 41.7054 20.8977 42.5247C21.0574 42.4674 21.2165 42.4124 21.3763 42.3569C20.9524 43.2348 20.5653 43.768 20.2531 44.6222C20.2727 44.4641 20.2922 44.3077 20.3132 44.1496C19.4188 45.9253 19.3944 44.1979 19.1365 45.73C19.0438 45.7966 18.9515 45.8611 18.859 45.9286C19.077 45.3401 19.3051 44.7563 19.5408 44.1797C19.4668 44.1335 19.3935 44.0864 19.3185 44.0424C19.0727 44.6679 18.8372 45.3021 18.6132 45.938C18.7404 45.4594 18.8749 44.9798 19.0145 44.5048C18.6703 45.2061 18.3377 45.922 18.0233 46.6361C18.6153 45.9758 18.2691 46.9916 18.6356 46.914C17.9141 48.1027 17.214 49.0236 16.826 51.1455C16.7534 51.5683 17.0205 51.3991 16.4541 52.4901C16.8622 52.2984 16.6556 53.7901 17.0279 53.6811C17.1094 53.2753 17.2048 52.8578 17.2883 52.4665C17.0615 52.8769 16.7329 52.874 16.8207 52.1747C16.9306 51.2839 17.5247 50.0931 17.1733 50.0426C17.2947 49.7061 17.4051 49.393 17.5265 49.0688C17.565 49.2314 17.6056 49.391 17.6462 49.5504C17.8157 48.5773 18.07 47.9992 18.4366 47.6323C18.0851 48.7513 17.7722 49.8685 17.4916 51.0034C17.5544 50.8426 17.6186 50.68 17.6823 50.5199C17.6486 51.4287 18.0974 50.6201 17.7046 52.2022C17.6079 52.1656 17.5106 52.1308 17.4134 52.0939C17.5158 52.7379 17.1333 54.3172 17.5634 53.887C17.3554 54.34 17.2733 54.4283 17.3795 54.7331C16.866 55.9313 16.4228 56.7079 16.1507 56.1811C16.1162 56.6694 16.0872 57.163 16.0666 57.6439C16.2103 57.3851 16.3554 57.1274 16.5032 56.8692C16.3469 57.6959 16.2098 58.5221 16.0911 59.3538C15.7837 59.3924 16.2386 57.7398 15.9061 58.185C15.8384 58.274 15.8825 58.7399 15.8366 58.8537C15.3424 60.0588 15.8501 58.129 15.5553 58.4615C15.3122 59.7661 15.1486 59.3915 15.0687 59.9667C15.0371 60.2103 15.021 60.6262 15.0476 61.4065C14.9564 61.4666 14.8632 61.5321 14.7733 61.5878C14.6867 62.4915 14.8854 62.4288 14.8671 63.2091C14.8572 63.6965 14.4887 64.2934 14.6981 64.8407C14.7402 64.9362 15.1699 64.0567 15.1034 65.9393C15.0722 67.4089 14.7895 66.7959 14.6901 67.5942C14.5879 68.394 15.0702 70.202 14.6575 70.7648C14.6895 70.3432 14.6924 69.8088 14.7227 69.3417C14.6258 69.1564 14.531 68.9751 14.4365 68.7902C14.5845 69.8552 14.5219 70.9598 14.7938 71.6563C14.584 73.1074 15.0995 74.6467 15.406 74.1723C15.2955 73.7199 15.1986 74.2398 15.2219 73.5878C15.299 73.5122 15.3753 73.4333 15.4526 73.3583C15.5672 74.4421 15.6879 75.1997 15.3578 74.7391C15.3753 74.9092 15.3933 75.0775 15.4123 75.2473C15.6031 75.2498 15.794 75.2485 15.9848 75.2505C16.0358 75.4468 16.0878 75.6436 16.1408 75.8389C16.1356 76.0664 16.1315 76.2946 16.129 76.5249C15.787 76.2764 15.6744 75.7577 15.8236 77.4949C15.9257 77.4807 16.0278 77.4687 16.1299 77.4544C16.2841 78.8992 16.039 78.9883 16.4841 80.7647C15.7934 79.4834 16.2655 78.595 15.5629 78.7501C15.5353 78.3939 15.5112 78.0346 15.4905 77.6781C15.3781 77.6449 15.2658 77.6119 15.154 77.5806C15.5456 79.4663 17.0005 82.325 16.9588 83.6617C17.057 83.7923 17.149 83.9249 17.2528 84.0554C17.3739 85.3243 18.1304 85.6304 18.2376 86.9287C18.253 87.063 17.5979 87.014 18.2359 88.5473C18.2897 88.4806 18.3986 88.4131 18.4737 88.3465C18.5656 88.6948 18.6582 89.0415 18.7548 89.3866C18.8438 89.4184 18.9341 89.4529 19.0236 89.484C18.807 88.9154 18.6005 88.3447 18.4022 87.7692C18.6099 88.2304 18.8248 88.6911 19.0443 89.1453C18.8916 88.4959 18.7839 88.2219 19.1015 88.5177C19.3291 89.0382 19.5652 89.5551 19.8078 90.0673C19.8742 90.1014 19.941 90.135 20.0075 90.1688C20.0203 89.8617 20.0322 89.5552 20.0524 89.2496C20.535 90.6371 21.0894 91.7839 21.3696 92.912C21.4195 93.1035 20.9371 92.5859 21.7001 93.671C21.6256 93.7343 21.5741 93.8024 21.5072 93.8648C22.5206 95.1525 22.7126 95.6423 23.4418 97.176C23.0161 96.1551 23.4313 97.0442 23.6626 97.2256C23.8202 97.3502 23.4162 96.7293 23.5206 96.7629C23.6234 96.7992 24.3725 97.4555 23.9632 96.7477C22.4197 95.339 22.719 94.5239 21.288 92.3721C21.5343 92.6925 21.7852 93.012 22.0375 93.3256C21.9936 93.1377 21.9557 92.9692 21.9095 92.7665C22.482 94.082 22.2212 93.4337 22.5797 93.9059C22.94 94.3775 23.5388 95.2618 23.9331 95.856C24.0572 96.0435 23.8223 95.9092 24.0799 96.3473C24.2545 96.6473 24.9263 97.3365 24.8606 97.6413C24.8205 97.8435 23.6316 96.7864 24.8107 98.5519C24.9168 98.9638 24.3816 98.0948 24.3568 98.0849C24.1095 98.0244 24.7346 99.189 25.1958 99.6063C25.233 99.6396 25.0662 99.1731 25.4086 99.5666C26.2248 100.496 26.5335 101.146 26.8646 101.905C27.1104 101.825 27.9696 102.457 28.7369 103.489C28.8322 103.494 28.926 103.495 29.0216 103.499C28.864 103.373 28.7073 103.245 28.5508 103.117C28.4438 102.923 28.3208 102.726 28.2257 102.53C29.0951 103.482 29.4729 103.394 29.9679 103.772C31.6788 105.039 30.1808 104.701 29.8082 104.518C29.6694 104.273 29.5442 104.029 29.4136 103.782C29.3701 103.86 29.3266 103.94 29.2812 104.017C31.4121 106.366 29.1913 104.749 30.1819 106.045C30.773 106.065 31.613 106.89 32.5363 108.123C32.6599 108.237 32.7835 108.352 32.9086 108.465C32.9703 108.439 33.0328 108.371 33.0934 108.373C34.4825 109.55 34.3304 110.229 34.4214 110.393C34.8394 111.102 35.5484 111.196 35.7269 111.336C36.4864 111.926 36.6064 112.226 37.3833 112.72C38.2221 113.243 37.7543 112.741 38.0624 112.826C38.3085 112.896 38.9463 113.33 39.2618 113.433C39.1145 113.424 38.9562 113.405 38.8087 113.395C39.5802 114.062 40.2206 114.612 41.1871 115.249C42.5818 115.465 43.0735 116.819 43.0656 115.936C42.1473 115.343 41.6769 114.944 41.291 114.471C41.9044 114.83 42.5253 115.179 43.153 115.515C43.2906 115.692 43.3774 115.837 43.5491 116.032C44.0976 116.143 45.1457 116.796 45.6035 116.969C47.7394 117.766 47.2271 117.182 48.9016 118.493C47.5229 117.936 47.4129 118.158 46.0968 117.472C46.303 117.775 47.0024 118.072 46.4681 118.049C47.7944 118.628 47.4551 118.25 48.0335 118.332C48.531 118.402 49.421 118.775 49.445 118.579C49.4953 118.713 49.5268 118.835 49.5781 118.969C50.4375 119.327 51.302 119.664 52.1762 119.979C51.7668 119.946 51.3572 119.909 50.9477 119.866C51.2133 120.012 51.4811 120.156 51.7502 120.299C54.0061 120.814 57.6721 122.416 57.2751 121.429C58.3468 121.673 58.4606 121.803 59.0096 122.092C59.0879 122.044 59.1619 122.005 59.2414 121.95C59.9195 122.167 60.5013 122.038 61.1052 122.214C61.7112 122.388 61.8266 122.636 61.9798 122.274C62.3584 122.45 62.7415 122.603 63.1262 122.763C63.3801 122.712 63.6331 122.661 63.8833 122.608C64.1034 122.665 64.3247 122.721 64.5466 122.775C64.6988 122.812 64.8511 122.849 65.0032 122.885C65.227 122.731 66.705 122.96 67.3654 122.879C67.9732 123.117 67.923 123.747 69.4118 123.697C69.3792 123.542 69.3473 123.388 69.3153 123.233C69.6506 123.278 69.9863 123.32 70.3249 123.359C70.3442 123.409 70.3609 123.46 70.3804 123.51C70.2067 123.491 70.0383 123.472 69.8661 123.451C70.0133 123.54 70.1577 123.628 70.3039 123.716C70.8276 123.601 71.3475 123.479 71.8644 123.35C71.1675 123.259 70.4626 123.156 69.7771 123.04C70.6455 122.952 71.2592 123.069 72.0133 122.937C72.6729 123.141 72.4348 123.266 72.1678 123.5C72.4141 123.477 72.6627 123.453 72.908 123.428C72.7505 123.659 73.1743 123.798 71.7242 123.794C71.8243 123.859 71.9266 123.921 72.0247 123.988C72.263 123.976 72.4186 124.029 72.6794 123.998C73.389 123.914 73.9228 123.484 73.8663 123.345C73.8376 123.273 73.1443 123.439 73.1687 123.333C73.2335 123.074 74.8208 123.142 72.526 122.95C73.2772 122.771 73.4523 122.889 74.2919 122.896C74.2221 122.814 74.1545 122.733 74.0878 122.65C74.4762 122.672 74.8651 122.689 75.2534 122.702C74.7377 123.181 77.6331 123.13 75.0632 123.702C75.8331 123.674 76.606 123.629 77.3756 123.569C77.2222 123.63 77.0682 123.691 76.9137 123.751C76.5636 123.76 76.2133 123.767 75.8644 123.771C76.2794 123.821 76.6997 123.866 77.118 123.907C78.0778 123.708 78.4341 123.501 78.8472 123.253C77.7166 123.253 78.1049 123.4 77.2358 123.531C77.2538 123.406 77.2023 123.298 77.265 123.162C77.7416 123.374 79.1811 123.007 79.5171 122.941C80.5397 122.751 79.7708 123.12 80.4604 123.017C81.1508 122.912 81.9303 122.619 82.5389 122.749C82.5018 122.615 82.4291 122.483 82.3647 122.367C83.4154 122.109 83.2366 122.307 83.3512 122.306C85.1751 122.26 86.0603 121.736 88.0079 121.112C87.7466 121.147 87.4838 121.185 87.2204 121.22C88.6127 120.493 87.6446 120.895 86.337 121.157C87.5476 120.852 88.1585 120.395 88.9649 120.052C89.7735 119.712 91.2273 119.315 91.775 119.204C90.6603 119.812 89.3355 120.168 88.0133 120.624C88.2073 120.711 88.3913 120.779 88.5961 120.876C89.3211 120.333 89.8488 120.357 90.1303 120.3C90.9524 120.131 90.8381 119.899 91.404 119.979C91.3517 119.898 91.3098 119.83 91.2599 119.755C92.8718 119.195 94.6373 118.598 95.4923 117.804C95.6808 117.965 95.8439 118.128 96.0501 118.285C96.6338 117.816 97.2671 117.691 97.7952 117.37C98.3181 117.048 98.0277 116.997 98.6231 116.593C98.7328 116.518 99.0305 116.485 99.2732 116.251C99.5236 116.016 100.241 114.862 100.647 115.256C101.172 114.941 101.674 114.65 102.183 114.331C101.709 114.676 101.229 115.012 100.746 115.341C101.242 115.197 101.735 115.046 102.23 114.886C102.22 114.751 102.208 114.615 102.196 114.483C103.243 113.628 104.155 113.233 105.222 112.386C105.398 112.244 104.832 112.377 105.669 111.82C106.498 111.258 107.371 111.141 108.57 109.89C108.631 109.825 108.792 109.242 109.404 109.004C109.543 108.95 109.156 109.402 109.442 109.239C109.732 109.079 110.825 108.137 111.019 108.174C110.967 108.143 110.86 108.161 110.787 108.148C110.946 107.958 111.106 107.766 111.264 107.572C111.353 107.63 111.443 107.686 111.531 107.743C112.373 106.569 112.603 105.791 114.085 104.317C113.585 104.66 113.08 104.992 112.575 105.314C112.543 105.502 112.51 105.691 112.477 105.878C111.785 106.545 111.075 107.196 110.352 107.825C110.32 108.02 110.289 108.213 110.254 108.409C110.057 108.572 109.861 108.733 109.661 108.893C109.65 108.786 109.64 108.68 109.63 108.571C109.273 108.927 108.911 109.279 108.546 109.624C108.984 108.58 110.682 107.737 110.292 107.515C110.5 107.407 110.709 107.298 110.917 107.188C110.842 106.971 111.213 106.696 111.8 106.14C111.598 106.201 111.384 106.276 111.192 106.323C111.847 105.872 112.79 104.851 113.369 104.28C113.625 104.03 113.5 104.396 113.584 104.328C114.019 103.982 114.495 103.019 114.647 102.865C115.57 101.945 116.493 101.576 117.078 100.229C116.136 101.364 116.64 100.74 116.181 101.048C116.037 101.144 114.786 102.563 116.273 100.723C116.475 100.535 119.197 97.1746 118.615 98.49C118.936 97.8592 119.153 97.3444 119.416 96.7547C120.828 95.7775 119.984 95.903 119.444 96.1059C119.576 95.887 119.698 95.6767 119.832 95.4501C119.876 96.1309 121.334 93.6599 121.59 92.6972C121.683 92.3797 121.161 93.131 121.453 92.4385C121.638 92.1342 121.849 91.7881 122.04 91.462C121.587 91.848 121.972 90.8461 121.744 90.7561C122.229 90.2362 122.861 89.9403 122.93 90.389C123.076 89.8277 123.212 89.2661 123.339 88.7035C123.184 88.9242 123.027 89.1466 122.869 89.364C123.763 87.7278 124.234 85.3729 124.835 85.1664C124.911 84.9307 124.987 84.6952 125.059 84.4604C125.001 84.3615 124.942 84.2653 124.884 84.1669C125.294 83.1365 125.676 82.0857 126.025 81.03C125.826 82.0008 125.881 82.2624 125.488 83.2356C125.698 82.8798 125.909 82.5108 126.109 82.1568C126.258 80.5721 126.163 80.321 126.721 78.0395C126.752 77.9399 127.293 76.2173 127.317 76.1615C127.46 75.9016 127.534 76.3443 127.604 76.2295C127.809 75.9178 128.453 73.8522 128.493 73.894C129.182 74.5046 127.852 81.6759 127.193 83.5417C121.749 103.403 104.823 118.693 85.1331 123.429C84.9304 123.479 85.0416 123.552 84.9558 123.577C84.4213 123.73 83.8611 123.698 83.6604 123.735C83.2317 123.814 83.4952 123.9 83.1828 123.965C79.9512 124.626 76.8387 124.916 73.5497 125.061C73.3345 125.069 73.5503 124.951 73.1735 124.983C72.981 125 72.3774 125.184 71.937 125.19C70.3955 125.208 69.1151 125.117 67.4929 125.012C66.6124 124.956 65.299 124.819 64.3106 124.698C64.3086 124.698 64.3066 124.697 64.3045 124.697C63.8683 124.645 63.4049 124.661 62.9761 124.601C62.3683 124.515 62.5171 124.376 62.4255 124.352C62.025 124.245 61.9409 124.408 61.5554 124.338C60.8373 124.204 60.8154 124.085 59.9052 123.915C59.2554 123.797 57.7562 123.555 56.938 123.369C55.0801 122.765 52.7161 122.074 50.9917 121.47C49.9734 121.114 49.9417 120.92 49.533 120.757C48.0986 120.176 46.9414 119.881 45.6259 119.244C43.8847 118.394 42.4501 117.44 40.8614 116.451C40.6043 116.289 40.5848 116.453 40.3301 116.297C39.3868 115.723 38.1979 114.951 37.4126 114.358C36.535 113.695 36.343 113.28 35.4738 112.657C35.2196 112.473 35.0286 112.565 34.6027 112.251C33.9222 111.748 33.3294 111.021 32.9023 110.618C32.3177 110.064 32.7088 110.677 31.9216 109.926C31.8894 109.895 31.8631 109.684 31.6884 109.53C31.1815 109.079 31.1529 109.206 30.4481 108.502C30.3779 108.436 29.5443 107.407 29.4573 107.31C28.9203 106.758 27.9119 105.578 27.5947 105.251C26.4566 104.082 27.1266 105.189 26.5841 103.84C26.1121 103.44 25.6468 103.037 25.1655 102.589C25.5055 102.871 24.5583 101.39 24.4841 101.293C23.8264 100.513 24.0333 101.111 23.3157 100.033C24.6205 101.204 22.4075 98.6363 22.0159 97.9866C20.0437 94.9383 18.6234 91.9407 17.258 88.5658C16.8003 87.4373 16.1609 85.9241 15.7719 84.6933C15.6804 84.4064 15.8406 84.5942 15.7628 84.3411C15.6853 84.0886 15.6699 84.4006 15.5858 84.1105C15.0684 82.298 14.9012 80.8323 14.2879 79.2084C14.3061 79.1188 14.3349 79.1154 14.3455 78.9716C13.8139 77.6396 13.6896 74.9049 13.6255 73.8948C13.5081 72.3141 13.3272 71.9138 13.2766 70.7641C13.2056 69.2341 13.4888 66.9426 13.0069 67.9723C12.9734 66.9265 12.9785 65.9021 13.0621 64.8511C13.0716 64.7336 13.1945 64.8193 13.1988 64.7724C13.2282 64.4754 13.1202 64.3734 13.1244 64.1712C13.1378 63.6233 13.2271 64.5227 13.2299 63.741C13.2344 63.3302 13.1434 63.0826 13.235 61.9481C13.2953 61.2294 13.3701 60.5026 13.46 59.7691C14.2073 53.5271 16.1248 47.0595 18.9234 41.3741C19.1377 40.9387 18.8865 41.1712 19.1655 40.6294C20.1182 38.7265 22.2332 35.5823 23.2606 34.0785C24.2743 32.5677 23.9005 32.8029 24.5193 31.8366C24.6404 31.651 24.6126 31.8569 24.7341 31.6982C25.5483 30.63 26.6876 29.4909 27.4178 28.6923C27.9022 28.1628 27.7461 28.1009 28.0715 27.7221C28.5583 27.1585 29.2015 26.7153 29.4803 26.435C30.7922 25.1178 31.6344 24.1433 32.9833 23.0427C32.909 23.0611 32.8538 23.0664 32.7877 23.0785C34.3383 21.72 35.958 20.4451 37.6425 19.2571C37.5446 19.2871 37.4493 19.3154 37.3512 19.3456C39.3422 17.9648 39.3247 18.4383 38.7352 17.9389C38.8682 17.8189 39.0085 17.6902 39.1374 17.5773C39.2905 17.9319 40.6578 17.3476 42.3112 16.5037C42.4307 16.4407 43.047 15.6697 43.1729 16.0998C43.3288 15.891 43.418 15.7582 43.5507 15.5793C43.9596 15.507 44.3721 15.4356 44.78 15.3722C44.9586 15.2576 45.1409 15.1431 45.3205 15.0305C45.3101 14.9402 45.2486 14.8718 45.2718 14.7663C46.1429 14.3035 48.026 13.5569 48.7398 13.2521C50.5055 12.4707 52.2929 11.5853 53.8035 11.3696C54.4951 11.1268 53.7483 11.1795 54.801 10.8832C54.9436 10.9294 55.0778 10.9747 55.2255 11.0229C55.9772 10.4143 56.2208 10.5817 57.4225 10.3606C58.238 10.2154 58.7413 10.0063 59.5147 9.86228C59.7106 9.82634 59.7054 9.94114 59.8379 9.91042C60.2807 9.80458 61.5346 9.42066 61.8523 9.36764C64.734 8.85552 67.2387 8.64857 70.024 8.62056C70.322 8.61836 69.9331 8.51657 70.2421 8.51502C70.7395 8.51406 70.4494 8.68746 70.737 8.69216C71.5392 8.70973 71.5462 8.52752 72.6723 8.53918C74.5232 8.56538 76.5134 8.7283 78.5157 9.00638C80.5035 9.28098 82.4838 9.66651 84.3495 10.0962C84.4669 10.1228 84.4835 10.0197 84.612 10.0482C85.4507 10.2365 86.2536 10.5875 86.9973 10.7918C88.2379 11.1353 89.2043 11.2816 90.4099 11.6934C92.7662 12.5077 94.7903 13.424 97.089 14.5511C98.9621 15.4796 100.564 16.3472 102.506 17.5681C110.974 22.8878 118.445 30.4402 123.038 39.4893C123.154 39.719 123.024 39.6694 123.064 39.7369C123.445 40.3787 123.584 40.3847 123.471 40.7377C123.939 41.5621 124.248 41.7473 124.714 42.7999C124.958 43.3621 124.499 43.0653 125.053 43.9504C125.538 44.7575 125.333 43.7316 126.18 46.3879C126.202 46.459 126.157 46.8612 126.395 47.3886C126.631 47.9209 126.543 47.2396 127.027 48.5541C128.162 51.6497 128.981 55.756 129.49 59.5417C129.534 59.7738 129.869 62.0659 129.935 62.5186C130.083 63.3924 130.213 63.1992 130.3 64.3508C130.362 65.2465 130.224 65.975 130.253 67.0221C130.255 67.1437 130.418 67.3499 130.381 68.1391ZM16.1333 75.1373C16.3212 75.3194 16.9366 75.5958 16.9806 76.8348C16.9854 76.9539 16.4806 76.3989 16.5419 77.0865C16.3779 76.4324 16.2571 75.7906 16.1327 75.1374C16.1329 75.1374 16.1331 75.1374 16.1333 75.1373ZM126.323 73.3879C126.461 72.4695 126.576 71.5523 126.668 70.6339C126.694 71.2749 126.709 71.9146 126.714 72.5577C126.586 72.8365 126.455 73.1116 126.323 73.3879ZM50.3534 15.4447C50.3542 15.4443 50.3551 15.444 50.3559 15.4437C49.4816 15.883 48.6226 16.3439 47.7757 16.8272C47.8446 16.7339 47.9139 16.6405 47.9836 16.5474C48.645 16.1435 49.314 15.7538 49.9919 15.3776C50.1125 15.3996 50.2332 15.4219 50.3534 15.4447ZM57.5142 12.4621C58.1401 12.3711 58.0174 12.5164 58.3778 12.539C58.3777 12.5388 58.3777 12.5386 58.3776 12.5384C58.4727 12.5438 58.8905 12.4708 59.0501 12.4394C58.9762 12.3856 58.8852 12.3367 58.8061 12.2848C60.2038 11.787 63.1034 11.8412 59.5524 12.7975C59.5873 12.7009 59.6201 12.6053 59.6554 12.5087C57.8781 12.9128 55.8542 13.2921 57.5142 12.4621ZM20.4429 89.1881C21.34 90.4979 21.596 90.9147 22.2921 92.6817C22.0964 92.4831 21.9017 92.2822 21.7084 92.0799C21.64 91.7636 21.575 91.4495 21.5124 91.1331C21.512 91.1323 21.5116 91.1315 21.5112 91.1308C21.4062 91.1125 21.3009 91.0939 21.197 91.0773C20.9344 90.4529 20.6815 89.8197 20.4429 89.1881ZM112.483 28.8951C112.359 29.6034 112.523 29.278 111.575 28.4638C111.246 28.1845 111.464 28.5553 111.267 28.3745C110.199 27.4075 110.372 27.0644 110.744 27.149C111.338 27.7186 111.923 28.3078 112.481 28.8932C112.482 28.8938 112.482 28.8945 112.483 28.8951ZM127.339 62.8426C127.339 62.8435 127.339 62.8443 127.339 62.8452C127.204 62.8921 127.125 62.3136 127.041 62.9788C127.007 62.4811 126.967 61.9792 126.919 61.4772C126.946 61.6232 126.972 61.7726 126.998 61.9191C127.034 61.7846 127.07 61.6495 127.105 61.5145C126.929 61.3518 127.006 61.1782 127.002 60.6475C126.848 60.8113 126.695 60.9731 126.54 61.1344C126.528 60.5235 126.506 59.9152 126.473 59.3019C126.515 59.2887 126.556 59.2752 126.598 59.2619C126.512 59.0406 126.425 58.8228 126.336 58.6036C126.378 58.5342 126.419 58.467 126.46 58.3973C126.379 58.1285 126.297 57.8603 126.212 57.5938C126.319 57.49 126.478 58.0834 126.26 57.0207C126.444 57.3254 126.625 57.6325 126.805 57.9459C127.056 59.5717 127.233 61.2027 127.339 62.8426ZM103.871 21.5194C105.341 22.5604 104.87 22.3386 104.372 22.3149C104.209 22.0496 104.04 21.7833 103.871 21.5194ZM23.0734 38.5325C22.9726 39.0832 22.8803 39.6302 22.7867 40.1851C22.3721 41.1594 21.5845 41.9514 21.8273 41.1752C22.1273 40.2389 22.7748 39.4491 23.0734 38.5325ZM15.7291 61.5202C15.9509 60.2296 16.0493 61.4774 16.1568 61.778C15.9112 62.1165 15.8849 62.6108 15.8083 63.4175C15.8407 62.6583 15.692 61.7363 15.7285 61.5201C15.7287 61.5201 15.7289 61.5202 15.7291 61.5202ZM36.9804 22.9629C37.3873 22.6365 37.7689 22.2791 38.1828 22.0534C38.1781 22.2834 37.3362 22.7115 38.0306 22.5274C37.7681 22.7308 37.5071 22.9367 37.2506 23.1436C37.3465 22.9258 37.0723 23.0327 36.9818 22.9625C36.9814 22.9626 36.9809 22.9627 36.9804 22.9629ZM88.2939 13.9457C87.3874 13.4341 87.1649 13.4652 86.1381 13.3359C86.0423 13.1249 87.3113 13.1674 88.0711 13.3388C88.1458 13.5407 88.2196 13.7429 88.2939 13.9457ZM114.669 101.898C114.695 102.234 113.55 103.648 112.889 104.268C112.936 104.166 112.983 104.063 113.029 103.96C113.592 103.285 114.139 102.597 114.669 101.898ZM15.7701 63.8003C15.7843 63.6658 15.7969 63.5381 15.8083 63.4175C15.8023 63.552 15.7907 63.6814 15.7701 63.8003ZM37.125 112.058C36.6494 111.962 37.6365 112.81 36.4365 111.781C36.4364 111.782 36.4363 111.782 36.4362 111.782C35.6496 111.093 35.4805 110.935 34.7514 110.302C35.1948 110.319 36.7484 111.487 34.7301 109.722C34.7036 109.699 34.6504 109.869 34.3407 109.571C34.2453 109.479 34.0124 109.1 33.5624 108.64C33.4165 108.491 32.2942 107.406 33.8667 108.839C33.9468 108.655 34.1603 108.587 34.2796 108.446C34.9278 108.953 35.1633 109.647 35.8453 110.198C36.8614 111.013 37.6168 111.103 37.5154 111.649C36.5664 111.094 35.1095 109.889 35.1226 109.502C34.3268 108.813 33.9381 108.787 34.502 109.443C37.4079 111.676 35.0202 110.405 37.6851 112.221C37.7568 112.189 37.9071 112.208 37.9294 112.144C38.5763 112.921 37.2932 112.096 37.125 112.058ZM31.6903 106.613C32.2396 106.957 32.7928 107.288 33.3479 107.608C33.1868 107.78 32.7856 107.706 31.9778 107.102C31.8817 106.94 31.7847 106.775 31.6903 106.613ZM80.3869 122.289C80.4561 122.148 80.675 121.992 80.8269 121.842C81.0357 121.958 85.4863 121.1 83.2583 121.697C82.9341 121.792 80.8862 121.954 80.3869 122.289ZM94.9658 16.3388C94.5189 16.0353 94.0713 15.7398 93.618 15.4502C94.3888 15.7229 95.1609 16.0143 95.9233 16.3219C95.6027 16.3243 95.2848 16.3307 94.9658 16.3388ZM19.0619 46.2626C19.1498 46.0535 19.0377 46.8181 19.3406 45.9781C19.1982 46.6387 19.0694 47.2473 18.9502 47.891C18.8057 48.0443 18.6615 48.201 18.5182 48.3569C18.5191 48.5177 18.5194 48.681 18.5217 48.8415C18.4353 48.7163 18.3487 48.601 18.2627 48.4694C18.8717 47.5219 18.6801 47.1886 19.0619 46.2626ZM38.6138 20.5981C38.9263 20.7001 37.7272 21.7519 39.023 20.8792C38.8818 21.193 38.5466 21.5387 37.8282 22.0956C37.6714 22.1298 37.5151 22.1649 37.3582 22.2007C37.4506 22.3551 37.3031 22.5487 36.9804 22.9629C36.9799 22.963 36.9795 22.9631 36.979 22.9632C35.9068 23.8284 35.9415 23.7392 35.496 23.7239C36.7336 22.9203 36.6031 22.6924 37.3036 21.9527C37.7865 21.4463 38.5476 20.9588 38.6138 20.5981ZM75.5799 122.856C76.5937 122.548 75.6511 122.432 77.4983 122.486C77.387 122.555 77.2746 122.624 77.1624 122.692C76.637 122.755 76.1047 122.81 75.5799 122.856ZM43.4211 18.5879C43.1141 18.2886 42.1021 18.5183 42.3102 19.1771C43.1906 18.8039 42.6012 18.7157 43.4211 18.5879ZM15.134 61.0098C15.189 60.5338 15.2635 60.2076 15.3422 60.0002C15.5266 59.5186 15.7289 59.6786 15.8529 60.0629C15.8814 60.1511 15.906 60.251 15.9256 60.3578C15.8283 60.4633 15.7311 60.5692 15.6351 60.6731C15.6375 60.9971 15.6428 61.3201 15.6503 61.642C15.4772 61.4334 15.3048 61.2225 15.134 61.0098ZM74.1947 10.6827C72.7825 10.9055 75.6952 10.9286 74.7082 11.058C73.9234 11.1551 72.9142 10.8291 73.3069 10.6566C73.5771 10.6608 73.8781 10.6697 74.192 10.6825C74.1929 10.6826 74.1938 10.6826 74.1947 10.6827ZM66.0983 10.9396C66.3563 11.2321 66.0178 11.1642 67.1131 11.0197C67.4225 10.9657 69.9314 10.9681 68.8685 10.7562C67.9696 10.7957 67.032 10.8549 66.0983 10.9396ZM17.3485 82.0103C17.2155 82.0691 16.4313 80.2676 16.4543 80.0019C16.4541 80.0019 16.4539 80.002 16.4537 80.002C16.4937 79.3022 17.0081 81.2799 17.0679 80.3526C17.3082 82.3107 18.0757 82.6977 17.2767 82.7903C16.9214 81.6857 17.2318 82.1696 17.3485 82.0103ZM125.903 81.0139C125.903 81.013 125.903 81.0121 125.904 81.0113C125.867 81.1376 125.394 82.1145 125.361 81.9696C125.753 80.7522 125.824 81.0015 125.895 79.7879C125.978 79.74 126.057 79.7006 126.141 79.6473C126.073 80.1209 126.093 80.3987 125.903 81.0139ZM85.2625 121.56C84.8109 121.713 83.9335 121.769 83.4105 121.891C84.9555 120.977 87.0517 120.938 85.2625 121.56ZM123.31 45.7047C123.309 45.7035 123.309 45.7023 123.308 45.7012C123.308 45.7014 123.309 45.7018 123.309 45.7021C123.309 45.7029 123.31 45.7038 123.31 45.7047ZM49.3873 118.44C49.4288 118.498 49.4479 118.541 49.4483 118.571C49.4473 118.574 49.4462 118.576 49.4452 118.579C49.4284 118.534 49.4098 118.488 49.3873 118.44ZM18.6083 85.8187C18.6988 86.6461 17.511 84.2074 17.3426 83.3418C17.4436 83.3748 17.5216 83.361 17.6587 83.4668C17.6443 84.2086 18.5891 85.6867 18.6083 85.8187ZM30.095 28.8511C28.6626 30.4203 29.9683 27.8593 30.4944 28.1935C30.4989 28.2043 30.1302 28.8098 30.095 28.8511ZM15.302 69.5117C15.0539 68.9804 15.0277 70.0718 15.0117 68.3271C15.0682 68.2246 15.1251 68.1225 15.1821 68.0205C15.2153 68.5154 15.2555 69.0151 15.302 69.5117ZM21.1682 39.6395C19.976 42.0891 19.1789 44.5518 20.464 43.2158C20.5308 43.0239 20.6005 42.8302 20.6695 42.6391C20.4072 42.48 20.875 41.8746 21.3876 40.909C21.3509 40.7139 21.6113 40.1627 21.5755 40.0134C21.5054 39.7226 21.047 40.277 21.1682 39.6395ZM116.855 33.0804C116.787 33.0769 116.72 33.0744 116.652 33.0708C116.351 32.7662 116.046 32.4646 115.739 32.1679C115.86 32.1599 115.982 32.1523 116.103 32.145C116.357 32.4538 116.606 32.7638 116.854 33.0781C116.854 33.0789 116.854 33.0796 116.855 33.0804ZM29.4181 105.166C30.0093 104.954 29.3467 104.42 28.009 103.283C28.4644 103.919 28.9354 104.548 29.4181 105.166ZM54.0063 12.692C54.1099 12.8304 54.2121 12.9687 54.3172 13.1068C55.1397 12.6698 54.9276 12.5425 54.4388 12.4668C54.2931 12.5416 54.151 12.6161 54.0063 12.692ZM67.0341 10.0675C66.6501 10.0631 66.855 10.1797 66.815 10.1801C65.8406 10.1931 65.6947 10.1432 64.5253 10.3795C64.385 10.4314 64.2477 10.4853 64.1083 10.5392C64.6937 10.8113 65.0643 10.5722 66.2372 10.6644C66.0188 10.5663 65.8002 10.4693 65.5797 10.3732C66.225 10.3322 66.8719 10.3019 67.5142 10.2833C67.588 10.242 67.6621 10.2012 67.7363 10.1602C67.5041 10.1283 67.2639 10.0926 67.0341 10.0675ZM119.492 37.2277C119.809 37.7665 120.118 38.3133 120.417 38.8623C120.501 38.8402 120.586 38.8171 120.67 38.7952C120.286 38.2655 119.892 37.7415 119.492 37.2277ZM39.2618 113.433C39.3196 113.437 39.3765 113.439 39.4292 113.438C39.4046 113.467 39.3435 113.46 39.2618 113.433ZM126.742 79.5161C126.958 78.8384 127.127 77.825 127.277 77.055C127.065 77.0817 126.741 79.0355 126.449 79.6797C126.461 79.7973 126.651 79.8054 126.742 79.5161ZM15.4756 58.4728C15.3976 58.2811 15.321 58.0891 15.2445 57.8985C15.3237 57.4739 15.4077 57.0532 15.4976 56.6242C15.4149 56.596 15.3314 56.5679 15.2487 56.5397C15.027 58.4526 14.867 57.9715 14.482 58.8857C14.8127 58.7438 15.1435 58.6082 15.4756 58.4728ZM127.318 55.5124C126.98 54.1637 126.751 53.7197 126.673 54.5324C126.837 54.9931 126.996 55.4602 127.148 55.9279C127.205 55.789 127.262 55.6495 127.318 55.5124ZM62.294 122.903C63.4166 122.984 63.4196 123.314 64.4839 123.286C64.5125 123.285 64.5419 123.284 64.5722 123.283C64.5437 123.276 64.5152 123.27 64.4867 123.263C63.9187 123.132 63.3559 122.992 62.8001 122.845C62.6329 122.865 62.4614 122.884 62.294 122.903ZM18.4946 89.9388C18.5845 90.4443 19.4766 91.0478 19.711 92.4781C19.9722 92.7189 20.1737 92.8486 20.4138 93.0444C20.3691 93.253 20.3346 93.4831 20.2897 93.6856C20.2901 93.6865 20.2905 93.6873 20.291 93.6881C20.9251 94.783 20.6889 93.9783 20.8286 93.9369C20.8856 93.9213 21.2458 94.7866 21.2193 94.4688C21.164 93.927 20.1935 92.3217 20.4395 92.1942C20.6483 92.8218 21.317 93.9198 21.2985 93.4999C21.2777 93.0447 20.4324 92.1269 20.2515 91.3618C20.339 92.5425 19.4728 90.4287 19.6812 90.0544C18.9139 88.941 19.2938 90.1071 19.8942 91.3422C19.3062 90.694 19.9563 91.7498 19.8584 92.0245C19.3429 91.3101 18.2531 88.5286 18.4946 89.9388ZM27.4286 30.2374C26.8444 30.9557 25.8352 32.0102 25.6297 32.6493C25.5084 33.0175 26.4556 31.9247 26.0129 32.8362C26.5369 32.1104 26.6072 31.9055 26.3759 31.9199C26.4854 31.7455 26.5977 31.5701 26.7099 31.3966C26.7953 31.3432 26.8821 31.2878 26.9677 31.235C26.9799 31.1066 26.9934 30.9781 27.0049 30.8515C27.1536 30.6907 27.3048 30.529 27.4556 30.3705C27.4446 30.328 27.4488 30.2745 27.4286 30.2374ZM94.7263 118.625C94.4947 118.732 94.2648 118.836 94.032 118.94C94.0745 118.968 94.1227 118.994 94.1696 119.021C94.2045 119.043 94.2394 119.065 94.2744 119.087C94.0893 119.038 92.8938 119.328 92.4651 119.635C92.2489 119.79 92.8836 119.792 91.8755 120.229C92.6132 119.932 93.2863 119.623 93.9869 119.299C93.9506 119.39 93.9168 119.48 93.8799 119.57C93.8804 119.57 93.8809 119.57 93.8813 119.57C94.1241 119.483 94.3695 119.394 94.6112 119.304C94.6515 119.077 94.6886 118.852 94.7263 118.625ZM53.1914 12.62C52.4026 13.0299 52.1546 13.1987 52.6152 13.2661C52.6161 13.2659 52.617 13.2657 52.6178 13.2655C52.8921 13.0666 53.1697 12.8695 53.4479 12.6752C53.3633 12.6564 53.2787 12.6376 53.1914 12.62ZM45.3442 117.908C47.3702 118.015 43.4317 116.548 44.0013 117.155C44.0251 117.187 45.2277 117.75 45.3442 117.908ZM14.8458 61.3224C14.8846 60.8686 14.9294 60.4131 14.9796 59.9557C14.9855 59.9021 14.9915 59.8484 14.9975 59.7947C14.945 59.8421 14.8926 59.8903 14.8402 59.9386C14.7769 59.997 14.7138 60.0555 14.6507 60.1135C14.7113 60.5188 14.7766 60.9224 14.8458 61.3224ZM126.16 49.5516C126.218 48.9679 125.845 47.6135 125.374 47.0628C125.47 47.4076 125.563 47.7534 125.652 48.0999C125.404 47.4722 125.146 46.8581 124.876 46.2366C124.566 46.3181 125.026 46.9744 125.331 48.1114C125.381 48.2897 125.374 49.5051 125.773 49.7961C125.858 49.8544 125.517 48.6683 125.95 49.4297C125.849 49.0676 125.744 48.7615 125.637 48.4226C125.7 48.3737 125.763 48.325 125.825 48.2736C125.943 48.7003 126.053 49.1234 126.16 49.5516ZM24.1902 34.5519C23.4592 35.5947 23.4883 35.8035 23.5319 36.1451C23.8294 35.6355 24.1352 35.1309 24.4482 34.6312C24.3617 34.6058 24.2772 34.5774 24.1902 34.5519ZM121.713 39.0482C121.404 38.419 121.391 38.7706 121.222 38.5432C120.582 37.6873 120.32 37.001 119.689 36.1596C119.756 36.1993 119.818 36.2355 119.883 36.2739C119.882 36.2732 119.882 36.2724 119.881 36.2716C117.251 32.0496 118.41 34.428 120.043 36.8935C120.022 36.9882 119.999 37.0804 119.978 37.1745C120.771 38.2381 121.458 39.2561 121.713 39.0482ZM31.8433 108.347C31.8557 108.417 31.3179 108.28 32.0638 108.812C32.8563 109.015 31.8641 108.355 31.7599 108.04C31.9621 108.183 32.1678 108.328 32.3693 108.465C31.3901 107.383 31.1828 107.289 31.3587 107.87C31.3719 107.911 31.8311 108.278 31.8433 108.347ZM39.2142 114.543C39.701 114.179 38.0453 113.347 37.9956 113.524C38.1995 113.679 38.4172 113.713 38.6139 113.904C38.8131 114.095 38.7928 114.248 39.2142 114.543ZM14.1199 69.9252C14.1194 69.979 13.9076 70.5377 14.0953 70.4721C14.5001 69.7757 14.1655 68.4371 14.0169 68.6765C14.0386 69.1272 14.1181 69.4241 14.1193 69.9252C14.1195 69.9252 14.1197 69.9252 14.1199 69.9252ZM128.242 57.7202C128.257 57.6915 128.122 56.3335 127.995 56.1757C127.868 56.0521 127.746 56.0022 127.621 55.9162C127.868 56.6336 128.035 58.1363 128.241 57.7175C128.241 57.7184 128.242 57.7193 128.242 57.7202Z" fill="white"/>
</svg>
