<svg width="137" height="137" viewBox="0 0 137 137" fill="none" xmlns="http://www.w3.org/2000/svg">
<circle cx="68.3441" cy="68.3441" r="61.3273" transform="rotate(7 68.3441 68.3441)" fill="black"/>
<path d="M118.853 46.3548C118.949 47.1506 118.069 44.7316 118.435 46.4305C118.275 46.1129 118.111 45.7956 117.945 45.482C118.022 45.3491 118.097 45.2135 118.173 45.0794C118.405 45.5005 118.632 45.9244 118.854 46.3545C118.853 46.3546 118.853 46.3547 118.853 46.3548ZM120.55 46.3687C120.051 46.0807 119.406 44.8162 119.703 46.3561C119.862 46.4216 120.023 46.4909 120.182 46.5583C120.297 47.0905 120.405 47.6247 120.504 48.1563C120.615 48.3192 120.725 48.4828 120.833 48.6476C120.718 48.9499 120.598 49.2484 120.477 49.5469C120.435 49.3337 120.392 49.1179 120.348 48.9051C119.896 48.165 119.586 47.4802 119.113 46.4313C119.106 46.5438 119.098 46.6561 119.09 46.7683C118.947 46.1981 118.795 45.6296 118.634 45.0649C118.918 45.4902 119.228 45.9725 119.482 46.3767C119.501 45.551 118.784 44.4051 118.42 43.8138C117.925 43.0072 118.159 43.1291 117.785 42.5348C117.725 42.4401 117.609 42.4852 117.506 42.2906C116.996 41.3042 115.971 39.4015 116.851 40.3565C117.719 41.9745 118.635 43.2757 119.3 44.9638C119.407 44.3911 119.915 45.2075 120.55 46.3687ZM98.4484 21.3306C99.004 21.4932 99.9094 22.1801 100.464 22.7158C100.464 22.7163 100.465 22.7168 100.466 22.7173C100.589 22.8351 100.771 23.2314 100.331 22.9063C99.6156 22.3806 99.4444 21.8588 98.9255 21.7904C98.7743 21.6387 98.6106 21.4858 98.4484 21.3306ZM96.7865 20.3226C96.356 19.9714 96.7019 19.8746 97.2585 20.2913C97.2586 20.2911 97.2587 20.2909 97.2588 20.2908C97.4895 20.4662 96.9034 20.3407 97.8885 20.7088C97.9825 20.9561 98.0793 21.1894 98.1696 21.431C97.9574 21.2981 97.762 21.1796 97.5378 21.0425C97.827 20.9132 97.2157 20.6737 96.7865 20.3226ZM116.26 39.6205C116.012 39.6658 116.2 39.9771 116.36 40.5919C116.081 40.0843 115.795 39.5798 115.501 39.083C115.756 39.2601 116.007 39.4378 116.26 39.6205ZM121.64 52.1827C121.64 52.1836 121.64 52.1844 121.64 52.1853C121.73 52.3588 121.818 52.5327 121.904 52.7044C121.853 52.8371 121.802 52.968 121.751 53.0999C122.004 53.7276 122.247 54.366 122.479 55.0077C122.211 54.9852 121.968 53.7979 121.616 53.206C121.432 52.2363 121.431 51.7349 121.623 51.61C121.629 51.8003 121.634 51.9903 121.64 52.1827ZM12.6495 72.209C12.7395 72.4331 12.8307 72.653 12.9233 72.8747C12.9271 72.5683 12.9257 72.2635 12.9396 71.9554C12.5713 71.1802 12.837 71.0848 12.7683 70.0359C12.6206 66.8278 12.1465 67.6404 12.9541 64.7689C12.8257 67.0932 13.1953 66.211 13.4352 67.6069C13.2387 67.8992 12.8076 66.5032 12.711 67.4483C12.9134 69.077 13.1627 70.6312 13.4482 72.4014C13.4771 72.3462 13.5063 72.2914 13.5355 72.2364C13.4904 71.9535 13.448 71.6776 13.4075 71.396C13.5182 71.6951 13.6299 71.9835 13.747 72.2864C13.5095 71.9119 13.7104 72.9004 13.4657 72.7887C13.3557 72.7391 13.1711 72.3082 13.051 72.0522C13.0511 72.7366 13.0701 73.4369 13.0981 74.1263C12.9737 73.782 12.8525 73.4355 12.7349 73.0889C12.7037 72.7973 12.6757 72.5073 12.649 72.2145C12.6492 72.2127 12.6493 72.2109 12.6495 72.209ZM118.616 90.8107C118.482 91.6891 117.816 93.1032 117.186 93.6919C117.692 92.743 118.167 91.7869 118.616 90.8107ZM121.776 51.4955C121.765 51.6006 121.753 51.7026 121.741 51.8074C121.545 51.4183 121.345 51.0302 121.142 50.6482C121.23 50.5337 121.318 50.417 121.405 50.2995C121.533 50.6955 121.657 51.0961 121.776 51.4955ZM107.675 28.2944C107.902 28.5107 107.919 28.533 108.18 28.8232C108.18 28.8229 108.18 28.8225 108.18 28.8221C108.286 28.9345 109.125 29.9203 108.958 29.8794C108.519 29.412 108.046 28.9204 107.582 28.4577C107.611 28.4008 107.65 28.3552 107.675 28.2944ZM112.614 34.0093C112.614 34.0101 112.614 34.0109 112.615 34.0118C112.745 34.206 112.856 34.3997 112.995 34.5961C112.36 33.9896 112.482 33.7239 111.936 33.1496C111.386 32.5783 110.968 32.2995 110.805 31.5587C111.007 31.7137 111.239 31.8704 111.451 32.0291C112.057 32.9883 112.344 33.1414 113.007 33.7745C112.876 33.8527 112.745 33.9309 112.614 34.0093ZM14.0196 57.9719C13.8833 57.7288 14.0965 57.5222 14.1031 57.4984C14.1032 57.4989 14.1033 57.4994 14.1034 57.4998C14.3033 55.5993 14.1424 57.7561 14.5255 56.0077C14.5134 56.2768 14.5065 56.5422 14.4992 56.8092C14.3371 57.1925 14.1655 57.5901 14.0196 57.9719ZM53.1084 14.312C53.1395 14.3563 53.174 14.3997 53.2051 14.444C52.1688 14.7377 51.9721 15.0142 51.069 15.1204C51.7412 14.8376 52.421 14.568 53.1082 14.3114C53.1083 14.3116 53.1083 14.3118 53.1084 14.312ZM103.888 24.3746C104.878 25.0604 105.582 25.6154 106.327 26.5091C106.328 26.5098 106.328 26.5106 106.329 26.5113C106.371 26.5631 106.062 26.4252 106.108 26.5037C106.294 26.6519 106.49 26.8003 106.679 26.9505C106.644 27.0353 106.607 27.119 106.572 27.2033C106.1 26.7249 105.617 26.2543 105.124 25.7906C105.166 25.8941 105.21 25.9989 105.252 26.1025C104.805 25.7423 104.357 25.3921 103.901 25.0469C104.144 25.0656 104.387 25.0857 104.629 25.106C104.385 24.8601 104.137 24.6168 103.888 24.3746ZM36.6793 21.5651C36.8683 21.5019 36.6312 21.7806 36.9022 21.6512C37.1721 21.5212 37.5664 21.1296 37.5486 21.3321C37.2301 21.5721 36.8998 21.8293 36.5817 22.081C37.8063 21.5614 38.758 20.6521 38.9648 20.9372C37.8678 21.5306 37.0438 22.1457 36.1287 22.9315C36.0008 22.6762 36.8507 21.7745 36.0751 22.0057C36.2736 21.8592 36.4823 21.7054 36.6775 21.5672C36.6781 21.5665 36.6787 21.5658 36.6793 21.5651ZM127.624 68.8066C127.592 69.5826 127.617 71.4001 127.366 72.3688C127.308 72.6094 126.715 73.3643 126.647 73.3519C126.421 73.3042 126.483 72.3317 126.232 73.3563C126.266 73.0066 126.289 72.667 126.314 72.3206C126.154 72.3697 125.995 72.4182 125.837 72.4639C125.824 72.8841 125.806 73.3059 125.784 73.7282C125.731 73.7433 125.678 73.7583 125.625 73.7733C125.778 72.2691 125.491 73.1365 125.379 72.345C125.225 73.0495 125.059 73.7575 124.879 74.4557C124.941 74.0476 125.003 73.5658 125.052 73.2067C124.797 73.1326 124.768 73.9961 124.7 74.1379C124.354 74.9283 124.903 70.7501 124.499 70.3812C124.422 71.0484 124.332 71.7469 124.23 72.42C124.201 72.2212 124.17 72.0205 124.138 71.823C124.521 70.2987 124.683 68.5629 124.823 66.7431C124.81 66.5794 124.796 66.4156 124.782 66.2549C124.665 66.3053 124.547 66.3528 124.43 66.4026C124.411 66.1572 124.391 65.9119 124.369 65.6648C124.778 66.3803 124.757 65.3733 124.922 64.1376C125.099 64.7797 125.044 65.5913 125.297 65.5268C125.03 63.2891 125.047 60.6483 124.473 58.5175C124.329 57.9913 124.015 58.0517 123.808 56.8006C123.851 56.8359 123.917 56.8307 123.969 56.8491C123.386 54.7266 122.982 53.4698 122.486 51.2425C122.411 51.4028 122.334 51.5605 122.258 51.7195C122.451 52.1644 122.639 52.6104 122.82 53.0576C122.712 53.4249 122.517 52.9768 122.865 54.3648C123.138 55.5063 123.06 54.8066 123.189 55.1044C123.363 55.5083 123.291 55.9118 123.471 56.3494C123.608 56.6892 123.694 56.2737 123.831 57.2079C123.555 56.8734 123.269 56.5381 122.985 56.2125C122.985 55.9806 122.984 55.7501 122.981 55.5178C123.085 55.7302 123.187 55.94 123.289 56.1546C123.024 55.3798 122.76 54.6551 122.453 53.8691C122.813 54.0593 122.49 53.2454 122.329 52.8028C122.079 52.1128 122.448 52.6608 122.284 52.2075C122.116 51.7528 121.749 51.3224 121.53 50.4836C121.801 50.885 121.722 50.2456 121.877 50.3235C122.034 50.4013 122.34 51.2775 122.2 50.3874C121.567 48.7955 121.701 50.7014 121.264 49.6384C120.73 48.3722 121.322 47.7976 121.625 48.1285C121.863 48.3892 122.212 49.4661 122.436 49.7388C122.006 47.7405 121.537 47.8909 121.337 47.6002C120.578 46.5558 121.71 47.0116 120.849 45.7525C121.012 45.7148 121.157 45.6788 121.314 45.6441C121.186 45.4167 121.083 45.274 120.937 44.9969C121.004 45.9684 120.722 45.2698 120.568 44.9185C120.323 44.3646 120.556 45.2835 120.454 45.1527C120.184 44.7996 119.949 44.1609 119.991 44.5989C119.975 44.4016 119.95 44.1887 119.929 43.9862C119.56 43.3715 118.219 42.2033 119.027 43.546C118.734 43.5245 118.626 43.019 118.484 42.6499C118.342 42.2812 118.2 42.3617 118.069 42.041C117.536 40.7687 118.199 41.4315 118.496 41.5272C117.495 39.9851 118.282 41.593 116.895 39.3591C116.615 39.2309 117.058 40.3685 116.464 39.5527C116.635 39.2391 116.459 38.4796 115.759 37.2001C115.623 37.1198 115.486 37.041 115.35 36.9623C115.149 36.1475 115.625 36.3075 114.496 35.3006C115.478 35.5783 114.84 35.3648 114.274 34.1373C114.157 33.8879 114.635 34.3123 114.467 33.9672C114.39 33.8104 114.062 33.5367 113.871 33.1564C113.78 32.9705 113.39 32.0569 112.877 31.6167C112.937 32.1903 111.943 31.3896 112.413 32.3835C111.223 30.8128 110.18 29.8787 111.951 31.2815C111.701 30.8346 111.444 30.3901 111.18 29.9485C110.891 29.7342 110.598 29.5203 110.304 29.3101C110.457 29.0982 110.556 29.0788 109.563 28.1046C110.025 28.4962 110.481 28.8942 110.934 29.3035C110.987 29.2837 111.084 29.3102 111.108 29.2612C110.542 28.7655 109.058 27.2856 108.642 26.9852C108.232 26.6781 108.915 27.3794 108.764 27.3244C107.516 26.8645 107.868 26.6464 107.17 26.1193C106.761 25.8136 107.605 26.6864 107.39 26.5181C106.598 25.8931 106.447 25.3643 105.774 24.7703C105.905 25.1046 106.029 25.4394 106.146 25.77C105.459 25.1392 104.669 24.4649 103.963 23.9611C103.685 23.7634 103.807 24.0211 103.759 23.9926C103.52 23.85 102.6 23.2165 102.505 23.1476C101.797 22.6122 101.878 22.4598 101.179 21.9451C101.465 22.1312 101.731 22.3092 102.007 22.4962C102.294 22.3636 102.584 22.2346 102.874 22.1053C102.198 21.5699 101.508 21.0492 100.806 20.5439C101.276 20.9777 101.738 21.4191 102.191 21.8672C101.264 21.4636 100.335 21.0911 99.3986 20.7435C99.0504 20.3497 98.6989 19.9619 98.3382 19.5765C97.1365 18.8835 97.0915 19.5172 96.7715 18.7624C96.3982 18.5948 96.0238 18.4317 95.6477 18.2721C95.7322 18.2388 95.8164 18.2052 95.9011 18.1723C95.4499 17.9721 94.9963 17.7778 94.5397 17.5901C94.885 18.0476 95.2051 18.5146 95.5296 18.9687C94.6695 18.5572 94.7483 18.369 94.6471 18.2547C94.376 17.9534 93.6215 17.7791 93.4093 17.5322C93.3378 17.446 94.2392 17.745 94.022 17.4571C93.9837 17.4007 93.1041 16.3076 92.3 16.0917C92.2697 16.1945 92.2724 16.339 92.254 16.4575C91.2402 16.0621 90.9464 15.3436 91.1403 15.256C90.5602 15.1231 89.7626 14.8112 89.588 14.9256C89.3077 14.8188 89.0333 14.7165 88.7533 14.6149C89.1925 14.3374 87.9938 13.9705 87.7967 14.2812C88.2758 14.4622 88.7517 14.65 89.2236 14.8433C88.7016 15.1195 90.0704 15.8826 87.1888 14.408C86.6813 13.9896 88.2115 14.8024 87.7948 14.475C87.0039 14.0859 86.2014 13.9056 85.455 13.5091C84.5204 13.0251 85.7982 13.1832 83.4007 12.7748C88.331 14.8778 82.6082 12.8823 80.1264 12.6336C79.6495 11.9754 77.9892 11.4044 75.5719 11.1928C75.2587 11.1655 74.9341 11.1445 74.5991 11.1304C74.7665 11.2502 75.1543 11.3037 75.5518 11.3561C75.8295 11.3926 76.1109 11.4282 76.323 11.4808C76.8377 11.6101 76.2596 11.6314 76.896 11.8047C77.532 11.9758 78.8767 12.3177 79.5006 12.5689C78.9305 12.5407 76.1935 12.3347 78.0244 12.3515C77.0486 12.0589 76.4573 11.8419 75.5154 11.6524C75.1974 11.5892 74.84 11.5304 74.4153 11.4784C73.8828 11.6993 73.9078 11.8531 72.2759 11.7444C73.2767 11.4358 71.4167 11.0532 71.8511 10.6943C73.0282 10.8581 72.345 11.1916 73.0043 11.4202C73.071 11.4411 74.1627 11.4426 74.4153 11.4784C73.3537 11.0323 72.9744 10.8831 73.692 10.5392C72.9044 10.5048 72.4181 10.4251 72.3326 10.6114C72.1736 10.5175 72.013 10.4241 71.8553 10.3317C71.5975 10.3192 71.3654 10.3151 71.093 10.3016C71.455 10.6081 70.7357 10.395 70.2176 10.5127C69.6998 10.6328 70.3865 10.8688 68.974 10.8538C69.4438 10.9249 69.8729 10.9914 70.3205 11.0693C69.4192 11.116 68.5034 11.1848 67.6075 11.2749C68.2429 11.4358 69.6069 11.7129 69.5641 11.9478C69.152 11.8474 67.7463 12.0075 67.5952 12.0208C67.003 12.0566 67.3226 11.9035 67.2777 11.9007C66.3404 11.8509 65.569 11.9444 65.2009 11.7439C64.5034 11.8877 63.9707 11.8714 63.2236 11.9484C62.8133 11.9919 62.9101 12.1469 62.6677 12.1412C61.0599 12.1282 62.5311 11.6915 59.535 12.5512C59.9216 12.6027 60.3025 12.6615 60.6868 12.722C60.3498 12.8141 60.0164 12.9093 59.6828 13.0075C59.4516 13.0244 59.2225 13.0423 58.9916 13.0622C58.9535 12.8183 58.9163 12.5737 58.8783 12.3298C58.624 12.361 58.366 12.3951 58.1104 12.4303C58.5412 12.3232 58.9715 12.2217 59.4032 12.1252C59.4359 12.0757 59.466 12.0267 59.4988 11.9773C58.8396 12.0174 58.18 12.0687 57.5178 12.1325C57.5223 12.2191 57.527 12.3064 57.5316 12.393C56.0565 12.5781 56.0004 12.518 54.6894 13.0889C53.6366 13.3566 52.8897 13.9509 52.3408 14.2773C52.1135 14.2967 51.8857 14.317 51.6559 14.3401C51.5413 14.4517 51.4261 14.5638 51.313 14.6762C51.0137 14.67 50.7102 14.6674 50.4086 14.6672C50.3324 14.9342 50.2798 15.0183 51.3486 14.7461C51.0771 15.1219 49.214 15.6466 48.4491 15.8558C47.8657 16.0092 48.3984 15.5473 48.3186 15.5484C48.0482 15.5479 47.1585 16.001 46.9618 16.0692C46.1236 16.3521 45.5646 16.6165 44.8201 16.9093C44.6752 16.9656 44.219 17.0205 44.1836 17.0329C43.9133 17.1345 43.2456 17.3887 43.1729 17.4246C39.4403 19.2937 43.6446 17.7159 40.2596 19.5579C40.4021 19.5721 40.536 19.591 40.6758 19.6075C40.4284 19.7582 40.1795 19.912 39.9346 20.0664C39.5845 20.1969 39.8952 19.8539 39.3285 20.3259C39.3137 20.2121 39.2992 20.098 39.2873 19.9831C39.0454 20.199 38.8153 20.41 38.5714 20.6335C37.9408 20.5961 36.3392 21.5909 36.2067 21.1708C36.1578 21.0239 37.1907 20.1399 36.5131 20.4141C36.0162 20.7181 36.4389 20.6378 36.2492 20.7797C34.8875 21.813 34.8334 21.5726 34.3095 22.0417C34.2842 22.191 34.2562 22.3453 34.2308 22.4969C34.0037 22.632 33.7767 22.7693 33.5491 22.9095C33.5441 23.0023 33.5373 23.0967 33.5328 23.1894C33.7292 23.0397 33.9512 22.8725 34.1335 22.738C34.0346 23.132 31.8891 25.0579 32.5896 24.1804C32.8739 23.8202 33.5432 23.3348 32.9359 23.4133C32.3591 23.9386 31.7145 24.5442 31.1327 25.1204C31.068 25.0857 31.0045 25.0498 30.9397 25.0152C30.1451 25.7853 31.0782 25.3189 31.1737 25.4322C30.989 25.602 30.803 25.7744 30.6205 25.9467C30.497 25.9692 30.3752 25.9863 30.2492 26.0147C30.3141 26.1004 30.3759 26.3735 29.7718 26.8209C29.3837 27.1107 29.7443 26.3905 29.1088 27.0571C29.2749 27.128 29.6474 27.0396 28.9614 27.793C28.7678 27.742 28.5566 27.7297 28.372 27.658C27.5962 28.684 27.0008 28.9215 26.1481 30.1715C25.6065 30.9662 25.1242 32.2315 24.2219 32.2975C23.7763 32.8328 24.0456 32.7623 23.9486 32.947C23.4967 33.8183 22.8215 34.2135 22.6989 34.3504C21.9268 35.2192 21.7277 35.7092 21.0832 36.4141C21.2146 36.4391 21.3277 36.4802 21.4508 36.5125C21.7719 35.694 22.0225 35.3343 22.7598 34.3777C22.5419 34.7209 22.3295 35.0649 22.1199 35.4114C22.24 35.4142 22.3597 35.4179 22.4778 35.4231C24.3426 32.1812 24.3046 33.256 22.6276 35.849C22.3236 35.9626 22.0144 36.088 21.7114 36.206C20.954 37.8644 20.3026 38.4457 19.2516 40.1968C19.1267 40.4048 18.8016 41.2322 18.6333 41.5719C18.6368 41.5667 18.6404 41.5614 18.6439 41.5561C18.691 41.8462 18.9096 41.5999 19.0661 41.6394C18.9891 41.8292 18.9124 42.0205 18.8381 42.21C18.5274 42.5613 18.5073 42.3729 18.1404 43.1922C18.3001 43.1348 18.4592 43.0799 18.6189 43.0244C18.1951 43.9023 17.808 44.4354 17.4957 45.2897C17.5154 45.1316 17.5348 44.9752 17.5559 44.817C16.6614 46.5927 16.6371 44.8654 16.3792 46.3975C16.2865 46.4641 16.1942 46.5286 16.1016 46.596C16.3197 46.0076 16.5478 45.4238 16.7835 44.8472C16.7095 44.8009 16.6362 44.7539 16.5611 44.7098C16.3154 45.3354 16.0799 45.9696 15.8559 46.6055C15.9831 46.1269 16.1175 45.6473 16.2572 45.1723C15.913 45.8736 15.5804 46.5895 15.266 47.3036C15.8579 46.6432 15.5118 47.6591 15.8783 47.5815C15.1568 48.7702 14.4567 49.6911 14.0687 51.8129C13.996 52.2358 14.2632 52.0666 13.6968 53.1576C14.1049 52.9659 13.8982 54.4576 14.2706 54.3486C14.352 53.9428 14.4475 53.5253 14.531 53.134C14.3042 53.5444 13.9756 53.5415 14.0633 52.8421C14.1733 51.9514 14.7674 50.7606 14.416 50.7101C14.5374 50.3736 14.6477 50.0605 14.7692 49.7362C14.8077 49.8989 14.8482 50.0585 14.8888 50.2179C15.0584 49.2447 15.3127 48.6667 15.6793 48.2998C15.3278 49.4188 15.0149 50.5359 14.7343 51.6709C14.7971 51.5101 14.8613 51.3475 14.925 51.1874C14.8913 52.0962 15.3401 51.2875 14.9473 52.8697C14.8506 52.8331 14.7533 52.7983 14.6561 52.7614C14.7585 53.4053 14.376 54.9847 14.8061 54.5545C14.5981 55.0075 14.516 55.0958 14.6222 55.4006C14.1087 56.5988 13.6654 57.3754 13.3934 56.8485C13.3588 57.3369 13.3299 57.8305 13.3092 58.3114C13.4529 58.0526 13.5981 57.7949 13.7459 57.5367C13.5896 58.3634 13.4525 59.1895 13.3337 60.0213C13.0264 60.0599 13.4813 58.4073 13.1488 58.8525C13.081 58.9415 13.1252 59.4074 13.0793 59.5212C12.585 60.7263 13.0927 58.7964 12.798 59.129C12.5549 60.4335 12.3913 60.0589 12.3114 60.6341C12.2797 60.8778 12.2637 61.2937 12.2902 62.0739C12.1991 62.1341 12.1059 62.1996 12.016 62.2553C11.9294 63.1589 12.1281 63.0962 12.1098 63.8766C12.0998 64.364 11.7314 64.9609 11.9407 65.5081C11.9829 65.6037 12.4126 64.7242 12.346 66.6068C12.3149 68.0764 12.0322 67.4634 11.9328 68.2616C11.8305 69.0614 12.3128 70.8694 11.9002 71.4323C11.9322 71.0107 11.9351 70.4763 11.9654 70.0092C11.8685 69.8239 11.7737 69.6425 11.6792 69.4577C11.8272 70.5227 11.7646 71.6272 12.0365 72.3238C11.8267 73.7749 12.3422 75.3142 12.6487 74.8398C12.5382 74.3874 12.4413 74.9073 12.4646 74.2553C12.5416 74.1797 12.618 74.1008 12.6953 74.0257C12.8099 75.1096 12.9306 75.8672 12.6005 75.4065C12.6179 75.5766 12.636 75.745 12.6549 75.9148C12.8457 75.9173 13.0367 75.916 13.2275 75.9179C13.2784 76.1143 13.3304 76.311 13.3835 76.5063C13.3783 76.7339 13.3742 76.9621 13.3717 77.1924C13.0297 76.9439 12.917 76.4251 13.0662 78.1624C13.1683 78.1481 13.2705 78.1362 13.3726 78.1219C13.5268 79.5666 13.2817 79.6558 13.7268 81.4322C13.036 80.1508 13.5081 79.2625 12.8056 79.4176C12.778 79.0614 12.7539 78.7021 12.7332 78.3456C12.6208 78.3124 12.5085 78.2794 12.3966 78.2481C12.7883 80.1337 14.2432 82.9925 14.2015 84.3292C14.2997 84.4597 14.3917 84.5924 14.4955 84.7228C14.6166 85.9917 15.3731 86.2979 15.4803 87.5962C15.4956 87.7305 14.8406 87.6814 15.4786 89.2147C15.5324 89.1481 15.6413 89.0806 15.7164 89.014C15.8083 89.3623 15.9008 89.709 15.9975 90.054C16.0865 90.0859 16.1768 90.1204 16.2663 90.1515C16.0497 89.5829 15.8432 89.0121 15.6448 88.4367C15.8526 88.8979 16.0675 89.3586 16.287 89.8128C16.1343 89.1634 16.0266 88.8894 16.3442 89.1852C16.5718 89.7057 16.8079 90.2225 17.0505 90.7348C17.1169 90.7689 17.1837 90.8024 17.2502 90.8363C17.263 90.5292 17.2749 90.2227 17.2951 89.9171C17.7777 91.3046 18.332 92.4514 18.6123 93.5795C18.6622 93.7709 18.1798 93.2533 18.9428 94.3385C18.8682 94.4018 18.8168 94.4699 18.7499 94.5322C19.7633 95.82 19.9553 96.3097 20.6845 97.8434C20.2588 96.8226 20.674 97.7116 20.9053 97.893C21.0629 98.0177 20.6588 97.3968 20.7633 97.4304C20.8661 97.4667 21.6152 98.123 21.2059 97.4152C19.6624 96.0065 19.9616 95.1914 18.5307 93.0396C18.777 93.3599 19.0279 93.6795 19.2802 93.993C19.2363 93.8052 19.1984 93.6367 19.1522 93.434C19.7247 94.7494 19.4638 94.1011 19.8224 94.5734C20.1827 95.045 20.7814 95.9293 21.1757 96.5235C21.2999 96.7109 21.0649 96.5767 21.3226 97.0147C21.4972 97.3147 22.1689 98.004 22.1033 98.3088C22.0631 98.511 20.8743 97.4539 22.0534 99.2194C22.1594 99.6313 21.6243 98.7622 21.5995 98.7524C21.3522 98.6918 21.9772 99.8565 22.4384 100.274C22.4757 100.307 22.3088 99.8406 22.6513 100.234C23.4675 101.163 23.7762 101.814 24.1073 102.572C24.3531 102.492 25.2123 103.125 25.9795 104.156C26.0749 104.161 26.1687 104.163 26.2643 104.167C26.1067 104.04 25.95 103.913 25.7934 103.784C25.6865 103.59 25.5635 103.393 25.4683 103.198C26.3378 104.15 26.7156 104.061 27.2105 104.439C28.9215 105.706 27.4235 105.369 27.0509 105.186C26.9121 104.94 26.7868 104.696 26.6563 104.45C26.6128 104.528 26.5692 104.607 26.5239 104.684C28.6548 107.034 26.434 105.416 27.4245 106.713C28.0156 106.732 28.8557 107.558 29.7789 108.791C29.9026 108.905 30.0262 109.02 30.1513 109.132C30.213 109.107 30.2755 109.039 30.3361 109.04C31.7252 110.218 31.5731 110.897 31.6641 111.061C32.0821 111.769 32.7911 111.864 32.9696 112.003C33.7291 112.593 33.8491 112.894 34.626 113.387C35.4648 113.911 34.997 113.409 35.305 113.494C35.5512 113.563 36.189 113.997 36.5045 114.101C36.3572 114.091 36.1989 114.072 36.0514 114.062C36.8229 114.729 37.4633 115.28 38.4298 115.917C39.8245 116.132 40.3162 117.487 40.3083 116.604C39.3899 116.01 38.9196 115.612 38.5337 115.138C39.1471 115.498 39.7679 115.847 40.3956 116.183C40.5333 116.36 40.6201 116.504 40.7917 116.7C41.3403 116.811 42.3884 117.463 42.8462 117.637C44.982 118.433 44.4697 117.849 46.1443 119.161C44.7655 118.603 44.6556 118.825 43.3395 118.14C43.5457 118.442 44.245 118.739 43.7108 118.716C45.0371 119.295 44.6978 118.917 45.2762 119C45.7737 119.069 46.6637 119.443 46.6876 119.247C46.738 119.381 46.7695 119.503 46.8208 119.636C47.6801 119.995 48.5446 120.332 49.4189 120.646C49.0094 120.613 48.5999 120.576 48.1904 120.534C48.456 120.68 48.7238 120.824 48.9929 120.966C51.2488 121.481 54.9148 123.083 54.5178 122.096C55.5895 122.341 55.7033 122.47 56.2523 122.759C56.3305 122.711 56.4045 122.673 56.484 122.617C57.1622 122.834 57.744 122.705 58.3478 122.881C58.9539 123.056 59.0693 123.303 59.2224 122.942C59.6011 123.117 59.9841 123.27 60.3689 123.43C60.6228 123.38 60.8757 123.329 61.126 123.276C61.3461 123.332 61.5673 123.388 61.7893 123.443C61.9415 123.48 62.0937 123.517 62.2459 123.553C62.4697 123.399 63.9477 123.627 64.6081 123.547C65.2159 123.784 65.1657 124.414 66.6545 124.365C66.6218 124.21 66.59 124.055 66.558 123.9C66.8933 123.945 67.229 123.987 67.5675 124.026C67.5869 124.077 67.6036 124.127 67.6231 124.178C67.4493 124.159 67.2809 124.139 67.1088 124.118C67.256 124.208 67.4004 124.296 67.5465 124.384C68.0703 124.269 68.5901 124.146 69.1071 124.017C68.4101 123.927 67.7053 123.823 67.0198 123.707C67.8882 123.619 68.5018 123.736 69.256 123.604C69.9156 123.808 69.6774 123.933 69.4104 124.167C69.6568 124.145 69.9054 124.121 70.1506 124.095C69.9932 124.326 70.4169 124.466 68.9669 124.461C69.0669 124.527 69.1692 124.588 69.2673 124.656C69.5057 124.643 69.6612 124.696 69.922 124.666C70.6316 124.582 71.1655 124.151 71.109 124.012C71.0803 123.94 70.3869 124.107 70.4114 124C70.4761 123.741 72.0634 123.809 69.7686 123.618C70.5198 123.438 70.695 123.556 71.5346 123.564C71.4648 123.482 71.3972 123.4 71.3305 123.318C71.7189 123.339 72.1078 123.356 72.4961 123.369C71.9804 123.848 74.8758 123.798 72.3058 124.37C73.0758 124.341 73.8487 124.296 74.6183 124.237C74.4649 124.298 74.3109 124.358 74.1564 124.418C73.8062 124.428 73.4559 124.435 73.1071 124.438C73.522 124.489 73.9423 124.534 74.3607 124.575C75.3204 124.375 75.6768 124.168 76.0899 123.92C74.9593 123.921 75.3475 124.067 74.4785 124.199C74.4965 124.074 74.4449 123.966 74.5077 123.83C74.9843 124.041 76.4238 123.675 76.7597 123.609C77.7824 123.419 77.0135 123.787 77.703 123.685C78.3935 123.58 79.173 123.286 79.7816 123.417C79.7444 123.283 79.6717 123.151 79.6074 123.035C80.6581 122.777 80.4793 122.975 80.5938 122.974C82.4178 122.927 83.303 122.403 85.2506 121.779C84.9893 121.815 84.7264 121.853 84.4631 121.888C85.8554 121.161 84.8873 121.562 83.5797 121.825C84.7902 121.519 85.4012 121.063 86.2076 120.719C87.0162 120.379 88.47 119.982 89.0177 119.871C87.903 120.48 86.5782 120.836 85.256 121.291C85.45 121.379 85.634 121.446 85.8388 121.544C86.5637 121.001 87.0915 121.024 87.3729 120.968C88.195 120.798 88.0807 120.566 88.6467 120.647C88.5944 120.566 88.5525 120.497 88.5025 120.422C90.1145 119.862 91.8799 119.266 92.7349 118.472C92.9234 118.632 93.0866 118.796 93.2928 118.953C93.8764 118.483 94.5098 118.358 95.0378 118.037C95.5608 117.716 95.2703 117.665 95.8657 117.261C95.9755 117.186 96.2732 117.152 96.5159 116.918C96.7662 116.683 97.4838 115.529 97.8897 115.924C98.4151 115.608 98.9164 115.318 99.4254 114.998C98.9513 115.343 98.4717 115.68 97.9888 116.009C98.4851 115.864 98.9777 115.713 99.4729 115.554C99.4625 115.419 99.4507 115.282 99.4383 115.15C100.486 114.296 101.397 113.9 102.465 113.053C102.641 112.911 102.075 113.045 102.912 112.488C103.741 111.925 104.614 111.808 105.812 110.557C105.873 110.493 106.035 109.909 106.646 109.672C106.786 109.617 106.399 110.069 106.685 109.906C106.975 109.746 108.068 108.804 108.261 108.842C108.21 108.81 108.103 108.829 108.03 108.816C108.189 108.626 108.348 108.433 108.507 108.24C108.595 108.297 108.685 108.354 108.773 108.41C109.616 107.236 109.845 106.458 111.328 104.984C110.827 105.327 110.323 105.66 109.818 105.981C109.786 106.169 109.753 106.359 109.72 106.545C109.028 107.212 108.318 107.863 107.595 108.492C107.563 108.687 107.531 108.881 107.497 109.076C107.3 109.24 107.103 109.4 106.904 109.561C106.893 109.454 106.882 109.347 106.873 109.239C106.516 109.594 106.154 109.946 105.789 110.291C106.226 109.248 107.925 108.405 107.534 108.183C107.743 108.075 107.951 107.966 108.159 107.856C108.085 107.638 108.455 107.363 109.043 106.807C108.841 106.869 108.626 106.943 108.434 106.991C109.09 106.539 110.033 105.519 110.612 104.948C110.867 104.697 110.742 105.063 110.826 104.996C111.261 104.649 111.737 103.687 111.89 103.532C112.812 102.613 113.735 102.243 114.321 100.896C113.379 102.031 113.882 101.408 113.423 101.715C113.279 101.812 112.029 103.231 113.515 101.391C113.718 101.203 116.44 97.8421 115.858 99.1575C116.179 98.5267 116.395 98.0119 116.658 97.4222C118.071 96.445 117.226 96.5705 116.687 96.7734C116.818 96.5545 116.94 96.3442 117.074 96.1176C117.119 96.7984 118.576 94.3274 118.833 93.3647C118.925 93.0472 118.403 93.7985 118.695 93.106C118.881 92.8017 119.091 92.4556 119.282 92.1295C118.83 92.5154 119.214 91.5136 118.987 91.4236C119.472 90.9037 120.104 90.6078 120.173 91.0565C120.319 90.4952 120.455 89.9336 120.581 89.371C120.427 89.5917 120.269 89.8141 120.112 90.0315C121.006 88.3953 121.477 86.0404 122.077 85.8339C122.154 85.5982 122.229 85.3627 122.302 85.1279C122.244 85.029 122.185 84.9328 122.126 84.8344C122.536 83.804 122.919 82.7531 123.267 81.6974C123.068 82.6683 123.123 82.9299 122.731 83.9031C122.941 83.5473 123.151 83.1782 123.352 82.8243C123.501 81.2396 123.406 80.9885 123.964 78.7069C123.995 78.6074 124.535 76.8847 124.56 76.829C124.703 76.5691 124.776 77.0118 124.846 76.897C125.052 76.5853 125.696 74.5197 125.736 74.5615C126.424 75.1721 125.094 82.3434 124.436 84.2092C118.991 104.07 102.065 119.361 82.3758 124.096C82.1731 124.147 82.2842 124.219 82.1985 124.244C81.664 124.397 81.1038 124.366 80.9031 124.403C80.4744 124.481 80.7379 124.567 80.4255 124.632C77.1939 125.293 74.0814 125.584 70.7924 125.728C70.5772 125.737 70.793 125.619 70.4162 125.65C70.2237 125.667 69.6201 125.852 69.1796 125.857C67.6382 125.875 66.3578 125.785 64.7356 125.68C63.855 125.623 62.5416 125.487 61.5532 125.365C61.5512 125.365 61.5492 125.365 61.5472 125.364C61.111 125.312 60.6476 125.329 60.2188 125.269C59.6109 125.182 59.7598 125.043 59.6681 125.019C59.2677 124.913 59.1836 125.075 58.798 125.006C58.08 124.872 58.058 124.752 57.1479 124.583C56.4981 124.465 54.9989 124.223 54.1806 124.037C52.3228 123.432 49.9588 122.741 48.2344 122.137C47.2161 121.782 47.1844 121.587 46.7757 121.424C45.3413 120.843 44.1841 120.548 42.8686 119.911C41.1274 119.061 39.6928 118.107 38.1041 117.118C37.847 116.957 37.8275 117.12 37.5728 116.965C36.6295 116.39 35.4405 115.619 34.6553 115.026C33.7777 114.363 33.5856 113.948 32.7164 113.325C32.4623 113.141 32.2712 113.232 31.8454 112.918C31.1649 112.416 30.5721 111.688 30.145 111.285C29.5604 110.731 29.9515 111.345 29.1643 110.594C29.132 110.563 29.1058 110.351 28.9311 110.197C28.4242 109.746 28.3956 109.874 27.6908 109.17C27.6205 109.104 26.787 108.074 26.6999 107.978C26.1629 107.425 25.1546 106.246 24.8374 105.918C23.6992 104.75 24.3693 105.857 23.8268 104.507C23.3548 104.107 22.8895 103.704 22.4081 103.256C22.7482 103.539 21.801 102.058 21.7267 101.961C21.0691 101.181 21.276 101.778 20.5584 100.7C21.8632 101.871 19.6502 99.3038 19.2586 98.654C17.2863 95.6058 15.8661 92.6082 14.5007 89.2333C14.043 88.1048 13.4036 86.5916 13.0146 85.3608C12.9231 85.0739 13.0833 85.2617 13.0055 85.0086C12.928 84.7561 12.9126 85.0681 12.8284 84.778C12.3111 82.9655 12.1438 81.4998 11.5305 79.8759C11.5488 79.7863 11.5776 79.7829 11.5882 79.6391C11.0566 78.3071 10.9323 75.5724 10.8681 74.5623C10.7508 72.9816 10.5699 72.5812 10.5193 71.4316C10.4482 69.9016 10.7315 67.6101 10.2496 68.6398C10.216 67.594 10.2211 66.5695 10.3048 65.5186C10.3143 65.4011 10.4371 65.4868 10.4415 65.4399C10.4709 65.1429 10.3629 65.0408 10.3671 64.8387C10.3805 64.2908 10.4698 65.1902 10.4726 64.4085C10.4771 63.9977 10.3861 63.7501 10.4777 62.6156C10.538 61.8969 10.6128 61.1701 10.7026 60.4366C11.45 54.1946 13.3675 47.727 16.1661 42.0416C16.3804 41.6061 16.1292 41.8386 16.4082 41.2969C17.3609 39.3939 19.4759 36.2498 20.5033 34.746C21.517 33.2352 21.1431 33.4704 21.7619 32.5041C21.8831 32.3185 21.8553 32.5243 21.9768 32.3657C22.791 31.2974 23.9303 30.1584 24.6605 29.3598C25.1449 28.8303 24.9887 28.7684 25.3141 28.3896C25.801 27.826 26.4442 27.3828 26.723 27.1025C28.0349 25.7853 28.8771 24.8108 30.226 23.7102C30.1517 23.7286 30.0965 23.7339 30.0304 23.746C31.581 22.3875 33.2007 21.1125 34.8851 19.9246C34.7873 19.9546 34.692 19.9829 34.5939 20.0131C36.5849 18.6323 36.5674 19.1057 35.9779 18.6064C36.1109 18.4864 36.2512 18.3576 36.38 18.2448C36.5332 18.5994 37.9005 18.0151 39.5539 17.1712C39.6733 17.1081 40.2897 16.3371 40.4155 16.7672C40.5715 16.5585 40.6607 16.4257 40.7934 16.2468C41.2022 16.1745 41.6147 16.1031 42.0227 16.0397C42.2013 15.925 42.3835 15.8106 42.5632 15.698C42.5528 15.6076 42.4913 15.5393 42.5145 15.4338C43.3856 14.971 45.2687 14.2244 45.9825 13.9195C47.7481 13.1382 49.5356 12.2528 51.0461 12.0371C51.7378 11.7942 50.991 11.8469 52.0437 11.5507C52.1863 11.5969 52.3205 11.6422 52.4681 11.6904C53.2198 11.0817 53.4634 11.2492 54.6651 11.028C55.4807 10.8828 55.984 10.6738 56.7573 10.5298C56.9533 10.4938 56.9481 10.6086 57.0806 10.5779C57.5233 10.4721 58.7773 10.0881 59.095 10.0351C61.9767 9.523 64.4814 9.31606 67.2666 9.28804C67.5647 9.28584 67.1758 9.18405 67.4848 9.1825C67.9822 9.18155 67.692 9.35494 67.9797 9.35964C68.7819 9.37721 68.7888 9.195 69.9149 9.20666C71.7659 9.23286 73.756 9.39578 75.7584 9.67386C77.7462 9.94846 79.7264 10.334 81.5921 10.7636C81.7096 10.7903 81.7262 10.6872 81.8547 10.7157C82.6933 10.904 83.4963 11.255 84.24 11.4593C85.4806 11.8028 86.447 11.9491 87.6526 12.3609C90.0088 13.1751 92.0329 14.0915 94.3317 15.2185C96.2047 16.1471 97.8069 17.0147 99.7489 18.2356C108.217 23.5553 115.688 31.1077 120.28 40.1568C120.397 40.3865 120.266 40.3369 120.306 40.4044C120.688 41.0461 120.826 41.0522 120.714 41.4052C121.182 42.2296 121.491 42.4148 121.957 43.4673C122.201 44.0296 121.741 43.7328 122.296 44.6178C122.781 45.425 122.575 44.3991 123.423 47.0554C123.444 47.1264 123.399 47.5287 123.638 48.0561C123.874 48.5884 123.785 47.9071 124.27 49.2215C125.405 52.3172 126.223 56.4235 126.733 60.2092C126.777 60.4413 127.111 62.7334 127.178 63.1861C127.326 64.0599 127.456 63.8667 127.543 65.0183C127.605 65.914 127.467 66.6425 127.496 67.6896C127.498 67.8112 127.661 68.0174 127.624 68.8066ZM13.3759 75.8048C13.5639 75.9869 14.1792 76.2633 14.2233 77.5023C14.2281 77.6214 13.7232 77.0664 13.7846 77.754C13.6206 77.0999 13.4997 76.4581 13.3753 75.8049C13.3755 75.8049 13.3757 75.8048 13.3759 75.8048ZM123.566 74.0554C123.704 73.137 123.819 72.2197 123.911 71.3014C123.937 71.9424 123.952 72.582 123.956 73.2252C123.828 73.504 123.698 73.7791 123.566 74.0554ZM47.5961 16.1122C47.5969 16.1118 47.5977 16.1115 47.5986 16.1111C46.7242 16.5505 45.8653 17.0114 45.0184 17.4947C45.0873 17.4014 45.1566 17.3079 45.2262 17.2149C45.8877 16.811 46.5567 16.4213 47.2346 16.0451C47.3552 16.0671 47.4759 16.0893 47.5961 16.1122ZM54.7569 13.1296C55.3828 13.0386 55.2601 13.1838 55.6205 13.2065C55.6204 13.2063 55.6204 13.2061 55.6203 13.2059C55.7154 13.2113 56.1331 13.1383 56.2927 13.1068C56.2189 13.053 56.1279 13.0042 56.0488 12.9523C57.4465 12.4545 60.346 12.5087 56.7951 13.465C56.83 13.3684 56.8627 13.2727 56.8981 13.1762C55.1207 13.5803 53.0969 13.9596 54.7569 13.1296ZM17.6855 89.8556C18.5826 91.1654 18.8387 91.5822 19.5348 93.3492C19.3391 93.1506 19.1443 92.9497 18.9511 92.7474C18.8827 92.4311 18.8176 92.117 18.755 91.8006C18.7546 91.7998 18.7543 91.799 18.7539 91.7982C18.6489 91.78 18.5436 91.7614 18.4396 91.7448C18.1771 91.1204 17.9242 90.4871 17.6855 89.8556ZM109.725 29.5626C109.601 30.2708 109.766 29.9455 108.818 29.1313C108.488 28.852 108.706 29.2228 108.509 29.042C107.442 28.075 107.614 27.7319 107.987 27.8165C108.58 28.3861 109.166 28.9753 109.724 29.5606C109.724 29.5613 109.725 29.562 109.725 29.5626ZM124.582 63.5101C124.582 63.511 124.582 63.5118 124.582 63.5127C124.447 63.5596 124.367 62.981 124.283 63.6462C124.25 63.1486 124.209 62.6467 124.161 62.1446C124.188 62.2906 124.215 62.4401 124.24 62.5866C124.276 62.4521 124.312 62.317 124.347 62.182C124.171 62.0193 124.249 61.8456 124.244 61.315C124.091 61.4787 123.937 61.6406 123.783 61.8019C123.771 61.191 123.749 60.5827 123.716 59.9694C123.757 59.9561 123.799 59.9427 123.84 59.9294C123.755 59.7081 123.667 59.4903 123.579 59.2711C123.62 59.2017 123.661 59.1345 123.703 59.0648C123.622 58.7959 123.539 58.5278 123.454 58.2613C123.562 58.1575 123.721 58.7508 123.503 57.6882C123.687 57.9929 123.868 58.3 124.047 58.6133C124.298 60.2392 124.476 61.8701 124.582 63.5101ZM101.114 22.1869C102.584 23.2278 102.112 23.0061 101.615 22.9824C101.451 22.7171 101.283 22.4508 101.114 22.1869ZM20.316 39.2C20.2153 39.7507 20.123 40.2977 20.0294 40.8526C19.6148 41.8269 18.8271 42.6189 19.07 41.8427C19.37 40.9064 20.0174 40.1165 20.316 39.2ZM12.9718 62.1877C13.1936 60.8971 13.292 62.1448 13.3994 62.4455C13.1539 62.784 13.1276 63.2783 13.051 64.085C13.0834 63.3258 12.9347 62.4037 12.9712 62.1876C12.9714 62.1876 12.9716 62.1876 12.9718 62.1877ZM34.2231 23.6303C34.63 23.304 35.0116 22.9466 35.4255 22.7209C35.4207 22.9509 34.5788 23.379 35.2733 23.1949C35.0108 23.3983 34.7497 23.6042 34.4932 23.8111C34.5892 23.5933 34.315 23.7002 34.2245 23.63C34.2241 23.6301 34.2236 23.6302 34.2231 23.6303ZM85.5366 14.6132C84.6301 14.1016 84.4076 14.1327 83.3808 14.0034C83.2849 13.7924 84.554 13.8349 85.3138 14.0062C85.3884 14.2081 85.4623 14.4104 85.5366 14.6132ZM111.912 102.566C111.938 102.901 110.793 104.315 110.132 104.935C110.179 104.833 110.225 104.73 110.271 104.628C110.835 103.953 111.382 103.265 111.912 102.566ZM13.0128 64.4678C13.027 64.3333 13.0396 64.2056 13.051 64.085C13.0449 64.2195 13.0334 64.3489 13.0128 64.4678ZM34.3677 112.726C33.892 112.629 34.8791 113.478 33.6792 112.449C33.6791 112.449 33.679 112.449 33.6788 112.449C32.8923 111.761 32.7232 111.603 31.9941 110.969C32.4375 110.987 33.9911 112.155 31.9728 110.39C31.9463 110.367 31.8931 110.537 31.5834 110.239C31.488 110.146 31.255 109.768 30.8051 109.307C30.6592 109.158 29.5369 108.074 31.1094 109.506C31.1895 109.322 31.403 109.255 31.5223 109.114C32.1705 109.62 32.406 110.315 33.0879 110.866C34.1041 111.68 34.8595 111.771 34.7581 112.317C33.8091 111.761 32.3522 110.557 32.3653 110.169C31.5695 109.481 31.1807 109.454 31.7447 110.111C34.6506 112.344 32.2629 111.073 34.9278 112.888C34.9995 112.856 35.1498 112.875 35.1721 112.811C35.8189 113.589 34.5358 112.764 34.3677 112.726ZM28.933 107.28C29.4823 107.624 30.0354 107.956 30.5905 108.276C30.4295 108.447 30.0283 108.373 29.2205 107.77C29.1244 107.607 29.0274 107.443 28.933 107.28ZM77.6296 122.957C77.6988 122.815 77.9176 122.66 78.0695 122.509C78.2784 122.626 82.729 121.768 80.5009 122.364C80.1768 122.46 78.1288 122.621 77.6296 122.957ZM92.2085 17.0063C91.7616 16.7028 91.314 16.4073 90.8607 16.1177C91.6314 16.3903 92.4035 16.6818 93.166 16.9893C92.8453 16.9918 92.5275 16.9982 92.2085 17.0063ZM16.3046 46.93C16.3924 46.7209 16.2804 47.4856 16.5833 46.6456C16.4409 47.3061 16.3121 47.9148 16.1929 48.5585C16.0484 48.7118 15.9042 48.8684 15.7609 49.0244C15.7618 49.1851 15.7621 49.3485 15.7643 49.509C15.6779 49.3838 15.5914 49.2685 15.5054 49.1369C16.1143 48.1893 15.9228 47.856 16.3046 46.93ZM35.8565 21.2656C36.169 21.3676 34.9698 22.4194 36.2657 21.5467C36.1244 21.8605 35.7893 22.2062 35.0709 22.763C34.9141 22.7972 34.7578 22.8324 34.6009 22.8681C34.6932 23.0226 34.5458 23.2162 34.2231 23.6303C34.2226 23.6304 34.2221 23.6306 34.2217 23.6307C33.1494 24.4959 33.1842 24.4066 32.7387 24.3914C33.9762 23.5878 33.8458 23.3599 34.5463 22.6202C35.0292 22.1138 35.7903 21.6263 35.8565 21.2656ZM72.8226 123.523C73.8364 123.216 72.8937 123.099 74.741 123.153C74.6297 123.222 74.5173 123.291 74.4051 123.36C73.8797 123.422 73.3474 123.477 72.8226 123.523ZM40.6638 19.2554C40.3568 18.956 39.3448 19.1858 39.5529 19.8446C40.4332 19.4714 39.8439 19.3832 40.6638 19.2554ZM12.3767 61.6773C12.4317 61.2012 12.5062 60.875 12.5849 60.6677C12.7692 60.186 12.9716 60.3461 13.0956 60.7304C13.1241 60.8185 13.1487 60.9184 13.1683 61.0253C13.0709 61.1308 12.9738 61.2366 12.8778 61.3406C12.8802 61.6646 12.8855 61.9875 12.893 62.3095C12.7199 62.1009 12.5474 61.89 12.3767 61.6773ZM71.4374 11.3501C70.0252 11.573 72.9379 11.5961 71.9509 11.7254C71.1661 11.8226 70.1569 11.4966 70.5495 11.3241C70.8197 11.3283 71.1208 11.3372 71.4347 11.35C71.4356 11.3501 71.4365 11.3501 71.4374 11.3501ZM63.341 11.6071C63.599 11.8996 63.2605 11.8317 64.3558 11.6872C64.6652 11.6332 67.1741 11.6356 66.1112 11.4237C65.2123 11.4632 64.2747 11.5223 63.341 11.6071ZM14.5912 82.6778C14.4582 82.7366 13.674 80.9351 13.697 80.6694C13.6968 80.6694 13.6966 80.6695 13.6964 80.6695C13.7364 79.9696 14.2508 81.9473 14.3106 81.02C14.5509 82.9782 15.3184 83.3652 14.5194 83.4578C14.1641 82.3532 14.4745 82.8371 14.5912 82.6778ZM123.146 81.6814C123.146 81.6805 123.146 81.6796 123.146 81.6787C123.11 81.8051 122.637 82.782 122.603 82.6371C122.996 81.4197 123.067 81.6689 123.137 80.4554C123.22 80.4075 123.299 80.3681 123.384 80.3148C123.316 80.7884 123.336 81.0662 123.146 81.6814ZM82.5052 122.228C82.0536 122.38 81.1762 122.436 80.6532 122.558C82.1981 121.645 84.2944 121.606 82.5052 122.228ZM120.553 46.3722C120.552 46.371 120.551 46.3698 120.55 46.3687C120.551 46.3689 120.551 46.3693 120.552 46.3696C120.552 46.3704 120.552 46.3713 120.553 46.3722ZM46.63 119.107C46.6714 119.165 46.6906 119.208 46.691 119.239C46.6899 119.241 46.6889 119.244 46.6879 119.246C46.6711 119.202 46.6525 119.156 46.63 119.107ZM15.851 86.4862C15.9415 87.3135 14.7537 84.8749 14.5853 84.0093C14.6862 84.0422 14.7643 84.0284 14.9014 84.1342C14.887 84.8761 15.8318 86.3542 15.851 86.4862ZM27.3376 29.5186C25.9052 31.0878 27.211 28.5268 27.7371 28.861C27.7416 28.8717 27.3729 29.4772 27.3376 29.5186ZM12.5447 70.1792C12.2966 69.6479 12.2704 70.7393 12.2544 68.9946C12.3109 68.8921 12.3678 68.7899 12.4248 68.688C12.4579 69.1829 12.4982 69.6826 12.5447 70.1792ZM18.4109 40.307C17.2187 42.7566 16.4215 45.2193 17.7066 43.8833C17.7735 43.6914 17.8432 43.4977 17.9121 43.3066C17.6499 43.1475 18.1177 42.5421 18.6302 41.5765C18.5935 41.3814 18.854 40.8302 18.8182 40.6808C18.7481 40.3901 18.2897 40.9445 18.4109 40.307ZM114.098 33.7479C114.03 33.7443 113.962 33.7419 113.895 33.7382C113.594 33.4337 113.289 33.1321 112.982 32.8354C113.103 32.8274 113.224 32.8198 113.346 32.8125C113.599 33.1213 113.849 33.4313 114.096 33.7455C114.097 33.7463 114.097 33.7471 114.098 33.7479ZM26.6608 105.834C27.252 105.622 26.5894 105.087 25.2517 103.95C25.7071 104.586 26.178 105.216 26.6608 105.834ZM51.249 13.3595C51.3526 13.4979 51.4547 13.6362 51.5599 13.7742C52.3824 13.3373 52.1703 13.2099 51.6815 13.1343C51.5358 13.2091 51.3937 13.2836 51.249 13.3595ZM64.2767 10.735C63.8927 10.7306 64.0977 10.8472 64.0577 10.8476C63.0833 10.8606 62.9374 10.8107 61.768 11.047C61.6277 11.0989 61.4904 11.1528 61.351 11.2067C61.9364 11.4787 62.307 11.2397 63.4798 11.3319C63.2614 11.2338 63.0428 11.1368 62.8223 11.0407C63.4676 10.9997 64.1146 10.9694 64.7569 10.9508C64.8307 10.9095 64.9048 10.8687 64.9789 10.8276C64.7468 10.7958 64.5066 10.7601 64.2767 10.735ZM116.734 37.8952C117.051 38.434 117.36 38.9808 117.659 39.5298C117.744 39.5077 117.828 39.4846 117.913 39.4627C117.529 38.933 117.135 38.409 116.734 37.8952ZM36.5045 114.101C36.5623 114.104 36.6192 114.107 36.6719 114.106C36.6473 114.134 36.5862 114.128 36.5045 114.101ZM123.985 80.1836C124.2 79.5058 124.369 78.4925 124.52 77.7225C124.307 77.7492 123.983 79.7029 123.692 80.3472C123.704 80.4648 123.893 80.4729 123.985 80.1836ZM12.7182 59.1403C12.6402 58.9486 12.5637 58.7565 12.4871 58.566C12.5663 58.1414 12.6504 57.7207 12.7402 57.2917C12.6575 57.2635 12.5741 57.2354 12.4914 57.2071C12.2697 59.1201 12.1096 58.6389 11.7247 59.5532C12.0554 59.4113 12.3862 59.2757 12.7182 59.1403ZM124.561 56.1798C124.222 54.8312 123.993 54.3871 123.916 55.1998C124.079 55.6606 124.238 56.1277 124.391 56.5954C124.448 56.4565 124.505 56.317 124.561 56.1798ZM59.5366 123.57C60.6593 123.651 60.6622 123.981 61.7266 123.954C61.7552 123.953 61.7846 123.952 61.8149 123.95C61.7864 123.944 61.7579 123.937 61.7294 123.93C61.1614 123.799 60.5986 123.659 60.0428 123.512C59.8756 123.532 59.7041 123.551 59.5366 123.57ZM15.7373 90.6063C15.8272 91.1117 16.7192 91.7153 16.9537 93.1455C17.2149 93.3864 17.4164 93.5161 17.6565 93.7119C17.6118 93.9205 17.5773 94.1505 17.5323 94.3531C17.5328 94.3539 17.5332 94.3548 17.5336 94.3556C18.1678 95.4504 17.9316 94.6457 18.0712 94.6044C18.1283 94.5888 18.4885 95.454 18.462 95.1362C18.4067 94.5945 17.4362 92.9892 17.6822 92.8617C17.8909 93.4893 18.5596 94.5873 18.5412 94.1673C18.5204 93.7121 17.6751 92.7944 17.4942 92.0293C17.5817 93.21 16.7155 91.0962 16.9239 90.7219C16.1566 89.6085 16.5365 90.7746 17.1368 92.0097C16.5489 91.3615 17.1989 92.4172 17.1011 92.692C16.5856 91.9776 15.4958 89.1961 15.7373 90.6063ZM24.6713 30.9049C24.0871 31.6231 23.0779 32.6777 22.8724 33.3168C22.7511 33.685 23.6983 32.5922 23.2556 33.5037C23.7796 32.7779 23.8499 32.573 23.6186 32.5874C23.728 32.4129 23.8403 32.2376 23.9525 32.0641C24.038 32.0107 24.1247 31.9553 24.2103 31.9025C24.2226 31.7741 24.2361 31.6455 24.2476 31.519C24.3963 31.3582 24.5475 31.1965 24.6982 31.038C24.6873 30.9954 24.6915 30.9419 24.6713 30.9049ZM91.9689 119.293C91.7374 119.399 91.5075 119.504 91.2747 119.608C91.3172 119.635 91.3654 119.662 91.4123 119.688C91.4472 119.71 91.4821 119.732 91.517 119.754C91.332 119.705 90.1365 119.995 89.7078 120.303C89.4916 120.458 90.1263 120.46 89.1182 120.896C89.8559 120.599 90.5289 120.29 91.2296 119.966C91.1933 120.057 91.1595 120.147 91.1226 120.238C91.1231 120.238 91.1235 120.238 91.124 120.238C91.3668 120.151 91.6122 120.062 91.8538 119.971C91.8941 119.745 91.9313 119.519 91.9689 119.293ZM50.4341 13.2875C49.6453 13.6974 49.3973 13.8662 49.8578 13.9336C49.8587 13.9334 49.8596 13.9332 49.8605 13.933C50.1348 13.7341 50.4124 13.537 50.6906 13.3427C50.6059 13.3239 50.5214 13.3051 50.4341 13.2875ZM42.5868 118.575C44.6129 118.683 40.6744 117.216 41.244 117.822C41.2677 117.854 42.4703 118.417 42.5868 118.575ZM12.0884 61.9899C12.1272 61.536 12.1721 61.0806 12.2223 60.6232C12.2282 60.5695 12.2342 60.5159 12.2402 60.4622C12.1877 60.5096 12.1352 60.5577 12.0828 60.6061C12.0196 60.6644 11.9565 60.723 11.8934 60.7809C11.9539 61.1863 12.0193 61.5899 12.0884 61.9899ZM123.403 50.2191C123.461 49.6353 123.088 48.281 122.616 47.7302C122.713 48.0751 122.805 48.4209 122.895 48.7673C122.647 48.1396 122.388 47.5256 122.119 46.9041C121.809 46.9855 122.269 47.6419 122.574 48.7788C122.624 48.9572 122.617 50.1726 123.016 50.4636C123.1 50.5219 122.76 49.3358 123.193 50.0971C123.091 49.7351 122.987 49.429 122.879 49.0901C122.942 49.0412 123.006 48.9925 123.068 48.9411C123.185 49.3678 123.296 49.7908 123.403 50.2191ZM21.4329 35.2194C20.7019 36.2622 20.731 36.471 20.7746 36.8126C21.0721 36.303 21.3779 35.7984 21.6909 35.2987C21.6043 35.2733 21.5199 35.2449 21.4329 35.2194ZM118.956 39.7157C118.646 39.0865 118.633 39.438 118.465 39.2107C117.825 38.3548 117.562 37.6685 116.932 36.827C116.999 36.8667 117.061 36.903 117.126 36.9414C117.125 36.9406 117.125 36.9399 117.124 36.9391C114.493 32.7171 115.652 35.0955 117.286 37.561C117.264 37.6556 117.241 37.7479 117.22 37.842C118.013 38.9056 118.701 39.9236 118.956 39.7157ZM29.086 109.015C29.0984 109.084 28.5606 108.947 29.3065 109.48C30.0989 109.682 29.1068 109.023 29.0026 108.708C29.2048 108.85 29.4104 108.995 29.612 109.133C28.6327 108.051 28.4255 107.956 28.6013 108.538C28.6146 108.579 29.0738 108.946 29.086 109.015ZM36.4569 115.211C36.9436 114.847 35.288 114.014 35.2383 114.192C35.4422 114.347 35.6599 114.381 35.8565 114.571C36.0558 114.763 36.0355 114.915 36.4569 115.211ZM11.3626 70.5927C11.3621 70.6465 11.1503 71.2052 11.338 71.1396C11.7428 70.4432 11.4082 69.1046 11.2595 69.344C11.2813 69.7947 11.3608 70.0916 11.362 70.5927C11.3622 70.5927 11.3624 70.5927 11.3626 70.5927ZM125.484 58.3877C125.5 58.359 125.365 57.001 125.238 56.8432C125.11 56.7195 124.989 56.6697 124.864 56.5837C125.11 57.3011 125.277 58.8038 125.484 58.385C125.484 58.3859 125.484 58.3868 125.484 58.3877Z" fill="white"/>
</svg>
