<svg width="137" height="137" viewBox="0 0 137 137" fill="none" xmlns="http://www.w3.org/2000/svg">
<circle cx="68.3441" cy="68.3441" r="61.3273" transform="rotate(7 68.3441 68.3441)" fill="black"/>
<path d="M118.325 48.1302C118.421 48.926 117.541 46.507 117.907 48.2059C117.747 47.8883 117.582 47.571 117.417 47.2574C117.494 47.1245 117.569 46.9889 117.645 46.8548C117.877 47.2759 118.103 47.6998 118.325 48.1299C118.325 48.13 118.325 48.1301 118.325 48.1302ZM120.022 48.144C119.523 47.8561 118.877 46.5916 119.174 48.1315C119.334 48.197 119.495 48.2663 119.654 48.3337C119.769 48.8659 119.877 49.4001 119.975 49.9316C120.086 50.0946 120.196 50.2581 120.305 50.423C120.189 50.7253 120.07 51.0238 119.948 51.3223C119.907 51.1091 119.864 50.8933 119.82 50.6804C119.368 49.9404 119.057 49.2556 118.584 48.2067C118.577 48.3191 118.57 48.4315 118.562 48.5437C118.419 47.9735 118.267 47.405 118.105 46.8403C118.39 47.2656 118.7 47.7479 118.953 48.1521C118.973 47.3264 118.255 46.1805 117.892 45.5892C117.397 44.7826 117.631 44.9045 117.257 44.3102C117.197 44.2155 117.081 44.2606 116.978 44.066C116.468 43.0796 115.443 41.1768 116.323 42.1319C117.191 43.7499 118.107 45.051 118.772 46.7392C118.878 46.1665 119.386 46.9829 120.022 48.144ZM97.9201 23.106C98.4757 23.2686 99.3811 23.9555 99.9354 24.4912C99.9361 24.4917 99.9368 24.4922 99.9375 24.4927C100.06 24.6105 100.243 25.0068 99.8032 24.6817C99.0873 24.156 98.916 23.6342 98.3972 23.5658C98.246 23.4141 98.0823 23.2612 97.9201 23.106ZM96.2582 22.098C95.8277 21.7468 96.1736 21.65 96.7302 22.0667C96.7303 22.0665 96.7304 22.0663 96.7305 22.0661C96.9612 22.2416 96.3751 22.1161 97.3602 22.4842C97.4542 22.7315 97.551 22.9648 97.6413 23.2064C97.429 23.0735 97.2337 22.955 97.0094 22.8179C97.2986 22.6886 96.6874 22.4491 96.2582 22.098ZM115.731 41.3959C115.483 41.4412 115.671 41.7525 115.831 42.3673C115.553 41.8597 115.266 41.3552 114.973 40.8584C115.227 41.0355 115.479 41.2132 115.731 41.3959ZM121.111 53.9581C121.111 53.959 121.112 53.9598 121.112 53.9607C121.201 54.1342 121.29 54.3081 121.376 54.4798C121.325 54.6125 121.274 54.7434 121.223 54.8752C121.476 55.503 121.719 56.1414 121.95 56.7831C121.683 56.7606 121.439 55.5733 121.088 54.9814C120.904 54.0117 120.903 53.5103 121.094 53.3853C121.101 53.5757 121.106 53.7657 121.111 53.9581ZM12.1212 73.9844C12.2112 74.2085 12.3023 74.4284 12.395 74.6501C12.3988 74.3437 12.3974 74.0389 12.4113 73.7308C12.043 72.9556 12.3086 72.8602 12.24 71.8113C12.0923 68.6032 11.6182 69.4158 12.4258 66.5443C12.2974 68.8686 12.667 67.9863 12.9068 69.3823C12.7104 69.6746 12.2793 68.2786 12.1827 69.2237C12.3851 70.8523 12.6344 72.4065 12.9199 74.1768C12.9488 74.1216 12.978 74.0668 13.0071 74.0117C12.9621 73.7289 12.9197 73.453 12.8792 73.1713C12.9899 73.4705 13.1015 73.7589 13.2187 74.0618C12.9812 73.6873 13.1821 74.6758 12.9374 74.564C12.8274 74.5145 12.6428 74.0836 12.5227 73.8276C12.5228 74.512 12.5418 75.2123 12.5697 75.9017C12.4454 75.5574 12.3242 75.2109 12.2065 74.8642C12.1754 74.5727 12.1474 74.2826 12.1207 73.9899C12.1208 73.9881 12.121 73.9863 12.1212 73.9844ZM118.088 92.586C117.953 93.4645 117.288 94.8786 116.657 95.4673C117.164 94.5184 117.638 93.5623 118.088 92.586ZM121.248 53.2709C121.237 53.376 121.224 53.478 121.212 53.5828C121.017 53.1937 120.817 52.8056 120.613 52.4236C120.702 52.3091 120.79 52.1924 120.876 52.0748C121.004 52.4709 121.129 52.8715 121.248 53.2709ZM107.147 30.0698C107.374 30.2861 107.391 30.3084 107.652 30.5986C107.652 30.5983 107.652 30.5979 107.651 30.5975C107.758 30.7099 108.597 31.6957 108.429 31.6548C107.991 31.1874 107.518 30.6958 107.054 30.2331C107.082 30.1762 107.122 30.1306 107.147 30.0698ZM112.085 35.7847C112.086 35.7855 112.086 35.7863 112.087 35.7872C112.217 35.9814 112.327 36.1751 112.467 36.3715C111.832 35.765 111.954 35.4993 111.407 34.925C110.857 34.3537 110.44 34.0749 110.276 33.3341C110.479 33.4891 110.71 33.6458 110.923 33.8045C111.528 34.7637 111.816 34.9168 112.479 35.5499C112.347 35.6281 112.217 35.7062 112.085 35.7847ZM13.4913 59.7473C13.355 59.5042 13.5682 59.2976 13.5748 59.2738C13.5749 59.2743 13.575 59.2748 13.5751 59.2752C13.7749 57.3747 13.6141 59.5315 13.9972 57.7831C13.9851 58.0522 13.9782 58.3176 13.9709 58.5846C13.8087 58.9679 13.6371 59.3655 13.4913 59.7473ZM52.5801 16.0874C52.6112 16.1317 52.6457 16.1751 52.6768 16.2194C51.6405 16.5131 51.4437 16.7896 50.5406 16.8957C51.2129 16.613 51.8927 16.3434 52.5799 16.0868C52.5799 16.087 52.58 16.0872 52.5801 16.0874ZM103.36 26.15C104.35 26.8358 105.054 27.3908 105.799 28.2844C105.8 28.2852 105.8 28.2859 105.801 28.2867C105.843 28.3385 105.534 28.2006 105.58 28.2791C105.766 28.4273 105.962 28.5757 106.15 28.7259C106.115 28.8107 106.079 28.8944 106.044 28.9787C105.571 28.5003 105.089 28.0297 104.596 27.566C104.638 27.6695 104.682 27.7743 104.723 27.8779C104.277 27.5177 103.829 27.1675 103.373 26.8222C103.616 26.841 103.859 26.8611 104.101 26.8814C103.857 26.6355 103.609 26.3922 103.36 26.15ZM36.151 23.3405C36.34 23.2773 36.1029 23.556 36.3738 23.4266C36.6438 23.2965 37.0381 22.905 37.0202 23.1075C36.7018 23.3475 36.3715 23.6047 36.0534 23.8564C37.2779 23.3368 38.2297 22.4275 38.4364 22.7126C37.3394 23.306 36.5155 23.9211 35.6004 24.7068C35.4725 24.4516 36.3224 23.5499 35.5468 23.7811C35.7453 23.6346 35.954 23.4808 36.1492 23.3426C36.1498 23.3419 36.1504 23.3412 36.151 23.3405ZM127.095 70.582C127.063 71.358 127.088 73.1755 126.838 74.1442C126.78 74.3848 126.187 75.1397 126.118 75.1273C125.892 75.0796 125.954 74.1071 125.704 75.1317C125.738 74.782 125.761 74.4424 125.785 74.0959C125.626 74.1451 125.467 74.1936 125.308 74.2393C125.295 74.6595 125.278 75.0813 125.256 75.5036C125.203 75.5187 125.149 75.5337 125.096 75.5487C125.25 74.0445 124.963 74.9119 124.85 74.1204C124.697 74.8249 124.53 75.5329 124.351 76.2311C124.413 75.823 124.474 75.3412 124.524 74.9821C124.269 74.9079 124.24 75.7715 124.172 75.9133C123.826 76.7037 124.374 72.5255 123.971 72.1565C123.894 72.8238 123.804 73.5222 123.702 74.1954C123.672 73.9966 123.642 73.7959 123.61 73.5984C123.993 72.0741 124.155 70.3383 124.294 68.5185C124.281 68.3548 124.267 68.191 124.254 68.0303C124.136 68.0807 124.019 68.1282 123.902 68.178C123.883 67.9326 123.863 67.6873 123.841 67.4402C124.25 68.1557 124.229 67.1487 124.394 65.913C124.571 66.5551 124.516 67.3667 124.769 67.3022C124.501 65.0645 124.519 62.4236 123.944 60.2929C123.8 59.7666 123.486 59.8271 123.279 58.576C123.323 58.6113 123.389 58.6061 123.441 58.6244C122.858 56.502 122.453 55.2452 121.958 53.0179C121.883 53.1782 121.806 53.3359 121.729 53.4949C121.923 53.9398 122.111 54.3858 122.291 54.833C122.184 55.2003 121.988 54.7522 122.337 56.1402C122.61 57.2817 122.532 56.582 122.661 56.8798C122.834 57.2837 122.763 57.6872 122.942 58.1248C123.079 58.4646 123.165 58.0491 123.302 58.9833C123.027 58.6488 122.741 58.3135 122.456 57.9879C122.456 57.756 122.456 57.5255 122.453 57.2932C122.557 57.5056 122.659 57.7154 122.76 57.9299C122.496 57.1552 122.232 56.4304 121.925 55.6445C122.285 55.8347 121.962 55.0208 121.801 54.5782C121.55 53.8882 121.92 54.4362 121.756 53.9829C121.588 53.5282 121.22 53.0978 121.002 52.259C121.273 52.6604 121.193 52.021 121.349 52.0989C121.506 52.1767 121.811 53.0529 121.671 52.1628C121.039 50.5708 121.173 52.4768 120.736 51.4137C120.201 50.1476 120.794 49.573 121.097 49.9039C121.335 50.1646 121.683 51.2415 121.908 51.5142C121.477 49.5159 121.009 49.6663 120.809 49.3756C120.05 48.3312 121.181 48.787 120.321 47.5279C120.484 47.4902 120.629 47.4542 120.785 47.4195C120.658 47.1921 120.554 47.0494 120.409 46.7723C120.475 47.7438 120.194 47.0452 120.039 46.6939C119.795 46.14 120.028 47.0589 119.926 46.9281C119.656 46.575 119.42 45.9362 119.463 46.3743C119.446 46.177 119.422 45.9641 119.401 45.7616C119.032 45.1469 117.691 43.9787 118.498 45.3214C118.206 45.2999 118.098 44.7944 117.956 44.4253C117.814 44.0566 117.672 44.1371 117.54 43.8164C117.008 42.5441 117.671 43.2069 117.967 43.3025C116.967 41.7605 117.753 43.3683 116.367 41.1345C116.087 41.0063 116.529 42.1439 115.936 41.3281C116.107 41.0145 115.931 40.255 115.23 38.9755C115.094 38.8952 114.958 38.8164 114.821 38.7377C114.621 37.9229 115.097 38.0829 113.967 37.076C114.95 37.3536 114.312 37.1402 113.745 35.9127C113.629 35.6633 114.106 36.0877 113.938 35.7425C113.862 35.5857 113.533 35.3121 113.342 34.9318C113.251 34.7458 112.862 33.8323 112.348 33.3921C112.408 33.9657 111.414 33.165 111.885 34.1589C110.695 32.5882 109.652 31.6541 111.423 33.0569C111.173 32.61 110.916 32.1655 110.652 31.7239C110.363 31.5096 110.07 31.2957 109.776 31.0855C109.928 30.8736 110.027 30.8542 109.035 29.88C109.497 30.2716 109.953 30.6696 110.406 31.0789C110.458 31.0591 110.555 31.0856 110.579 31.0366C110.014 30.5409 108.529 29.061 108.113 28.7605C107.704 28.4535 108.387 29.1548 108.236 29.0998C106.988 28.6399 107.34 28.4217 106.642 27.8947C106.232 27.589 107.077 28.4618 106.862 28.2935C106.07 27.6685 105.919 27.1397 105.245 26.5457C105.377 26.88 105.501 27.2148 105.618 27.5454C104.931 26.9146 104.141 26.2403 103.434 25.7365C103.157 25.5388 103.279 25.7965 103.231 25.768C102.992 25.6254 102.072 24.9919 101.977 24.923C101.268 24.3876 101.349 24.2352 100.651 23.7205C100.937 23.9066 101.203 24.0846 101.479 24.2716C101.765 24.139 102.056 24.01 102.346 23.8807C101.67 23.3453 100.98 22.8246 100.278 22.3193C100.747 22.7531 101.21 23.1945 101.663 23.6426C100.736 23.239 99.807 22.8665 98.8702 22.5189C98.5221 22.1251 98.1706 21.7373 97.8099 21.3519C96.6082 20.6589 96.5632 21.2926 96.2432 20.5378C95.8699 20.3702 95.4955 20.2071 95.1193 20.0475C95.2038 20.0141 95.288 19.9806 95.3728 19.9476C94.9216 19.7475 94.468 19.5532 94.0114 19.3654C94.3567 19.823 94.6768 20.29 95.0013 20.7441C94.1412 20.3326 94.22 20.1444 94.1188 20.0301C93.8477 19.7287 93.0932 19.5544 92.881 19.3076C92.8095 19.2214 93.7108 19.5204 93.4937 19.2325C93.4554 19.1761 92.5758 18.083 91.7717 17.8671C91.7414 17.9699 91.7441 18.1144 91.7256 18.2329C90.7119 17.8375 90.4181 17.1189 90.612 17.0313C90.0319 16.8985 89.2343 16.5866 89.0597 16.701C88.7794 16.5941 88.505 16.4919 88.225 16.3903C88.6642 16.1128 87.4654 15.7459 87.2684 16.0566C87.7474 16.2376 88.2234 16.4254 88.6953 16.6187C88.1733 16.8949 89.5421 17.658 86.6605 16.1834C86.1529 15.765 87.6832 16.5778 87.2664 16.2504C86.4756 15.8612 85.673 15.681 84.9267 15.2845C83.9921 14.8005 85.2699 14.9586 82.8724 14.5502C87.8026 16.6532 82.0799 14.6577 79.598 14.409C79.1211 13.7508 77.4609 13.1798 75.0435 12.9682C74.7304 12.9409 74.4057 12.9199 74.0708 12.9057C74.2382 13.0256 74.6259 13.0791 75.0235 13.1315C75.3012 13.168 75.5826 13.2036 75.7947 13.2562C76.3094 13.3855 75.7313 13.4068 76.3676 13.5801C77.0037 13.7512 78.3483 14.0931 78.9723 14.3443C78.4022 14.3161 75.6652 14.11 77.4961 14.1269C76.5202 13.8343 75.929 13.6173 74.9871 13.4278C74.669 13.3646 74.3117 13.3058 73.887 13.2538C73.3545 13.4747 73.3795 13.6284 71.7476 13.5198C72.7484 13.2112 70.8884 12.8286 71.3228 12.4697C72.4999 12.6335 71.8167 12.9669 72.476 13.1956C72.5427 13.2165 73.6344 13.218 73.887 13.2538C72.8254 12.8077 72.4461 12.6585 73.1637 12.3146C72.376 12.2802 71.8898 12.2005 71.8043 12.3868C71.6453 12.2929 71.4847 12.1995 71.327 12.1071C71.0692 12.0946 70.8371 12.0905 70.5647 12.077C70.9267 12.3834 70.2074 12.1704 69.6893 12.2881C69.1715 12.4082 69.8581 12.6442 68.4457 12.6292C68.9155 12.7003 69.3446 12.7668 69.7922 12.8447C68.8909 12.8914 67.9751 12.9602 67.0792 13.0503C67.7146 13.2112 69.0786 13.4883 69.0358 13.7232C68.6237 13.6228 67.218 13.7829 67.0669 13.7962C66.4747 13.832 66.7942 13.6789 66.7494 13.676C65.8121 13.6263 65.0407 13.7198 64.6725 13.5193C63.9751 13.6631 63.4424 13.6468 62.6952 13.7238C62.285 13.7673 62.3818 13.9223 62.1394 13.9166C60.5315 13.9035 62.0028 13.4669 59.0066 14.3266C59.3933 14.3781 59.7742 14.4369 60.1585 14.4974C59.8214 14.5895 59.4881 14.6847 59.1545 14.7829C58.9233 14.7998 58.6942 14.8177 58.4633 14.8376C58.4252 14.5937 58.388 14.3491 58.35 14.1052C58.0956 14.1364 57.8377 14.1705 57.5821 14.2057C58.0129 14.0986 58.4432 13.9971 58.8749 13.9006C58.9075 13.8511 58.9377 13.8021 58.9705 13.7527C58.3112 13.7928 57.6517 13.8441 56.9895 13.9079C56.9939 13.9945 56.9987 14.0818 57.0033 14.1684C55.5282 14.3535 55.4721 14.2934 54.1611 14.8643C53.1082 15.132 52.3614 15.7263 51.8125 16.0527C51.5852 16.0721 51.3574 16.0924 51.1276 16.1155C51.013 16.2271 50.8977 16.3392 50.7847 16.4516C50.4854 16.4454 50.1819 16.4428 49.8803 16.4425C49.8041 16.7096 49.7515 16.7937 50.8203 16.5215C50.5488 16.8973 48.6857 17.422 47.9208 17.6312C47.3373 17.7846 47.87 17.3227 47.7903 17.3238C47.5199 17.3233 46.6302 17.7763 46.4334 17.8446C45.5953 18.1275 45.0363 18.3919 44.2917 18.6847C44.1468 18.741 43.6907 18.7959 43.6553 18.8083C43.385 18.9099 42.7173 19.1641 42.6446 19.1999C38.9119 21.0691 43.1163 19.4913 39.7313 21.3333C39.8738 21.3475 40.0077 21.3664 40.1475 21.3829C39.9001 21.5335 39.6512 21.6874 39.4063 21.8418C39.0562 21.9723 39.3669 21.6292 38.8002 22.1013C38.7854 21.9875 38.7709 21.8734 38.759 21.7585C38.517 21.9744 38.287 22.1854 38.0431 22.4089C37.4125 22.3715 35.8109 23.3662 35.6784 22.9462C35.6294 22.7993 36.6623 21.9153 35.9848 22.1895C35.4879 22.4935 35.9106 22.4132 35.7208 22.5551C34.3592 23.5884 34.3051 23.348 33.7812 23.817C33.7558 23.9664 33.7279 24.1207 33.7025 24.2723C33.4753 24.4074 33.2483 24.5447 33.0208 24.6849C33.0157 24.7777 33.009 24.8721 33.0045 24.9647C33.2009 24.8151 33.4229 24.6479 33.6052 24.5134C33.5062 24.9074 31.3608 26.8333 32.0612 25.9558C32.3456 25.5956 33.0149 25.1101 32.4076 25.1887C31.8308 25.714 31.1861 26.3196 30.6043 26.8958C30.5397 26.8611 30.4762 26.8252 30.4114 26.7906C29.6168 27.5607 30.5499 27.0943 30.6454 27.2076C30.4606 27.3774 30.2747 27.5498 30.0922 27.7221C29.9687 27.7446 29.8469 27.7617 29.7209 27.7901C29.7857 27.8758 29.8476 28.1488 29.2435 28.5963C28.8554 28.8861 29.216 28.1659 28.5805 28.8325C28.7466 28.9034 29.1191 28.815 28.433 29.5684C28.2395 29.5174 28.0282 29.5051 27.8436 29.4334C27.0679 30.4594 26.4725 30.6969 25.6198 31.9469C25.0781 32.7416 24.5959 34.0069 23.6936 34.0729C23.248 34.6082 23.5172 34.5377 23.4203 34.7224C22.9684 35.5937 22.2932 35.9889 22.1706 36.1258C21.3985 36.9946 21.1993 37.4846 20.5548 38.1895C20.6863 38.2145 20.7994 38.2556 20.9225 38.2879C21.2436 37.4694 21.4942 37.1097 22.2315 36.1531C22.0136 36.4963 21.8012 36.8403 21.5916 37.1868C21.7117 37.1896 21.8314 37.1932 21.9494 37.1985C23.8143 33.9566 23.7763 35.0314 22.0993 37.6244C21.7952 37.738 21.4861 37.8634 21.1831 37.9814C20.4257 39.6398 19.7743 40.2211 18.7232 41.9722C18.5983 42.1802 18.2733 43.0076 18.1049 43.3473C18.1085 43.3421 18.112 43.3368 18.1156 43.3315C18.1627 43.6215 18.3813 43.3753 18.5378 43.4148C18.4608 43.6046 18.3841 43.7959 18.3098 43.9854C17.9991 44.3367 17.979 44.1483 17.612 44.9676C17.7718 44.9102 17.9309 44.8553 18.0906 44.7997C17.6668 45.6777 17.2796 46.2108 16.9674 47.0651C16.9871 46.907 17.0065 46.7506 17.0275 46.5924C16.1331 48.3681 16.1087 46.6408 15.8509 48.1729C15.7581 48.2395 15.6659 48.304 15.5733 48.3714C15.7914 47.783 16.0194 47.1991 16.2552 46.6226C16.1811 46.5763 16.1079 46.5292 16.0328 46.4852C15.787 47.1108 15.5515 47.745 15.3276 48.3809C15.4548 47.9023 15.5892 47.4227 15.7289 46.9477C15.3846 47.649 15.0521 48.3649 14.7376 49.079C15.3296 48.4186 14.9834 49.4345 15.35 49.3569C14.6285 50.5456 13.9284 51.4665 13.5404 53.5883C13.4677 54.0112 13.7348 53.842 13.1685 54.933C13.5766 54.7413 13.3699 56.233 13.7423 56.1239C13.8237 55.7181 13.9192 55.3007 14.0026 54.9093C13.7759 55.3198 13.4472 55.3169 13.535 54.6175C13.645 53.7268 14.2391 52.536 13.8876 52.4855C14.0091 52.149 14.1194 51.8359 14.2409 51.5116C14.2793 51.6742 14.3199 51.8338 14.3605 51.9933C14.5301 51.0201 14.7844 50.4421 15.1509 50.0752C14.7994 51.1942 14.4866 52.3113 14.206 53.4463C14.2687 53.2854 14.333 53.1229 14.3967 52.9628C14.363 53.8716 14.8118 53.0629 14.419 54.6451C14.3222 54.6085 14.2249 54.5737 14.1277 54.5368C14.2302 55.1807 13.8477 56.76 14.2778 56.3299C14.0697 56.7829 13.9876 56.8711 14.0939 57.176C13.5804 58.3742 13.1371 59.1508 12.8651 58.6239C12.8305 59.1123 12.8016 59.6059 12.7809 60.0868C12.9246 59.828 13.0698 59.5703 13.2176 59.3121C13.0613 60.1388 12.9242 60.9649 12.8054 61.7966C12.498 61.8353 12.953 60.1827 12.6205 60.6279C12.5527 60.7169 12.5969 61.1828 12.5509 61.2966C12.0567 62.5017 12.5644 60.5718 12.2697 60.9044C12.0266 62.2089 11.863 61.8343 11.7831 62.4095C11.7514 62.6531 11.7353 63.0691 11.7619 63.8493C11.6708 63.9095 11.5776 63.975 11.4876 64.0307C11.4011 64.9343 11.5997 64.8716 11.5814 65.652C11.5715 66.1394 11.2031 66.7363 11.4124 67.2835C11.4545 67.379 11.8843 66.4996 11.8177 68.3821C11.7865 69.8518 11.5039 69.2388 11.4045 70.037C11.3022 70.8368 11.7845 72.6448 11.3719 73.2077C11.4039 72.7861 11.4068 72.2516 11.4371 71.7846C11.3402 71.5993 11.2454 71.4179 11.1509 71.2331C11.2988 72.2981 11.2362 73.4026 11.5081 74.0992C11.2983 75.5503 11.8139 77.0895 12.1204 76.6152C12.0099 76.1628 11.913 76.6826 11.9363 76.0307C12.0133 75.9551 12.0896 75.8762 12.167 75.8011C12.2816 76.885 12.4023 77.6426 12.0722 77.1819C12.0896 77.352 12.1076 77.5204 12.1266 77.6902C12.3174 77.6927 12.5084 77.6914 12.6991 77.6933C12.7501 77.8897 12.8021 78.0864 12.8552 78.2817C12.85 78.5093 12.8458 78.7375 12.8434 78.9678C12.5014 78.7193 12.3887 78.2005 12.5379 79.9378C12.64 79.9235 12.7422 79.9116 12.8443 79.8973C12.9985 81.342 12.7534 81.4312 13.1985 83.2076C12.5077 81.9262 12.9798 81.0379 12.2772 81.193C12.2497 80.8368 12.2256 80.4775 12.2048 80.121C12.0925 80.0878 11.9801 80.0548 11.8683 80.0235C12.2599 81.9091 13.7149 84.7679 13.6731 86.1046C13.7714 86.2351 13.8633 86.3678 13.9672 86.4982C14.0883 87.7671 14.8448 88.0732 14.952 89.3716C14.9673 89.5059 14.3123 89.4568 14.9503 90.9901C15.0041 90.9235 15.113 90.856 15.1881 90.7894C15.28 91.1377 15.3725 91.4844 15.4691 91.8294C15.5582 91.8613 15.6485 91.8958 15.738 91.9269C15.5214 91.3583 15.3149 90.7875 15.1165 90.2121C15.3243 90.6733 15.5392 91.134 15.7586 91.5882C15.606 90.9388 15.4983 90.6648 15.8159 90.9606C16.0434 91.481 16.2795 91.9979 16.5222 92.5102C16.5885 92.5443 16.6554 92.5778 16.7218 92.6117C16.7346 92.3046 16.7466 91.9981 16.7667 91.6924C17.2493 93.08 17.8037 94.2268 18.084 95.3549C18.1339 95.5463 17.6515 95.0287 18.4145 96.1139C18.3399 96.1772 18.2884 96.2453 18.2216 96.3076C19.2349 97.5953 19.4269 98.0851 20.1561 99.6188C19.7305 98.598 20.1456 99.487 20.377 99.6684C20.5345 99.7931 20.1305 99.1721 20.2349 99.2057C20.3378 99.2421 21.0869 99.8984 20.6776 99.1906C19.1341 97.7819 19.4333 96.9668 18.0024 94.815C18.2487 95.1353 18.4996 95.4549 18.7518 95.7684C18.708 95.5806 18.67 95.4121 18.6239 95.2094C19.1963 96.5248 18.9355 95.8765 19.294 96.3488C19.6543 96.8204 20.2531 97.7047 20.6474 98.2989C20.7715 98.4863 20.5366 98.3521 20.7943 98.7901C20.9688 99.0901 21.6406 99.7794 21.575 100.084C21.5348 100.286 20.3459 99.2293 21.5251 100.995C21.6311 101.407 21.096 100.538 21.0712 100.528C20.8239 100.467 21.4489 101.632 21.9101 102.049C21.9474 102.082 21.7805 101.616 22.1229 102.009C22.9392 102.938 23.2478 103.589 23.579 104.348C23.8248 104.267 24.6839 104.9 25.4512 105.932C25.5466 105.936 25.6404 105.938 25.736 105.942C25.5784 105.816 25.4217 105.688 25.2651 105.559C25.1582 105.366 25.0352 105.169 24.94 104.973C25.8095 105.925 26.1872 105.837 26.6822 106.214C28.3932 107.482 26.8952 107.144 26.5225 106.961C26.3838 106.716 26.2585 106.472 26.128 106.225C26.0845 106.303 26.0409 106.383 25.9956 106.459C28.1264 108.809 25.9057 107.192 26.8962 108.488C27.4873 108.508 28.3274 109.333 29.2506 110.566C29.3743 110.68 29.4979 110.795 29.623 110.908C29.6846 110.882 29.7472 110.814 29.8077 110.816C31.1968 111.993 31.0448 112.672 31.1358 112.836C31.5537 113.545 32.2628 113.639 32.4413 113.779C33.2007 114.369 33.3208 114.669 34.0977 115.163C34.9365 115.686 34.4687 115.184 34.7767 115.269C35.0228 115.339 35.6607 115.773 35.9762 115.876C35.8289 115.867 35.6706 115.848 35.5231 115.838C36.2946 116.504 36.9349 117.055 37.9015 117.692C39.2961 117.908 39.7878 119.262 39.78 118.379C38.8616 117.785 38.3913 117.387 38.0054 116.914C38.6188 117.273 39.2396 117.622 39.8673 117.958C40.0049 118.135 40.0918 118.279 40.2634 118.475C40.8119 118.586 41.8601 119.239 42.3179 119.412C44.4537 120.209 43.9414 119.624 45.616 120.936C44.2372 120.379 44.1272 120.6 42.8111 119.915C43.0173 120.218 43.7167 120.515 43.1824 120.492C44.5087 121.07 44.1695 120.693 44.7479 120.775C45.2454 120.845 46.1354 121.218 46.1593 121.022C46.2096 121.156 46.2412 121.278 46.2925 121.412C47.1518 121.77 48.0163 122.107 48.8905 122.422C48.4811 122.389 48.0716 122.351 47.662 122.309C47.9276 122.455 48.1954 122.599 48.4646 122.742C50.7205 123.257 54.3864 124.858 53.9894 123.872C55.0612 124.116 55.175 124.246 55.7239 124.535C55.8022 124.486 55.8762 124.448 55.9557 124.393C56.6338 124.61 57.2157 124.48 57.8195 124.656C58.4256 124.831 58.5409 125.079 58.6941 124.717C59.0727 124.893 59.4558 125.046 59.8406 125.206C60.0945 125.155 60.3474 125.104 60.5977 125.051C60.8178 125.108 61.039 125.164 61.261 125.218C61.4132 125.255 61.5654 125.292 61.7176 125.328C61.9414 125.174 63.4193 125.403 64.0798 125.322C64.6876 125.559 64.6374 126.19 66.1262 126.14C66.0935 125.985 66.0617 125.831 66.0296 125.676C66.365 125.721 66.7006 125.763 67.0392 125.802C67.0586 125.852 67.0753 125.903 67.0948 125.953C66.921 125.934 66.7526 125.915 66.5804 125.894C66.7277 125.983 66.8721 126.071 67.0182 126.159C67.542 126.044 68.0618 125.922 68.5787 125.793C67.8818 125.702 67.177 125.599 66.4914 125.482C67.3599 125.395 67.9735 125.512 68.7276 125.38C69.3873 125.584 69.1491 125.709 68.8821 125.943C69.1284 125.92 69.3771 125.896 69.6223 125.87C69.4649 126.102 69.8886 126.241 68.4386 126.237C68.5386 126.302 68.6409 126.364 68.739 126.431C68.9774 126.418 69.1329 126.472 69.3937 126.441C70.1033 126.357 70.6372 125.927 70.5807 125.788C70.552 125.716 69.8586 125.882 69.8831 125.776C69.9478 125.516 71.5351 125.585 69.2403 125.393C69.9915 125.213 70.1667 125.332 71.0063 125.339C70.9365 125.257 70.8689 125.176 70.8021 125.093C71.1905 125.114 71.5795 125.131 71.9678 125.144C71.452 125.623 74.3475 125.573 71.7775 126.145C72.5475 126.116 73.3204 126.072 74.09 126.012C73.9366 126.073 73.7826 126.133 73.6281 126.194C73.2779 126.203 72.9276 126.21 72.5788 126.214C72.9937 126.264 73.414 126.309 73.8324 126.35C74.7921 126.151 75.1485 125.944 75.5616 125.696C74.431 125.696 74.8192 125.842 73.9501 125.974C73.9682 125.849 73.9166 125.741 73.9793 125.605C74.4559 125.817 75.8954 125.45 76.2314 125.384C77.2541 125.194 76.4852 125.563 77.1747 125.46C77.8652 125.355 78.6446 125.062 79.2533 125.192C79.2161 125.058 79.1434 124.926 79.0791 124.81C80.1298 124.552 79.951 124.75 80.0655 124.749C81.8895 124.703 82.7747 124.179 84.7223 123.555C84.4609 123.59 84.1981 123.628 83.9348 123.663C85.3271 122.936 84.359 123.338 83.0514 123.6C84.2619 123.294 84.8729 122.838 85.6793 122.495C86.4879 122.155 87.9417 121.758 88.4894 121.647C87.3747 122.255 86.0499 122.611 84.7277 123.067C84.9217 123.154 85.1057 123.222 85.3105 123.319C86.0354 122.776 86.5631 122.8 86.8446 122.743C87.6667 122.574 87.5524 122.341 88.1184 122.422C88.0661 122.341 88.0242 122.273 87.9742 122.197C89.5862 121.638 91.3516 121.041 92.2066 120.247C92.3951 120.408 92.5583 120.571 92.7645 120.728C93.3481 120.259 93.9815 120.134 94.5095 119.812C95.0325 119.491 94.742 119.44 95.3374 119.036C95.4472 118.961 95.7449 118.928 95.9876 118.694C96.2379 118.459 96.9555 117.305 97.3614 117.699C97.8868 117.384 98.3881 117.093 98.8971 116.774C98.423 117.119 97.9434 117.455 97.4605 117.784C97.9567 117.639 98.4493 117.489 98.9446 117.329C98.9342 117.194 98.9224 117.058 98.9099 116.926C99.9578 116.071 100.869 115.676 101.936 114.829C102.113 114.686 101.547 114.82 102.383 114.263C103.213 113.7 104.085 113.584 105.284 112.333C105.345 112.268 105.507 111.685 106.118 111.447C106.258 111.393 105.871 111.845 106.157 111.682C106.446 111.522 107.54 110.58 107.733 110.617C107.681 110.586 107.574 110.604 107.502 110.591C107.661 110.401 107.82 110.209 107.978 110.015C108.067 110.073 108.157 110.129 108.245 110.186C109.087 109.012 109.317 108.233 110.799 106.76C110.299 107.102 109.795 107.435 109.289 107.757C109.257 107.945 109.224 108.134 109.192 108.321C108.499 108.988 107.789 109.639 107.066 110.268C107.034 110.463 107.003 110.656 106.969 110.852C106.771 111.015 106.575 111.176 106.376 111.336C106.365 111.229 106.354 111.122 106.345 111.014C105.988 111.37 105.625 111.722 105.261 112.067C105.698 111.023 107.396 110.18 107.006 109.958C107.214 109.85 107.423 109.741 107.631 109.631C107.557 109.413 107.927 109.139 108.515 108.582C108.312 108.644 108.098 108.719 107.906 108.766C108.562 108.315 109.505 107.294 110.084 106.723C110.339 106.473 110.214 106.839 110.298 106.771C110.733 106.425 111.209 105.462 111.362 105.308C112.284 104.388 113.207 104.018 113.792 102.672C112.851 103.807 113.354 103.183 112.895 103.49C112.751 103.587 111.5 105.006 112.987 103.166C113.189 102.978 115.912 99.6174 115.329 100.933C115.651 100.302 115.867 99.7873 116.13 99.1976C117.543 98.2203 116.698 98.3458 116.159 98.5488C116.29 98.3299 116.412 98.1196 116.546 97.893C116.591 98.5738 118.048 96.1028 118.305 95.1401C118.397 94.8226 117.875 95.5739 118.167 94.8814C118.352 94.5771 118.563 94.231 118.754 93.9048C118.302 94.2908 118.686 93.289 118.458 93.1989C118.944 92.6791 119.575 92.3832 119.645 92.8319C119.79 92.2706 119.927 91.709 120.053 91.1464C119.898 91.3671 119.741 91.5895 119.584 91.8069C120.478 90.1707 120.949 87.8158 121.549 87.6093C121.626 87.3736 121.701 87.1381 121.774 86.9033C121.716 86.8044 121.656 86.7082 121.598 86.6098C122.008 85.5793 122.39 84.5285 122.739 83.4728C122.54 84.4437 122.595 84.7053 122.202 85.6784C122.413 85.3227 122.623 84.9536 122.824 84.5997C122.973 83.015 122.878 82.7639 123.436 80.4823C123.466 80.3828 124.007 78.6601 124.031 78.6044C124.175 78.3445 124.248 78.7872 124.318 78.6724C124.523 78.3607 125.167 76.2951 125.207 76.3369C125.896 76.9475 124.566 84.1188 123.908 85.9846C118.463 105.846 101.537 121.136 81.8475 125.872C81.6448 125.922 81.7559 125.995 81.6702 126.019C81.1357 126.173 80.5755 126.141 80.3748 126.178C79.9461 126.256 80.2096 126.343 79.8971 126.408C76.6656 127.069 73.553 127.359 70.264 127.504C70.0489 127.512 70.2647 127.394 69.8878 127.426C69.6953 127.443 69.0918 127.627 68.6513 127.633C67.1099 127.651 65.8295 127.56 64.2073 127.455C63.3267 127.399 62.0133 127.262 61.0249 127.141C61.0229 127.14 61.0209 127.14 61.0189 127.14C60.5827 127.087 60.1193 127.104 59.6905 127.044C59.0826 126.958 59.2315 126.818 59.1398 126.795C58.7393 126.688 58.6552 126.85 58.2697 126.781C57.5517 126.647 57.5297 126.528 56.6196 126.358C55.9698 126.24 54.4706 125.998 53.6523 125.812C51.7944 125.208 49.4304 124.517 47.706 123.913C46.6878 123.557 46.6561 123.363 46.2474 123.2C44.8129 122.618 43.6557 122.324 42.3403 121.687C40.5991 120.836 39.1645 119.883 37.5758 118.893C37.3187 118.732 37.2992 118.896 37.0444 118.74C36.1011 118.166 34.9122 117.394 34.127 116.801C33.2493 116.138 33.0573 115.723 32.1881 115.1C31.934 114.916 31.7429 115.008 31.317 114.694C30.6366 114.191 30.0438 113.463 29.6166 113.061C29.0321 112.507 29.4231 113.12 28.6359 112.369C28.6037 112.338 28.5775 112.127 28.4028 111.973C27.8959 111.521 27.8673 111.649 27.1625 110.945C27.0922 110.879 26.2587 109.85 26.1716 109.753C25.6346 109.2 24.6263 108.021 24.3091 107.694C23.1709 106.525 23.841 107.632 23.2985 106.282C22.8264 105.883 22.3612 105.48 21.8798 105.032C22.2199 105.314 21.2727 103.833 21.1984 103.736C20.5408 102.956 20.7477 103.553 20.0301 102.476C21.3348 103.647 19.1218 101.079 18.7303 100.429C16.758 97.3812 15.3378 94.3836 13.9724 91.0087C13.5146 89.8802 12.8752 88.367 12.4862 87.1362C12.3948 86.8493 12.5549 87.0371 12.4772 86.784C12.3996 86.5315 12.3843 86.8435 12.3001 86.5534C11.7828 84.7409 11.6155 83.2751 11.0022 81.6513C11.0204 81.5617 11.0492 81.5583 11.0599 81.4144C10.5282 80.0825 10.4039 77.3478 10.3398 76.3377C10.2224 74.7569 10.0416 74.3566 9.991 73.207C9.91992 71.677 10.2031 69.3855 9.72127 70.4152C9.68771 69.3694 9.69281 68.3449 9.7765 67.294C9.786 67.1764 9.90881 67.2622 9.91314 67.2152C9.94255 66.9183 9.83454 66.8162 9.8388 66.614C9.85218 66.0661 9.94145 66.9656 9.94428 66.1839C9.94874 65.7731 9.8578 65.5255 9.9494 64.391C10.0097 63.6723 10.0844 62.9455 10.1743 62.212C10.9216 55.97 12.8392 49.5024 15.6378 43.817C15.8521 43.3815 15.6009 43.614 15.8799 43.0723C16.8325 41.1693 18.9476 38.0252 19.975 36.5214C20.9886 35.0106 20.6148 35.2458 21.2336 34.2795C21.3548 34.0939 21.327 34.2997 21.4485 34.1411C22.2627 33.0728 23.402 31.9338 24.1322 31.1352C24.6165 30.6057 24.4604 30.5438 24.7858 30.165C25.2726 29.6014 25.9159 29.1582 26.1946 28.8779C27.5065 27.5607 28.3488 26.5862 29.6977 25.4856C29.6234 25.504 29.5682 25.5093 29.502 25.5214C31.0527 24.1629 32.6724 22.8879 34.3568 21.7C34.259 21.73 34.1637 21.7583 34.0656 21.7885C36.0565 20.4077 36.0391 20.8811 35.4496 20.3818C35.5826 20.2618 35.7229 20.133 35.8517 20.0202C36.0049 20.3748 37.3722 19.7905 39.0256 18.9466C39.145 18.8835 39.7613 18.1125 39.8872 18.5426C40.0432 18.3339 40.1323 18.2011 40.265 18.0222C40.6739 17.9499 41.0864 17.8785 41.4943 17.8151C41.673 17.7004 41.8552 17.586 42.0349 17.4734C42.0244 17.383 41.963 17.3147 41.9862 17.2092C42.8573 16.7464 44.7404 15.9997 45.4542 15.6949C47.2198 14.9136 49.0073 14.0282 50.5178 13.8125C51.2095 13.5696 50.4627 13.6223 51.5153 13.3261C51.658 13.3722 51.7922 13.4176 51.9398 13.4658C52.6915 12.8571 52.9351 13.0246 54.1368 12.8034C54.9523 12.6582 55.4556 12.4492 56.229 12.3051C56.425 12.2692 56.4197 12.384 56.5523 12.3533C56.995 12.2475 58.249 11.8635 58.5667 11.8105C61.4483 11.2984 63.9531 11.0914 66.7383 11.0634C67.0363 11.0612 66.6475 10.9594 66.9564 10.9579C67.4539 10.9569 67.1637 11.1303 67.4513 11.135C68.2535 11.1526 68.2605 10.9704 69.3866 10.9821C71.2375 11.0083 73.2277 11.1712 75.23 11.4492C77.2179 11.7239 79.1981 12.1094 81.0638 12.539C81.1813 12.5657 81.1978 12.4626 81.3264 12.4911C82.165 12.6794 82.968 13.0304 83.7117 13.2347C84.9522 13.5782 85.9187 13.7245 87.1243 14.1363C89.4805 14.9505 91.5046 15.8669 93.8033 16.9939C95.6764 17.9225 97.2786 18.7901 99.2206 20.011C107.689 25.3307 115.16 32.8831 119.752 41.9322C119.869 42.1619 119.738 42.1123 119.778 42.1798C120.159 42.8215 120.298 42.8276 120.185 43.1806C120.653 44.005 120.963 44.1902 121.429 45.2427C121.672 45.805 121.213 45.5082 121.767 46.3932C122.253 47.2004 122.047 46.1745 122.895 48.8308C122.916 48.9018 122.871 49.304 123.11 49.8314C123.346 50.3638 123.257 49.6825 123.742 50.9969C124.877 54.0926 125.695 58.1989 126.205 61.9846C126.249 62.2167 126.583 64.5088 126.649 64.9615C126.798 65.8353 126.927 65.6421 127.015 66.7937C127.077 67.6894 126.938 68.4179 126.967 69.465C126.97 69.5866 127.133 69.7928 127.095 70.582ZM12.8476 77.5802C13.0356 77.7623 13.6509 78.0387 13.6949 79.2777C13.6998 79.3968 13.1949 78.8418 13.2563 79.5294C13.0923 78.8753 12.9714 78.2334 12.847 77.5803C12.8472 77.5803 12.8474 77.5802 12.8476 77.5802ZM123.038 75.8308C123.176 74.9124 123.29 73.9951 123.382 73.0768C123.408 73.7177 123.423 74.3574 123.428 75.0006C123.3 75.2794 123.17 75.5544 123.038 75.8308ZM47.0678 17.8875C47.0686 17.8872 47.0694 17.8869 47.0702 17.8865C46.1959 18.3259 45.337 18.7868 44.4901 19.27C44.5589 19.1768 44.6283 19.0833 44.6979 18.9903C45.3594 18.5864 46.0284 18.1967 46.7063 17.8204C46.8269 17.8425 46.9476 17.8647 47.0678 17.8875ZM54.2285 14.905C54.8545 14.814 54.7317 14.9592 55.0921 14.9819C55.0921 14.9817 55.092 14.9815 55.092 14.9813C55.1871 14.9867 55.6048 14.9137 55.7644 14.8822C55.6905 14.8284 55.5996 14.7796 55.5205 14.7277C56.9182 14.2298 59.8177 14.2841 56.2668 15.2404C56.3016 15.1438 56.3344 15.0481 56.3698 14.9516C54.5924 15.3557 52.5686 15.7349 54.2285 14.905ZM17.1572 91.631C18.0543 92.9408 18.3103 93.3576 19.0064 95.1246C18.8107 94.926 18.616 94.7251 18.4228 94.5228C18.3543 94.2065 18.2893 93.8924 18.2267 93.576C18.2263 93.5752 18.2259 93.5744 18.2255 93.5736C18.1205 93.5554 18.0153 93.5368 17.9113 93.5202C17.6488 92.8958 17.3959 92.2625 17.1572 91.631ZM109.197 31.338C109.073 32.0462 109.238 31.7209 108.289 30.9067C107.96 30.6273 108.178 30.9982 107.981 30.8174C106.913 29.8503 107.086 29.5073 107.458 29.5919C108.052 30.1615 108.638 30.7507 109.195 31.336C109.196 31.3367 109.197 31.3374 109.197 31.338ZM124.054 65.2854C124.054 65.2863 124.054 65.2872 124.054 65.2881C123.918 65.335 123.839 64.7564 123.755 65.4216C123.721 64.9239 123.681 64.4221 123.633 63.92C123.66 64.066 123.686 64.2155 123.712 64.362C123.748 64.2275 123.784 64.0923 123.819 63.9574C123.643 63.7947 123.721 63.621 123.716 63.0904C123.563 63.2541 123.409 63.416 123.254 63.5773C123.242 62.9664 123.22 62.3581 123.188 61.7448C123.229 61.7315 123.271 61.7181 123.312 61.7048C123.226 61.4835 123.139 61.2656 123.051 61.0465C123.092 60.9771 123.133 60.9099 123.174 60.8402C123.094 60.5713 123.011 60.3032 122.926 60.0367C123.033 59.9329 123.192 60.5262 122.975 59.4636C123.159 59.7683 123.34 60.0754 123.519 60.3887C123.77 62.0146 123.948 63.6455 124.054 65.2854ZM100.585 23.9623C102.055 25.0032 101.584 24.7815 101.087 24.7577C100.923 24.4925 100.755 24.2262 100.585 23.9623ZM19.7877 40.9754C19.687 41.5261 19.5946 42.0731 19.5011 42.628C19.0864 43.6023 18.2988 44.3943 18.5417 43.6181C18.8417 42.6818 19.4891 41.8919 19.7877 40.9754ZM12.4435 63.9631C12.6652 62.6725 12.7637 63.9202 12.8711 64.2209C12.6255 64.5594 12.5993 65.0537 12.5227 65.8604C12.5551 65.1012 12.4064 64.1791 12.4429 63.963C12.4431 63.963 12.4433 63.963 12.4435 63.9631ZM33.6948 25.4057C34.1017 25.0794 34.4833 24.722 34.8972 24.4963C34.8924 24.7263 34.0505 25.1544 34.745 24.9703C34.4825 25.1737 34.2214 25.3796 33.9649 25.5865C34.0609 25.3687 33.7867 25.4756 33.6962 25.4054C33.6957 25.4055 33.6953 25.4056 33.6948 25.4057ZM85.0083 16.3886C84.1017 15.877 83.8792 15.9081 82.8525 15.7788C82.7566 15.5678 84.0257 15.6103 84.7854 15.7816C84.8601 15.9835 84.9339 16.1858 85.0083 16.3886ZM111.384 104.341C111.409 104.677 110.265 106.091 109.603 106.711C109.65 106.608 109.697 106.506 109.743 106.403C110.307 105.728 110.854 105.04 111.384 104.341ZM12.4845 66.2432C12.4987 66.1087 12.5113 65.981 12.5227 65.8604C12.5166 65.9949 12.5051 66.1242 12.4845 66.2432ZM33.8394 114.501C33.3637 114.405 34.3508 115.253 33.1509 114.224C33.1508 114.224 33.1507 114.225 33.1505 114.225C32.3639 113.536 32.1949 113.378 31.4658 112.745C31.9092 112.762 33.4627 113.93 31.4444 112.165C31.418 112.142 31.3648 112.312 31.0551 112.014C30.9597 111.922 30.7267 111.543 30.2767 111.083C30.1308 110.933 29.0085 109.849 30.5811 111.282C30.6612 111.098 30.8746 111.03 30.994 110.889C31.6422 111.396 31.8776 112.09 32.5596 112.641C33.5758 113.455 34.3312 113.546 34.2298 114.092C33.2807 113.537 31.8238 112.332 31.837 111.945C31.0412 111.256 30.6524 111.23 31.2164 111.886C34.1222 114.119 31.7346 112.848 34.3995 114.664C34.4712 114.632 34.6215 114.651 34.6437 114.587C35.2906 115.364 34.0075 114.539 33.8394 114.501ZM28.4046 109.056C28.954 109.4 29.5071 109.731 30.0622 110.051C29.9012 110.223 29.5 110.149 28.6921 109.545C28.5961 109.383 28.4991 109.218 28.4046 109.056ZM77.1013 124.732C77.1705 124.591 77.3893 124.435 77.5412 124.284C77.7501 124.401 82.2007 123.543 79.9726 124.139C79.6485 124.235 77.6005 124.397 77.1013 124.732ZM91.6802 18.7817C91.2333 18.4782 90.7857 18.1827 90.3324 17.8931C91.1031 18.1657 91.8752 18.4572 92.6377 18.7647C92.317 18.7672 91.9992 18.7735 91.6802 18.7817ZM15.7763 48.7054C15.8641 48.4963 15.752 49.261 16.055 48.421C15.9125 49.0815 15.7838 49.6902 15.6645 50.3339C15.5201 50.4872 15.3758 50.6438 15.2326 50.7998C15.2335 50.9605 15.2337 51.1239 15.236 51.2844C15.1496 51.1592 15.063 51.0439 14.9771 50.9123C15.586 49.9647 15.3945 49.6314 15.7763 48.7054ZM35.3282 23.041C35.6407 23.143 34.4415 24.1948 35.7374 23.3221C35.5961 23.6358 35.261 23.9816 34.5425 24.5384C34.3858 24.5726 34.2295 24.6078 34.0726 24.6435C34.1649 24.798 34.0175 24.9916 33.6948 25.4057C33.6943 25.4058 33.6938 25.406 33.6933 25.4061C32.6211 26.2713 32.6558 26.182 32.2103 26.1668C33.4479 25.3632 33.3175 25.1353 34.018 24.3956C34.5009 23.8892 35.2619 23.4017 35.3282 23.041ZM72.2943 125.299C73.3081 124.991 72.3654 124.875 74.2127 124.929C74.1014 124.998 73.989 125.066 73.8768 125.135C73.3514 125.198 72.8191 125.253 72.2943 125.299ZM40.1355 21.0308C39.8284 20.7314 38.8165 20.9612 39.0245 21.62C39.9049 21.2468 39.3155 21.1585 40.1355 21.0308ZM11.8484 63.4527C11.9034 62.9766 11.9779 62.6504 12.0566 62.4431C12.2409 61.9614 12.4432 62.1215 12.5672 62.5058C12.5957 62.5939 12.6204 62.6938 12.64 62.8007C12.5426 62.9062 12.4454 63.012 12.3495 63.116C12.3519 63.4399 12.3572 63.7629 12.3647 64.0849C12.1916 63.8763 12.0191 63.6654 11.8484 63.4527ZM70.9091 13.1255C69.4969 13.3484 72.4096 13.3714 71.4226 13.5008C70.6377 13.598 69.6286 13.2719 70.0212 13.0995C70.2914 13.1037 70.5925 13.1126 70.9064 13.1254C70.9073 13.1254 70.9082 13.1255 70.9091 13.1255ZM62.8126 13.3825C63.0707 13.675 62.7321 13.6071 63.8274 13.4626C64.1369 13.4086 66.6458 13.411 65.5829 13.1991C64.684 13.2386 63.7464 13.2977 62.8126 13.3825ZM14.0629 84.4532C13.9298 84.512 13.1457 82.7105 13.1686 82.4448C13.1684 82.4448 13.1682 82.4449 13.168 82.4449C13.208 81.745 13.7224 83.7227 13.7823 82.7954C14.0226 84.7536 14.7901 85.1406 13.9911 85.2332C13.6357 84.1286 13.9462 84.6125 14.0629 84.4532ZM122.617 83.4567C122.617 83.4559 122.618 83.455 122.618 83.4541C122.582 83.5805 122.109 84.5574 122.075 84.4125C122.468 83.1951 122.538 83.4443 122.609 82.2308C122.692 82.1829 122.771 82.1435 122.855 82.0902C122.787 82.5638 122.807 82.8416 122.617 83.4567ZM81.9769 124.003C81.5253 124.156 80.6479 124.212 80.1249 124.333C81.6698 123.42 83.7661 123.381 81.9769 124.003ZM120.024 48.1475C120.024 48.1464 120.023 48.1452 120.022 48.144C120.023 48.1443 120.023 48.1447 120.024 48.1449C120.024 48.1458 120.024 48.1467 120.024 48.1475ZM46.1017 120.883C46.1431 120.941 46.1623 120.984 46.1627 121.014C46.1616 121.017 46.1606 121.019 46.1596 121.022C46.1428 120.977 46.1242 120.931 46.1017 120.883ZM15.3227 88.2616C15.4131 89.0889 14.2254 86.6502 14.057 85.7847C14.1579 85.8176 14.2359 85.8038 14.3731 85.9096C14.3587 86.6514 15.3035 88.1296 15.3227 88.2616ZM26.8093 31.294C25.3769 32.8632 26.6827 30.3022 27.2088 30.6364C27.2133 30.6471 26.8446 31.2526 26.8093 31.294ZM12.0163 71.9545C11.7682 71.4233 11.7421 72.5146 11.7261 70.77C11.7825 70.6675 11.8394 70.5653 11.8965 70.4634C11.9296 70.9583 11.9698 71.458 12.0163 71.9545ZM17.8825 42.0824C16.6904 44.532 15.8932 46.9947 17.1783 45.6587C17.2452 45.4668 17.3149 45.2731 17.3838 45.082C17.1216 44.9229 17.5894 44.3175 18.1019 43.3518C18.0652 43.1568 18.3257 42.6056 18.2899 42.4562C18.2198 42.1655 17.7613 42.7199 17.8825 42.0824ZM113.569 35.5233C113.501 35.5197 113.434 35.5173 113.367 35.5136C113.065 35.2091 112.761 34.9074 112.453 34.6108C112.575 34.6028 112.696 34.5952 112.817 34.5879C113.071 34.8967 113.32 35.2067 113.568 35.5209C113.568 35.5217 113.569 35.5225 113.569 35.5233ZM26.1325 107.609C26.7236 107.397 26.061 106.863 24.7234 105.726C25.1787 106.362 25.6497 106.991 26.1325 107.609ZM50.7206 15.1349C50.8242 15.2733 50.9264 15.4116 51.0316 15.5496C51.8541 15.1127 51.6419 14.9853 51.1531 14.9097C51.0075 14.9845 50.8653 15.059 50.7206 15.1349ZM63.7484 12.5104C63.3644 12.506 63.5694 12.6226 63.5294 12.623C62.555 12.636 62.4091 12.5861 61.2397 12.8224C61.0993 12.8743 60.9621 12.9281 60.8227 12.9821C61.4081 13.2541 61.7787 13.0151 62.9515 13.1073C62.7331 13.0092 62.5145 12.9122 62.294 12.8161C62.9393 12.7751 63.5862 12.7448 64.2286 12.7262C64.3023 12.6849 64.3765 12.6441 64.4506 12.603C64.2184 12.5711 63.9782 12.5355 63.7484 12.5104ZM116.206 39.6706C116.523 40.2094 116.832 40.7561 117.131 41.3052C117.216 41.2831 117.3 41.26 117.385 41.2381C117.001 40.7084 116.607 40.1844 116.206 39.6706ZM35.9762 115.876C36.034 115.88 36.0909 115.882 36.1436 115.881C36.119 115.91 36.0579 115.903 35.9762 115.876ZM123.456 81.959C123.672 81.2812 123.841 80.2679 123.992 79.4979C123.779 79.5246 123.455 81.4783 123.164 82.1226C123.175 82.2401 123.365 82.2483 123.456 81.959ZM12.1899 60.9157C12.1119 60.724 12.0353 60.5319 11.9588 60.3414C12.038 59.9168 12.122 59.4961 12.2119 59.0671C12.1292 59.0389 12.0457 59.0108 11.9631 58.9825C11.7414 60.8955 11.5813 60.4143 11.1964 61.3286C11.5271 61.1867 11.8578 61.0511 12.1899 60.9157ZM124.033 57.9552C123.694 56.6066 123.465 56.1625 123.387 56.9752C123.551 57.436 123.71 57.9031 123.863 58.3708C123.92 58.2319 123.976 58.0924 124.033 57.9552ZM59.0083 125.346C60.131 125.427 60.1339 125.757 61.1982 125.729C61.2269 125.728 61.2563 125.727 61.2865 125.726C61.258 125.719 61.2296 125.712 61.2011 125.706C60.6331 125.574 60.0702 125.434 59.5145 125.287C59.3473 125.308 59.1758 125.327 59.0083 125.346ZM15.209 92.3817C15.2989 92.8871 16.1909 93.4907 16.4253 94.9209C16.6865 95.1617 16.8881 95.2915 17.1282 95.4873C17.0835 95.6959 17.049 95.9259 17.004 96.1285C17.0045 96.1293 17.0049 96.1302 17.0053 96.131C17.6395 97.2258 17.4033 96.4211 17.5429 96.3798C17.6 96.3642 17.9602 97.2294 17.9336 96.9116C17.8783 96.3699 16.9079 94.7645 17.1539 94.637C17.3626 95.2647 18.0313 96.3627 18.0128 95.9427C17.992 95.4875 17.1468 94.5698 16.9659 93.8047C17.0534 94.9854 16.1872 92.8715 16.3956 92.4973C15.6283 91.3839 16.0081 92.55 16.6085 93.7851C16.0206 93.1368 16.6706 94.1926 16.5727 94.4674C16.0573 93.753 14.9675 90.9715 15.209 92.3817ZM24.143 32.6803C23.5588 33.3985 22.5496 34.4531 22.344 35.0922C22.2228 35.4604 23.17 34.3676 22.7273 35.2791C23.2512 34.5533 23.3215 34.3484 23.0902 34.3628C23.1997 34.1883 23.312 34.013 23.4242 33.8395C23.5097 33.7861 23.5964 33.7307 23.682 33.6778C23.6942 33.5495 23.7078 33.4209 23.7193 33.2944C23.868 33.1336 24.0192 32.9718 24.1699 32.8134C24.1589 32.7708 24.1632 32.7173 24.143 32.6803ZM91.4406 121.068C91.2091 121.175 90.9792 121.279 90.7464 121.383C90.7889 121.411 90.8371 121.437 90.884 121.464C90.9189 121.486 90.9538 121.508 90.9887 121.529C90.8037 121.481 89.6081 121.771 89.1795 122.078C88.9633 122.233 89.5979 122.235 88.5899 122.672C89.3276 122.375 90.0006 122.066 90.7013 121.742C90.665 121.832 90.6312 121.923 90.5943 122.013C90.5947 122.013 90.5952 122.013 90.5957 122.013C90.8385 121.926 91.0838 121.837 91.3255 121.747C91.3658 121.52 91.4029 121.294 91.4406 121.068ZM49.9058 15.0629C49.117 15.4728 48.869 15.6416 49.3295 15.709C49.3304 15.7088 49.3313 15.7086 49.3322 15.7084C49.6064 15.5095 49.8841 15.3124 50.1622 15.1181C50.0776 15.0993 49.993 15.0805 49.9058 15.0629ZM42.0585 120.35C44.0845 120.458 40.1461 118.991 40.7157 119.598C40.7394 119.63 41.942 120.193 42.0585 120.35ZM11.5601 63.7653C11.5989 63.3114 11.6438 62.856 11.694 62.3986C11.6999 62.3449 11.7058 62.2913 11.7119 62.2376C11.6594 62.285 11.6069 62.3331 11.5545 62.3815C11.4913 62.4398 11.4281 62.4984 11.3651 62.5563C11.4256 62.9616 11.491 63.3653 11.5601 63.7653ZM122.875 51.9945C122.933 51.4107 122.56 50.0563 122.088 49.5056C122.184 49.8505 122.277 50.1963 122.367 50.5427C122.119 49.915 121.86 49.301 121.591 48.6795C121.28 48.7609 121.741 49.4173 122.045 50.5542C122.096 50.7326 122.088 51.9479 122.487 52.239C122.572 52.2973 122.232 51.1112 122.665 51.8725C122.563 51.5105 122.458 51.2044 122.351 50.8654C122.414 50.8166 122.477 50.7679 122.54 50.7165C122.657 51.1432 122.767 51.5662 122.875 51.9945ZM20.9045 36.9948C20.1736 38.0376 20.2026 38.2464 20.2462 38.588C20.5438 38.0784 20.8495 37.5738 21.1625 37.0741C21.076 37.0487 20.9916 37.0203 20.9045 36.9948ZM118.427 41.4911C118.118 40.8619 118.105 41.2134 117.937 40.9861C117.296 40.1302 117.034 39.4439 116.404 38.6024C116.471 38.6421 116.533 38.6784 116.597 38.7168C116.597 38.716 116.596 38.7153 116.596 38.7145C113.965 34.4925 115.124 36.8709 116.757 39.3364C116.736 39.431 116.713 39.5232 116.692 39.6173C117.485 40.681 118.173 41.699 118.427 41.4911ZM28.5577 110.79C28.5701 110.86 28.0322 110.723 28.7782 111.255C29.5706 111.458 28.5785 110.798 28.4743 110.483C28.6765 110.626 28.8821 110.771 29.0836 110.908C28.1044 109.826 27.8971 109.732 28.073 110.313C28.0863 110.354 28.5455 110.721 28.5577 110.79ZM35.9286 116.986C36.4153 116.622 34.7596 115.789 34.71 115.967C34.9139 116.122 35.1316 116.156 35.3282 116.347C35.5274 116.538 35.5071 116.691 35.9286 116.986ZM10.8343 72.3681C10.8338 72.4219 10.622 72.9806 10.8096 72.9149C11.2144 72.2185 10.8799 70.88 10.7312 71.1194C10.753 71.5701 10.8325 71.867 10.8337 72.3681C10.8339 72.3681 10.8341 72.3681 10.8343 72.3681ZM124.956 60.1631C124.972 60.1344 124.836 58.7764 124.71 58.6186C124.582 58.4949 124.46 58.4451 124.336 58.3591C124.582 59.0765 124.749 60.5791 124.956 60.1604C124.956 60.1613 124.956 60.1622 124.956 60.1631Z" fill="white"/>
</svg>
