<svg width="137" height="137" viewBox="0 0 137 137" fill="none" xmlns="http://www.w3.org/2000/svg">
<circle cx="68.3441" cy="68.3441" r="61.3273" transform="rotate(7 68.3441 68.3441)" fill="black"/>
<path d="M114.191 46.1385C114.288 46.9343 113.407 44.5153 113.773 46.2142C113.614 45.8966 113.449 45.5793 113.283 45.2657C113.36 45.1328 113.436 44.9972 113.512 44.8631C113.744 45.2842 113.97 45.7081 114.192 46.1382C114.192 46.1383 114.192 46.1384 114.191 46.1385ZM115.889 46.1523C115.389 45.8644 114.744 44.5999 115.041 46.1398C115.201 46.2053 115.361 46.2746 115.521 46.342C115.636 46.8742 115.743 47.4084 115.842 47.9399C115.953 48.1029 116.063 48.2664 116.172 48.4313C116.056 48.7336 115.936 49.0321 115.815 49.3306C115.774 49.1174 115.731 48.9016 115.687 48.6887C115.234 47.9487 114.924 47.2639 114.451 46.215C114.444 46.3274 114.437 46.4398 114.429 46.552C114.286 45.9818 114.133 45.4133 113.972 44.8486C114.256 45.2739 114.567 45.7562 114.82 46.1604C114.84 45.3347 114.122 44.1888 113.758 43.5975C113.263 42.7909 113.497 42.9128 113.123 42.3185C113.063 42.2238 112.947 42.2689 112.844 42.0743C112.335 41.0879 111.309 39.1851 112.189 40.1402C113.058 41.7582 113.973 43.0594 114.639 44.7475C114.745 44.1748 115.253 44.9912 115.889 46.1523ZM93.7868 21.1143C94.3424 21.2769 95.2478 21.9638 95.8021 22.4995C95.8028 22.5 95.8035 22.5005 95.8042 22.501C95.9271 22.6188 96.1095 23.0151 95.6699 22.69C94.954 22.1643 94.7827 21.6425 94.2639 21.5741C94.1127 21.4224 93.949 21.2695 93.7868 21.1143ZM92.1249 20.1063C91.6944 19.7551 92.0403 19.6583 92.5969 20.075C92.597 20.0748 92.5971 20.0746 92.5972 20.0744C92.8279 20.2499 92.2418 20.1244 93.2269 20.4925C93.3209 20.7398 93.4177 20.9731 93.508 21.2147C93.2957 21.0818 93.1004 20.9633 92.8761 20.8262C93.1653 20.6969 92.5541 20.4574 92.1249 20.1063ZM111.598 39.4042C111.35 39.4495 111.538 39.7608 111.698 40.3756C111.42 39.868 111.133 39.3635 110.84 38.8667C111.094 39.0438 111.346 39.2215 111.598 39.4042ZM116.978 51.9664C116.978 51.9673 116.978 51.9681 116.979 51.969C117.068 52.1425 117.156 52.3164 117.242 52.4881C117.192 52.6208 117.141 52.7517 117.089 52.8835C117.343 53.5113 117.586 54.1497 117.817 54.7914C117.55 54.7689 117.306 53.5816 116.955 52.9897C116.771 52.02 116.77 51.5186 116.961 51.3936C116.968 51.584 116.973 51.774 116.978 51.9664ZM7.98786 71.9927C8.07789 72.2168 8.16905 72.4367 8.2617 72.6584C8.26547 72.352 8.26412 72.0472 8.27797 71.7391C7.90967 70.9639 8.17533 70.8685 8.10668 69.8196C7.95897 66.6115 7.48492 67.4241 8.2925 64.5526C8.16412 66.8769 8.53365 65.9946 8.77354 67.3906C8.57707 67.6829 8.14598 66.2869 8.04936 67.232C8.25182 68.8606 8.50111 70.4148 8.78656 72.1851C8.81553 72.1299 8.84472 72.0751 8.87385 72.02C8.82883 71.7372 8.78641 71.4613 8.74585 71.1796C8.8566 71.4788 8.96823 71.7672 9.08541 72.0701C8.8479 71.6956 9.04882 72.6841 8.80409 72.5723C8.69412 72.5228 8.5095 72.0919 8.38939 71.8359C8.3895 72.5203 8.40848 73.2206 8.43644 73.91C8.31212 73.5657 8.19093 73.2192 8.07325 72.8725C8.04205 72.581 8.01406 72.2909 7.98739 71.9982C7.98754 71.9964 7.9877 71.9946 7.98786 71.9927ZM113.955 90.5943C113.82 91.4728 113.155 92.8869 112.524 93.4756C113.031 92.5267 113.505 91.5706 113.955 90.5943ZM117.115 51.2792C117.103 51.3843 117.091 51.4863 117.079 51.5911C116.884 51.202 116.684 50.8139 116.48 50.4319C116.569 50.3174 116.656 50.2007 116.743 50.0831C116.871 50.4792 116.995 50.8798 117.115 51.2792ZM103.014 28.0781C103.241 28.2944 103.258 28.3167 103.519 28.6069C103.518 28.6066 103.518 28.6062 103.518 28.6058C103.625 28.7182 104.464 29.704 104.296 29.6631C103.858 29.1957 103.385 28.7041 102.92 28.2414C102.949 28.1845 102.988 28.1389 103.014 28.0781ZM107.952 33.793C107.952 33.7938 107.953 33.7946 107.953 33.7955C108.084 33.9897 108.194 34.1834 108.334 34.3798C107.699 33.7733 107.821 33.5076 107.274 32.9333C106.724 32.362 106.306 32.0832 106.143 31.3424C106.346 31.4974 106.577 31.6541 106.79 31.8128C107.395 32.772 107.683 32.9251 108.346 33.5582C108.214 33.6364 108.084 33.7145 107.952 33.793ZM9.35799 57.7556C9.2217 57.5125 9.43493 57.3059 9.44145 57.2821C9.44157 57.2826 9.44169 57.2831 9.44181 57.2835C9.64163 55.383 9.48079 57.5398 9.86392 55.7914C9.85181 56.0605 9.84489 56.3259 9.83756 56.5929C9.67544 56.9762 9.50385 57.3738 9.35799 57.7556ZM48.4468 14.0957C48.4779 14.14 48.5124 14.1834 48.5434 14.2277C47.5072 14.5214 47.3104 14.7979 46.4073 14.904C47.0796 14.6213 47.7593 14.3517 48.4466 14.0951C48.4466 14.0953 48.4467 14.0955 48.4468 14.0957ZM99.2269 24.1583C100.217 24.8441 100.92 25.3991 101.666 26.2927C101.666 26.2935 101.667 26.2942 101.667 26.295C101.71 26.3468 101.401 26.2089 101.446 26.2874C101.632 26.4356 101.829 26.584 102.017 26.7342C101.982 26.819 101.946 26.9027 101.911 26.987C101.438 26.5086 100.956 26.038 100.463 25.5743C100.505 25.6778 100.549 25.7826 100.59 25.8862C100.144 25.526 99.6957 25.1758 99.2397 24.8305C99.4824 24.8493 99.7252 24.8694 99.9672 24.8897C99.7233 24.6438 99.4756 24.4005 99.2269 24.1583ZM32.0177 21.3488C32.2067 21.2856 31.9696 21.5643 32.2405 21.4349C32.5105 21.3048 32.9048 20.9133 32.8869 21.1158C32.5685 21.3558 32.2382 21.613 31.9201 21.8647C33.1446 21.3451 34.0964 20.4358 34.3031 20.7209C33.2061 21.3143 32.3822 21.9294 31.4671 22.7151C31.3392 22.4599 32.1891 21.5582 31.4135 21.7894C31.612 21.6429 31.8207 21.4891 32.0159 21.3509C32.0165 21.3502 32.0171 21.3495 32.0177 21.3488ZM122.962 68.5903C122.93 69.3663 122.955 71.1838 122.705 72.1525C122.646 72.3931 122.054 73.148 121.985 73.1356C121.759 73.0879 121.821 72.1154 121.571 73.14C121.605 72.7903 121.627 72.4507 121.652 72.1042C121.493 72.1534 121.334 72.2019 121.175 72.2476C121.162 72.6678 121.144 73.0896 121.123 73.5119C121.069 73.527 121.016 73.542 120.963 73.557C121.117 72.0528 120.83 72.9202 120.717 72.1287C120.564 72.8332 120.397 73.5412 120.217 74.2394C120.279 73.8313 120.341 73.3495 120.39 72.9904C120.135 72.9162 120.106 73.7798 120.039 73.9216C119.693 74.712 120.241 70.5338 119.837 70.1648C119.761 70.8321 119.67 71.5305 119.569 72.2037C119.539 72.0049 119.508 71.8042 119.477 71.6067C119.86 70.0824 120.022 68.3466 120.161 66.5268C120.148 66.3631 120.134 66.1993 120.12 66.0386C120.003 66.089 119.886 66.1365 119.768 66.1863C119.75 65.9409 119.729 65.6956 119.707 65.4485C120.116 66.164 120.096 65.157 120.26 63.9213C120.438 64.5634 120.382 65.375 120.636 65.3105C120.368 63.0728 120.386 60.4319 119.811 58.3012C119.667 57.7749 119.353 57.8354 119.146 56.5843C119.19 56.6196 119.255 56.6144 119.307 56.6327C118.724 54.5103 118.32 53.2535 117.825 51.0262C117.749 51.1865 117.673 51.3442 117.596 51.5032C117.789 51.9481 117.977 52.3941 118.158 52.8413C118.051 53.2086 117.855 52.7605 118.203 54.1485C118.477 55.29 118.399 54.5903 118.528 54.8881C118.701 55.292 118.629 55.6955 118.809 56.1331C118.946 56.4729 119.032 56.0574 119.169 56.9916C118.894 56.6571 118.607 56.3218 118.323 55.9962C118.323 55.7643 118.322 55.5338 118.32 55.3015C118.424 55.5139 118.525 55.7237 118.627 55.9382C118.363 55.1635 118.098 54.4387 117.791 53.6528C118.152 53.843 117.828 53.0291 117.667 52.5865C117.417 51.8965 117.787 52.4445 117.622 51.9912C117.455 51.5365 117.087 51.1061 116.869 50.2673C117.139 50.6687 117.06 50.0293 117.216 50.1072C117.373 50.185 117.678 51.0612 117.538 50.1711C116.905 48.5791 117.04 50.4851 116.603 49.422C116.068 48.1559 116.661 47.5813 116.963 47.9122C117.201 48.1729 117.55 49.2498 117.774 49.5225C117.344 47.5242 116.876 47.6746 116.675 47.3839C115.916 46.3395 117.048 46.7953 116.188 45.5362C116.35 45.4985 116.496 45.4625 116.652 45.4278C116.524 45.2004 116.421 45.0577 116.275 44.7806C116.342 45.7521 116.061 45.0535 115.906 44.7022C115.662 44.1483 115.894 45.0672 115.792 44.9364C115.523 44.5833 115.287 43.9445 115.33 44.3826C115.313 44.1853 115.289 43.9724 115.267 43.7699C114.899 43.1552 113.557 41.987 114.365 43.3297C114.072 43.3082 113.964 42.8027 113.822 42.4336C113.68 42.0649 113.539 42.1454 113.407 41.8247C112.875 40.5524 113.538 41.2152 113.834 41.3108C112.833 39.7688 113.62 41.3766 112.233 39.1428C111.954 39.0146 112.396 40.1522 111.803 39.3364C111.974 39.0228 111.798 38.2633 111.097 36.9838C110.961 36.9035 110.824 36.8247 110.688 36.746C110.488 35.9312 110.963 36.0912 109.834 35.0843C110.816 35.3619 110.179 35.1485 109.612 33.921C109.495 33.6716 109.973 34.096 109.805 33.7509C109.728 33.594 109.4 33.3204 109.209 32.9401C109.118 32.7541 108.729 31.8406 108.215 31.4004C108.275 31.974 107.281 31.1733 107.751 32.1672C106.562 30.5965 105.518 29.6624 107.29 31.0652C107.04 30.6183 106.783 30.1738 106.519 29.7322C106.229 29.5179 105.937 29.304 105.643 29.0938C105.795 28.8819 105.894 28.8625 104.902 27.8883C105.363 28.2799 105.82 28.6779 106.273 29.0872C106.325 29.0674 106.422 29.0939 106.446 29.0449C105.88 28.5492 104.396 27.0693 103.98 26.7688C103.571 26.4618 104.254 27.1631 104.102 27.1081C102.854 26.6482 103.206 26.43 102.509 25.903C102.099 25.5973 102.944 26.4701 102.728 26.3018C101.937 25.6768 101.786 25.148 101.112 24.554C101.243 24.8883 101.367 25.2231 101.484 25.5537C100.797 24.9229 100.008 24.2486 99.3009 23.7448C99.0237 23.5471 99.1457 23.8048 99.0974 23.7763C98.8583 23.6337 97.9389 23.0002 97.8434 22.9313C97.1351 22.3959 97.2161 22.2435 96.5179 21.7288C96.8032 21.9149 97.0697 22.0929 97.3453 22.2799C97.632 22.1473 97.9226 22.0183 98.2125 21.889C97.5365 21.3536 96.8465 20.8329 96.1447 20.3276C96.6139 20.7614 97.0764 21.2028 97.5293 21.6509C96.6023 21.2473 95.6737 20.8748 94.7369 20.5272C94.3888 20.1334 94.0373 19.7456 93.6766 19.3602C92.4749 18.6672 92.4299 19.3009 92.1099 18.5461C91.7366 18.3785 91.3622 18.2154 90.986 18.0558C91.0705 18.0224 91.1547 17.9889 91.2395 17.9559C90.7883 17.7558 90.3347 17.5615 89.8781 17.3737C90.2234 17.8313 90.5435 18.2983 90.868 18.7524C90.0079 18.3409 90.0867 18.1527 89.9855 18.0384C89.7144 17.737 88.9599 17.5627 88.7477 17.3159C88.6762 17.2297 89.5775 17.5287 89.3604 17.2408C89.3221 17.1844 88.4425 16.0913 87.6384 15.8754C87.6081 15.9782 87.6108 16.1227 87.5923 16.2412C86.5786 15.8458 86.2848 15.1272 86.4787 15.0396C85.8986 14.9068 85.101 14.5949 84.9264 14.7093C84.6461 14.6024 84.3717 14.5002 84.0917 14.3986C84.5309 14.1211 83.3321 13.7542 83.1351 14.0649C83.6141 14.2459 84.0901 14.4337 84.562 14.627C84.04 14.9032 85.4088 15.6663 82.5272 14.1917C82.0196 13.7733 83.5499 14.5861 83.1331 14.2587C82.3423 13.8695 81.5397 13.6893 80.7934 13.2928C79.8588 12.8088 81.1366 12.9669 78.7391 12.5585C83.6693 14.6615 77.9466 12.666 75.4647 12.4173C74.9878 11.7591 73.3276 11.1881 70.9102 10.9765C70.5971 10.9492 70.2724 10.9282 69.9375 10.914C70.1049 11.0339 70.4926 11.0874 70.8902 11.1398C71.1679 11.1763 71.4493 11.2119 71.6614 11.2645C72.1761 11.3938 71.598 11.4151 72.2343 11.5884C72.8704 11.7595 74.215 12.1014 74.8389 12.3526C74.2688 12.3244 71.5319 12.1183 73.3628 12.1352C72.3869 11.8426 71.7957 11.6256 70.8538 11.4361C70.5357 11.3729 70.1784 11.3141 69.7537 11.2621C69.2212 11.483 69.2462 11.6367 67.6143 11.5281C68.6151 11.2195 66.7551 10.8369 67.1895 10.478C68.3666 10.6418 67.6834 10.9752 68.3427 11.2039C68.4094 11.2248 69.5011 11.2263 69.7537 11.2621C68.6921 10.816 68.3128 10.6668 69.0304 10.3229C68.2427 10.2885 67.7565 10.2088 67.671 10.3951C67.512 10.3012 67.3514 10.2078 67.1937 10.1154C66.9359 10.1029 66.7038 10.0988 66.4314 10.0853C66.7934 10.3917 66.0741 10.1787 65.556 10.2964C65.0382 10.4165 65.7248 10.6525 64.3124 10.6375C64.7822 10.7086 65.2113 10.7751 65.6589 10.853C64.7576 10.8997 63.8418 10.9685 62.9459 11.0586C63.5813 11.2195 64.9453 11.4966 64.9025 11.7315C64.4904 11.6311 63.0847 11.7912 62.9336 11.8045C62.3414 11.8403 62.6609 11.6872 62.6161 11.6843C61.6788 11.6346 60.9074 11.7281 60.5392 11.5276C59.8418 11.6714 59.3091 11.6551 58.5619 11.7321C58.1517 11.7756 58.2485 11.9306 58.0061 11.9249C56.3982 11.9118 57.8695 11.4752 54.8733 12.3349C55.26 12.3864 55.6409 12.4452 56.0252 12.5057C55.6881 12.5978 55.3548 12.693 55.0212 12.7912C54.79 12.8081 54.5609 12.826 54.33 12.8459C54.2919 12.602 54.2547 12.3574 54.2167 12.1135C53.9623 12.1447 53.7044 12.1788 53.4488 12.214C53.8796 12.1069 54.3099 12.0054 54.7416 11.9089C54.7742 11.8594 54.8044 11.8104 54.8372 11.761C54.1779 11.8011 53.5184 11.8524 52.8562 11.9162C52.8606 12.0028 52.8654 12.0901 52.87 12.1767C51.3949 12.3618 51.3388 12.3017 50.0278 12.8726C48.9749 13.1403 48.2281 13.7346 47.6792 14.061C47.4519 14.0804 47.2241 14.1007 46.9943 14.1238C46.8797 14.2354 46.7644 14.3475 46.6514 14.4599C46.3521 14.4537 46.0486 14.4511 45.747 14.4509C45.6708 14.7179 45.6182 14.802 46.687 14.5298C46.4155 14.9056 44.5524 15.4303 43.7875 15.6395C43.204 15.7929 43.7367 15.331 43.657 15.3321C43.3866 15.3316 42.4969 15.7846 42.3001 15.8529C41.462 16.1358 40.903 16.4002 40.1584 16.693C40.0135 16.7493 39.5574 16.8042 39.522 16.8166C39.2517 16.9182 38.584 17.1724 38.5113 17.2082C34.7786 19.0774 38.983 17.4996 35.598 19.3416C35.7405 19.3558 35.8744 19.3747 36.0142 19.3912C35.7668 19.5418 35.5179 19.6957 35.273 19.8501C34.9229 19.9806 35.2336 19.6375 34.6669 20.1096C34.6521 19.9958 34.6376 19.8817 34.6257 19.7668C34.3837 19.9827 34.1537 20.1937 33.9098 20.4172C33.2792 20.3798 31.6776 21.3745 31.5451 20.9545C31.4961 20.8076 32.529 19.9236 31.8515 20.1978C31.3546 20.5018 31.7773 20.4215 31.5875 20.5634C30.2259 21.5967 30.1718 21.3563 29.6479 21.8254C29.6225 21.9747 29.5946 22.129 29.5692 22.2806C29.342 22.4157 29.115 22.553 28.8874 22.6932C28.8824 22.786 28.8757 22.8804 28.8712 22.973C29.0676 22.8234 29.2896 22.6562 29.4719 22.5217C29.3729 22.9157 27.2275 24.8416 27.9279 23.9641C28.2123 23.6039 28.8816 23.1184 28.2743 23.197C27.6975 23.7223 27.0528 24.3279 26.471 24.9041C26.4064 24.8694 26.3429 24.8335 26.2781 24.7989C25.4835 25.569 26.4166 25.1026 26.5121 25.2159C26.3273 25.3857 26.1414 25.5581 25.9589 25.7304C25.8354 25.7529 25.7136 25.77 25.5876 25.7984C25.6524 25.8841 25.7143 26.1571 25.1102 26.6046C24.7221 26.8944 25.0827 26.1742 24.4472 26.8408C24.6133 26.9117 24.9858 26.8233 24.2997 27.5767C24.1062 27.5257 23.8949 27.5134 23.7103 27.4417C22.9346 28.4677 22.3392 28.7052 21.4865 29.9552C20.9448 30.7499 20.4626 32.0152 19.5603 32.0812C19.1147 32.6165 19.3839 32.546 19.287 32.7307C18.8351 33.602 18.1599 33.9972 18.0373 34.1341C17.2652 35.0029 17.066 35.4929 16.4215 36.1978C16.553 36.2228 16.6661 36.2639 16.7892 36.2962C17.1103 35.4777 17.3609 35.118 18.0982 34.1614C17.8803 34.5046 17.6679 34.8486 17.4583 35.1951C17.5784 35.1979 17.6981 35.2015 17.8161 35.2068C19.681 31.9649 19.643 33.0397 17.966 35.6327C17.6619 35.7463 17.3528 35.8717 17.0498 35.9897C16.2924 37.6481 15.641 38.2294 14.5899 39.9805C14.465 40.1885 14.14 41.0159 13.9716 41.3556C13.9752 41.3504 13.9787 41.3451 13.9823 41.3398C14.0294 41.6298 14.248 41.3836 14.4045 41.4231C14.3275 41.6129 14.2508 41.8042 14.1765 41.9937C13.8658 42.345 13.8457 42.1566 13.4787 42.9759C13.6385 42.9185 13.7976 42.8636 13.9573 42.808C13.5335 43.686 13.1463 44.2191 12.8341 45.0734C12.8538 44.9153 12.8732 44.7589 12.8942 44.6007C11.9998 46.3764 11.9754 44.6491 11.7176 46.1812C11.6248 46.2478 11.5326 46.3123 11.44 46.3797C11.6581 45.7913 11.8861 45.2074 12.1219 44.6309C12.0478 44.5846 11.9746 44.5375 11.8995 44.4935C11.6537 45.1191 11.4182 45.7533 11.1943 46.3892C11.3215 45.9106 11.4559 45.431 11.5955 44.956C11.2513 45.6573 10.9188 46.3732 10.6043 47.0873C11.1963 46.4269 10.8501 47.4428 11.2167 47.3652C10.4952 48.5539 9.79508 49.4748 9.4071 51.5966C9.33441 52.0195 9.60153 51.8503 9.03519 52.9413C9.44329 52.7496 9.23662 54.2413 9.609 54.1322C9.69043 53.7264 9.78589 53.309 9.86934 52.9176C9.64259 53.3281 9.31393 53.3252 9.40171 52.6258C9.5117 51.7351 10.1058 50.5443 9.75434 50.4938C9.87579 50.1573 9.98612 49.8442 10.1076 49.5199C10.146 49.6825 10.1866 49.8421 10.2272 50.0016C10.3968 49.0284 10.6511 48.4504 11.0176 48.0835C10.6661 49.2025 10.3533 50.3196 10.0727 51.4546C10.1354 51.2938 10.1997 51.1312 10.2634 50.9711C10.2297 51.8799 10.6785 51.0712 10.2857 52.6534C10.1889 52.6168 10.0916 52.582 9.99445 52.5451C10.0969 53.189 9.71436 54.7683 10.1445 54.3382C9.93644 54.7912 9.85435 54.8794 9.96057 55.1843C9.44707 56.3825 9.00381 57.1591 8.73178 56.6322C8.69721 57.1206 8.66826 57.6142 8.64762 58.0951C8.79133 57.8363 8.93646 57.5786 9.08426 57.3204C8.92796 58.1471 8.79088 58.9732 8.67212 59.8049C8.36474 59.8436 8.81967 58.191 8.48717 58.6362C8.41941 58.7252 8.46355 59.1911 8.41765 59.3049C7.92342 60.51 8.43112 58.5801 8.13639 58.9127C7.89327 60.2172 7.72966 59.8426 7.64979 60.4178C7.61812 60.6614 7.60204 61.0774 7.62861 61.8576C7.53748 61.9178 7.44427 61.9833 7.35433 62.039C7.26778 62.9426 7.46644 62.8799 7.44813 63.6603C7.43822 64.1477 7.06977 64.7446 7.27911 65.2918C7.32123 65.3873 7.75099 64.5079 7.68441 66.3904C7.65325 67.8601 7.3706 67.2471 7.27116 68.0453C7.16891 68.8451 7.65123 70.6531 7.23858 71.216C7.2706 70.7944 7.27346 70.2599 7.30376 69.7929C7.20689 69.6076 7.11207 69.4262 7.01758 69.2414C7.16555 70.3064 7.10294 71.4109 7.37484 72.1075C7.16504 73.5586 7.68059 75.0978 7.98706 74.6235C7.87656 74.1711 7.77969 74.6909 7.803 74.039C7.88001 73.9634 7.95635 73.8845 8.03367 73.8094C8.14827 74.8933 8.269 75.6509 7.93887 75.1902C7.95633 75.3603 7.97433 75.5287 7.99331 75.6985C8.18412 75.701 8.37508 75.6997 8.56585 75.7016C8.61683 75.898 8.66881 76.0947 8.72185 76.29C8.7167 76.5176 8.71253 76.7458 8.71009 76.9761C8.36806 76.7276 8.25542 76.2088 8.40461 77.9461C8.50672 77.9318 8.60886 77.9199 8.71096 77.9056C8.86517 79.3503 8.62006 79.4395 9.06516 81.2159C8.37443 79.9345 8.84653 79.0462 8.14393 79.2013C8.1164 78.8451 8.0923 78.4858 8.07153 78.1293C7.9592 78.0961 7.84684 78.0631 7.73503 78.0318C8.12664 79.9174 9.58156 82.7762 9.53983 84.1129C9.63806 84.2434 9.73003 84.3761 9.8339 84.5065C9.955 85.7754 10.7115 86.0815 10.8187 87.3799C10.834 87.5142 10.179 87.4651 10.817 88.9984C10.8708 88.9318 10.9797 88.8643 11.0548 88.7977C11.1467 89.146 11.2392 89.4927 11.3358 89.8377C11.4249 89.8696 11.5152 89.9041 11.6047 89.9352C11.3881 89.3666 11.1816 88.7958 10.9832 88.2204C11.191 88.6816 11.4059 89.1423 11.6253 89.5965C11.4727 88.9471 11.365 88.6731 11.6826 88.9689C11.9101 89.4893 12.1462 90.0062 12.3889 90.5185C12.4552 90.5526 12.5221 90.5861 12.5885 90.62C12.6013 90.3129 12.6133 90.0064 12.6334 89.7007C13.116 91.0883 13.6704 92.2351 13.9507 93.3632C14.0006 93.5546 13.5182 93.037 14.2812 94.1222C14.2066 94.1855 14.1551 94.2536 14.0883 94.3159C15.1016 95.6036 15.2936 96.0934 16.0228 97.6271C15.5972 96.6063 16.0123 97.4953 16.2437 97.6767C16.4012 97.8014 15.9972 97.1804 16.1016 97.214C16.2045 97.2504 16.9536 97.9067 16.5443 97.1989C15.0008 95.7902 15.3 94.9751 13.8691 92.8233C14.1154 93.1436 14.3663 93.4632 14.6185 93.7767C14.5747 93.5889 14.5367 93.4204 14.4906 93.2177C15.063 94.5331 14.8022 93.8848 15.1607 94.3571C15.521 94.8287 16.1198 95.713 16.5141 96.3072C16.6382 96.4946 16.4033 96.3604 16.661 96.7984C16.8355 97.0984 17.5073 97.7877 17.4417 98.0925C17.4015 98.2947 16.2126 97.2376 17.3918 99.0031C17.4978 99.415 16.9627 98.5459 16.9379 98.536C16.6906 98.4755 17.3156 99.6402 17.7768 100.057C17.8141 100.091 17.6472 99.6243 17.9896 100.018C18.8059 100.947 19.1145 101.598 19.4457 102.356C19.6915 102.276 20.5506 102.909 21.3179 103.94C21.4133 103.945 21.5071 103.947 21.6027 103.95C21.4451 103.824 21.2884 103.696 21.1318 103.568C21.0249 103.374 20.9019 103.177 20.8067 102.981C21.6762 103.933 22.0539 103.845 22.5489 104.223C24.2599 105.49 22.7619 105.152 22.3892 104.969C22.2505 104.724 22.1252 104.48 21.9947 104.233C21.9512 104.312 21.9076 104.391 21.8623 104.468C23.9931 106.818 21.7724 105.2 22.7629 106.497C23.354 106.516 24.1941 107.341 25.1173 108.575C25.241 108.689 25.3646 108.803 25.4897 108.916C25.5513 108.891 25.6139 108.822 25.6744 108.824C27.0635 110.002 26.9115 110.681 27.0025 110.844C27.4204 111.553 28.1295 111.647 28.308 111.787C29.0674 112.377 29.1875 112.678 29.9644 113.171C30.8032 113.694 30.3354 113.192 30.6434 113.278C30.8895 113.347 31.5274 113.781 31.8429 113.884C31.6956 113.875 31.5373 113.856 31.3898 113.846C32.1613 114.513 32.8016 115.064 33.7682 115.7C35.1628 115.916 35.6545 117.271 35.6467 116.387C34.7283 115.794 34.258 115.395 33.8721 114.922C34.4855 115.281 35.1063 115.63 35.734 115.967C35.8716 116.143 35.9585 116.288 36.1301 116.483C36.6786 116.594 37.7268 117.247 38.1846 117.42C40.3204 118.217 39.8081 117.633 41.4827 118.944C40.1039 118.387 39.9939 118.609 38.6778 117.923C38.884 118.226 39.5834 118.523 39.0491 118.5C40.3754 119.079 40.0362 118.701 40.6146 118.784C41.1121 118.853 42.0021 119.226 42.026 119.03C42.0763 119.164 42.1079 119.286 42.1592 119.42C43.0185 119.779 43.883 120.115 44.7572 120.43C44.3478 120.397 43.9383 120.36 43.5287 120.317C43.7943 120.463 44.0621 120.608 44.3313 120.75C46.5872 121.265 50.2531 122.867 49.8561 121.88C50.9279 122.125 51.0417 122.254 51.5906 122.543C51.6689 122.495 51.7429 122.456 51.8224 122.401C52.5005 122.618 53.0824 122.489 53.6862 122.665C54.2923 122.839 54.4076 123.087 54.5608 122.726C54.9394 122.901 55.3225 123.054 55.7073 123.214C55.9612 123.164 56.2141 123.113 56.4644 123.059C56.6845 123.116 56.9057 123.172 57.1277 123.226C57.2799 123.264 57.4321 123.3 57.5843 123.336C57.8081 123.183 59.286 123.411 59.9465 123.331C60.5543 123.568 60.5041 124.198 61.9929 124.149C61.9602 123.994 61.9284 123.839 61.8963 123.684C62.2317 123.729 62.5673 123.771 62.9059 123.81C62.9253 123.86 62.942 123.911 62.9615 123.961C62.7877 123.943 62.6193 123.923 62.4471 123.902C62.5944 123.991 62.7388 124.079 62.8849 124.167C63.4087 124.052 63.9285 123.93 64.4454 123.801C63.7485 123.71 63.0437 123.607 62.3581 123.491C63.2266 123.403 63.8402 123.52 64.5943 123.388C65.254 123.592 65.0158 123.717 64.7488 123.951C64.9951 123.928 65.2438 123.905 65.489 123.879C65.3316 124.11 65.7553 124.249 64.3053 124.245C64.4053 124.31 64.5076 124.372 64.6057 124.44C64.8441 124.427 64.9996 124.48 65.2604 124.449C65.97 124.365 66.5039 123.935 66.4474 123.796C66.4187 123.724 65.7253 123.891 65.7498 123.784C65.8145 123.525 67.4018 123.593 65.107 123.401C65.8582 123.222 66.0334 123.34 66.873 123.347C66.8032 123.265 66.7356 123.184 66.6688 123.102C67.0572 123.123 67.4462 123.14 67.8345 123.153C67.3187 123.632 70.2142 123.581 67.6442 124.154C68.4142 124.125 69.1871 124.08 69.9567 124.02C69.8033 124.082 69.6493 124.142 69.4948 124.202C69.1446 124.211 68.7943 124.218 68.4455 124.222C68.8604 124.272 69.2807 124.317 69.6991 124.358C70.6588 124.159 71.0152 123.952 71.4283 123.704C70.2977 123.704 70.6859 123.851 69.8168 123.983C69.8349 123.858 69.7833 123.75 69.846 123.614C70.3226 123.825 71.7621 123.459 72.0981 123.393C73.1208 123.202 72.3519 123.571 73.0414 123.468C73.7319 123.363 74.5113 123.07 75.1199 123.2C75.0828 123.066 75.0101 122.934 74.9458 122.819C75.9965 122.56 75.8177 122.759 75.9322 122.757C77.7562 122.711 78.6414 122.187 80.589 121.563C80.3276 121.598 80.0648 121.637 79.8015 121.671C81.1938 120.944 80.2257 121.346 78.9181 121.608C80.1286 121.303 80.7396 120.846 81.546 120.503C82.3546 120.163 83.8084 119.766 84.3561 119.655C83.2414 120.264 81.9166 120.619 80.5944 121.075C80.7884 121.163 80.9724 121.23 81.1772 121.328C81.9021 120.784 82.4298 120.808 82.7113 120.751C83.5334 120.582 83.4191 120.35 83.9851 120.431C83.9328 120.35 83.8909 120.281 83.8409 120.206C85.4529 119.646 87.2183 119.049 88.0733 118.255C88.2618 118.416 88.425 118.58 88.6312 118.737C89.2148 118.267 89.8482 118.142 90.3762 117.821C90.8992 117.499 90.6087 117.449 91.2041 117.044C91.3139 116.97 91.6116 116.936 91.8543 116.702C92.1046 116.467 92.8222 115.313 93.2281 115.707C93.7535 115.392 94.2548 115.101 94.7638 114.782C94.2897 115.127 93.8101 115.463 93.3272 115.792C93.8234 115.648 94.316 115.497 94.8113 115.337C94.8009 115.203 94.7891 115.066 94.7766 114.934C95.8245 114.079 96.7358 113.684 97.803 112.837C97.9795 112.695 97.4135 112.829 98.25 112.271C99.0794 111.709 99.952 111.592 101.151 110.341C101.212 110.277 101.374 109.693 101.985 109.455C102.124 109.401 101.737 109.853 102.023 109.69C102.313 109.53 103.406 108.588 103.6 108.626C103.548 108.594 103.441 108.613 103.369 108.6C103.527 108.41 103.687 108.217 103.845 108.024C103.934 108.081 104.024 108.137 104.112 108.194C104.954 107.02 105.184 106.242 106.666 104.768C106.166 105.111 105.661 105.443 105.156 105.765C105.124 105.953 105.091 106.142 105.058 106.329C104.366 106.996 103.656 107.647 102.933 108.276C102.901 108.471 102.87 108.665 102.835 108.86C102.638 109.023 102.442 109.184 102.242 109.344C102.231 109.238 102.221 109.131 102.211 109.022C101.854 109.378 101.492 109.73 101.127 110.075C101.565 109.031 103.263 108.188 102.873 107.966C103.081 107.859 103.29 107.75 103.498 107.639C103.423 107.422 103.794 107.147 104.381 106.591C104.179 106.652 103.965 106.727 103.773 106.774C104.428 106.323 105.371 105.303 105.95 104.731C106.206 104.481 106.081 104.847 106.165 104.779C106.6 104.433 107.076 103.47 107.229 103.316C108.151 102.396 109.074 102.027 109.659 100.68C108.717 101.815 109.221 101.191 108.762 101.499C108.618 101.595 107.367 103.014 108.854 101.174C109.056 100.986 111.778 97.6257 111.196 98.9411C111.517 98.3104 111.734 97.7956 111.997 97.2059C113.409 96.2286 112.565 96.3541 112.025 96.5571C112.157 96.3382 112.279 96.1279 112.413 95.9013C112.457 96.5821 113.915 94.1111 114.171 93.1484C114.264 92.8309 113.742 93.5822 114.034 92.8897C114.219 92.5854 114.43 92.2393 114.621 91.9131C114.169 92.2991 114.553 91.2973 114.325 91.2072C114.81 90.6874 115.442 90.3915 115.511 90.8402C115.657 90.2789 115.793 89.7173 115.92 89.1547C115.765 89.3754 115.608 89.5978 115.45 89.8152C116.344 88.179 116.815 85.8241 117.416 85.6176C117.492 85.3819 117.568 85.1464 117.641 84.9116C117.582 84.8127 117.523 84.7165 117.465 84.6181C117.875 83.5876 118.257 82.5368 118.606 81.4811C118.407 82.452 118.462 82.7136 118.069 83.6867C118.279 83.331 118.49 82.9619 118.69 82.608C118.839 81.0233 118.744 80.7722 119.302 78.4906C119.333 78.3911 119.874 76.6684 119.898 76.6127C120.041 76.3528 120.115 76.7955 120.185 76.6807C120.39 76.369 121.034 74.3034 121.074 74.3452C121.763 74.9558 120.433 82.1271 119.774 83.9929C114.33 103.854 97.4038 119.145 77.7142 123.88C77.5115 123.93 77.6226 124.003 77.5369 124.028C77.0024 124.181 76.4422 124.15 76.2415 124.186C75.8128 124.265 76.0763 124.351 75.7638 124.416C72.5323 125.077 69.4197 125.367 66.1307 125.512C65.9156 125.521 66.1314 125.403 65.7545 125.434C65.562 125.451 64.9585 125.636 64.518 125.641C62.9766 125.659 61.6962 125.568 60.074 125.463C59.1934 125.407 57.88 125.27 56.8916 125.149C56.8896 125.149 56.8876 125.148 56.8856 125.148C56.4494 125.096 55.986 125.112 55.5572 125.052C54.9493 124.966 55.0982 124.827 55.0065 124.803C54.606 124.697 54.5219 124.859 54.1364 124.789C53.4184 124.656 53.3964 124.536 52.4863 124.367C51.8365 124.248 50.3373 124.006 49.519 123.82C47.6611 123.216 45.2971 122.525 43.5727 121.921C42.5544 121.566 42.5228 121.371 42.1141 121.208C40.6796 120.627 39.5224 120.332 38.207 119.695C36.4658 118.845 35.0312 117.891 33.4425 116.902C33.1854 116.741 33.1659 116.904 32.9111 116.748C31.9678 116.174 30.7789 115.402 29.9937 114.809C29.116 114.146 28.924 113.731 28.0548 113.108C27.8007 112.924 27.6096 113.016 27.1837 112.702C26.5033 112.2 25.9105 111.472 25.4833 111.069C24.8988 110.515 25.2898 111.129 24.5026 110.377C24.4704 110.346 24.4442 110.135 24.2695 109.981C23.7626 109.53 23.734 109.657 23.0292 108.954C22.9589 108.888 22.1254 107.858 22.0383 107.761C21.5013 107.209 20.493 106.03 20.1758 105.702C19.0376 104.533 19.7077 105.641 19.1652 104.291C18.6931 103.891 18.2279 103.488 17.7465 103.04C18.0866 103.322 17.1394 101.841 17.0651 101.744C16.4075 100.964 16.6144 101.562 15.8968 100.484C17.2015 101.655 14.9885 99.0875 14.597 98.4377C12.6247 95.3895 11.2045 92.3919 9.83908 89.017C9.38133 87.8885 8.74195 86.3753 8.35294 85.1445C8.26149 84.8576 8.42164 85.0454 8.34386 84.7923C8.26634 84.5398 8.25099 84.8518 8.16681 84.5617C7.64948 82.7492 7.48223 81.2834 6.86891 79.6596C6.88714 79.57 6.91594 79.5666 6.92657 79.4227C6.39495 78.0908 6.27064 75.3561 6.20652 74.346C6.08913 72.7652 5.90829 72.3649 5.8577 71.2153C5.78662 69.6853 6.06984 67.3938 5.58797 68.4235C5.55441 67.3777 5.55951 66.3532 5.6432 65.3023C5.6527 65.1847 5.77551 65.2705 5.77983 65.2235C5.80925 64.9266 5.70124 64.8245 5.7055 64.6223C5.71888 64.0744 5.80815 64.9739 5.81098 64.1922C5.81544 63.7814 5.7245 63.5338 5.8161 62.3993C5.8764 61.6806 5.95115 60.9538 6.04101 60.2203C6.78835 53.9783 8.70589 47.5107 11.5045 41.8253C11.7188 41.3898 11.4676 41.6223 11.7466 41.0806C12.6992 39.1776 14.8143 36.0335 15.8417 34.5297C16.8553 33.0189 16.4815 33.2541 17.1003 32.2878C17.2215 32.1022 17.1937 32.308 17.3152 32.1494C18.1294 31.0811 19.2687 29.9421 19.9989 29.1435C20.4832 28.614 20.3271 28.5521 20.6525 28.1733C21.1393 27.6097 21.7826 27.1665 22.0613 26.8862C23.3732 25.569 24.2155 24.5945 25.5644 23.4939C25.4901 23.5123 25.4348 23.5176 25.3687 23.5297C26.9194 22.1712 28.5391 20.8962 30.2235 19.7083C30.1257 19.7383 30.0304 19.7666 29.9323 19.7968C31.9232 18.416 31.9058 18.8894 31.3163 18.3901C31.4492 18.2701 31.5896 18.1413 31.7184 18.0285C31.8716 18.3831 33.2389 17.7988 34.8923 16.9549C35.0117 16.8918 35.628 16.1208 35.7539 16.5509C35.9099 16.3422 35.999 16.2094 36.1317 16.0305C36.5406 15.9582 36.9531 15.8868 37.361 15.8234C37.5397 15.7087 37.7219 15.5943 37.9016 15.4817C37.8911 15.3913 37.8297 15.323 37.8529 15.2175C38.724 14.7547 40.6071 14.008 41.3209 13.7032C43.0865 12.9219 44.874 12.0365 46.3845 11.8208C47.0762 11.5779 46.3294 11.6306 47.382 11.3344C47.5247 11.3805 47.6589 11.4259 47.8065 11.4741C48.5582 10.8654 48.8018 11.0329 50.0035 10.8117C50.819 10.6665 51.3223 10.4575 52.0957 10.3134C52.2917 10.2775 52.2864 10.3923 52.419 10.3616C52.8617 10.2558 54.1157 9.87183 54.4334 9.81881C57.315 9.30669 59.8198 9.09975 62.605 9.07173C62.903 9.06953 62.5142 8.96774 62.8231 8.9662C63.3206 8.96524 63.0304 9.13863 63.318 9.14333C64.1202 9.1609 64.1272 8.97869 65.2533 8.99035C67.1042 9.01655 69.0944 9.17947 71.0967 9.45755C73.0846 9.73215 75.0648 10.1177 76.9305 10.5473C77.048 10.574 77.0645 10.4709 77.1931 10.4994C78.0317 10.6877 78.8347 11.0387 79.5784 11.243C80.8189 11.5865 81.7854 11.7328 82.991 12.1446C85.3472 12.9588 87.3713 13.8752 89.67 15.0022C91.5431 15.9308 93.1453 16.7984 95.0873 18.0193C103.555 23.339 111.026 30.8914 115.619 39.9405C115.735 40.1702 115.605 40.1206 115.645 40.1881C116.026 40.8298 116.165 40.8359 116.052 41.1889C116.52 42.0133 116.829 42.1985 117.295 43.251C117.539 43.8133 117.08 43.5165 117.634 44.4015C118.119 45.2087 117.914 44.1828 118.761 46.8391C118.783 46.9101 118.738 47.3123 118.976 47.8397C119.212 48.3721 119.124 47.6908 119.608 49.0052C120.743 52.1009 121.562 56.2072 122.071 59.9929C122.115 60.225 122.45 62.5171 122.516 62.9698C122.664 63.8436 122.794 63.6504 122.881 64.802C122.943 65.6977 122.805 66.4262 122.834 67.4733C122.836 67.5949 122.999 67.8011 122.962 68.5903ZM8.71431 75.5885C8.90226 75.7706 9.51762 76.047 9.56163 77.286C9.5665 77.4051 9.06161 76.8501 9.12299 77.5377C8.95899 76.8836 8.83812 76.2417 8.71371 75.5886C8.71391 75.5886 8.71411 75.5885 8.71431 75.5885ZM118.904 73.8391C119.042 72.9207 119.157 72.0034 119.249 71.0851C119.275 71.726 119.29 72.3657 119.295 73.0089C119.167 73.2877 119.037 73.5627 118.904 73.8391ZM42.9345 15.8958C42.9353 15.8955 42.9361 15.8952 42.9369 15.8948C42.0626 16.3342 41.2037 16.7951 40.3568 17.2783C40.4256 17.1851 40.495 17.0916 40.5646 16.9986C41.2261 16.5947 41.8951 16.205 42.573 15.8287C42.6936 15.8508 42.8143 15.873 42.9345 15.8958ZM50.0952 12.9133C50.7212 12.8223 50.5984 12.9675 50.9588 12.9902C50.9588 12.99 50.9587 12.9898 50.9587 12.9896C51.0538 12.995 51.4715 12.922 51.6311 12.8905C51.5572 12.8367 51.4663 12.7879 51.3872 12.736C52.7849 12.2381 55.6844 12.2924 52.1335 13.2487C52.1683 13.1521 52.2011 13.0564 52.2365 12.9599C50.4591 13.364 48.4353 13.7432 50.0952 12.9133ZM13.0239 89.6393C13.921 90.9491 14.177 91.3659 14.8731 93.1329C14.6774 92.9343 14.4827 92.7334 14.2895 92.5311C14.221 92.2148 14.156 91.9007 14.0934 91.5843C14.093 91.5835 14.0926 91.5827 14.0922 91.5819C13.9872 91.5637 13.882 91.5451 13.778 91.5285C13.5155 90.9041 13.2626 90.2708 13.0239 89.6393ZM105.064 29.3463C104.94 30.0545 105.104 29.7292 104.156 28.915C103.827 28.6356 104.045 29.0065 103.848 28.8257C102.78 27.8586 102.953 27.5156 103.325 27.6002C103.919 28.1698 104.504 28.759 105.062 29.3443C105.063 29.345 105.063 29.3457 105.064 29.3463ZM119.92 63.2937C119.92 63.2946 119.92 63.2955 119.921 63.2964C119.785 63.3433 119.706 62.7647 119.622 63.4299C119.588 62.9322 119.548 62.4304 119.5 61.9283C119.527 62.0743 119.553 62.2238 119.579 62.3703C119.615 62.2358 119.651 62.1006 119.686 61.9657C119.51 61.803 119.587 61.6293 119.583 61.0987C119.43 61.2624 119.276 61.4243 119.121 61.5856C119.109 60.9747 119.087 60.3664 119.054 59.7531C119.096 59.7398 119.137 59.7264 119.179 59.7131C119.093 59.4918 119.006 59.2739 118.917 59.0548C118.959 58.9854 119 58.9182 119.041 58.8485C118.96 58.5796 118.878 58.3115 118.793 58.045C118.9 57.9412 119.059 58.5345 118.841 57.4719C119.025 57.7766 119.206 58.0837 119.386 58.397C119.637 60.0229 119.815 61.6538 119.92 63.2937ZM96.452 21.9706C97.922 23.0115 97.4509 22.7898 96.9532 22.766C96.7899 22.5008 96.6212 22.2345 96.452 21.9706ZM15.6544 38.9837C15.5537 39.5344 15.4613 40.0814 15.3678 40.6363C14.9531 41.6106 14.1655 42.4026 14.4084 41.6264C14.7084 40.6901 15.3558 39.9002 15.6544 38.9837ZM8.31016 61.9714C8.53193 60.6808 8.63039 61.9285 8.73782 62.2292C8.49224 62.5677 8.46598 63.062 8.38936 63.8687C8.4218 63.1095 8.27309 62.1874 8.30955 61.9713C8.30976 61.9713 8.30996 61.9713 8.31016 61.9714ZM29.5615 23.414C29.9684 23.0877 30.35 22.7303 30.7639 22.5046C30.7591 22.7346 29.9172 23.1627 30.6117 22.9786C30.3492 23.182 30.0881 23.3879 29.8316 23.5948C29.9276 23.377 29.6534 23.4839 29.5629 23.4137C29.5624 23.4138 29.5619 23.4139 29.5615 23.414ZM80.875 14.3969C79.9684 13.8853 79.7459 13.9164 78.7192 13.7871C78.6233 13.5761 79.8924 13.6186 80.6521 13.7899C80.7268 13.9918 80.8006 14.1941 80.875 14.3969ZM107.25 102.349C107.276 102.685 106.131 104.099 105.47 104.719C105.517 104.617 105.564 104.514 105.61 104.411C106.173 103.736 106.72 103.049 107.25 102.349ZM8.35116 64.2515C8.36537 64.117 8.378 63.9893 8.38936 63.8687C8.38331 64.0032 8.37177 64.1325 8.35116 64.2515ZM29.7061 112.509C29.2304 112.413 30.2175 113.262 29.0176 112.233C29.0175 112.233 29.0174 112.233 29.0172 112.233C28.2306 111.544 28.0616 111.386 27.3325 110.753C27.7759 110.77 29.3294 111.938 27.3111 110.174C27.2847 110.15 27.2315 110.32 26.9218 110.022C26.8264 109.93 26.5934 109.552 26.1434 109.091C25.9975 108.942 24.8752 107.858 26.4478 109.29C26.5279 109.106 26.7413 109.038 26.8607 108.897C27.5089 109.404 27.7443 110.099 28.4263 110.649C29.4425 111.464 30.1979 111.554 30.0965 112.1C29.1474 111.545 27.6905 110.34 27.7037 109.953C26.9079 109.264 26.5191 109.238 27.0831 109.894C29.9889 112.128 27.6013 110.856 30.2662 112.672C30.3379 112.64 30.4882 112.659 30.5104 112.595C31.1573 113.372 29.8742 112.547 29.7061 112.509ZM24.2713 107.064C24.8207 107.408 25.3738 107.74 25.9289 108.059C25.7679 108.231 25.3667 108.157 24.5588 107.554C24.4628 107.391 24.3658 107.227 24.2713 107.064ZM72.968 122.741C73.0372 122.599 73.256 122.443 73.4079 122.293C73.6168 122.41 78.0674 121.552 75.8393 122.148C75.5152 122.243 73.4672 122.405 72.968 122.741ZM87.5469 16.79C87.1 16.4865 86.6524 16.191 86.1991 15.9014C86.9698 16.174 87.7419 16.4655 88.5044 16.773C88.1837 16.7755 87.8659 16.7819 87.5469 16.79ZM11.643 46.7137C11.7308 46.5046 11.6187 47.2693 11.9217 46.4293C11.7792 47.0898 11.6505 47.6985 11.5312 48.3422C11.3868 48.4955 11.2425 48.6521 11.0993 48.8081C11.1002 48.9688 11.1004 49.1322 11.1027 49.2927C11.0163 49.1675 10.9297 49.0522 10.8438 48.9206C11.4527 47.973 11.2612 47.6397 11.643 46.7137ZM31.1949 21.0493C31.5074 21.1513 30.3082 22.2031 31.6041 21.3304C31.4628 21.6441 31.1277 21.9899 30.4092 22.5467C30.2525 22.5809 30.0962 22.6161 29.9393 22.6518C30.0316 22.8063 29.8842 22.9999 29.5615 23.414C29.561 23.4141 29.5605 23.4143 29.56 23.4144C28.4878 24.2796 28.5225 24.1903 28.077 24.1751C29.3146 23.3715 29.1842 23.1436 29.8847 22.4039C30.3676 21.8975 31.1286 21.41 31.1949 21.0493ZM68.161 123.307C69.1748 122.999 68.2321 122.883 70.0794 122.937C69.9681 123.006 69.8557 123.075 69.7435 123.143C69.2181 123.206 68.6858 123.261 68.161 123.307ZM36.0022 19.0391C35.6951 18.7397 34.6832 18.9695 34.8912 19.6283C35.7716 19.2551 35.1822 19.1668 36.0022 19.0391ZM7.71507 61.461C7.77006 60.9849 7.84459 60.6587 7.92327 60.4514C8.10763 59.9697 8.30995 60.1298 8.43393 60.5141C8.46245 60.6022 8.48705 60.7021 8.50668 60.809C8.40933 60.9145 8.31215 61.0203 8.2162 61.1243C8.21857 61.4482 8.22387 61.7712 8.23137 62.0932C8.05826 61.8846 7.88582 61.6737 7.71507 61.461ZM66.7758 11.1338C65.3636 11.3567 68.2763 11.3797 67.2893 11.5091C66.5044 11.6063 65.4953 11.2802 65.8879 11.1078C66.1581 11.112 66.4592 11.1209 66.7731 11.1337C66.774 11.1337 66.7749 11.1338 66.7758 11.1338ZM58.6793 11.3908C58.9374 11.6833 58.5988 11.6154 59.6941 11.4709C60.0036 11.4169 62.5124 11.4193 61.4496 11.2074C60.5507 11.2469 59.6131 11.306 58.6793 11.3908ZM9.9296 82.4615C9.79653 82.5203 9.01238 80.7188 9.03534 80.4531C9.03514 80.4531 9.03494 80.4532 9.03474 80.4532C9.07474 79.7533 9.58914 81.731 9.64897 80.8037C9.88925 82.7619 10.6568 83.1489 9.85779 83.2415C9.50244 82.1369 9.8129 82.6208 9.9296 82.4615ZM118.484 81.465C118.484 81.4642 118.484 81.4633 118.485 81.4624C118.448 81.5888 117.975 82.5657 117.942 82.4208C118.334 81.2034 118.405 81.4526 118.476 80.2391C118.559 80.1912 118.638 80.1518 118.722 80.0985C118.654 80.5721 118.674 80.8499 118.484 81.465ZM77.8436 122.011C77.392 122.164 76.5146 122.22 75.9916 122.342C77.5365 121.428 79.6328 121.389 77.8436 122.011ZM115.891 46.1558C115.89 46.1547 115.89 46.1535 115.889 46.1523C115.889 46.1526 115.89 46.153 115.89 46.1532C115.89 46.1541 115.891 46.155 115.891 46.1558ZM41.9684 118.891C42.0098 118.949 42.029 118.992 42.0294 119.023C42.0283 119.025 42.0273 119.027 42.0263 119.03C42.0095 118.985 41.9909 118.939 41.9684 118.891ZM11.1894 86.2699C11.2798 87.0972 10.0921 84.6585 9.92367 83.793C10.0246 83.8259 10.1026 83.8121 10.2398 83.9179C10.2254 84.6597 11.1702 86.1379 11.1894 86.2699ZM22.676 29.3023C21.2436 30.8715 22.5494 28.3105 23.0755 28.6447C23.08 28.6554 22.7113 29.2609 22.676 29.3023ZM7.88303 69.9628C7.63493 69.4316 7.60878 70.5229 7.59276 68.7783C7.64924 68.6758 7.70613 68.5736 7.76316 68.4717C7.79633 68.9666 7.83654 69.4663 7.88303 69.9628ZM13.7492 40.0907C12.5571 42.5403 11.7599 45.003 13.045 43.667C13.1119 43.4751 13.1816 43.2814 13.2505 43.0903C12.9883 42.9312 13.4561 42.3258 13.9686 41.3601C13.9319 41.1651 14.1924 40.6139 14.1566 40.4645C14.0865 40.1738 13.628 40.7282 13.7492 40.0907ZM109.436 33.5316C109.368 33.528 109.301 33.5256 109.233 33.5219C108.932 33.2174 108.627 32.9157 108.32 32.6191C108.441 32.6111 108.563 32.6035 108.684 32.5962C108.938 32.905 109.187 33.215 109.435 33.5292C109.435 33.53 109.435 33.5308 109.436 33.5316ZM21.9992 105.618C22.5903 105.405 21.9277 104.871 20.5901 103.734C21.0454 104.37 21.5164 104.999 21.9992 105.618ZM46.5873 13.1432C46.6909 13.2816 46.7931 13.4199 46.8983 13.5579C47.7208 13.121 47.5086 12.9936 47.0198 12.918C46.8742 12.9928 46.732 13.0673 46.5873 13.1432ZM59.6151 10.5187C59.2311 10.5143 59.4361 10.6309 59.3961 10.6313C58.4217 10.6443 58.2758 10.5944 57.1064 10.8307C56.966 10.8826 56.8288 10.9364 56.6894 10.9904C57.2748 11.2624 57.6454 11.0234 58.8182 11.1156C58.5998 11.0175 58.3812 10.9205 58.1607 10.8244C58.806 10.7834 59.4529 10.7531 60.0953 10.7345C60.169 10.6932 60.2432 10.6524 60.3173 10.6113C60.0851 10.5794 59.8449 10.5438 59.6151 10.5187ZM112.073 37.6789C112.39 38.2177 112.699 38.7644 112.998 39.3135C113.082 39.2914 113.167 39.2683 113.251 39.2464C112.867 38.7167 112.473 38.1927 112.073 37.6789ZM31.8429 113.884C31.9007 113.888 31.9576 113.891 32.0103 113.89C31.9857 113.918 31.9246 113.911 31.8429 113.884ZM119.323 79.9673C119.539 79.2895 119.708 78.2762 119.858 77.5062C119.646 77.5329 119.322 79.4866 119.03 80.1309C119.042 80.2484 119.232 80.2566 119.323 79.9673ZM8.05662 58.924C7.97862 58.7323 7.90203 58.5402 7.82551 58.3497C7.90471 57.9251 7.98873 57.5044 8.07861 57.0754C7.99591 57.0472 7.91244 57.0191 7.82976 56.9908C7.6081 58.9038 7.44803 58.4226 7.06307 59.3369C7.3938 59.195 7.72454 59.0594 8.05662 58.924ZM119.9 55.9635C119.561 54.6149 119.332 54.1708 119.254 54.9835C119.418 55.4443 119.577 55.9114 119.729 56.3791C119.786 56.2402 119.843 56.1007 119.9 55.9635ZM54.875 123.354C55.9977 123.435 56.0006 123.765 57.0649 123.737C57.0936 123.736 57.123 123.735 57.1532 123.734C57.1247 123.727 57.0963 123.721 57.0678 123.714C56.4998 123.583 55.9369 123.443 55.3812 123.296C55.214 123.316 55.0425 123.335 54.875 123.354ZM11.0757 90.39C11.1656 90.8954 12.0576 91.499 12.292 92.9292C12.5532 93.17 12.7548 93.2998 12.9949 93.4956C12.9502 93.7042 12.9157 93.9342 12.8707 94.1368C12.8712 94.1376 12.8716 94.1385 12.872 94.1393C13.5062 95.2341 13.27 94.4294 13.4096 94.3881C13.4667 94.3725 13.8269 95.2377 13.8003 94.9199C13.745 94.3782 12.7746 92.7728 13.0206 92.6453C13.2293 93.273 13.898 94.371 13.8795 93.951C13.8587 93.4958 13.0135 92.5781 12.8326 91.813C12.9201 92.9937 12.0539 90.8799 12.2623 90.5056C11.495 89.3922 11.8748 90.5583 12.4752 91.7934C11.8873 91.1452 12.5373 92.2009 12.4394 92.4757C11.924 91.7613 10.8342 88.9798 11.0757 90.39ZM20.0097 30.6886C19.4255 31.4068 18.4163 32.4614 18.2107 33.1005C18.0895 33.4687 19.0367 32.3759 18.594 33.2874C19.1179 32.5616 19.1882 32.3567 18.9569 32.3711C19.0664 32.1966 19.1787 32.0213 19.2909 31.8478C19.3764 31.7944 19.4631 31.739 19.5487 31.6861C19.5609 31.5578 19.5745 31.4292 19.586 31.3027C19.7347 31.1419 19.8859 30.9801 20.0366 30.8217C20.0256 30.7791 20.0299 30.7256 20.0097 30.6886ZM87.3073 119.076C87.0758 119.183 86.8459 119.287 86.6131 119.392C86.6556 119.419 86.7038 119.445 86.7507 119.472C86.7856 119.494 86.8205 119.516 86.8554 119.538C86.6704 119.489 85.4748 119.779 85.0462 120.086C84.83 120.242 85.4646 120.244 84.4566 120.68C85.1943 120.383 85.8673 120.074 86.568 119.75C86.5317 119.841 86.4979 119.931 86.461 120.022C86.4614 120.022 86.4619 120.021 86.4624 120.021C86.7052 119.934 86.9505 119.845 87.1922 119.755C87.2325 119.528 87.2696 119.303 87.3073 119.076ZM45.7725 13.0712C44.9837 13.4811 44.7357 13.6499 45.1962 13.7173C45.1971 13.7171 45.198 13.7169 45.1989 13.7167C45.4731 13.5178 45.7508 13.3207 46.0289 13.1264C45.9443 13.1076 45.8597 13.0888 45.7725 13.0712ZM37.9252 118.359C39.9512 118.466 36.0128 116.999 36.5824 117.606C36.6061 117.638 37.8087 118.201 37.9252 118.359ZM7.42683 61.7736C7.46561 61.3197 7.51049 60.8643 7.56069 60.4069C7.56659 60.3532 7.57255 60.2996 7.57857 60.2459C7.52607 60.2933 7.47362 60.3414 7.42123 60.3898C7.35799 60.4481 7.29485 60.5067 7.23178 60.5646C7.29232 60.97 7.35767 61.3736 7.42683 61.7736ZM118.741 50.0028C118.799 49.419 118.426 48.0646 117.955 47.5139C118.051 47.8588 118.144 48.2046 118.233 48.551C117.985 47.9233 117.727 47.3093 117.457 46.6878C117.147 46.7692 117.607 47.4256 117.912 48.5625C117.962 48.7409 117.955 49.9562 118.354 50.2473C118.439 50.3056 118.099 49.1195 118.531 49.8808C118.43 49.5188 118.325 49.2127 118.218 48.8737C118.281 48.8249 118.344 48.7762 118.406 48.7248C118.524 49.1515 118.634 49.5745 118.741 50.0028ZM16.7712 35.0031C16.0403 36.0459 16.0693 36.2547 16.1129 36.5963C16.4105 36.0867 16.7162 35.5821 17.0292 35.0824C16.9427 35.057 16.8583 35.0286 16.7712 35.0031ZM114.294 39.4994C113.985 38.8702 113.972 39.2217 113.803 38.9944C113.163 38.1385 112.901 37.4522 112.27 36.6107C112.337 36.6504 112.399 36.6867 112.464 36.7251C112.463 36.7243 112.463 36.7236 112.462 36.7228C109.832 32.5008 110.991 34.8792 112.624 37.3447C112.603 37.4393 112.58 37.5315 112.559 37.6256C113.352 38.6893 114.04 39.7073 114.294 39.4994ZM24.4244 108.799C24.4368 108.868 23.8989 108.731 24.6449 109.264C25.4373 109.466 24.4452 108.806 24.341 108.491C24.5432 108.634 24.7488 108.779 24.9503 108.917C23.9711 107.834 23.7638 107.74 23.9397 108.321C23.953 108.362 24.4122 108.729 24.4244 108.799ZM31.7953 114.995C32.282 114.631 30.6263 113.798 30.5767 113.976C30.7806 114.131 30.9983 114.165 31.1949 114.355C31.3941 114.547 31.3738 114.699 31.7953 114.995ZM6.70097 70.3764C6.70048 70.4302 6.48868 70.9889 6.67635 70.9232C7.08114 70.2268 6.74656 68.8883 6.59791 69.1277C6.61969 69.5784 6.69918 69.8753 6.70036 70.3764C6.70056 70.3764 6.70077 70.3764 6.70097 70.3764ZM120.823 58.1714C120.838 58.1427 120.703 56.7847 120.576 56.6269C120.449 56.5032 120.327 56.4534 120.202 56.3674C120.449 57.0848 120.616 58.5874 120.822 58.1687C120.823 58.1696 120.823 58.1705 120.823 58.1714Z" fill="white"/>
</svg>
