<svg width="137" height="137" viewBox="0 0 137 137" fill="none" xmlns="http://www.w3.org/2000/svg">
<circle cx="68.3441" cy="68.3441" r="61.3273" transform="rotate(7 68.3441 68.3441)" fill="black"/>
<path d="M123.045 47.8768C123.141 48.6726 122.261 46.2536 122.627 47.9524C122.467 47.6349 122.303 47.3176 122.137 47.004C122.214 46.8711 122.289 46.7355 122.365 46.6014C122.597 47.0225 122.823 47.4463 123.045 47.8765C123.045 47.8766 123.045 47.8767 123.045 47.8768ZM124.742 47.8906C124.243 47.6027 123.598 46.3381 123.895 47.8781C124.054 47.9436 124.215 48.0129 124.374 48.0802C124.489 48.6125 124.597 49.1467 124.696 49.6782C124.806 49.8412 124.916 50.0047 125.025 50.1696C124.909 50.4719 124.79 50.7704 124.669 51.0689C124.627 50.8557 124.584 50.6398 124.54 50.427C124.088 49.687 123.778 49.0022 123.305 47.9533C123.297 48.0657 123.29 48.1781 123.282 48.2903C123.139 47.7201 122.987 47.1516 122.826 46.5869C123.11 47.0122 123.42 47.4945 123.674 47.8987C123.693 47.073 122.976 45.9271 122.612 45.3358C122.117 44.5292 122.351 44.6511 121.977 44.0568C121.917 43.9621 121.801 44.0072 121.698 43.8126C121.188 42.8262 120.163 40.9234 121.043 41.8784C121.911 43.4965 122.827 44.7976 123.492 46.4858C123.599 45.9131 124.107 46.7294 124.742 47.8906ZM102.64 22.8526C103.196 23.0151 104.101 23.702 104.656 24.2378C104.656 24.2383 104.657 24.2388 104.658 24.2393C104.781 24.3571 104.963 24.7534 104.523 24.4283C103.808 23.9026 103.636 23.3808 103.117 23.3124C102.966 23.1607 102.802 23.0078 102.64 22.8526ZM100.978 21.8446C100.548 21.4934 100.894 21.3965 101.45 21.8132C101.451 21.8131 101.451 21.8129 101.451 21.8127C101.681 21.9882 101.095 21.8627 102.08 22.2308C102.174 22.478 102.271 22.7114 102.361 22.953C102.149 22.8201 101.954 22.7016 101.73 22.5645C102.019 22.4352 101.408 22.1957 100.978 21.8446ZM120.452 41.1425C120.203 41.1877 120.392 41.4991 120.552 42.1139C120.273 41.6063 119.986 41.1018 119.693 40.605C119.947 40.7821 120.199 40.9598 120.452 41.1425ZM125.831 53.7047C125.832 53.7055 125.832 53.7064 125.832 53.7072C125.921 53.8807 126.01 54.0547 126.096 54.2264C126.045 54.359 125.994 54.4899 125.943 54.6218C126.196 55.2496 126.439 55.888 126.671 56.5297C126.403 56.5071 126.16 55.3199 125.808 54.7279C125.624 53.7583 125.623 53.2569 125.815 53.1319C125.821 53.3223 125.826 53.5122 125.831 53.7047ZM16.8414 73.731C16.9314 73.9551 17.0226 74.175 17.1152 74.3967C17.119 74.0903 17.1176 73.7854 17.1315 73.4774C16.7632 72.7022 17.0288 72.6067 16.9602 71.5578C16.8125 68.3498 16.3384 69.1624 17.146 66.2909C17.0176 68.6152 17.3872 67.7329 17.6271 69.1289C17.4306 69.4212 16.9995 68.0252 16.9029 68.9703C17.1053 70.5989 17.3546 72.1531 17.6401 73.9233C17.669 73.8682 17.6982 73.8133 17.7274 73.7583C17.6823 73.4755 17.6399 73.1996 17.5994 72.9179C17.7101 73.217 17.8217 73.5055 17.9389 73.8083C17.7014 73.4339 17.9023 74.4224 17.6576 74.3106C17.5476 74.2611 17.363 73.8302 17.2429 73.5742C17.243 74.2586 17.262 74.9589 17.29 75.6483C17.1656 75.304 17.0444 74.9575 16.9268 74.6108C16.8956 74.3192 16.8676 74.0292 16.8409 73.7365C16.8411 73.7347 16.8412 73.7328 16.8414 73.731ZM122.808 92.3326C122.674 93.2111 122.008 94.6252 121.378 95.2139C121.884 94.265 122.359 93.3088 122.808 92.3326ZM125.968 53.0175C125.957 53.1226 125.945 53.2245 125.933 53.3294C125.737 52.9403 125.537 52.5522 125.334 52.1702C125.422 52.0557 125.51 51.939 125.597 51.8214C125.725 52.2174 125.849 52.6181 125.968 53.0175ZM111.867 29.8164C112.094 30.0327 112.111 30.055 112.372 30.3452C112.372 30.3448 112.372 30.3444 112.371 30.3441C112.478 30.4565 113.317 31.4423 113.15 31.4014C112.711 30.934 112.238 30.4424 111.774 29.9796C111.803 29.9228 111.842 29.8772 111.867 29.8164ZM116.806 35.5313C116.806 35.5321 116.806 35.5329 116.807 35.5337C116.937 35.728 117.048 35.9217 117.187 36.1181C116.552 35.5116 116.674 35.2459 116.128 34.6715C115.578 34.1003 115.16 33.8215 114.997 33.0807C115.199 33.2357 115.431 33.3924 115.643 33.5511C116.249 34.5102 116.536 34.6634 117.199 35.2965C117.068 35.3747 116.937 35.4528 116.806 35.5313ZM18.2115 59.4938C18.0752 59.2508 18.2884 59.0442 18.295 59.0204C18.2951 59.0209 18.2952 59.0213 18.2953 59.0218C18.4952 57.1213 18.3343 59.2781 18.7174 57.5297C18.7053 57.7988 18.6984 58.0642 18.6911 58.3312C18.529 58.7144 18.3574 59.1121 18.2115 59.4938ZM57.3003 15.834C57.3314 15.8783 57.3659 15.9217 57.397 15.966C56.3607 16.2597 56.1639 16.5362 55.2609 16.6423C55.9331 16.3596 56.6129 16.0899 57.3001 15.8334C57.3002 15.8336 57.3002 15.8338 57.3003 15.834ZM108.08 25.8966C109.07 26.5823 109.774 27.1374 110.519 28.031C110.52 28.0318 110.52 28.0325 110.521 28.0333C110.563 28.0851 110.254 27.9472 110.3 28.0257C110.486 28.1739 110.682 28.3223 110.87 28.4725C110.835 28.5573 110.799 28.641 110.764 28.7253C110.292 28.2469 109.809 27.7762 109.316 27.3126C109.358 27.4161 109.402 27.5209 109.443 27.6245C108.997 27.2643 108.549 26.9141 108.093 26.5688C108.336 26.5875 108.579 26.6077 108.821 26.628C108.577 26.3821 108.329 26.1388 108.08 25.8966ZM40.8712 23.0871C41.0602 23.0239 40.8231 23.3026 41.0941 23.1732C41.364 23.0431 41.7583 22.6516 41.7405 22.8541C41.422 23.0941 41.0917 23.3513 40.7736 23.603C41.9982 23.0834 42.9499 22.1741 43.1567 22.4592C42.0596 23.0526 41.2357 23.6677 40.3206 24.4534C40.1927 24.1982 41.0426 23.2965 40.267 23.5277C40.4655 23.3811 40.6742 23.2274 40.8694 23.0892C40.87 23.0885 40.8706 23.0878 40.8712 23.0871ZM131.815 70.3286C131.783 71.1046 131.809 72.9221 131.558 73.8908C131.5 74.1314 130.907 74.8863 130.839 74.8738C130.613 74.8262 130.675 73.8537 130.424 74.8783C130.458 74.5286 130.481 74.189 130.506 73.8425C130.346 73.8917 130.187 73.9401 130.028 73.9858C130.015 74.406 129.998 74.8278 129.976 75.2502C129.923 75.2653 129.87 75.2803 129.816 75.2952C129.97 73.7911 129.683 74.6585 129.571 73.867C129.417 74.5714 129.25 75.2795 129.071 75.9777C129.133 75.5696 129.194 75.0878 129.244 74.7287C128.989 74.6545 128.96 75.518 128.892 75.6598C128.546 76.4502 129.095 72.2721 128.691 71.9031C128.614 72.5704 128.524 73.2688 128.422 73.942C128.393 73.7432 128.362 73.5425 128.33 73.345C128.713 71.8207 128.875 70.0849 129.015 68.2651C129.002 68.1014 128.988 67.9376 128.974 67.7769C128.856 67.8273 128.739 67.8748 128.622 67.9246C128.603 67.6792 128.583 67.4338 128.561 67.1868C128.97 67.9022 128.949 66.8953 129.114 65.6596C129.291 66.3017 129.236 67.1132 129.489 67.0488C129.222 64.811 129.239 62.1702 128.665 60.0394C128.521 59.5132 128.206 59.5737 127.999 58.3226C128.043 58.3579 128.109 58.3527 128.161 58.371C127.578 56.2485 127.173 54.9917 126.678 52.7645C126.603 52.9248 126.526 53.0825 126.45 53.2415C126.643 53.6864 126.831 54.1323 127.012 54.5796C126.904 54.9468 126.708 54.4988 127.057 55.8868C127.33 57.0282 127.252 56.3286 127.381 56.6264C127.554 57.0303 127.483 57.4338 127.663 57.8714C127.8 58.2112 127.885 57.7956 128.023 58.7299C127.747 58.3954 127.461 58.0601 127.177 57.7345C127.176 57.5026 127.176 57.2721 127.173 57.0398C127.277 57.2521 127.379 57.4619 127.481 57.6765C127.216 56.9017 126.952 56.177 126.645 55.391C127.005 55.5813 126.682 54.7674 126.521 54.3248C126.271 53.6348 126.64 54.1828 126.476 53.7294C126.308 53.2748 125.94 52.8444 125.722 52.0056C125.993 52.407 125.914 51.7675 126.069 51.8455C126.226 51.9233 126.532 52.7994 126.392 51.9094C125.759 50.3174 125.893 52.2234 125.456 51.1603C124.921 49.8942 125.514 49.3196 125.817 49.6504C126.055 49.9112 126.404 50.988 126.628 51.2607C126.198 49.2625 125.729 49.4129 125.529 49.1222C124.77 48.0778 125.901 48.5335 125.041 47.2745C125.204 47.2368 125.349 47.2007 125.506 47.166C125.378 46.9386 125.274 46.796 125.129 46.5188C125.195 47.4904 124.914 46.7918 124.76 46.4405C124.515 45.8865 124.748 46.8055 124.646 46.6747C124.376 46.3215 124.14 45.6828 124.183 46.1209C124.167 45.9236 124.142 45.7107 124.121 45.5082C123.752 44.8935 122.411 43.7253 123.219 45.068C122.926 45.0465 122.818 44.541 122.676 44.1719C122.534 43.8032 122.392 43.8837 122.261 43.563C121.728 42.2907 122.391 42.9535 122.688 43.0491C121.687 41.5071 122.473 43.1149 121.087 40.8811C120.807 40.7529 121.249 41.8905 120.656 41.0746C120.827 40.7611 120.651 40.0015 119.951 38.7221C119.815 38.6418 119.678 38.563 119.542 38.4842C119.341 37.6695 119.817 37.8295 118.688 36.8226C119.67 37.1002 119.032 36.8868 118.465 35.6593C118.349 35.4099 118.827 35.8343 118.659 35.4891C118.582 35.3323 118.253 35.0587 118.062 34.6783C117.972 34.4924 117.582 33.5788 117.069 33.1387C117.129 33.7123 116.135 32.9116 116.605 33.9055C115.415 32.3348 114.372 31.4006 116.143 32.8035C115.893 32.3566 115.636 31.912 115.372 31.4705C115.083 31.2561 114.79 31.0423 114.496 30.8321C114.649 30.6201 114.748 30.6008 113.755 29.6266C114.217 30.0182 114.673 30.4162 115.126 30.8255C115.179 30.8056 115.276 30.8322 115.3 30.7832C114.734 30.2874 113.25 28.8076 112.833 28.5071C112.424 28.2001 113.107 28.9014 112.956 28.8463C111.708 28.3864 112.06 28.1683 111.362 27.6413C110.952 27.3356 111.797 28.2084 111.582 28.0401C110.79 27.4151 110.639 26.8863 109.965 26.2923C110.097 26.6265 110.221 26.9614 110.338 27.292C109.651 26.6612 108.861 25.9869 108.154 25.483C107.877 25.2854 107.999 25.543 107.951 25.5146C107.712 25.3719 106.792 24.7385 106.697 24.6696C105.989 24.1342 106.07 23.9818 105.371 23.467C105.657 23.6532 105.923 23.8311 106.199 24.0181C106.486 23.8855 106.776 23.7566 107.066 23.6273C106.39 23.0919 105.7 22.5712 104.998 22.0659C105.467 22.4996 105.93 22.9411 106.383 23.3892C105.456 22.9855 104.527 22.6131 103.59 22.2655C103.242 21.8717 102.891 21.4839 102.53 21.0985C101.328 20.4055 101.283 21.0392 100.963 20.2844C100.59 20.1168 100.216 19.9537 99.8396 19.794C99.924 19.7607 100.008 19.7272 100.093 19.6942C99.6418 19.4941 99.1882 19.2998 98.7316 19.112C99.0769 19.5696 99.397 20.0366 99.7215 20.4906C98.8614 20.0792 98.9402 19.891 98.839 19.7767C98.5679 19.4753 97.8134 19.301 97.6012 19.0542C97.5297 18.968 98.4311 19.2669 98.2139 18.9791C98.1756 18.9227 97.296 17.8296 96.4919 17.6137C96.4616 17.7165 96.4643 17.8609 96.4459 17.9795C95.4321 17.5841 95.1383 16.8655 95.3322 16.7779C94.7521 16.6451 93.9545 16.3331 93.7799 16.4475C93.4996 16.3407 93.2252 16.2385 92.9452 16.1368C93.3844 15.8594 92.1857 15.4924 91.9886 15.8032C92.4676 15.9842 92.9436 16.172 93.4155 16.3653C92.8935 16.6415 94.2623 17.4045 91.3807 15.93C90.8731 15.5116 92.4034 16.3244 91.9867 15.997C91.1958 15.6078 90.3933 15.4276 89.6469 15.0311C88.7123 14.547 89.9901 14.7051 87.5926 14.2968C92.5228 16.3998 86.8001 14.4043 84.3182 14.1556C83.8414 13.4973 82.1811 12.9264 79.7638 12.7147C79.4506 12.6875 79.126 12.6665 78.791 12.6523C78.9584 12.7722 79.3462 12.8256 79.7437 12.8781C80.0214 12.9146 80.3028 12.9502 80.5149 13.0028C81.0296 13.132 80.4515 13.1533 81.0879 13.3267C81.7239 13.4978 83.0686 13.8397 83.6925 14.0908C83.1224 14.0627 80.3854 13.8566 82.2163 13.8735C81.2405 13.5809 80.6492 13.3638 79.7073 13.1744C79.3893 13.1112 79.0319 13.0524 78.6072 13.0004C78.0747 13.2213 78.0997 13.375 76.4678 13.2663C77.4686 12.9578 75.6086 12.5752 76.043 12.2163C77.2201 12.3801 76.5369 12.7135 77.1962 12.9422C77.2629 12.9631 78.3546 12.9646 78.6072 13.0004C77.5456 12.5543 77.1663 12.4051 77.8839 12.0612C77.0963 12.0268 76.61 11.9471 76.5245 12.1333C76.3655 12.0395 76.2049 11.9461 76.0472 11.8537C75.7894 11.8412 75.5573 11.8371 75.2849 11.8236C75.6469 12.13 74.9276 11.917 74.4095 12.0347C73.8917 12.1548 74.5783 12.3908 73.1659 12.3758C73.6357 12.4469 74.0648 12.5134 74.5124 12.5912C73.6111 12.638 72.6953 12.7068 71.7994 12.7969C72.4348 12.9578 73.7988 13.2349 73.756 13.4698C73.3439 13.3694 71.9382 13.5295 71.7871 13.5428C71.1949 13.5786 71.5145 13.4255 71.4696 13.4226C70.5323 13.3729 69.7609 13.4664 69.3927 13.2659C68.6953 13.4097 68.1626 13.3934 67.4155 13.4704C67.0052 13.5139 67.102 13.6689 66.8596 13.6632C65.2517 13.6501 66.723 13.2135 63.7268 14.0732C64.1135 14.1247 64.4944 14.1835 64.8787 14.244C64.5417 14.3361 64.2083 14.4313 63.8747 14.5295C63.6435 14.5464 63.4144 14.5643 63.1835 14.5841C63.1454 14.3402 63.1082 14.0957 63.0702 13.8517C62.8159 13.883 62.5579 13.9171 62.3023 13.9522C62.7331 13.8452 63.1634 13.7437 63.5951 13.6472C63.6278 13.5977 63.6579 13.5487 63.6907 13.4993C63.0315 13.5394 62.3719 13.5906 61.7097 13.6544C61.7142 13.7411 61.7189 13.8283 61.7235 13.915C60.2484 14.1001 60.1923 14.04 58.8813 14.6109C57.8285 14.8786 57.0816 15.4729 56.5327 15.7992C56.3054 15.8187 56.0776 15.839 55.8478 15.862C55.7332 15.9737 55.618 16.0858 55.5049 16.1981C55.2056 16.1919 54.9021 16.1894 54.6005 16.1891C54.5243 16.4561 54.4717 16.5403 55.5405 16.268C55.269 16.6439 53.4059 17.1686 52.641 17.3778C52.0576 17.5312 52.5902 17.0693 52.5105 17.0704C52.2401 17.0699 51.3504 17.5229 51.1537 17.5912C50.3155 17.8741 49.7565 18.1385 49.012 18.4313C48.8671 18.4876 48.4109 18.5425 48.3755 18.5549C48.1052 18.6564 47.4375 18.9107 47.3648 18.9465C43.6322 20.8157 47.8365 19.2379 44.4515 21.0799C44.594 21.094 44.7279 21.113 44.8677 21.1295C44.6203 21.2801 44.3714 21.434 44.1265 21.5883C43.7764 21.7189 44.0871 21.3758 43.5204 21.8479C43.5056 21.734 43.4911 21.6199 43.4792 21.505C43.2373 21.721 43.0072 21.9319 42.7633 22.1555C42.1327 22.1181 40.5311 23.1128 40.3986 22.6928C40.3497 22.5459 41.3825 21.6619 40.705 21.9361C40.2081 22.2401 40.6308 22.1598 40.4411 22.3017C39.0794 23.3349 39.0253 23.0946 38.5014 23.5636C38.4761 23.713 38.4481 23.8673 38.4227 24.0188C38.1956 24.154 37.9686 24.2913 37.741 24.4314C37.736 24.5242 37.7292 24.6186 37.7247 24.7113C37.9211 24.5617 38.1431 24.3945 38.3254 24.26C38.2264 24.654 36.081 26.5799 36.7814 25.7024C37.0658 25.3422 37.7351 24.8567 37.1278 24.9353C36.551 25.4606 35.9064 26.0662 35.3245 26.6423C35.2599 26.6076 35.1964 26.5717 35.1316 26.5372C34.337 27.3073 35.2701 26.8409 35.3656 26.9542C35.1809 27.124 34.9949 27.2964 34.8124 27.4687C34.6889 27.4912 34.5671 27.5082 34.4411 27.5367C34.506 27.6224 34.5678 27.8954 33.9637 28.3429C33.5756 28.6327 33.9362 27.9125 33.3007 28.5791C33.4668 28.65 33.8393 28.5616 33.1533 29.315C32.9597 29.2639 32.7485 29.2517 32.5639 29.18C31.7881 30.206 31.1927 30.4435 30.34 31.6935C29.7984 32.4881 29.3161 33.7535 28.4138 33.8195C27.9682 34.3548 28.2374 34.2843 28.1405 34.469C27.6886 35.3403 27.0134 35.7355 26.8908 35.8724C26.1187 36.7412 25.9195 37.2312 25.2751 37.9361C25.4065 37.9611 25.5196 38.0022 25.6427 38.0345C25.9638 37.216 26.2144 36.8563 26.9517 35.8997C26.7338 36.2429 26.5214 36.5869 26.3118 36.9334C26.4319 36.9362 26.5516 36.9398 26.6696 36.9451C28.5345 33.7032 28.4965 34.778 26.8195 37.371C26.5155 37.4846 26.2063 37.61 25.9033 37.728C25.1459 39.3863 24.4945 39.9677 23.4435 41.7187C23.3186 41.9268 22.9935 42.7541 22.8252 43.0939C22.8287 43.0886 22.8322 43.0834 22.8358 43.0781C22.8829 43.3681 23.1015 43.1219 23.258 43.1614C23.181 43.3511 23.1043 43.5424 23.03 43.732C22.7193 44.0833 22.6992 43.8949 22.3322 44.7141C22.492 44.6568 22.6511 44.6018 22.8108 44.5463C22.387 45.4243 21.9999 45.9574 21.6876 46.8117C21.7073 46.6536 21.7267 46.4971 21.7478 46.339C20.8533 48.1147 20.829 46.3874 20.5711 47.9195C20.4783 47.9861 20.3861 48.0506 20.2935 48.118C20.5116 47.5296 20.7397 46.9457 20.9754 46.3691C20.9014 46.3229 20.8281 46.2758 20.753 46.2318C20.5072 46.8574 20.2718 47.4916 20.0478 48.1275C20.175 47.6489 20.3094 47.1693 20.4491 46.6943C20.1049 47.3956 19.7723 48.1114 19.4579 48.8256C20.0498 48.1652 19.7037 49.1811 20.0702 49.1035C19.3487 50.2922 18.6486 51.2131 18.2606 53.3349C18.1879 53.7578 18.4551 53.5886 17.8887 54.6796C18.2968 54.4878 18.0901 55.9795 18.4625 55.8705C18.5439 55.4647 18.6394 55.0473 18.7229 54.6559C18.4961 55.0664 18.1674 55.0634 18.2552 54.3641C18.3652 53.4733 18.9593 52.2826 18.6079 52.2321C18.7293 51.8955 18.8396 51.5825 18.9611 51.2582C18.9996 51.4208 19.0401 51.5804 19.0807 51.7399C19.2503 50.7667 19.5046 50.1886 19.8712 49.8218C19.5197 50.9407 19.2068 52.0579 18.9262 53.1929C18.989 53.032 19.0532 52.8694 19.1169 52.7094C19.0832 53.6182 19.532 52.8095 19.1392 54.3917C19.0424 54.355 18.9451 54.3202 18.848 54.2834C18.9504 54.9273 18.5679 56.5066 18.998 56.0765C18.79 56.5295 18.7079 56.6177 18.8141 56.9226C18.3006 58.1208 17.8573 58.8974 17.5853 58.3705C17.5507 58.8589 17.5218 59.3524 17.5011 59.8333C17.6448 59.5746 17.79 59.3169 17.9378 59.0587C17.7815 59.8854 17.6444 60.7115 17.5256 61.5432C17.2183 61.5819 17.6732 59.9293 17.3407 60.3744C17.2729 60.4635 17.3171 60.9293 17.2712 61.0432C16.7769 62.2483 17.2846 60.3184 16.9899 60.651C16.7468 61.9555 16.5832 61.5809 16.5033 62.1561C16.4716 62.3997 16.4556 62.8156 16.4821 63.5959C16.391 63.6561 16.2978 63.7215 16.2078 63.7773C16.1213 64.6809 16.32 64.6182 16.3016 65.3985C16.2917 65.886 15.9233 66.4829 16.1326 67.0301C16.1747 67.1256 16.6045 66.2462 16.5379 68.1287C16.5068 69.5984 16.2241 68.9854 16.1247 69.7836C16.0224 70.5834 16.5047 72.3914 16.0921 72.9543C16.1241 72.5326 16.127 71.9982 16.1573 71.5312C16.0604 71.3459 15.9656 71.1645 15.8711 70.9796C16.0191 72.0447 15.9565 73.1492 16.2284 73.8458C16.0186 75.2969 16.5341 76.8361 16.8406 76.3618C16.7301 75.9094 16.6332 76.4292 16.6565 75.7773C16.7335 75.7016 16.8099 75.6228 16.8872 75.5477C17.0018 76.6316 17.1225 77.3892 16.7924 76.9285C16.8098 77.0986 16.8278 77.267 16.8468 77.4368C17.0376 77.4393 17.2286 77.438 17.4194 77.4399C17.4703 77.6363 17.5223 77.833 17.5754 78.0283C17.5702 78.2558 17.566 78.4841 17.5636 78.7144C17.2216 78.4659 17.1089 77.9471 17.2581 79.6844C17.3602 79.6701 17.4624 79.6582 17.5645 79.6439C17.7187 81.0886 17.4736 81.1778 17.9187 82.9542C17.2279 81.6728 17.7 80.7845 16.9974 80.9396C16.9699 80.5834 16.9458 80.2241 16.925 79.8676C16.8127 79.8344 16.7004 79.8013 16.5885 79.7701C16.9802 81.6557 18.4351 84.5145 18.3933 85.8512C18.4916 85.9817 18.5836 86.1144 18.6874 86.2448C18.8085 87.5137 19.565 87.8198 19.6722 89.1182C19.6875 89.2525 19.0325 89.2034 19.6705 90.7367C19.7243 90.6701 19.8332 90.6026 19.9083 90.536C20.0002 90.8843 20.0927 91.231 20.1893 91.576C20.2784 91.6079 20.3687 91.6423 20.4582 91.6735C20.2416 91.1048 20.0351 90.5341 19.8367 89.9587C20.0445 90.4198 20.2594 90.8806 20.4788 91.3348C20.3262 90.6854 20.2185 90.4114 20.5361 90.7072C20.7637 91.2276 20.9998 91.7445 21.2424 92.2568C21.3088 92.2909 21.3756 92.3244 21.442 92.3583C21.4548 92.0511 21.4668 91.7446 21.487 91.439C21.9696 92.8266 22.5239 93.9733 22.8042 95.1015C22.8541 95.2929 22.3717 94.7753 23.1347 95.8604C23.0601 95.9238 23.0087 95.9919 22.9418 96.0542C23.9551 97.3419 24.1472 97.8317 24.8763 99.3654C24.4507 98.3446 24.8658 99.2336 25.0972 99.415C25.2548 99.5397 24.8507 98.9187 24.9552 98.9523C25.058 98.9886 25.8071 99.6449 25.3978 98.9372C23.8543 97.5285 24.1535 96.7134 22.7226 94.5615C22.9689 94.8819 23.2198 95.2015 23.472 95.515C23.4282 95.3272 23.3903 95.1587 23.3441 94.9559C23.9166 96.2714 23.6557 95.6231 24.0142 96.0954C24.3746 96.567 24.9733 97.4513 25.3676 98.0455C25.4918 98.2329 25.2568 98.0987 25.5145 98.5367C25.6891 98.8367 26.3608 99.5259 26.2952 99.8308C26.255 100.033 25.0662 98.9759 26.2453 100.741C26.3513 101.153 25.8162 100.284 25.7914 100.274C25.5441 100.214 26.1691 101.378 26.6303 101.796C26.6676 101.829 26.5007 101.363 26.8431 101.756C27.6594 102.685 27.9681 103.336 28.2992 104.094C28.545 104.014 29.4041 104.647 30.1714 105.678C30.2668 105.683 30.3606 105.685 30.4562 105.689C30.2986 105.562 30.1419 105.435 29.9853 105.306C29.8784 105.112 29.7554 104.915 29.6602 104.72C30.5297 105.672 30.9075 105.583 31.4024 105.961C33.1134 107.228 31.6154 106.891 31.2428 106.708C31.104 106.462 30.9787 106.218 30.8482 105.972C30.8047 106.05 30.7611 106.129 30.7158 106.206C32.8467 108.556 30.6259 106.938 31.6164 108.235C32.2075 108.254 33.0476 109.08 33.9708 110.313C34.0945 110.427 34.2181 110.542 34.3432 110.654C34.4048 110.629 34.4674 110.561 34.528 110.562C35.9171 111.74 35.765 112.419 35.856 112.583C36.274 113.291 36.983 113.386 37.1615 113.525C37.9209 114.115 38.041 114.416 38.8179 114.909C39.6567 115.433 39.1889 114.931 39.4969 115.016C39.7431 115.085 40.3809 115.519 40.6964 115.623C40.5491 115.613 40.3908 115.594 40.2433 115.584C41.0148 116.251 41.6552 116.802 42.6217 117.439C44.0164 117.654 44.5081 119.009 44.5002 118.126C43.5818 117.532 43.1115 117.134 42.7256 116.66C43.339 117.02 43.9598 117.368 44.5875 117.705C44.7252 117.882 44.812 118.026 44.9836 118.222C45.5322 118.332 46.5803 118.985 47.0381 119.159C49.1739 119.955 48.6616 119.371 50.3362 120.683C48.9574 120.125 48.8474 120.347 47.5314 119.662C47.7376 119.964 48.4369 120.261 47.9027 120.238C49.229 120.817 48.8897 120.439 49.4681 120.522C49.9656 120.591 50.8556 120.965 50.8795 120.769C50.9299 120.903 50.9614 121.025 51.0127 121.158C51.872 121.517 52.7365 121.853 53.6107 122.168C53.2013 122.135 52.7918 122.098 52.3823 122.056C52.6478 122.202 52.9157 122.346 53.1848 122.488C55.4407 123.003 59.1067 124.605 58.7097 123.618C59.7814 123.863 59.8952 123.992 60.4441 124.281C60.5224 124.233 60.5964 124.195 60.6759 124.139C61.3541 124.356 61.9359 124.227 62.5397 124.403C63.1458 124.578 63.2612 124.825 63.4143 124.464C63.793 124.639 64.176 124.792 64.5608 124.952C64.8147 124.902 65.0676 124.851 65.3179 124.798C65.538 124.854 65.7592 124.91 65.9812 124.965C66.1334 125.002 66.2856 125.039 66.4378 125.075C66.6616 124.921 68.1396 125.149 68.8 125.069C69.4078 125.306 69.3576 125.936 70.8464 125.887C70.8137 125.732 70.7819 125.577 70.7498 125.422C71.0852 125.467 71.4209 125.509 71.7594 125.548C71.7788 125.599 71.7955 125.649 71.815 125.7C71.6412 125.681 71.4728 125.661 71.3006 125.64C71.4479 125.73 71.5923 125.818 71.7384 125.905C72.2622 125.791 72.782 125.668 73.2989 125.539C72.602 125.449 71.8972 125.345 71.2117 125.229C72.0801 125.141 72.6937 125.258 73.4479 125.126C74.1075 125.33 73.8693 125.455 73.6023 125.689C73.8486 125.667 74.0973 125.643 74.3425 125.617C74.1851 125.848 74.6088 125.988 73.1588 125.983C73.2588 126.049 73.3611 126.11 73.4592 126.178C73.6976 126.165 73.8531 126.218 74.1139 126.188C74.8235 126.104 75.3574 125.673 75.3009 125.534C75.2722 125.462 74.5788 125.629 74.6033 125.522C74.668 125.263 76.2553 125.331 73.9605 125.139C74.7117 124.96 74.8869 125.078 75.7265 125.086C75.6567 125.004 75.5891 124.922 75.5224 124.84C75.9108 124.861 76.2997 124.878 76.688 124.891C76.1723 125.37 79.0677 125.32 76.4977 125.892C77.2677 125.863 78.0406 125.818 78.8102 125.759C78.6568 125.82 78.5028 125.88 78.3483 125.94C77.9981 125.95 77.6478 125.957 77.299 125.96C77.7139 126.011 78.1342 126.056 78.5526 126.097C79.5123 125.897 79.8687 125.69 80.2818 125.442C79.1512 125.442 79.5394 125.589 78.6704 125.721C78.6884 125.596 78.6368 125.488 78.6996 125.352C79.1762 125.563 80.6157 125.197 80.9516 125.131C81.9743 124.941 81.2054 125.309 81.8949 125.207C82.5854 125.102 83.3648 124.808 83.9735 124.939C83.9363 124.805 83.8636 124.673 83.7993 124.557C84.85 124.299 84.6712 124.497 84.7857 124.496C86.6097 124.449 87.4949 123.925 89.4425 123.301C89.1812 123.337 88.9183 123.375 88.655 123.41C90.0473 122.683 89.0792 123.084 87.7716 123.347C88.9821 123.041 89.5931 122.585 90.3995 122.241C91.2081 121.901 92.6619 121.504 93.2096 121.393C92.0949 122.002 90.7701 122.358 89.4479 122.813C89.6419 122.901 89.8259 122.968 90.0307 123.066C90.7556 122.523 91.2833 122.546 91.5648 122.49C92.3869 122.32 92.2726 122.088 92.8386 122.169C92.7863 122.088 92.7444 122.019 92.6944 121.944C94.3064 121.384 96.0718 120.788 96.9268 119.994C97.1153 120.154 97.2785 120.318 97.4847 120.475C98.0683 120.005 98.7017 119.88 99.2297 119.559C99.7527 119.238 99.4622 119.187 100.058 118.783C100.167 118.708 100.465 118.674 100.708 118.44C100.958 118.205 101.676 117.051 102.082 117.446C102.607 117.13 103.108 116.84 103.617 116.52C103.143 116.865 102.664 117.202 102.181 117.531C102.677 117.386 103.17 117.235 103.665 117.076C103.654 116.941 103.643 116.804 103.63 116.672C104.678 115.818 105.589 115.422 106.657 114.575C106.833 114.433 106.267 114.567 107.103 114.01C107.933 113.447 108.805 113.33 110.004 112.079C110.065 112.015 110.227 111.431 110.838 111.194C110.978 111.139 110.591 111.591 110.877 111.428C111.166 111.268 112.26 110.326 112.453 110.364C112.402 110.332 112.295 110.351 112.222 110.338C112.381 110.148 112.54 109.955 112.699 109.762C112.787 109.819 112.877 109.875 112.965 109.932C113.807 108.758 114.037 107.98 115.519 106.506C115.019 106.849 114.515 107.182 114.01 107.503C113.977 107.691 113.944 107.881 113.912 108.067C113.22 108.734 112.509 109.385 111.786 110.014C111.755 110.209 111.723 110.403 111.689 110.598C111.491 110.762 111.295 110.922 111.096 111.083C111.085 110.976 111.074 110.869 111.065 110.761C110.708 111.116 110.346 111.468 109.981 111.813C110.418 110.77 112.117 109.927 111.726 109.704C111.935 109.597 112.143 109.488 112.351 109.378C112.277 109.16 112.647 108.885 113.235 108.329C113.033 108.391 112.818 108.465 112.626 108.513C113.282 108.061 114.225 107.041 114.804 106.47C115.059 106.219 114.934 106.585 115.018 106.518C115.453 106.171 115.929 105.209 116.082 105.054C117.004 104.135 117.927 103.765 118.513 102.418C117.571 103.553 118.074 102.93 117.615 103.237C117.471 103.334 116.221 104.753 117.707 102.913C117.909 102.725 120.632 99.364 120.049 100.679C120.371 100.049 120.587 99.5339 120.85 98.9442C122.263 97.9669 121.418 98.0924 120.879 98.2954C121.01 98.0765 121.132 97.8662 121.266 97.6396C121.311 98.3203 122.768 95.8494 123.025 94.8867C123.117 94.5691 122.595 95.3205 122.887 94.628C123.073 94.3237 123.283 93.9776 123.474 93.6514C123.022 94.0374 123.406 93.0356 123.179 92.9455C123.664 92.4257 124.295 92.1298 124.365 92.5784C124.51 92.0171 124.647 91.4556 124.773 90.893C124.618 91.1137 124.461 91.3361 124.304 91.5535C125.198 89.9172 125.669 87.5624 126.269 87.3559C126.346 87.1202 126.421 86.8847 126.494 86.6499C126.436 86.551 126.377 86.4547 126.318 86.3564C126.728 85.3259 127.11 84.2751 127.459 83.2194C127.26 84.1903 127.315 84.4519 126.923 85.425C127.133 85.0693 127.343 84.7002 127.544 84.3463C127.693 82.7616 127.598 82.5105 128.156 80.2289C128.187 80.1294 128.727 78.4067 128.752 78.351C128.895 78.0911 128.968 78.5338 129.038 78.419C129.244 78.1073 129.888 76.0416 129.928 76.0835C130.616 76.6941 129.286 83.8653 128.628 85.7312C123.183 105.592 106.257 120.883 86.5677 125.618C86.365 125.669 86.4761 125.741 86.3904 125.766C85.8559 125.919 85.2957 125.888 85.095 125.925C84.6663 126.003 84.9298 126.089 84.6174 126.154C81.3858 126.815 78.2733 127.106 74.9842 127.25C74.7691 127.259 74.9849 127.141 74.6081 127.172C74.4155 127.189 73.812 127.374 73.3715 127.379C71.8301 127.397 70.5497 127.307 68.9275 127.201C68.0469 127.145 66.7335 127.009 65.7451 126.887C65.7431 126.887 65.7411 126.887 65.7391 126.886C65.3029 126.834 64.8395 126.851 64.4107 126.791C63.8028 126.704 63.9517 126.565 63.86 126.541C63.4595 126.435 63.3755 126.597 62.9899 126.528C62.2719 126.394 62.2499 126.274 61.3398 126.105C60.69 125.987 59.1908 125.745 58.3725 125.559C56.5147 124.954 54.1507 124.263 52.4263 123.659C51.408 123.304 51.3763 123.109 50.9676 122.946C49.5331 122.365 48.376 122.07 47.0605 121.433C45.3193 120.583 43.8847 119.629 42.296 118.64C42.0389 118.479 42.0194 118.642 41.7647 118.487C40.8214 117.912 39.6324 117.141 38.8472 116.548C37.9696 115.885 37.7775 115.47 36.9083 114.847C36.6542 114.663 36.4631 114.754 36.0373 114.44C35.3568 113.938 34.764 113.21 34.3369 112.807C33.7523 112.253 34.1434 112.867 33.3561 112.116C33.3239 112.085 33.2977 111.873 33.123 111.719C32.6161 111.268 32.5875 111.396 31.8827 110.692C31.8124 110.626 30.9789 109.596 30.8918 109.5C30.3548 108.947 29.3465 107.768 29.0293 107.44C27.8911 106.272 28.5612 107.379 28.0187 106.029C27.5467 105.629 27.0814 105.226 26.6 104.778C26.9401 105.061 25.9929 103.58 25.9186 103.483C25.261 102.703 25.4679 103.3 24.7503 102.222C26.055 103.393 23.842 100.826 23.4505 100.176C21.4782 97.1277 20.058 94.1301 18.6926 90.7553C18.2348 89.6268 17.5955 88.1136 17.2065 86.8828C17.115 86.5959 17.2752 86.7836 17.1974 86.5306C17.1199 86.278 17.1045 86.5901 17.0203 86.3C16.503 84.4875 16.3357 83.0217 15.7224 81.3979C15.7407 81.3083 15.7695 81.3049 15.7801 81.161C15.2485 79.8291 15.1242 77.0943 15.06 76.0843C14.9426 74.5035 14.7618 74.1032 14.7112 72.9536C14.6401 71.4235 14.9234 69.132 14.4415 70.1618C14.4079 69.116 14.413 68.0915 14.4967 67.0406C14.5062 66.923 14.629 67.0088 14.6333 66.9618C14.6628 66.6648 14.5548 66.5628 14.559 66.3606C14.5724 65.8127 14.6617 66.7122 14.6645 65.9305C14.669 65.5196 14.578 65.2721 14.6696 64.1376C14.7299 63.4189 14.8047 62.6921 14.8945 61.9586C15.6419 55.7165 17.5594 49.2489 20.358 43.5635C20.5723 43.1281 20.3211 43.3606 20.6001 42.8189C21.5528 40.9159 23.6678 37.7718 24.6952 36.268C25.7089 34.7571 25.335 34.9923 25.9538 34.0261C26.075 33.8405 26.0472 34.0463 26.1687 33.8877C26.9829 32.8194 28.1222 31.6803 28.8524 30.8818C29.3368 30.3522 29.1806 30.2903 29.506 29.9116C29.9928 29.348 30.6361 28.9048 30.9149 28.6245C32.2267 27.3073 33.069 26.3327 34.4179 25.2322C34.3436 25.2506 34.2884 25.2558 34.2222 25.268C35.7729 23.9094 37.3926 22.6345 39.077 21.4465C38.9792 21.4766 38.8839 21.5048 38.7858 21.535C40.7768 20.1542 40.7593 20.6277 40.1698 20.1284C40.3028 20.0084 40.4431 19.8796 40.5719 19.7668C40.7251 20.1214 42.0924 19.537 43.7458 18.6932C43.8652 18.6301 44.4815 17.8591 44.6074 18.2892C44.7634 18.0805 44.8526 17.9477 44.9853 17.7688C45.3941 17.6965 45.8066 17.625 46.2146 17.5617C46.3932 17.447 46.5754 17.3326 46.7551 17.2199C46.7447 17.1296 46.6832 17.0613 46.7064 16.9558C47.5775 16.4929 49.4606 15.7463 50.1744 15.4415C51.94 14.6602 53.7275 13.7747 55.238 13.5591C55.9297 13.3162 55.1829 13.3689 56.2356 13.0727C56.3782 13.1188 56.5124 13.1642 56.66 13.2123C57.4117 12.6037 57.6553 12.7712 58.857 12.55C59.6726 12.4048 60.1758 12.1958 60.9492 12.0517C61.1452 12.0158 61.14 12.1306 61.2725 12.0999C61.7152 11.994 62.9692 11.6101 63.2869 11.5571C66.1686 11.045 68.6733 10.838 71.4585 10.81C71.7566 10.8078 71.3677 10.706 71.6767 10.7045C72.1741 10.7035 71.8839 10.8769 72.1716 10.8816C72.9738 10.8992 72.9807 10.717 74.1068 10.7286C75.9578 10.7548 77.9479 10.9178 79.9502 11.1958C81.9381 11.4704 83.9183 11.856 85.784 12.2856C85.9015 12.3123 85.9181 12.2091 86.0466 12.2377C86.8852 12.426 87.6882 12.7769 88.4319 12.9813C89.6725 13.3248 90.6389 13.4711 91.8445 13.8828C94.2007 14.6971 96.2248 15.6134 98.5236 16.7405C100.397 17.669 101.999 18.5367 103.941 19.7575C112.409 25.0773 119.88 32.6297 124.472 41.6788C124.589 41.9084 124.458 41.8589 124.498 41.9263C124.879 42.5681 125.018 42.5741 124.905 42.9271C125.374 43.7515 125.683 43.9367 126.149 44.9893C126.393 45.5515 125.933 45.2548 126.488 46.1398C126.973 46.947 126.767 45.9211 127.615 48.5774C127.636 48.6484 127.591 49.0506 127.83 49.578C128.066 50.1104 127.977 49.4291 128.462 50.7435C129.597 53.8392 130.415 57.9455 130.925 61.7311C130.969 61.9633 131.303 64.2554 131.369 64.7081C131.518 65.5819 131.647 65.3887 131.735 66.5403C131.797 67.436 131.659 68.1644 131.687 69.2116C131.69 69.3332 131.853 69.5394 131.815 70.3286ZM17.5678 77.3268C17.7558 77.5089 18.3711 77.7853 18.4151 79.0242C18.42 79.1434 17.9151 78.5884 17.9765 79.276C17.8125 78.6218 17.6916 77.98 17.5672 77.3269C17.5674 77.3268 17.5676 77.3268 17.5678 77.3268ZM127.758 75.5774C127.896 74.659 128.01 73.7417 128.103 72.8234C128.129 73.4643 128.144 74.104 128.148 74.7471C128.02 75.026 127.89 75.301 127.758 75.5774ZM51.788 17.6341C51.7888 17.6338 51.7896 17.6335 51.7905 17.6331C50.9161 18.0725 50.0572 18.5334 49.2103 19.0166C49.2791 18.9234 49.3485 18.8299 49.4181 18.7369C50.0796 18.333 50.7486 17.9433 51.4265 17.567C51.5471 17.589 51.6678 17.6113 51.788 17.6341ZM58.9488 14.6516C59.5747 14.5606 59.452 14.7058 59.8124 14.7284C59.8123 14.7282 59.8123 14.728 59.8122 14.7278C59.9073 14.7333 60.325 14.6603 60.4846 14.6288C60.4108 14.575 60.3198 14.5261 60.2407 14.4743C61.6384 13.9764 64.5379 14.0307 60.987 14.987C61.0218 14.8904 61.0546 14.7947 61.09 14.6981C59.3126 15.1023 57.2888 15.4815 58.9488 14.6516ZM21.8774 91.3776C22.7745 92.6874 23.0306 93.1042 23.7267 94.8711C23.531 94.6726 23.3362 94.4716 23.143 94.2694C23.0746 93.9531 23.0095 93.639 22.9469 93.3226C22.9465 93.3218 22.9461 93.321 22.9458 93.3202C22.8408 93.302 22.7355 93.2833 22.6315 93.2667C22.369 92.6423 22.1161 92.0091 21.8774 91.3776ZM113.917 31.0846C113.793 31.7928 113.958 31.4674 113.01 30.6533C112.68 30.3739 112.898 30.7448 112.701 30.564C111.634 29.5969 111.806 29.2538 112.179 29.3385C112.772 29.908 113.358 30.4973 113.916 31.0826C113.916 31.0833 113.917 31.0839 113.917 31.0846ZM128.774 65.032C128.774 65.0329 128.774 65.0338 128.774 65.0347C128.639 65.0815 128.559 64.503 128.475 65.1682C128.442 64.6705 128.401 64.1687 128.353 63.6666C128.38 63.8126 128.406 63.9621 128.432 64.1086C128.468 63.9741 128.504 63.8389 128.539 63.704C128.363 63.5413 128.441 63.3676 128.436 62.837C128.283 63.0007 128.129 63.1626 127.975 63.3239C127.962 62.713 127.941 62.1047 127.908 61.4914C127.949 61.4781 127.991 61.4647 128.032 61.4514C127.946 61.2301 127.859 61.0122 127.771 60.7931C127.812 60.7237 127.853 60.6565 127.894 60.5868C127.814 60.3179 127.731 60.0498 127.646 59.7833C127.754 59.6795 127.913 60.2728 127.695 59.2102C127.879 59.5148 128.06 59.8219 128.239 60.1353C128.49 61.7612 128.668 63.3921 128.774 65.032ZM105.306 23.7089C106.776 24.7498 106.304 24.5281 105.807 24.5043C105.643 24.239 105.475 23.9728 105.306 23.7089ZM24.5079 40.722C24.4072 41.2727 24.3149 41.8197 24.2213 42.3746C23.8067 43.3488 23.019 44.1409 23.2619 43.3646C23.5619 42.4284 24.2093 41.6385 24.5079 40.722ZM17.1637 63.7096C17.3854 62.4191 17.4839 63.6668 17.5913 63.9675C17.3458 64.306 17.3195 64.8003 17.2429 65.607C17.2753 64.8477 17.1266 63.9257 17.1631 63.7096C17.1633 63.7096 17.1635 63.7096 17.1637 63.7096ZM38.415 25.1523C38.8219 24.8259 39.2035 24.4685 39.6174 24.2429C39.6126 24.4728 38.7707 24.901 39.4652 24.7169C39.2027 24.9203 38.9416 25.1262 38.6851 25.3331C38.7811 25.1153 38.5069 25.2221 38.4164 25.152C38.4159 25.1521 38.4155 25.1522 38.415 25.1523ZM89.7285 16.1351C88.822 15.6235 88.5995 15.6546 87.5727 15.5253C87.4768 15.3144 88.7459 15.3568 89.5057 15.5282C89.5803 15.7301 89.6541 15.9324 89.7285 16.1351ZM116.104 104.087C116.13 104.423 114.985 105.837 114.323 106.457C114.371 106.355 114.417 106.252 114.463 106.15C115.027 105.475 115.574 104.787 116.104 104.087ZM17.2047 65.9898C17.2189 65.8552 17.2315 65.7276 17.2429 65.607C17.2368 65.7415 17.2253 65.8708 17.2047 65.9898ZM38.5596 114.248C38.0839 114.151 39.071 115 37.8711 113.971C37.871 113.971 37.8709 113.971 37.8707 113.971C37.0842 113.283 36.9151 113.125 36.186 112.491C36.6294 112.509 38.1829 113.677 36.1647 111.912C36.1382 111.889 36.085 112.059 35.7753 111.761C35.6799 111.668 35.4469 111.29 34.997 110.829C34.8511 110.68 33.7288 109.596 35.3013 111.028C35.3814 110.844 35.5949 110.777 35.7142 110.636C36.3624 111.142 36.5979 111.837 37.2798 112.388C38.296 113.202 39.0514 113.293 38.95 113.839C38.001 113.283 36.5441 112.079 36.5572 111.691C35.7614 111.003 35.3726 110.976 35.9366 111.633C38.8425 113.866 36.4548 112.595 39.1197 114.41C39.1914 114.378 39.3417 114.397 39.3639 114.333C40.0108 115.111 38.7277 114.286 38.5596 114.248ZM33.1248 108.802C33.6742 109.146 34.2273 109.478 34.7824 109.798C34.6214 109.969 34.2202 109.895 33.4123 109.292C33.3163 109.129 33.2193 108.965 33.1248 108.802ZM81.8215 124.479C81.8907 124.337 82.1095 124.182 82.2614 124.031C82.4703 124.148 86.9209 123.29 84.6928 123.886C84.3687 123.982 82.3207 124.143 81.8215 124.479ZM96.4004 18.5282C95.9535 18.2248 95.5059 17.9293 95.0526 17.6396C95.8233 17.9123 96.5954 18.2037 97.3579 18.5113C97.0372 18.5137 96.7194 18.5201 96.4004 18.5282ZM20.4965 48.452C20.5843 48.2429 20.4722 49.0076 20.7752 48.1676C20.6328 48.8281 20.504 49.4368 20.3847 50.0805C20.2403 50.2338 20.0961 50.3904 19.9528 50.5463C19.9537 50.7071 19.954 50.8705 19.9562 51.031C19.8698 50.9057 19.7832 50.7905 19.6973 50.6589C20.3062 49.7113 20.1147 49.378 20.4965 48.452ZM40.0484 22.7876C40.3609 22.8895 39.1617 23.9414 40.4576 23.0686C40.3163 23.3824 39.9812 23.7281 39.2628 24.285C39.106 24.3192 38.9497 24.3544 38.7928 24.3901C38.8851 24.5445 38.7377 24.7382 38.415 25.1523C38.4145 25.1524 38.414 25.1525 38.4136 25.1527C37.3413 26.0179 37.3761 25.9286 36.9305 25.9133C38.1681 25.1098 38.0377 24.8819 38.7382 24.1422C39.2211 23.6357 39.9821 23.1483 40.0484 22.7876ZM77.0145 125.045C78.0283 124.738 77.0856 124.621 78.9329 124.675C78.8216 124.744 78.7092 124.813 78.597 124.882C78.0716 124.944 77.5393 124.999 77.0145 125.045ZM44.8557 20.7774C44.5486 20.478 43.5367 20.7077 43.7448 21.3666C44.6251 20.9934 44.0358 20.9051 44.8557 20.7774ZM16.5686 63.1993C16.6236 62.7232 16.6981 62.397 16.7768 62.1897C16.9611 61.708 17.1635 61.8681 17.2874 62.2524C17.316 62.3405 17.3406 62.4404 17.3602 62.5473C17.2628 62.6528 17.1657 62.7586 17.0697 62.8626C17.0721 63.1865 17.0774 63.5095 17.0849 63.8315C16.9118 63.6229 16.7393 63.412 16.5686 63.1993ZM75.6293 12.8721C74.2171 13.095 77.1298 13.118 76.1428 13.2474C75.358 13.3445 74.3488 13.0185 74.7414 12.8461C75.0116 12.8503 75.3127 12.8592 75.6266 12.872C75.6275 12.872 75.6284 12.8721 75.6293 12.8721ZM67.5328 13.129C67.7909 13.4216 67.4523 13.3536 68.5476 13.2092C68.8571 13.1552 71.366 13.1576 70.3031 12.9457C69.4042 12.9852 68.4666 13.0443 67.5328 13.129ZM18.7831 84.1998C18.65 84.2585 17.8659 82.457 17.8889 82.1913C17.8887 82.1914 17.8885 82.1914 17.8883 82.1915C17.9283 81.4916 18.4427 83.4693 18.5025 82.542C18.7428 84.5002 19.5103 84.8872 18.7113 84.9798C18.356 83.8751 18.6664 84.359 18.7831 84.1998ZM127.337 83.2033C127.338 83.2025 127.338 83.2016 127.338 83.2007C127.302 83.3271 126.829 84.3039 126.795 84.1591C127.188 82.9417 127.259 83.1909 127.329 81.9774C127.412 81.9295 127.491 81.89 127.576 81.8368C127.507 82.3103 127.528 82.5882 127.337 83.2033ZM86.6971 123.749C86.2455 123.902 85.3681 123.958 84.8451 124.08C86.39 123.167 88.4863 123.128 86.6971 123.749ZM124.744 47.8941C124.744 47.893 124.743 47.8918 124.742 47.8906C124.743 47.8909 124.743 47.8913 124.744 47.8915C124.744 47.8924 124.744 47.8933 124.744 47.8941ZM50.8219 120.629C50.8633 120.687 50.8825 120.73 50.8829 120.761C50.8818 120.763 50.8808 120.766 50.8798 120.768C50.863 120.724 50.8444 120.678 50.8219 120.629ZM20.0429 88.0082C20.1334 88.8355 18.9456 86.3968 18.7772 85.5313C18.8781 85.5642 18.9562 85.5504 19.0933 85.6562C19.0789 86.398 20.0237 87.8761 20.0429 88.0082ZM31.5295 31.0406C30.0971 32.6098 31.4029 30.0488 31.929 30.383C31.9335 30.3937 31.5648 30.9992 31.5295 31.0406ZM16.7365 71.7011C16.4884 71.1698 16.4623 72.2612 16.4463 70.5166C16.5028 70.4141 16.5596 70.3119 16.6167 70.21C16.6498 70.7049 16.6901 71.2045 16.7365 71.7011ZM22.6028 41.8289C21.4106 44.2786 20.6134 46.7413 21.8985 45.4053C21.9654 45.2134 22.0351 45.0196 22.104 44.8285C21.8418 44.6695 22.3096 44.0641 22.8221 43.0984C22.7854 42.9033 23.0459 42.3522 23.0101 42.2028C22.94 41.9121 22.4816 42.4664 22.6028 41.8289ZM118.289 35.2699C118.222 35.2663 118.154 35.2638 118.087 35.2602C117.786 34.9557 117.481 34.654 117.174 34.3574C117.295 34.3493 117.416 34.3418 117.537 34.3345C117.791 34.6433 118.041 34.9533 118.288 35.2675C118.289 35.2683 118.289 35.2691 118.289 35.2699ZM30.8527 107.356C31.4439 107.144 30.7813 106.609 29.4436 105.472C29.899 106.108 30.3699 106.738 30.8527 107.356ZM55.4409 14.8815C55.5444 15.0198 55.6466 15.1582 55.7518 15.2962C56.5743 14.8593 56.3622 14.7319 55.8734 14.6563C55.7277 14.7311 55.5855 14.8056 55.4409 14.8815ZM68.4686 12.257C68.0846 12.2526 68.2896 12.3692 68.2496 12.3696C67.2752 12.3826 67.1293 12.3327 65.9599 12.5689C65.8196 12.6208 65.6823 12.6747 65.5429 12.7287C66.1283 13.0007 66.4989 12.7617 67.6717 12.8539C67.4533 12.7558 67.2347 12.6587 67.0142 12.5627C67.6595 12.5217 68.3064 12.4914 68.9488 12.4728C69.0226 12.4315 69.0967 12.3906 69.1708 12.3496C68.9387 12.3177 68.6985 12.2821 68.4686 12.257ZM120.926 39.4172C121.243 39.9559 121.552 40.5027 121.851 41.0518C121.936 41.0297 122.02 41.0066 122.105 40.9847C121.721 40.455 121.327 39.9309 120.926 39.4172ZM40.6964 115.623C40.7542 115.626 40.8111 115.629 40.8638 115.628C40.8392 115.656 40.7781 115.65 40.6964 115.623ZM128.177 81.7056C128.392 81.0278 128.561 80.0144 128.712 79.2445C128.499 79.2711 128.175 81.2249 127.884 81.8692C127.895 81.9867 128.085 81.9949 128.177 81.7056ZM16.9101 60.6623C16.8321 60.4706 16.7555 60.2785 16.679 60.088C16.7582 59.6634 16.8422 59.2427 16.9321 58.8136C16.8494 58.7855 16.766 58.7574 16.6833 58.7291C16.4616 60.6421 16.3015 60.1609 15.9166 61.0752C16.2473 60.9333 16.5781 60.7977 16.9101 60.6623ZM128.753 57.7018C128.414 56.3531 128.185 55.9091 128.107 56.7218C128.271 57.1826 128.43 57.6496 128.583 58.1173C128.64 57.9784 128.696 57.839 128.753 57.7018ZM63.7285 125.092C64.8512 125.173 64.8541 125.503 65.9185 125.476C65.9471 125.475 65.9765 125.474 66.0067 125.472C65.9783 125.466 65.9498 125.459 65.9213 125.452C65.3533 125.321 64.7905 125.181 64.2347 125.034C64.0675 125.054 63.896 125.073 63.7285 125.092ZM19.9292 92.1282C20.0191 92.6337 20.9111 93.2373 21.1455 94.6675C21.4068 94.9083 21.6083 95.038 21.8484 95.2339C21.8037 95.4424 21.7692 95.6725 21.7242 95.8751C21.7247 95.8759 21.7251 95.8767 21.7255 95.8776C22.3597 96.9724 22.1235 96.1677 22.2631 96.1264C22.3202 96.1108 22.6804 96.976 22.6538 96.6582C22.5986 96.1164 21.6281 94.5111 21.8741 94.3836C22.0828 95.0112 22.7515 96.1093 22.7331 95.6893C22.7122 95.2341 21.867 94.3164 21.6861 93.5513C21.7736 94.732 20.9074 92.6181 21.1158 92.2438C20.3485 91.1305 20.7284 92.2965 21.3287 93.5317C20.7408 92.8834 21.3908 93.9392 21.2929 94.214C20.7775 93.4996 19.6877 90.718 19.9292 92.1282ZM28.8632 32.4269C28.279 33.1451 27.2698 34.1997 27.0643 34.8388C26.943 35.2069 27.8902 34.1142 27.4475 35.0257C27.9714 34.2998 28.0417 34.0949 27.8105 34.1093C27.9199 33.9349 28.0322 33.7595 28.1444 33.5861C28.2299 33.5326 28.3166 33.4773 28.4022 33.4244C28.4145 33.2961 28.428 33.1675 28.4395 33.0409C28.5882 32.8802 28.7394 32.7184 28.8901 32.5599C28.8791 32.5174 28.8834 32.4639 28.8632 32.4269ZM96.1608 120.814C95.9293 120.921 95.6994 121.026 95.4666 121.13C95.5091 121.157 95.5573 121.184 95.6042 121.21C95.6391 121.232 95.674 121.254 95.7089 121.276C95.5239 121.227 94.3284 121.517 93.8997 121.825C93.6835 121.98 94.3182 121.982 93.3101 122.418C94.0478 122.121 94.7208 121.812 95.4215 121.488C95.3852 121.579 95.3514 121.669 95.3145 121.76C95.3149 121.76 95.3154 121.76 95.3159 121.76C95.5587 121.673 95.8041 121.584 96.0457 121.493C96.086 121.267 96.1231 121.041 96.1608 120.814ZM54.626 14.8095C53.8372 15.2194 53.5892 15.3881 54.0497 15.4556C54.0506 15.4554 54.0515 15.4552 54.0524 15.455C54.3267 15.2561 54.6043 15.059 54.8825 14.8647C54.7978 14.8459 54.7132 14.8271 54.626 14.8095ZM46.7787 120.097C48.8048 120.204 44.8663 118.737 45.4359 119.344C45.4596 119.376 46.6622 119.939 46.7787 120.097ZM16.2803 63.5119C16.3191 63.058 16.364 62.6026 16.4142 62.1452C16.4201 62.0915 16.4261 62.0378 16.4321 61.9842C16.3796 62.0316 16.3271 62.0797 16.2747 62.1281C16.2115 62.1864 16.1484 62.245 16.0853 62.3029C16.1458 62.7082 16.2112 63.1119 16.2803 63.5119ZM127.595 51.741C127.653 51.1573 127.28 49.8029 126.808 49.2522C126.904 49.597 126.997 49.9428 127.087 50.2893C126.839 49.6616 126.58 49.0476 126.311 48.426C126.001 48.5075 126.461 49.1639 126.766 50.3008C126.816 50.4792 126.808 51.6945 127.208 51.9856C127.292 52.0439 126.952 50.8578 127.385 51.6191C127.283 51.2571 127.179 50.951 127.071 50.612C127.134 50.5632 127.198 50.5145 127.26 50.463C127.377 50.8897 127.488 51.3128 127.595 51.741ZM25.6248 36.7414C24.8938 37.7842 24.9229 37.9929 24.9665 38.3345C25.264 37.825 25.5697 37.3203 25.8828 36.8207C25.7962 36.7953 25.7118 36.7669 25.6248 36.7414ZM123.148 41.2377C122.838 40.6085 122.825 40.96 122.657 40.7327C122.017 39.8768 121.754 39.1904 121.124 38.349C121.191 38.3887 121.253 38.425 121.317 38.4634C121.317 38.4626 121.316 38.4618 121.316 38.4611C118.685 34.2391 119.844 36.6175 121.478 39.083C121.456 39.1776 121.433 39.2698 121.412 39.3639C122.205 40.4275 122.893 41.4455 123.148 41.2377ZM33.2779 110.537C33.2903 110.606 32.7525 110.469 33.4984 111.002C34.2908 111.204 33.2987 110.545 33.1945 110.23C33.3967 110.372 33.6023 110.517 33.8039 110.655C32.8246 109.573 32.6173 109.478 32.7932 110.06C32.8065 110.101 33.2657 110.468 33.2779 110.537ZM40.6488 116.733C41.1355 116.369 39.4798 115.536 39.4302 115.714C39.6341 115.869 39.8518 115.903 40.0484 116.093C40.2477 116.285 40.2274 116.437 40.6488 116.733ZM15.5545 72.1147C15.554 72.1685 15.3422 72.7272 15.5299 72.6615C15.9347 71.9651 15.6001 70.6265 15.4514 70.866C15.4732 71.3167 15.5527 71.6135 15.5539 72.1147C15.5541 72.1147 15.5543 72.1147 15.5545 72.1147ZM129.676 59.9097C129.692 59.881 129.557 58.523 129.43 58.3652C129.302 58.2415 129.181 58.1917 129.056 58.1057C129.302 58.8231 129.469 60.3257 129.676 59.907C129.676 59.9079 129.676 59.9088 129.676 59.9097Z" fill="white"/>
</svg>
