<svg width="137" height="137" viewBox="0 0 137 137" fill="none" xmlns="http://www.w3.org/2000/svg">
<circle cx="68.3441" cy="68.3441" r="61.3273" transform="rotate(7 68.3441 68.3441)" fill="black"/>
<path d="M118.669 49.3279C118.765 50.1238 117.885 47.7048 118.251 49.4036C118.091 49.0861 117.927 48.7687 117.761 48.4551C117.838 48.3222 117.913 48.1867 117.989 48.0526C118.221 48.4737 118.447 48.8975 118.669 49.3277C118.669 49.3278 118.669 49.3279 118.669 49.3279ZM120.366 49.3418C119.867 49.0539 119.222 47.7893 119.519 49.3293C119.678 49.3948 119.839 49.464 119.998 49.5314C120.113 50.0636 120.221 50.5979 120.32 51.1294C120.43 51.2923 120.54 51.4559 120.649 51.6207C120.533 51.9231 120.414 52.2216 120.293 52.52C120.251 52.3069 120.208 52.091 120.164 51.8782C119.712 51.1381 119.402 50.4534 118.929 49.4045C118.921 49.5169 118.914 49.6293 118.906 49.7414C118.763 49.1713 118.611 48.6028 118.45 48.0381C118.734 48.4634 119.044 48.9457 119.298 49.3499C119.317 48.5242 118.6 47.3782 118.236 46.787C117.741 45.9803 117.975 46.1023 117.601 45.508C117.541 45.4133 117.425 45.4584 117.322 45.2638C116.812 44.2774 115.787 42.3746 116.667 43.3296C117.535 44.9476 118.451 46.2488 119.116 47.937C119.223 47.3643 119.731 48.1806 120.366 49.3418ZM98.2644 24.3038C98.8199 24.4663 99.7254 25.1532 100.28 25.6889C100.28 25.6894 100.281 25.6899 100.282 25.6904C100.405 25.8083 100.587 26.2045 100.147 25.8795C99.4315 25.3537 99.2603 24.8319 98.7415 24.7636C98.5903 24.6118 98.4265 24.459 98.2644 24.3038ZM96.6024 23.2957C96.1719 22.9445 96.5178 22.8477 97.0744 23.2644C97.0745 23.2642 97.0746 23.2641 97.0747 23.2639C97.3054 23.4393 96.7193 23.3138 97.7045 23.682C97.7985 23.9292 97.8952 24.1626 97.9855 24.4041C97.7733 24.2712 97.5779 24.1527 97.3537 24.0156C97.6429 23.8864 97.0316 23.6469 96.6024 23.2957ZM116.076 42.5937C115.828 42.6389 116.016 42.9502 116.176 43.5651C115.897 43.0575 115.61 42.553 115.317 42.0561C115.572 42.2332 115.823 42.411 116.076 42.5937ZM121.455 55.1559C121.456 55.1567 121.456 55.1575 121.456 55.1584C121.545 55.3319 121.634 55.5059 121.72 55.6776C121.669 55.8102 121.618 55.9411 121.567 56.073C121.82 56.7008 122.063 57.3392 122.295 57.9809C122.027 57.9583 121.784 56.7711 121.432 56.1791C121.248 55.2095 121.247 54.7081 121.439 54.5831C121.445 54.7734 121.45 54.9634 121.455 55.1559ZM12.4654 75.1822C12.5554 75.4063 12.6466 75.6262 12.7392 75.8478C12.743 75.5414 12.7417 75.2366 12.7555 74.9285C12.3872 74.1534 12.6529 74.0579 12.5842 73.009C12.4365 69.801 11.9625 70.6135 12.77 67.7421C12.6417 70.0663 13.0112 69.1841 13.2511 70.5801C13.0546 70.8724 12.6235 69.4763 12.5269 70.4215C12.7294 72.0501 12.9787 73.6043 13.2641 75.3745C13.2931 75.3193 13.3223 75.2645 13.3514 75.2095C13.3064 74.9267 13.264 74.6508 13.2234 74.3691C13.3341 74.6682 13.4458 74.9567 13.5629 75.2595C13.3254 74.8851 13.5264 75.8736 13.2816 75.7618C13.1717 75.7123 12.987 75.2814 12.8669 75.0254C12.867 75.7097 12.886 76.41 12.914 77.0995C12.7897 76.7552 12.6685 76.4087 12.5508 76.062C12.5196 75.7704 12.4916 75.4804 12.4649 75.1877C12.4651 75.1858 12.4652 75.184 12.4654 75.1822ZM118.432 93.7838C118.298 94.6623 117.632 96.0764 117.002 96.6651C117.508 95.7162 117.983 94.76 118.432 93.7838ZM121.592 54.4687C121.581 54.5738 121.569 54.6757 121.557 54.7805C121.361 54.3915 121.161 54.0034 120.958 53.6214C121.046 53.5069 121.134 53.3902 121.221 53.2726C121.349 53.6686 121.473 54.0692 121.592 54.4687ZM107.491 31.2676C107.718 31.4838 107.735 31.5061 107.996 31.7964C107.996 31.796 107.996 31.7956 107.996 31.7952C108.102 31.9076 108.941 32.8934 108.774 32.8525C108.335 32.3852 107.862 31.8935 107.398 31.4308C107.427 31.374 107.466 31.3284 107.491 31.2676ZM112.43 36.9824C112.43 36.9833 112.43 36.9841 112.431 36.9849C112.561 37.1792 112.672 37.3729 112.811 37.5692C112.176 36.9627 112.298 36.697 111.752 36.1227C111.202 35.5514 110.784 35.2727 110.621 34.5318C110.823 34.6869 111.055 34.8435 111.267 35.0023C111.873 35.9614 112.16 36.1145 112.823 36.7477C112.692 36.8259 112.561 36.904 112.43 36.9824ZM13.8355 60.945C13.6992 60.702 13.9125 60.4954 13.919 60.4716C13.9191 60.472 13.9192 60.4725 13.9194 60.473C14.1192 58.5725 13.9583 60.7292 14.3415 58.9809C14.3293 59.2499 14.3224 59.5154 14.3151 59.7824C14.153 60.1656 13.9814 60.5632 13.8355 60.945ZM52.9243 17.2852C52.9555 17.3294 52.9899 17.3729 53.021 17.4172C51.9848 17.7109 51.788 17.9874 50.8849 18.0935C51.5571 17.8108 52.2369 17.5411 52.9241 17.2846C52.9242 17.2848 52.9242 17.285 52.9243 17.2852ZM103.704 27.3478C104.694 28.0335 105.398 28.5885 106.143 29.4822C106.144 29.483 106.144 29.4837 106.145 29.4845C106.187 29.5363 105.878 29.3983 105.924 29.4768C106.11 29.6251 106.306 29.7734 106.494 29.9236C106.459 30.0085 106.423 30.0922 106.388 30.1764C105.916 29.698 105.433 29.2274 104.94 28.7638C104.982 28.8673 105.026 28.9721 105.068 29.0756C104.621 28.7154 104.173 28.3653 103.717 28.02C103.96 28.0387 104.203 28.0589 104.445 28.0791C104.201 27.8333 103.953 27.5899 103.704 27.3478ZM36.4952 24.5383C36.6842 24.4751 36.4471 24.7538 36.7181 24.6243C36.988 24.4943 37.3824 24.1028 37.3645 24.3053C37.046 24.5452 36.7158 24.8024 36.3977 25.0542C37.6222 24.5345 38.5739 23.6253 38.7807 23.9104C37.6837 24.5038 36.8597 25.1188 35.9446 25.9046C35.8167 25.6494 36.6666 24.7477 35.891 24.9789C36.0895 24.8323 36.2983 24.6786 36.4934 24.5403C36.494 24.5396 36.4946 24.539 36.4952 24.5383ZM127.44 71.7798C127.407 72.5558 127.433 74.3732 127.182 75.3419C127.124 75.5826 126.531 76.3375 126.463 76.325C126.237 76.2773 126.299 75.3048 126.048 76.3294C126.082 75.9798 126.105 75.6401 126.13 75.2937C125.97 75.3429 125.811 75.3913 125.652 75.437C125.64 75.8572 125.622 76.279 125.6 76.7014C125.547 76.7165 125.494 76.7314 125.44 76.7464C125.594 75.2422 125.307 76.1097 125.195 75.3182C125.041 76.0226 124.874 76.7307 124.695 77.4288C124.757 77.0207 124.818 76.539 124.868 76.1799C124.613 76.1057 124.584 76.9692 124.516 77.111C124.17 77.9014 124.719 73.7233 124.315 73.3543C124.238 74.0215 124.148 74.72 124.046 75.3931C124.017 75.1944 123.986 74.9937 123.954 74.7961C124.337 73.2719 124.499 71.536 124.639 69.7163C124.626 69.5526 124.612 69.3888 124.598 69.2281C124.48 69.2785 124.363 69.326 124.246 69.3758C124.227 69.1303 124.207 68.885 124.185 68.6379C124.594 69.3534 124.573 68.3464 124.738 67.1108C124.915 67.7528 124.86 68.5644 125.113 68.4999C124.846 66.2622 124.863 63.6214 124.289 61.4906C124.145 60.9644 123.83 61.0249 123.623 59.7737C123.667 59.809 123.733 59.8038 123.785 59.8222C123.202 57.6997 122.797 56.4429 122.302 54.2156C122.227 54.3759 122.15 54.5337 122.074 54.6927C122.267 55.1376 122.455 55.5835 122.636 56.0308C122.528 56.398 122.333 55.95 122.681 57.3379C122.954 58.4794 122.876 57.7798 123.005 58.0775C123.178 58.4815 123.107 58.885 123.287 59.3226C123.424 59.6624 123.509 59.2468 123.647 60.1811C123.371 59.8465 123.085 59.5112 122.801 59.1857C122.8 58.9538 122.8 58.7232 122.797 58.491C122.901 58.7033 123.003 58.9131 123.105 59.1277C122.84 58.3529 122.576 57.6282 122.269 56.8422C122.629 57.0325 122.306 56.2186 122.145 55.776C121.895 55.086 122.264 55.634 122.1 55.1806C121.932 54.7259 121.564 54.2955 121.346 53.4568C121.617 53.8582 121.538 53.2187 121.693 53.2967C121.85 53.3744 122.156 54.2506 122.016 53.3606C121.383 51.7686 121.517 53.6746 121.08 52.6115C120.546 51.3454 121.138 50.7707 121.441 51.1016C121.679 51.3624 122.028 52.4392 122.252 52.7119C121.822 50.7137 121.353 50.864 121.153 50.5734C120.394 49.5289 121.525 49.9847 120.665 48.7257C120.828 48.6879 120.973 48.6519 121.13 48.6172C121.002 48.3898 120.898 48.2472 120.753 47.97C120.82 48.9415 120.538 48.2429 120.384 47.8917C120.139 47.3377 120.372 48.2566 120.27 48.1258C120 47.7727 119.765 47.134 119.807 47.572C119.791 47.3748 119.766 47.1619 119.745 46.9594C119.376 46.3447 118.035 45.1765 118.843 46.5192C118.55 46.4976 118.442 45.9922 118.3 45.6231C118.158 45.2543 118.016 45.3348 117.885 45.0142C117.352 43.7419 118.015 44.4046 118.312 44.5003C117.311 42.9583 118.097 44.5661 116.711 42.3323C116.431 42.204 116.873 43.3416 116.28 42.5258C116.451 42.2122 116.275 41.4527 115.575 40.1732C115.439 40.093 115.302 40.0142 115.166 39.9354C114.965 39.1207 115.441 39.2807 114.312 38.2738C115.294 38.5514 114.656 38.338 114.09 37.1105C113.973 36.8611 114.451 37.2855 114.283 36.9403C114.206 36.7835 113.877 36.5098 113.686 36.1295C113.596 35.9436 113.206 35.03 112.693 34.5899C112.753 35.1635 111.759 34.3628 112.229 35.3566C111.039 33.786 109.996 32.8518 111.767 34.2547C111.517 33.8078 111.26 33.3632 110.996 32.9217C110.707 32.7073 110.414 32.4935 110.12 32.2833C110.273 32.0713 110.372 32.0519 109.379 31.0777C109.841 31.4694 110.297 31.8673 110.75 32.2767C110.803 32.2568 110.9 32.2834 110.924 32.2344C110.358 31.7386 108.874 30.2587 108.457 29.9583C108.048 29.6513 108.731 30.3526 108.58 30.2975C107.332 29.8376 107.684 29.6195 106.986 29.0925C106.576 28.7867 107.421 29.6596 107.206 29.4913C106.414 28.8662 106.263 28.3374 105.589 27.7435C105.721 28.0777 105.845 28.4125 105.962 28.7431C105.275 28.1124 104.485 27.4381 103.778 26.9342C103.501 26.7366 103.623 26.9942 103.575 26.9657C103.336 26.8231 102.416 26.1897 102.321 26.1208C101.613 25.5854 101.694 25.4329 100.995 24.9182C101.281 25.1044 101.547 25.2823 101.823 25.4693C102.11 25.3367 102.4 25.2078 102.69 25.0784C102.014 24.5431 101.324 24.0224 100.622 23.517C101.091 23.9508 101.554 24.3923 102.007 24.8404C101.08 24.4367 100.151 24.0642 99.2145 23.7167C98.8664 23.3229 98.5149 22.9351 98.1541 22.5496C96.9524 21.8566 96.9074 22.4903 96.5874 21.7356C96.2141 21.568 95.8397 21.4048 95.4636 21.2452C95.5481 21.2119 95.6323 21.1784 95.717 21.1454C95.2658 20.9453 94.8123 20.7509 94.3556 20.5632C94.7009 21.0208 95.0211 21.4878 95.3456 21.9418C94.4855 21.5304 94.5642 21.3421 94.463 21.2279C94.1919 20.9265 93.4374 20.7522 93.2252 20.5054C93.1538 20.4192 94.0551 20.7181 93.8379 20.4303C93.7996 20.3739 92.92 19.2808 92.1159 19.0649C92.0856 19.1677 92.0884 19.3121 92.0699 19.4307C91.0561 19.0352 90.7623 18.3167 90.9562 18.2291C90.3762 18.0962 89.5785 17.7843 89.4039 17.8987C89.1236 17.7919 88.8492 17.6897 88.5692 17.588C89.0084 17.3105 87.8097 16.9436 87.6126 17.2543C88.0917 17.4353 88.5676 17.6232 89.0396 17.8164C88.5175 18.0926 89.8864 18.8557 87.0047 17.3811C86.4972 16.9628 88.0275 17.7755 87.6107 17.4482C86.8198 17.059 86.0173 16.8788 85.2709 16.4823C84.3363 15.9982 85.6141 16.1563 83.2166 15.748C88.1469 17.851 82.4241 15.8555 79.9423 15.6068C79.4654 14.9485 77.8052 14.3775 75.3878 14.1659C75.0747 14.1386 74.75 14.1176 74.415 14.1035C74.5825 14.2234 74.9702 14.2768 75.3677 14.3293C75.6454 14.3657 75.9268 14.4013 76.139 14.454C76.6536 14.5832 76.0756 14.6045 76.7119 14.7779C77.3479 14.949 78.6926 15.2909 79.3165 15.542C78.7464 15.5139 76.0094 15.3078 77.8403 15.3246C76.8645 15.032 76.2733 14.815 75.3313 14.6255C75.0133 14.5623 74.6559 14.5036 74.2312 14.4516C73.6987 14.6725 73.7237 14.8262 72.0918 14.7175C73.0926 14.4089 71.2326 14.0264 71.667 13.6675C72.8441 13.8313 72.1609 14.1647 72.8202 14.3934C72.8869 14.4142 73.9787 14.4158 74.2312 14.4516C73.1696 14.0054 72.7903 13.8562 73.5079 13.5124C72.7203 13.4779 72.234 13.3982 72.1485 13.5845C71.9895 13.4906 71.8289 13.3973 71.6712 13.3049C71.4134 13.2923 71.1814 13.2883 70.9089 13.2748C71.271 13.5812 70.5516 13.3682 70.0335 13.4859C69.5157 13.6059 70.2024 13.8419 68.7899 13.8269C69.2597 13.8981 69.6889 13.9646 70.1364 14.0424C69.2351 14.0892 68.3193 14.158 67.4234 14.2481C68.0588 14.4089 69.4228 14.6861 69.38 14.9209C68.968 14.8206 67.5622 14.9807 67.4111 14.9939C66.8189 15.0297 67.1385 14.8767 67.0936 14.8738C66.1563 14.8241 65.3849 14.9176 65.0168 14.7171C64.3194 14.8608 63.7866 14.8445 63.0395 14.9216C62.6292 14.965 62.726 15.1201 62.4836 15.1144C60.8758 15.1013 62.347 14.6647 59.3509 15.5244C59.7375 15.5759 60.1184 15.6347 60.5027 15.6951C60.1657 15.7873 59.8323 15.8824 59.4987 15.9806C59.2675 15.9976 59.0384 16.0155 58.8075 16.0353C58.7694 15.7914 58.7322 15.5468 58.6943 15.3029C58.4399 15.3342 58.1819 15.3683 57.9263 15.4034C58.3571 15.2964 58.7874 15.1948 59.2191 15.0983C59.2518 15.0489 59.2819 14.9999 59.3148 14.9504C58.6555 14.9906 57.9959 15.0418 57.3337 15.1056C57.3382 15.1923 57.343 15.2795 57.3475 15.3662C55.8724 15.5513 55.8164 15.4912 54.5054 16.0621C53.4525 16.3297 52.7057 16.9241 52.1567 17.2504C51.9294 17.2698 51.7016 17.2902 51.4718 17.3132C51.3573 17.4248 51.242 17.537 51.1289 17.6493C50.8296 17.6431 50.5261 17.6406 50.2245 17.6403C50.1484 17.9073 50.0957 17.9914 51.1645 17.7192C50.893 18.0951 49.0299 18.6198 48.265 18.829C47.6816 18.9823 48.2143 18.5204 48.1345 18.5216C47.8641 18.5211 46.9744 18.9741 46.7777 19.0424C45.9395 19.3252 45.3806 19.5896 44.636 19.8825C44.4911 19.9388 44.0349 19.9936 43.9995 20.0061C43.7292 20.1076 43.0615 20.3619 42.9888 20.3977C39.2562 22.2669 43.4605 20.689 40.0755 22.531C40.218 22.5452 40.3519 22.5642 40.4917 22.5807C40.2443 22.7313 39.9954 22.8851 39.7505 23.0395C39.4004 23.1701 39.7112 22.827 39.1444 23.2991C39.1296 23.1852 39.1152 23.0711 39.1032 22.9562C38.8613 23.1721 38.6312 23.3831 38.3873 23.6067C37.7567 23.5693 36.1551 24.564 36.0226 24.144C35.9737 23.9971 37.0066 23.1131 36.329 23.3873C35.8321 23.6912 36.2548 23.6109 36.0651 23.7529C34.7035 24.7861 34.6493 24.5457 34.1254 25.0148C34.1001 25.1642 34.0721 25.3185 34.0467 25.47C33.8196 25.6052 33.5926 25.7425 33.365 25.8826C33.36 25.9754 33.3532 26.0698 33.3487 26.1625C33.5451 26.0129 33.7672 25.8456 33.9494 25.7112C33.8505 26.1052 31.705 28.0311 32.4055 27.1535C32.6899 26.7934 33.3591 26.3079 32.7519 26.3865C32.175 26.9118 31.5304 27.5174 30.9486 28.0935C30.8839 28.0588 30.8204 28.0229 30.7557 27.9883C29.9611 28.7585 30.8941 28.2921 30.9897 28.4053C30.8049 28.5751 30.619 28.7476 30.4365 28.9198C30.313 28.9423 30.1911 28.9594 30.0651 28.9878C30.13 29.0736 30.1918 29.3466 29.5878 29.794C29.1996 30.0839 29.5603 29.3637 28.9247 30.0302C29.0909 30.1012 29.4633 30.0128 28.7773 30.7662C28.5837 30.7151 28.3725 30.7028 28.1879 30.6311C27.4121 31.6572 26.8167 31.8947 25.964 33.1446C25.4224 33.9393 24.9401 35.2046 24.0379 35.2707C23.5923 35.806 23.8615 35.7355 23.7645 35.9202C23.3126 36.7915 22.6374 37.1867 22.5149 37.3235C21.7427 38.1923 21.5436 38.6824 20.8991 39.3872C21.0306 39.4123 21.1436 39.4534 21.2667 39.4857C21.5879 38.6671 21.8384 38.3075 22.5757 37.3508C22.3578 37.694 22.1454 38.0381 21.9358 38.3846C22.056 38.3873 22.1756 38.391 22.2937 38.3963C24.1586 35.1544 24.1205 36.2292 22.4436 38.8222C22.1395 38.9357 21.8303 39.0611 21.5273 39.1792C20.7699 40.8375 20.1185 41.4189 19.0675 43.1699C18.9426 43.378 18.6175 44.2053 18.4492 44.5451C18.4527 44.5398 18.4563 44.5345 18.4598 44.5293C18.5069 44.8193 18.7255 44.5731 18.882 44.6126C18.805 44.8023 18.7284 44.9936 18.654 45.1831C18.3434 45.5344 18.3232 45.346 17.9563 46.1653C18.116 46.108 18.2751 46.053 18.4348 45.9975C18.011 46.8755 17.6239 47.4086 17.3117 48.2629C17.3313 48.1048 17.3508 47.9483 17.3718 47.7902C16.4774 49.5659 16.453 47.8385 16.1951 49.3706C16.1024 49.4373 16.0101 49.5017 15.9176 49.5692C16.1356 48.9808 16.3637 48.3969 16.5994 47.8203C16.5254 47.7741 16.4521 47.727 16.3771 47.683C16.1313 48.3086 15.8958 48.9427 15.6718 49.5786C15.799 49.1 15.9335 48.6205 16.0731 48.1455C15.7289 48.8468 15.3963 49.5626 15.0819 50.2767C15.6739 49.6164 15.3277 50.6322 15.6942 50.5546C14.9727 51.7434 14.2726 52.6642 13.8846 54.7861C13.8119 55.2089 14.0791 55.0398 13.5127 56.1307C13.9208 55.939 13.7142 57.4307 14.0865 57.3217C14.168 56.9159 14.2634 56.4984 14.3469 56.1071C14.1201 56.5175 13.7915 56.5146 13.8793 55.8153C13.9892 54.9245 14.5833 53.7337 14.2319 53.6832C14.3533 53.3467 14.4637 53.0336 14.5851 52.7094C14.6236 52.872 14.6642 53.0316 14.7047 53.191C14.8743 52.2179 15.1286 51.6398 15.4952 51.273C15.1437 52.3919 14.8308 53.5091 14.5502 54.6441C14.613 54.4832 14.6772 54.3206 14.7409 54.1606C14.7072 55.0694 15.156 54.2607 14.7632 55.8429C14.6665 55.8062 14.5692 55.7714 14.472 55.7345C14.5744 56.3785 14.1919 57.9578 14.622 57.5277C14.414 57.9807 14.3319 58.0689 14.4381 58.3737C13.9246 59.572 13.4813 60.3485 13.2093 59.8217C13.1747 60.31 13.1458 60.8036 13.1252 61.2845C13.2689 61.0258 13.414 60.768 13.5618 60.5098C13.4055 61.3365 13.2684 62.1627 13.1497 62.9944C12.8423 63.033 13.2972 61.3805 12.9647 61.8256C12.897 61.9147 12.9411 62.3805 12.8952 62.4944C12.401 63.6995 12.9087 61.7696 12.6139 62.1022C12.3708 63.4067 12.2072 63.0321 12.1273 63.6073C12.0957 63.8509 12.0796 64.2668 12.1062 65.0471C12.015 65.1073 11.9218 65.1727 11.8319 65.2285C11.7453 66.1321 11.944 66.0694 11.9257 66.8497C11.9158 67.3371 11.5473 67.9341 11.7567 68.4813C11.7988 68.5768 12.2285 67.6973 12.162 69.5799C12.1308 71.0495 11.8481 70.4366 11.7487 71.2348C11.6465 72.0346 12.1288 73.8426 11.7161 74.4055C11.7481 73.9838 11.751 73.4494 11.7813 72.9824C11.6844 72.7971 11.5896 72.6157 11.4951 72.4308C11.6431 73.4959 11.5805 74.6004 11.8524 75.297C11.6426 76.7481 12.1581 78.2873 12.4646 77.8129C12.3541 77.3605 12.2572 77.8804 12.2805 77.2284C12.3576 77.1528 12.4339 77.074 12.5112 76.9989C12.6258 78.0828 12.7465 78.8403 12.4164 78.3797C12.4339 78.5498 12.4519 78.7181 12.4709 78.8879C12.6617 78.8905 12.8526 78.8892 13.0434 78.8911C13.0944 79.0874 13.1463 79.2842 13.1994 79.4795C13.1942 79.707 13.1901 79.9352 13.1876 80.1656C12.8456 79.917 12.733 79.3983 12.8821 81.1356C12.9843 81.1213 13.0864 81.1094 13.1885 81.095C13.3427 82.5398 13.0976 82.6289 13.5427 84.4054C12.852 83.124 13.3241 82.2356 12.6215 82.3908C12.5939 82.0346 12.5698 81.6752 12.5491 81.3187C12.4367 81.2855 12.3244 81.2525 12.2126 81.2212C12.6042 83.1069 14.0591 85.9657 14.0174 87.3023C14.1156 87.4329 14.2076 87.5656 14.3114 87.696C14.4325 88.9649 15.189 89.271 15.2962 90.5693C15.3116 90.7036 14.6565 90.6546 15.2945 92.1879C15.3483 92.1213 15.4572 92.0537 15.5323 91.9871C15.6242 92.3354 15.7168 92.6821 15.8134 93.0272C15.9024 93.059 15.9927 93.0935 16.0822 93.1246C15.8656 92.556 15.6591 91.9853 15.4607 91.4098C15.6685 91.871 15.8834 92.3318 16.1029 92.786C15.9502 92.1365 15.8425 91.8626 16.1601 92.1584C16.3877 92.6788 16.6238 93.1957 16.8664 93.7079C16.9328 93.742 16.9996 93.7756 17.0661 93.8095C17.0789 93.5023 17.0908 93.1958 17.111 92.8902C17.5936 94.2777 18.148 95.4245 18.4282 96.5526C18.4781 96.7441 17.9957 96.2265 18.7587 97.3116C18.6842 97.375 18.6327 97.4431 18.5658 97.5054C19.5792 98.7931 19.7712 99.2829 20.5004 100.817C20.0747 99.7958 20.4899 100.685 20.7212 100.866C20.8788 100.991 20.4748 100.37 20.5792 100.403C20.682 100.44 21.4311 101.096 21.0218 100.388C19.4783 98.9796 19.7776 98.1645 18.3466 96.0127C18.5929 96.3331 18.8438 96.6527 19.0961 96.9662C19.0522 96.7783 19.0143 96.6098 18.9681 96.4071C19.5406 97.7226 19.2797 97.0743 19.6383 97.5465C19.9986 98.0181 20.5974 98.9024 20.9917 99.4967C21.1158 99.6841 20.8809 99.5499 21.1385 99.9879C21.3131 100.288 21.9849 100.977 21.9192 101.282C21.8791 101.484 20.6902 100.427 21.8693 102.193C21.9754 102.604 21.4402 101.735 21.4154 101.725C21.1681 101.665 21.7932 102.83 22.2544 103.247C22.2916 103.28 22.1248 102.814 22.4672 103.207C23.2834 104.136 23.5921 104.787 23.9232 105.545C24.169 105.465 25.0282 106.098 25.7954 107.129C25.8908 107.134 25.9846 107.136 26.0802 107.14C25.9226 107.013 25.7659 106.886 25.6093 106.757C25.5024 106.563 25.3794 106.367 25.2842 106.171C26.1537 107.123 26.5315 107.034 27.0265 107.412C28.7374 108.679 27.2394 108.342 26.8668 108.159C26.728 107.914 26.6028 107.67 26.4722 107.423C26.4287 107.501 26.3852 107.58 26.3398 107.657C28.4707 110.007 26.2499 108.389 27.2405 109.686C27.8316 109.705 28.6716 110.531 29.5948 111.764C29.7185 111.878 29.8421 111.993 29.9672 112.105C30.0289 112.08 30.0914 112.012 30.152 112.014C31.5411 113.191 31.389 113.87 31.48 114.034C31.898 114.743 32.607 114.837 32.7855 114.977C33.545 115.567 33.665 115.867 34.4419 116.36C35.2807 116.884 34.8129 116.382 35.1209 116.467C35.3671 116.537 36.0049 116.971 36.3204 117.074C36.1731 117.065 36.0148 117.045 35.8673 117.035C36.6388 117.702 37.2792 118.253 38.2457 118.89C39.6404 119.106 40.1321 120.46 40.1242 119.577C39.2059 118.983 38.7355 118.585 38.3496 118.111C38.963 118.471 39.5839 118.82 40.2116 119.156C40.3492 119.333 40.436 119.477 40.6077 119.673C41.1562 119.784 42.2043 120.436 42.6621 120.61C44.798 121.406 44.2857 120.822 45.9602 122.134C44.5815 121.576 44.4715 121.798 43.1554 121.113C43.3616 121.415 44.061 121.713 43.5267 121.689C44.853 122.268 44.5137 121.891 45.0921 121.973C45.5896 122.043 46.4796 122.416 46.5036 122.22C46.5539 122.354 46.5854 122.476 46.6367 122.609C47.4961 122.968 48.3606 123.305 49.2348 123.619C48.8253 123.586 48.4158 123.549 48.0063 123.507C48.2719 123.653 48.5397 123.797 48.8088 123.939C51.0647 124.454 54.7307 126.056 54.3337 125.07C55.4054 125.314 55.5192 125.443 56.0682 125.732C56.1464 125.684 56.2205 125.646 56.3 125.59C56.9781 125.807 57.5599 125.678 58.1637 125.854C58.7698 126.029 58.8852 126.276 59.0383 125.915C59.417 126.091 59.8001 126.244 60.1848 126.403C60.4387 126.353 60.6917 126.302 60.9419 126.249C61.162 126.306 61.3833 126.361 61.6052 126.416C61.7574 126.453 61.9097 126.49 62.0618 126.526C62.2856 126.372 63.7636 126.6 64.424 126.52C65.0318 126.757 64.9816 127.388 66.4704 127.338C66.4377 127.183 66.4059 127.029 66.3739 126.874C66.7092 126.919 67.0449 126.96 67.3835 126.999C67.4028 127.05 67.4195 127.1 67.439 127.151C67.2653 127.132 67.0969 127.113 66.9247 127.092C67.0719 127.181 67.2163 127.269 67.3625 127.357C67.8862 127.242 68.4061 127.12 68.923 126.99C68.226 126.9 67.5212 126.796 66.8357 126.68C67.7041 126.593 68.3178 126.709 69.0719 126.577C69.7315 126.781 69.4934 126.906 69.2263 127.14C69.4727 127.118 69.7213 127.094 69.9665 127.068C69.8091 127.3 70.2329 127.439 68.7828 127.435C68.8828 127.5 68.9852 127.562 69.0833 127.629C69.3216 127.616 69.4772 127.669 69.738 127.639C70.4476 127.555 70.9814 127.125 70.9249 126.985C70.8962 126.913 70.2028 127.08 70.2273 126.973C70.292 126.714 71.8794 126.783 69.5846 126.591C70.3358 126.411 70.5109 126.529 71.3505 126.537C71.2807 126.455 71.2131 126.373 71.1464 126.291C71.5348 126.312 71.9237 126.329 72.312 126.342C71.7963 126.821 74.6917 126.771 72.1217 127.343C72.8917 127.314 73.6646 127.269 74.4342 127.21C74.2808 127.271 74.1268 127.331 73.9723 127.391C73.6222 127.401 73.2719 127.408 72.923 127.411C73.338 127.462 73.7582 127.507 74.1766 127.548C75.1364 127.348 75.4927 127.142 75.9058 126.894C74.7752 126.894 75.1635 127.04 74.2944 127.172C74.3124 127.047 74.2608 126.939 74.3236 126.803C74.8002 127.015 76.2397 126.648 76.5757 126.582C77.5983 126.392 76.8294 126.76 77.5189 126.658C78.2094 126.553 78.9889 126.259 79.5975 126.39C79.5604 126.256 79.4877 126.124 79.4233 126.008C80.474 125.75 80.2952 125.948 80.4097 125.947C82.2337 125.901 83.1189 125.376 85.0665 124.753C84.8052 124.788 84.5423 124.826 84.279 124.861C85.6713 124.134 84.7032 124.535 83.3956 124.798C84.6061 124.492 85.2171 124.036 86.0235 123.693C86.8321 123.352 88.2859 122.955 88.8336 122.844C87.7189 123.453 86.3941 123.809 85.0719 124.264C85.2659 124.352 85.4499 124.42 85.6547 124.517C86.3797 123.974 86.9074 123.997 87.1889 123.941C88.0109 123.772 87.8967 123.539 88.4626 123.62C88.4103 123.539 88.3684 123.47 88.3185 123.395C89.9304 122.835 91.6959 122.239 92.5509 121.445C92.7394 121.606 92.9025 121.769 93.1087 121.926C93.6924 121.456 94.3257 121.331 94.8538 121.01C95.3767 120.689 95.0862 120.638 95.6817 120.234C95.7914 120.159 96.0891 120.126 96.3318 119.891C96.5821 119.657 97.2997 118.502 97.7056 118.897C98.231 118.582 98.7323 118.291 99.2413 117.971C98.7672 118.316 98.2876 118.653 97.8048 118.982C98.301 118.837 98.7936 118.686 99.2888 118.527C99.2785 118.392 99.2667 118.255 99.2542 118.124C100.302 117.269 101.213 116.873 102.281 116.027C102.457 115.884 101.891 116.018 102.727 115.461C103.557 114.898 104.43 114.782 105.628 113.53C105.689 113.466 105.851 112.882 106.462 112.645C106.602 112.59 106.215 113.043 106.501 112.879C106.79 112.72 107.884 111.778 108.077 111.815C108.026 111.783 107.919 111.802 107.846 111.789C108.005 111.599 108.164 111.406 108.323 111.213C108.411 111.27 108.501 111.327 108.589 111.384C109.431 110.209 109.661 109.431 111.143 107.958C110.643 108.3 110.139 108.633 109.634 108.954C109.601 109.143 109.568 109.332 109.536 109.518C108.844 110.185 108.134 110.836 107.411 111.465C107.379 111.661 107.347 111.854 107.313 112.05C107.116 112.213 106.919 112.373 106.72 112.534C106.709 112.427 106.698 112.32 106.689 112.212C106.332 112.568 105.97 112.92 105.605 113.264C106.042 112.221 107.741 111.378 107.35 111.156C107.559 111.048 107.767 110.939 107.975 110.829C107.901 110.611 108.271 110.336 108.859 109.78C108.657 109.842 108.442 109.916 108.25 109.964C108.906 109.513 109.849 108.492 110.428 107.921C110.683 107.671 110.558 108.037 110.642 107.969C111.077 107.623 111.553 106.66 111.706 106.505C112.628 105.586 113.551 105.216 114.137 103.869C113.195 105.004 113.698 104.381 113.239 104.688C113.095 104.785 111.845 106.204 113.331 104.364C113.533 104.176 116.256 100.815 115.673 102.131C115.995 101.5 116.211 100.985 116.474 100.395C117.887 99.4181 117.042 99.5436 116.503 99.7465C116.634 99.5276 116.756 99.3174 116.89 99.0907C116.935 99.7715 118.392 97.3005 118.649 96.3379C118.741 96.0203 118.219 96.7717 118.511 96.0792C118.697 95.7748 118.907 95.4288 119.098 95.1026C118.646 95.4886 119.03 94.4868 118.803 94.3967C119.288 93.8768 119.919 93.581 119.989 94.0296C120.134 93.4683 120.271 92.9068 120.397 92.3441C120.242 92.5649 120.085 92.7873 119.928 93.0046C120.822 91.3684 121.293 89.0135 121.893 88.8071C121.97 88.5714 122.045 88.3358 122.118 88.1011C122.06 88.0022 122.001 87.9059 121.942 87.8076C122.352 86.7771 122.735 85.7263 123.083 84.6706C122.884 85.6415 122.939 85.903 122.547 86.8762C122.757 86.5205 122.967 86.1514 123.168 85.7975C123.317 84.2128 123.222 83.9617 123.78 81.6801C123.811 81.5806 124.351 79.8579 124.376 79.8021C124.519 79.5423 124.592 79.985 124.662 79.8702C124.868 79.5584 125.512 77.4928 125.552 77.5346C126.24 78.1453 124.91 85.3165 124.252 87.1824C118.807 107.044 101.881 122.334 82.1917 127.07C81.989 127.12 82.1002 127.192 82.0144 127.217C81.4799 127.37 80.9197 127.339 80.719 127.376C80.2903 127.454 80.5538 127.54 80.2414 127.606C77.0098 128.266 73.8973 128.557 70.6083 128.701C70.3931 128.71 70.6089 128.592 70.2321 128.623C70.0396 128.64 69.436 128.825 68.9955 128.83C67.4541 128.848 66.1737 128.758 64.5515 128.653C63.671 128.597 62.3575 128.46 61.3692 128.338C61.3672 128.338 61.3651 128.338 61.3631 128.338C60.9269 128.285 60.4635 128.302 60.0347 128.242C59.4269 128.156 59.5757 128.016 59.484 127.992C59.0836 127.886 58.9995 128.048 58.614 127.979C57.8959 127.845 57.874 127.725 56.9638 127.556C56.314 127.438 54.8148 127.196 53.9966 127.01C52.1387 126.405 49.7747 125.715 48.0503 125.111C47.032 124.755 47.0003 124.56 46.5916 124.398C45.1572 123.816 44 123.521 42.6845 122.884C40.9433 122.034 39.5087 121.081 37.92 120.091C37.6629 119.93 37.6434 120.093 37.3887 119.938C36.4454 119.364 35.2565 118.592 34.4712 117.999C33.5936 117.336 33.4015 116.921 32.5324 116.298C32.2782 116.114 32.0872 116.205 31.6613 115.892C30.9808 115.389 30.388 114.661 29.9609 114.258C29.3763 113.705 29.7674 114.318 28.9802 113.567C28.948 113.536 28.9217 113.324 28.747 113.17C28.2401 112.719 28.2115 112.847 27.5067 112.143C27.4365 112.077 26.6029 111.047 26.5159 110.951C25.9789 110.398 24.9705 109.219 24.6533 108.892C23.5152 107.723 24.1852 108.83 23.6427 107.48C23.1707 107.081 22.7054 106.677 22.2241 106.229C22.5641 106.512 21.6169 105.031 21.5427 104.934C20.885 104.154 21.0919 104.751 20.3743 103.673C21.6791 104.844 19.4661 102.277 19.0745 101.627C17.1023 98.5789 15.682 95.5813 14.3166 92.2064C13.8589 91.078 13.2195 89.5648 12.8305 88.334C12.739 88.047 12.8992 88.2348 12.8214 87.9817C12.7439 87.7292 12.7285 88.0412 12.6443 87.7512C12.127 85.9387 11.9598 84.4729 11.3464 82.8491C11.3647 82.7595 11.3935 82.756 11.4041 82.6122C10.8725 81.2802 10.7482 78.5455 10.6841 77.5354C10.5667 75.9547 10.3858 75.5544 10.3352 74.4047C10.2642 72.8747 10.5474 70.5832 10.0655 71.6129C10.0319 70.5671 10.0371 69.5427 10.1207 68.4918C10.1302 68.3742 10.253 68.46 10.2574 68.413C10.2868 68.116 10.1788 68.014 10.183 67.8118C10.1964 67.2639 10.2857 68.1634 10.2885 67.3817C10.293 66.9708 10.202 66.7232 10.2936 65.5887C10.3539 64.87 10.4287 64.1433 10.5185 63.4098C11.2659 57.1677 13.1834 50.7001 15.982 45.0147C16.1963 44.5793 15.9451 44.8118 16.2241 44.27C17.1768 42.3671 19.2918 39.2229 20.3192 37.7191C21.3329 36.2083 20.959 36.4435 21.5779 35.4773C21.699 35.2917 21.6712 35.4975 21.7927 35.3388C22.6069 34.2706 23.7462 33.1315 24.4764 32.333C24.9608 31.8034 24.8047 31.7415 25.13 31.3628C25.6169 30.7992 26.2601 30.3559 26.5389 30.0756C27.8508 28.7584 28.693 27.7839 30.0419 26.6834C29.9676 26.7018 29.9124 26.707 29.8463 26.7191C31.3969 25.3606 33.0166 24.0857 34.7011 22.8977C34.6032 22.9278 34.5079 22.956 34.4098 22.9862C36.4008 21.6054 36.3833 22.0789 35.7938 21.5796C35.9268 21.4596 36.0671 21.3308 36.196 21.2179C36.3491 21.5725 37.7164 20.9882 39.3698 20.1443C39.4893 20.0813 40.1056 19.3103 40.2315 19.7404C40.3874 19.5316 40.4766 19.3989 40.6093 19.2199C41.0182 19.1476 41.4306 19.0762 41.8386 19.0129C42.0172 18.8982 42.1995 18.7837 42.3791 18.6711C42.3687 18.5808 42.3072 18.5125 42.3304 18.407C43.2015 17.9441 45.0846 17.1975 45.7984 16.8927C47.5641 16.1114 49.3515 15.2259 50.8621 15.0103C51.5537 14.7674 50.8069 14.8201 51.8596 14.5239C52.0022 14.57 52.1364 14.6153 52.2841 14.6635C53.0358 14.0549 53.2794 14.2223 54.4811 14.0012C55.2966 13.856 55.7999 13.647 56.5733 13.5029C56.7692 13.467 56.764 13.5818 56.8965 13.551C57.3393 13.4452 58.5932 13.0613 58.9109 13.0083C61.7926 12.4961 64.2973 12.2892 67.0826 12.2612C67.3806 12.259 66.9917 12.1572 67.3007 12.1556C67.7981 12.1547 67.508 12.3281 67.7956 12.3328C68.5978 12.3504 68.6047 12.1681 69.7309 12.1798C71.5818 12.206 73.572 12.3689 75.5743 12.647C77.5621 12.9216 79.5423 13.3071 81.408 13.7368C81.5255 13.7635 81.5421 13.6603 81.6706 13.6889C82.5093 13.8771 83.3122 14.2281 84.0559 14.4325C85.2965 14.7759 86.2629 14.9223 87.4685 15.334C89.8247 16.1483 91.8489 17.0646 94.1476 18.1917C96.0206 19.1202 97.6228 19.9879 99.5648 21.2087C108.033 26.5285 115.504 34.0808 120.096 43.1299C120.213 43.3596 120.082 43.31 120.122 43.3775C120.503 44.0193 120.642 44.0253 120.53 44.3783C120.998 45.2027 121.307 45.3879 121.773 46.4405C122.017 47.0027 121.557 46.7059 122.112 47.591C122.597 48.3981 122.391 47.3722 123.239 50.0286C123.26 50.0996 123.215 50.5018 123.454 51.0292C123.69 51.5616 123.601 50.8802 124.086 52.1947C125.221 55.2904 126.039 59.3966 126.549 63.1823C126.593 63.4145 126.927 65.7066 126.993 66.1592C127.142 67.033 127.272 66.8399 127.359 67.9915C127.421 68.8872 127.283 69.6156 127.311 70.6627C127.314 70.7843 127.477 70.9905 127.44 71.7798ZM13.1919 78.7779C13.3798 78.96 13.9952 79.2364 14.0392 80.4754C14.044 80.5946 13.5391 80.0395 13.6005 80.7272C13.4365 80.073 13.3157 79.4312 13.1912 78.778C13.1914 78.778 13.1917 78.778 13.1919 78.7779ZM123.382 77.0285C123.52 76.1101 123.634 75.1929 123.727 74.2745C123.753 74.9155 123.768 75.5552 123.772 76.1983C123.644 76.4771 123.514 76.7522 123.382 77.0285ZM47.412 19.0853C47.4128 19.085 47.4137 19.0846 47.4145 19.0843C46.5402 19.5236 45.6812 19.9845 44.8343 20.4678C44.9032 20.3745 44.9725 20.2811 45.0422 20.1881C45.7036 19.7841 46.3726 19.3944 47.0505 19.0182C47.1711 19.0402 47.2918 19.0625 47.412 19.0853ZM54.5728 16.1028C55.1987 16.0118 55.076 16.157 55.4364 16.1796C55.4363 16.1794 55.4363 16.1792 55.4362 16.179C55.5313 16.1845 55.9491 16.1115 56.1086 16.08C56.0348 16.0262 55.9438 15.9773 55.8647 15.9255C57.2624 15.4276 60.162 15.4818 56.611 16.4381C56.6459 16.3415 56.6787 16.2459 56.714 16.1493C54.9367 16.5534 52.9128 16.9327 54.5728 16.1028ZM17.5015 92.8288C18.3985 94.1385 18.6546 94.5553 19.3507 96.3223C19.155 96.1237 18.9603 95.9228 18.767 95.7206C18.6986 95.4042 18.6336 95.0902 18.571 94.7738C18.5706 94.773 18.5702 94.7722 18.5698 94.7714C18.4648 94.7531 18.3595 94.7345 18.2556 94.7179C17.993 94.0935 17.7401 93.4603 17.5015 92.8288ZM109.541 32.5358C109.417 33.244 109.582 32.9186 108.634 32.1045C108.304 31.8251 108.522 32.196 108.325 32.0151C107.258 31.0481 107.43 30.705 107.803 30.7896C108.396 31.3592 108.982 31.9485 109.54 32.5338C109.54 32.5344 109.541 32.5351 109.541 32.5358ZM124.398 66.4832C124.398 66.4841 124.398 66.485 124.398 66.4859C124.263 66.5327 124.183 65.9542 124.099 66.6194C124.066 66.1217 124.025 65.6198 123.977 65.1178C124.004 65.2638 124.031 65.4132 124.056 65.5597C124.092 65.4252 124.128 65.2901 124.163 65.1551C123.987 64.9924 124.065 64.8188 124.06 64.2882C123.907 64.4519 123.753 64.6137 123.599 64.7751C123.586 64.1641 123.565 63.5559 123.532 62.9426C123.573 62.9293 123.615 62.9158 123.656 62.9025C123.571 62.6813 123.483 62.4634 123.395 62.2442C123.436 62.1748 123.477 62.1077 123.518 62.038C123.438 61.7691 123.355 61.5009 123.27 61.2345C123.378 61.1307 123.537 61.724 123.319 60.6614C123.503 60.966 123.684 61.2731 123.863 61.5865C124.114 63.2124 124.292 64.8433 124.398 66.4832ZM100.93 25.16C102.4 26.201 101.928 25.9793 101.431 25.9555C101.267 25.6902 101.099 25.4239 100.93 25.16ZM20.132 42.1731C20.0312 42.7238 19.9389 43.2708 19.8453 43.8257C19.4307 44.8 18.643 45.592 18.8859 44.8158C19.1859 43.8795 19.8333 43.0897 20.132 42.1731ZM12.7877 65.1608C13.0095 63.8703 13.1079 65.118 13.2154 65.4187C12.9698 65.7571 12.9435 66.2514 12.8669 67.0582C12.8993 66.2989 12.7506 65.3769 12.7871 65.1607C12.7873 65.1608 12.7875 65.1608 12.7877 65.1608ZM34.039 26.6035C34.4459 26.2771 34.8275 25.9197 35.2414 25.694C35.2367 25.924 34.3948 26.3521 35.0892 26.1681C34.8267 26.3715 34.5657 26.5774 34.3092 26.7842C34.4051 26.5664 34.1309 26.6733 34.0404 26.6031C34.04 26.6033 34.0395 26.6034 34.039 26.6035ZM85.3525 17.5863C84.446 17.0747 84.2235 17.1058 83.1967 16.9765C83.1009 16.7656 84.3699 16.808 85.1297 16.9794C85.2044 17.1813 85.2782 17.3835 85.3525 17.5863ZM111.728 105.539C111.754 105.875 110.609 107.288 109.947 107.908C109.995 107.806 110.041 107.703 110.087 107.601C110.651 106.926 111.198 106.238 111.728 105.539ZM12.8287 67.441C12.8429 67.3064 12.8555 67.1788 12.8669 67.0582C12.8608 67.1927 12.8493 67.322 12.8287 67.441ZM34.1836 115.699C33.708 115.602 34.6951 116.451 33.4951 115.422C33.495 115.422 33.4949 115.422 33.4948 115.422C32.7082 114.734 32.5391 114.576 31.81 113.942C32.2534 113.96 33.807 115.128 31.7887 113.363C31.7622 113.34 31.709 113.51 31.3993 113.212C31.3039 113.119 31.071 112.741 30.621 112.28C30.4751 112.131 29.3528 111.047 30.9253 112.479C31.0054 112.295 31.2189 112.228 31.3382 112.087C31.9864 112.593 32.2219 113.288 32.9039 113.839C33.92 114.653 34.6754 114.744 34.574 115.29C33.625 114.734 32.1681 113.53 32.1812 113.142C31.3854 112.454 30.9967 112.428 31.5606 113.084C34.4665 115.317 32.0788 114.046 34.7437 115.862C34.8154 115.829 34.9657 115.849 34.988 115.785C35.6348 116.562 34.3518 115.737 34.1836 115.699ZM28.7489 110.253C29.2982 110.598 29.8514 110.929 30.4065 111.249C30.2454 111.421 29.8442 111.346 29.0364 110.743C28.9403 110.581 28.8433 110.416 28.7489 110.253ZM77.4455 125.93C77.5147 125.788 77.7336 125.633 77.8855 125.482C78.0943 125.599 82.5449 124.741 80.3169 125.337C79.9927 125.433 77.9447 125.594 77.4455 125.93ZM92.0244 19.9794C91.5775 19.676 91.1299 19.3804 90.6766 19.0908C91.4474 19.3635 92.2195 19.6549 92.9819 19.9625C92.6613 19.9649 92.3434 19.9713 92.0244 19.9794ZM16.1205 49.9032C16.2083 49.6941 16.0963 50.4588 16.3992 49.6187C16.2568 50.2793 16.128 50.888 16.0088 51.5317C15.8643 51.685 15.7201 51.8416 15.5768 51.9975C15.5777 52.1583 15.578 52.3216 15.5803 52.4822C15.4939 52.3569 15.4073 52.2416 15.3213 52.11C15.9303 51.1625 15.7387 50.8292 16.1205 49.9032ZM35.6724 24.2388C35.9849 24.3407 34.7858 25.3926 36.0816 24.5198C35.9404 24.8336 35.6052 25.1793 34.8868 25.7362C34.73 25.7704 34.5737 25.8056 34.4168 25.8413C34.5092 25.9957 34.3617 26.1894 34.039 26.6035C34.0385 26.6036 34.0381 26.6037 34.0376 26.6038C32.9653 27.4691 33.0001 27.3798 32.5546 27.3645C33.7921 26.5609 33.6617 26.333 34.3622 25.5934C34.8451 25.0869 35.6062 24.5994 35.6724 24.2388ZM72.6385 126.497C73.6523 126.189 72.7096 126.072 74.5569 126.126C74.4456 126.196 74.3332 126.264 74.221 126.333C73.6956 126.395 73.1633 126.45 72.6385 126.497ZM40.4797 22.2285C40.1727 21.9292 39.1607 22.1589 39.3688 22.8178C40.2492 22.4445 39.6598 22.3563 40.4797 22.2285ZM12.1926 64.6504C12.2476 64.1744 12.3221 63.8482 12.4008 63.6409C12.5852 63.1592 12.7875 63.3192 12.9115 63.7036C12.94 63.7917 12.9646 63.8916 12.9842 63.9984C12.8869 64.104 12.7897 64.2098 12.6937 64.3138C12.6961 64.6377 12.7014 64.9607 12.7089 65.2826C12.5358 65.074 12.3634 64.8631 12.1926 64.6504ZM71.2533 14.3233C69.8411 14.5462 72.7538 14.5692 71.7668 14.6986C70.982 14.7957 69.9728 14.4697 70.3655 14.2972C70.6356 14.3015 70.9367 14.3104 71.2506 14.3231C71.2515 14.3232 71.2524 14.3232 71.2533 14.3233ZM63.1569 14.5802C63.4149 14.8727 63.0764 14.8048 64.1717 14.6604C64.4811 14.6063 66.99 14.6088 65.9271 14.3969C65.0282 14.4363 64.0906 14.4955 63.1569 14.5802ZM14.4071 85.6509C14.2741 85.7097 13.4899 83.9082 13.5129 83.6425C13.5127 83.6426 13.5125 83.6426 13.5123 83.6427C13.5523 82.9428 14.0667 84.9205 14.1265 83.9932C14.3668 85.9514 15.1343 86.3383 14.3353 86.431C13.98 85.3263 14.2904 85.8102 14.4071 85.6509ZM122.961 84.6545C122.962 84.6536 122.962 84.6528 122.962 84.6519C122.926 84.7783 122.453 85.7551 122.419 85.6102C122.812 84.3928 122.883 84.6421 122.953 83.4285C123.036 83.3807 123.115 83.3412 123.2 83.288C123.131 83.7615 123.152 84.0393 122.961 84.6545ZM82.3211 125.201C81.8695 125.354 80.9921 125.41 80.4691 125.531C82.0141 124.618 84.1103 124.579 82.3211 125.201ZM120.368 49.3453C120.368 49.3441 120.367 49.343 120.366 49.3418C120.367 49.342 120.367 49.3425 120.368 49.3427C120.368 49.3436 120.368 49.3444 120.368 49.3453ZM46.4459 122.081C46.4874 122.138 46.5065 122.181 46.5069 122.212C46.5059 122.214 46.5048 122.217 46.5038 122.219C46.487 122.175 46.4684 122.129 46.4459 122.081ZM15.6669 89.4594C15.7574 90.2867 14.5696 87.848 14.4012 86.9825C14.5021 87.0154 14.5802 87.0016 14.7173 87.1074C14.7029 87.8492 15.6477 89.3273 15.6669 89.4594ZM27.1535 32.4918C25.7212 34.0609 27.0269 31.5 27.553 31.8342C27.5575 31.8449 27.1888 32.4504 27.1535 32.4918ZM12.3606 73.1523C12.1125 72.621 12.0863 73.7124 12.0703 71.9677C12.1268 71.8652 12.1837 71.7631 12.2407 71.6611C12.2739 72.156 12.3141 72.6557 12.3606 73.1523ZM18.2268 43.2801C17.0346 45.7298 16.2374 48.1924 17.5225 46.8564C17.5894 46.6646 17.6591 46.4708 17.7281 46.2797C17.4658 46.1206 17.9336 45.5153 18.4461 44.5496C18.4095 44.3545 18.6699 43.8033 18.6341 43.654C18.564 43.3633 18.1056 43.9176 18.2268 43.2801ZM113.914 36.721C113.846 36.7175 113.778 36.715 113.711 36.7114C113.41 36.4069 113.105 36.1052 112.798 35.8086C112.919 35.8005 113.04 35.793 113.161 35.7856C113.415 36.0944 113.665 36.4044 113.912 36.7187C113.913 36.7195 113.913 36.7202 113.914 36.721ZM26.4767 108.807C27.0679 108.595 26.4053 108.06 25.0676 106.923C25.523 107.559 25.994 108.189 26.4767 108.807ZM51.0649 16.3327C51.1685 16.471 51.2707 16.6094 51.3758 16.7474C52.1983 16.3104 51.9862 16.1831 51.4974 16.1075C51.3517 16.1822 51.2096 16.2568 51.0649 16.3327ZM64.0927 13.7082C63.7087 13.7037 63.9136 13.8203 63.8736 13.8207C62.8992 13.8337 62.7533 13.7838 61.5839 14.0201C61.4436 14.072 61.3063 14.1259 61.1669 14.1799C61.7523 14.4519 62.1229 14.2129 63.2958 14.305C63.0774 14.207 62.8587 14.1099 62.6382 14.0139C63.2836 13.9728 63.9305 13.9425 64.5728 13.9239C64.6466 13.8826 64.7207 13.8418 64.7948 13.8008C64.5627 13.7689 64.3225 13.7332 64.0927 13.7082ZM116.55 40.8683C116.867 41.4071 117.176 41.9539 117.475 42.5029C117.56 42.4809 117.644 42.4578 117.729 42.4359C117.345 41.9062 116.951 41.3821 116.55 40.8683ZM36.3204 117.074C36.3782 117.077 36.4351 117.08 36.4878 117.079C36.4632 117.107 36.4021 117.101 36.3204 117.074ZM123.801 83.1567C124.016 82.479 124.185 81.4656 124.336 80.6956C124.123 80.7223 123.799 82.6761 123.508 83.3204C123.519 83.4379 123.709 83.446 123.801 83.1567ZM12.5342 62.1135C12.4562 61.9218 12.3796 61.7297 12.303 61.5392C12.3823 61.1145 12.4663 60.6939 12.5562 60.2648C12.4734 60.2367 12.39 60.2086 12.3073 60.1803C12.0856 62.0933 11.9256 61.6121 11.5406 62.5264C11.8713 62.3845 12.2021 62.2489 12.5342 62.1135ZM124.377 59.153C124.038 57.8043 123.809 57.3603 123.731 58.173C123.895 58.6337 124.054 59.1008 124.207 59.5685C124.264 59.4296 124.32 59.2902 124.377 59.153ZM59.3526 126.543C60.4752 126.624 60.4782 126.954 61.5425 126.927C61.5711 126.926 61.6005 126.925 61.6308 126.923C61.6023 126.917 61.5738 126.91 61.5453 126.904C60.9773 126.772 60.4145 126.632 59.8587 126.485C59.6915 126.505 59.52 126.525 59.3526 126.543ZM15.5532 93.5794C15.6431 94.0849 16.5351 94.6884 16.7696 96.1187C17.0308 96.3595 17.2323 96.4892 17.4724 96.685C17.4277 96.8936 17.3932 97.1237 17.3483 97.3263C17.3487 97.3271 17.3491 97.3279 17.3496 97.3287C17.9837 98.4236 17.7475 97.6189 17.8872 97.5775C17.9442 97.5619 18.3044 98.4272 18.2779 98.1094C18.2226 97.5676 17.2521 95.9623 17.4981 95.8348C17.7068 96.4624 18.3756 97.5605 18.3571 97.1405C18.3363 96.6853 17.491 95.7675 17.3101 95.0025C17.3976 96.1831 16.5314 94.0693 16.7398 93.695C15.9725 92.5817 16.3524 93.7477 16.9528 94.9829C16.3648 94.3346 17.0149 95.3904 16.917 95.6651C16.4015 94.9507 15.3117 92.1692 15.5532 93.5794ZM24.4872 33.878C23.903 34.5963 22.8938 35.6508 22.6883 36.29C22.567 36.6581 23.5142 35.5654 23.0715 36.4768C23.5955 35.751 23.6658 35.5461 23.4345 35.5605C23.544 35.3861 23.6562 35.2107 23.7685 35.0372C23.8539 34.9838 23.9407 34.9285 24.0263 34.8756C24.0385 34.7473 24.052 34.6187 24.0635 34.4921C24.2122 34.3314 24.3634 34.1696 24.5142 34.0111C24.5032 33.9686 24.5074 33.9151 24.4872 33.878ZM91.7848 122.266C91.5533 122.373 91.3234 122.477 91.0906 122.581C91.1331 122.608 91.1813 122.635 91.2282 122.661C91.2631 122.683 91.298 122.705 91.333 122.727C91.1479 122.679 89.9524 122.968 89.5237 123.276C89.3075 123.431 89.9422 123.433 88.9341 123.869C89.6718 123.573 90.3448 123.263 91.0455 122.94C91.0092 123.03 90.9754 123.12 90.9385 123.211C90.939 123.211 90.9395 123.211 90.9399 123.211C91.1827 123.124 91.4281 123.035 91.6698 122.944C91.71 122.718 91.7472 122.492 91.7848 122.266ZM50.25 16.2607C49.4612 16.6705 49.2132 16.8393 49.6738 16.9067C49.6746 16.9065 49.6755 16.9063 49.6764 16.9061C49.9507 16.7072 50.2283 16.5102 50.5065 16.3159C50.4219 16.2971 50.3373 16.2783 50.25 16.2607ZM42.4027 121.548C44.4288 121.656 40.4903 120.189 41.0599 120.795C41.0837 120.827 42.2862 121.39 42.4027 121.548ZM11.9044 64.963C11.9432 64.5092 11.988 64.0537 12.0382 63.5963C12.0441 63.5427 12.0501 63.489 12.0561 63.4354C12.0036 63.4828 11.9512 63.5309 11.8988 63.5792C11.8355 63.6376 11.7724 63.6962 11.7093 63.7541C11.7699 64.1594 11.8352 64.563 11.9044 64.963ZM123.219 53.1922C123.277 52.6085 122.904 51.2541 122.432 50.7034C122.528 51.0482 122.621 51.394 122.711 51.7405C122.463 51.1128 122.204 50.4988 121.935 49.8772C121.625 49.9587 122.085 50.615 122.39 51.752C122.44 51.9303 122.433 53.1457 122.832 53.4368C122.916 53.4951 122.576 52.309 123.009 53.0703C122.907 52.7082 122.803 52.4022 122.695 52.0632C122.758 52.0144 122.822 51.9657 122.884 51.9142C123.001 52.3409 123.112 52.764 123.219 53.1922ZM21.2488 38.1925C20.5178 39.2353 20.5469 39.4441 20.5905 39.7857C20.888 39.2762 21.1938 38.7715 21.5068 38.2719C21.4203 38.2465 21.3358 38.218 21.2488 38.1925ZM118.772 42.6888C118.462 42.0597 118.449 42.4112 118.281 42.1839C117.641 41.3279 117.378 40.6416 116.748 39.8002C116.815 39.8399 116.877 39.8762 116.941 39.9146C116.941 39.9138 116.941 39.913 116.94 39.9122C114.309 35.6903 115.468 38.0687 117.102 40.5341C117.08 40.6288 117.057 40.721 117.036 40.8151C117.829 41.8787 118.517 42.8967 118.772 42.6888ZM28.9019 111.988C28.9143 112.058 28.3765 111.921 29.1224 112.453C29.9149 112.655 28.9227 111.996 28.8185 111.681C29.0207 111.823 29.2263 111.968 29.4279 112.106C28.4486 111.024 28.2414 110.93 28.4173 111.511C28.4305 111.552 28.8897 111.919 28.9019 111.988ZM36.2728 118.184C36.7596 117.82 35.1039 116.987 35.0542 117.165C35.2581 117.32 35.4758 117.354 35.6725 117.545C35.8717 117.736 35.8514 117.888 36.2728 118.184ZM11.1785 73.5658C11.178 73.6196 10.9662 74.1783 11.1539 74.1127C11.5587 73.4163 11.2241 72.0777 11.0755 72.3172C11.0972 72.7678 11.1767 73.0647 11.1779 73.5658C11.1781 73.5658 11.1783 73.5658 11.1785 73.5658ZM125.3 61.3609C125.316 61.3322 125.181 59.9741 125.054 59.8164C124.926 59.6927 124.805 59.6429 124.68 59.5568C124.926 60.2743 125.093 61.7769 125.3 61.3581C125.3 61.3591 125.3 61.36 125.3 61.3609Z" fill="white"/>
</svg>
