<svg width="137" height="137" viewBox="0 0 137 137" fill="none" xmlns="http://www.w3.org/2000/svg">
<circle cx="68.3441" cy="68.3441" r="61.3273" transform="rotate(7 68.3441 68.3441)" fill="black"/>
<path d="M117.801 49.2513C117.897 50.0471 117.017 47.6281 117.383 49.3269C117.223 49.0094 117.059 48.6921 116.893 48.3785C116.97 48.2456 117.045 48.11 117.121 47.9759C117.353 48.397 117.579 48.8209 117.801 49.251C117.801 49.2511 117.801 49.2512 117.801 49.2513ZM119.498 49.2651C118.999 48.9772 118.353 47.7127 118.651 49.2526C118.81 49.3181 118.971 49.3874 119.13 49.4548C119.245 49.987 119.353 50.5212 119.451 51.0527C119.562 51.2157 119.672 51.3792 119.781 51.5441C119.665 51.8464 119.546 52.1449 119.424 52.4434C119.383 52.2302 119.34 52.0143 119.296 51.8015C118.844 51.0615 118.534 50.3767 118.061 49.3278C118.053 49.4402 118.046 49.5526 118.038 49.6648C117.895 49.0946 117.743 48.5261 117.582 47.9614C117.866 48.3867 118.176 48.869 118.429 49.2732C118.449 48.4475 117.732 47.3016 117.368 46.7103C116.873 45.9037 117.107 46.0256 116.733 45.4313C116.673 45.3366 116.557 45.3817 116.454 45.1871C115.944 44.2007 114.919 42.2979 115.799 43.253C116.667 44.871 117.583 46.1721 118.248 47.8603C118.354 47.2876 118.862 48.104 119.498 49.2651ZM97.3962 24.2271C97.9518 24.3897 98.8572 25.0765 99.4115 25.6123C99.4122 25.6128 99.4129 25.6133 99.4136 25.6138C99.5364 25.7316 99.7189 26.1279 99.2792 25.8028C98.5634 25.2771 98.3921 24.7553 97.8733 24.6869C97.7221 24.5352 97.5583 24.3823 97.3962 24.2271ZM95.7342 23.2191C95.3038 22.8679 95.6497 22.771 96.2063 23.1878C96.2064 23.1876 96.2065 23.1874 96.2066 23.1872C96.4373 23.3627 95.8511 23.2372 96.8363 23.6053C96.9303 23.8525 97.027 24.0859 97.1173 24.3275C96.9051 24.1946 96.7098 24.0761 96.4855 23.939C96.7747 23.8097 96.1635 23.5702 95.7342 23.2191ZM115.208 42.517C114.959 42.5622 115.147 42.8736 115.307 43.4884C115.029 42.9808 114.742 42.4763 114.449 41.9795C114.703 42.1566 114.955 42.3343 115.208 42.517ZM120.587 55.0792C120.588 55.08 120.588 55.0809 120.588 55.0817C120.677 55.2553 120.766 55.4292 120.852 55.6009C120.801 55.7335 120.75 55.8644 120.699 55.9963C120.952 56.6241 121.195 57.2625 121.426 57.9042C121.159 57.8817 120.915 56.6944 120.564 56.1025C120.38 55.1328 120.379 54.6314 120.571 54.5064C120.577 54.6968 120.582 54.8868 120.587 55.0792ZM11.5972 75.1055C11.6873 75.3296 11.7784 75.5495 11.8711 75.7712C11.8748 75.4648 11.8735 75.16 11.8873 74.8519C11.519 74.0767 11.7847 73.9813 11.7161 72.9324C11.5683 69.7243 11.0943 70.5369 11.9019 67.6654C11.7735 69.9897 12.143 69.1074 12.3829 70.5034C12.1864 70.7957 11.7554 69.3997 11.6587 70.3448C11.8612 71.9734 12.1105 73.5276 12.3959 75.2978C12.4249 75.2427 12.4541 75.1878 12.4832 75.1328C12.4382 74.85 12.3958 74.5741 12.3552 74.2924C12.466 74.5916 12.5776 74.88 12.6948 75.1829C12.4573 74.8084 12.6582 75.7969 12.4135 75.6851C12.3035 75.6356 12.1189 75.2047 11.9988 74.9487C11.9989 75.6331 12.0179 76.3334 12.0458 77.0228C11.9215 76.6785 11.8003 76.332 11.6826 75.9853C11.6514 75.6937 11.6234 75.4037 11.5968 75.111C11.5969 75.1092 11.5971 75.1074 11.5972 75.1055ZM117.564 93.7071C117.43 94.5856 116.764 95.9997 116.133 96.5884C116.64 95.6395 117.115 94.6834 117.564 93.7071ZM120.724 54.392C120.713 54.4971 120.701 54.599 120.689 54.7039C120.493 54.3148 120.293 53.9267 120.089 53.5447C120.178 53.4302 120.266 53.3135 120.352 53.1959C120.481 53.5919 120.605 53.9926 120.724 54.392ZM106.623 31.1909C106.85 31.4072 106.867 31.4295 107.128 31.7197C107.128 31.7193 107.128 31.719 107.127 31.7186C107.234 31.831 108.073 32.8168 107.905 32.7759C107.467 32.3085 106.994 31.8169 106.53 31.3542C106.558 31.2973 106.598 31.2517 106.623 31.1909ZM111.561 36.9058C111.562 36.9066 111.562 36.9074 111.563 36.9082C111.693 37.1025 111.804 37.2962 111.943 37.4926C111.308 36.8861 111.43 36.6204 110.883 36.0461C110.333 35.4748 109.916 35.196 109.753 34.4552C109.955 34.6102 110.187 34.7669 110.399 34.9256C111.004 35.8847 111.292 36.0379 111.955 36.671C111.823 36.7492 111.693 36.8273 111.561 36.9058ZM12.9674 60.8684C12.8311 60.6253 13.0443 60.4187 13.0508 60.3949C13.0509 60.3954 13.0511 60.3959 13.0512 60.3963C13.251 58.4958 13.0902 60.6526 13.4733 58.9042C13.4612 59.1733 13.4543 59.4387 13.4469 59.7057C13.2848 60.089 13.1132 60.4866 12.9674 60.8684ZM52.0561 17.2085C52.0873 17.2528 52.1217 17.2962 52.1528 17.3405C51.1166 17.6342 50.9198 17.9107 50.0167 18.0168C50.689 17.7341 51.3687 17.4644 52.056 17.2079C52.056 17.2081 52.0561 17.2083 52.0561 17.2085ZM102.836 27.2711C103.826 27.9568 104.53 28.5119 105.275 29.4055C105.276 29.4063 105.276 29.407 105.277 29.4078C105.319 29.4596 105.01 29.3217 105.056 29.4002C105.242 29.5484 105.438 29.6968 105.626 29.847C105.591 29.9318 105.555 30.0155 105.52 30.0998C105.047 29.6214 104.565 29.1507 104.072 28.6871C104.114 28.7906 104.158 28.8954 104.199 28.999C103.753 28.6388 103.305 28.2886 102.849 27.9433C103.092 27.9621 103.335 27.9822 103.577 28.0025C103.333 27.7566 103.085 27.5133 102.836 27.2711ZM35.6271 24.4616C35.816 24.3984 35.579 24.6771 35.8499 24.5477C36.1198 24.4176 36.5142 24.0261 36.4963 24.2286C36.1779 24.4686 35.8476 24.7258 35.5295 24.9775C36.754 24.4579 37.7058 23.5486 37.9125 23.8337C36.8155 24.4271 35.9915 25.0422 35.0765 25.8279C34.9485 25.5727 35.7984 24.671 35.0228 24.9022C35.2214 24.7557 35.4301 24.6019 35.6252 24.4637C35.6258 24.463 35.6265 24.4623 35.6271 24.4616ZM126.571 71.7031C126.539 72.4791 126.564 74.2966 126.314 75.2653C126.256 75.5059 125.663 76.2608 125.594 76.2483C125.369 76.2007 125.43 75.2282 125.18 76.2528C125.214 75.9031 125.237 75.5635 125.261 75.217C125.102 75.2662 124.943 75.3146 124.784 75.3604C124.771 75.7806 124.754 76.2024 124.732 76.6247C124.679 76.6398 124.625 76.6548 124.572 76.6697C124.726 75.1656 124.439 76.033 124.327 75.2415C124.173 75.9459 124.006 76.654 123.827 77.3522C123.889 76.9441 123.95 76.4623 124 76.1032C123.745 76.029 123.716 76.8926 123.648 77.0344C123.302 77.8247 123.851 73.6466 123.447 73.2776C123.37 73.9449 123.28 74.6433 123.178 75.3165C123.148 75.1177 123.118 74.917 123.086 74.7195C123.469 73.1952 123.631 71.4594 123.771 69.6396C123.758 69.4759 123.743 69.3121 123.73 69.1514C123.612 69.2018 123.495 69.2493 123.378 69.2991C123.359 69.0537 123.339 68.8084 123.317 68.5613C123.726 69.2768 123.705 68.2698 123.87 67.0341C124.047 67.6762 123.992 68.4877 124.245 68.4233C123.978 66.1855 123.995 63.5447 123.42 61.414C123.277 60.8877 122.962 60.9482 122.755 59.6971C122.799 59.7324 122.865 59.7272 122.917 59.7455C122.334 57.6231 121.929 56.3663 121.434 54.139C121.359 54.2993 121.282 54.457 121.206 54.616C121.399 55.0609 121.587 55.5068 121.767 55.9541C121.66 56.3214 121.464 55.8733 121.813 57.2613C122.086 58.4028 122.008 57.7031 122.137 58.0009C122.31 58.4048 122.239 58.8083 122.419 59.2459C122.555 59.5857 122.641 59.1702 122.778 60.1044C122.503 59.7699 122.217 59.4346 121.933 59.109C121.932 58.8771 121.932 58.6466 121.929 58.4143C122.033 58.6266 122.135 58.8364 122.237 59.051C121.972 58.2762 121.708 57.5515 121.401 56.7656C121.761 56.9558 121.438 56.1419 121.277 55.6993C121.026 55.0093 121.396 55.5573 121.232 55.1039C121.064 54.6493 120.696 54.2189 120.478 53.3801C120.749 53.7815 120.67 53.1421 120.825 53.22C120.982 53.2978 121.288 54.174 121.147 53.2839C120.515 51.6919 120.649 53.5979 120.212 52.5348C119.677 51.2687 120.27 50.6941 120.573 51.025C120.811 51.2857 121.16 52.3626 121.384 52.6353C120.953 50.637 120.485 50.7874 120.285 50.4967C119.526 49.4523 120.657 49.9081 119.797 48.649C119.96 48.6113 120.105 48.5753 120.261 48.5406C120.134 48.3132 120.03 48.1705 119.885 47.8934C119.951 48.8649 119.67 48.1663 119.516 47.815C119.271 47.261 119.504 48.18 119.402 48.0492C119.132 47.6961 118.896 47.0573 118.939 47.4954C118.923 47.2981 118.898 47.0852 118.877 46.8827C118.508 46.268 117.167 45.0998 117.974 46.4425C117.682 46.421 117.574 45.9155 117.432 45.5464C117.29 45.1777 117.148 45.2582 117.017 44.9375C116.484 43.6652 117.147 44.328 117.443 44.4236C116.443 42.8816 117.229 44.4894 115.843 42.2556C115.563 42.1274 116.005 43.265 115.412 42.4491C115.583 42.1356 115.407 41.3761 114.707 40.0966C114.57 40.0163 114.434 39.9375 114.297 39.8587C114.097 39.044 114.573 39.204 113.443 38.1971C114.426 38.4747 113.788 38.2613 113.221 37.0338C113.105 36.7844 113.582 37.2088 113.414 36.8636C113.338 36.7068 113.009 36.4332 112.818 36.0529C112.727 35.8669 112.338 34.9534 111.824 34.5132C111.884 35.0868 110.89 34.2861 111.361 35.28C110.171 33.7093 109.128 32.7752 110.899 34.178C110.649 33.7311 110.392 33.2865 110.128 32.845C109.839 32.6307 109.546 32.4168 109.252 32.2066C109.405 31.9946 109.504 31.9753 108.511 31.0011C108.973 31.3927 109.429 31.7907 109.882 32.2C109.934 32.1802 110.032 32.2067 110.056 32.1577C109.49 31.662 108.005 30.1821 107.589 29.8816C107.18 29.5746 107.863 30.2759 107.712 30.2209C106.464 29.7609 106.816 29.5428 106.118 29.0158C105.708 28.7101 106.553 29.5829 106.338 29.4146C105.546 28.7896 105.395 28.2608 104.721 27.6668C104.853 28.0011 104.977 28.3359 105.094 28.6665C104.407 28.0357 103.617 27.3614 102.91 26.8575C102.633 26.6599 102.755 26.9176 102.707 26.8891C102.468 26.7464 101.548 26.113 101.453 26.0441C100.744 25.5087 100.825 25.3563 100.127 24.8416C100.413 25.0277 100.679 25.2057 100.955 25.3927C101.241 25.2601 101.532 25.1311 101.822 25.0018C101.146 24.4664 100.456 23.9457 99.7541 23.4404C100.223 23.8742 100.686 24.3156 101.139 24.7637C100.212 24.3601 99.2831 23.9876 98.3463 23.64C97.9982 23.2462 97.6467 22.8584 97.286 22.473C96.0843 21.78 96.0392 22.4137 95.7193 21.6589C95.346 21.4913 94.9716 21.3282 94.5954 21.1686C94.6799 21.1352 94.7641 21.1017 94.8489 21.0687C94.3977 20.8686 93.9441 20.6743 93.4875 20.4865C93.8328 20.9441 94.1529 21.4111 94.4774 21.8652C93.6173 21.4537 93.6961 21.2655 93.5949 21.1512C93.3237 20.8498 92.5693 20.6755 92.357 20.4287C92.2856 20.3425 93.1869 20.6415 92.9698 20.3536C92.9314 20.2972 92.0519 19.2041 91.2478 18.9882C91.2175 19.091 91.2202 19.2355 91.2017 19.354C90.188 18.9586 89.8941 18.24 90.0881 18.1524C89.508 18.0196 88.7104 17.7076 88.5357 17.8221C88.2555 17.7152 87.9811 17.613 87.701 17.5114C88.1402 17.2339 86.9415 16.867 86.7444 17.1777C87.2235 17.3587 87.6994 17.5465 88.1714 17.7398C87.6493 18.016 89.0182 18.7791 86.1365 17.3045C85.629 16.8861 87.1593 17.6989 86.7425 17.3715C85.9516 16.9823 85.1491 16.8021 84.4028 16.4056C83.4681 15.9216 84.746 16.0797 82.3485 15.6713C87.2787 17.7743 81.556 15.7788 79.0741 15.5301C78.5972 14.8718 76.937 14.3009 74.5196 14.0893C74.2065 14.062 73.8818 14.041 73.5469 14.0268C73.7143 14.1467 74.102 14.2001 74.4996 14.2526C74.7773 14.2891 75.0586 14.3247 75.2708 14.3773C75.7854 14.5065 75.2074 14.5278 75.8437 14.7012C76.4798 14.8723 77.8244 15.2142 78.4483 15.4654C77.8782 15.4372 75.1413 15.2311 76.9722 15.248C75.9963 14.9554 75.4051 14.7384 74.4632 14.5489C74.1451 14.4857 73.7877 14.4269 73.3631 14.3749C72.8305 14.5958 72.8556 14.7495 71.2237 14.6409C72.2244 14.3323 70.3645 13.9497 70.7988 13.5908C71.9759 13.7546 71.2928 14.088 71.952 14.3167C72.0188 14.3376 73.1105 14.3391 73.3631 14.3749C72.3015 13.9288 71.9222 13.7796 72.6397 13.4357C71.8521 13.4013 71.3658 13.3216 71.2804 13.5079C71.1213 13.414 70.9607 13.3206 70.8031 13.2282C70.5453 13.2157 70.3132 13.2116 70.0407 13.1981C70.4028 13.5045 69.6834 13.2915 69.1654 13.4092C68.6476 13.5293 69.3342 13.7653 67.9218 13.7503C68.3915 13.8214 68.8207 13.8879 69.2683 13.9658C68.367 14.0125 67.4511 14.0813 66.5553 14.1714C67.1906 14.3323 68.5547 14.6094 68.5118 14.8443C68.0998 14.7439 66.6941 14.904 66.5429 14.9173C65.9508 14.9531 66.2703 14.8 66.2254 14.7971C65.2881 14.7474 64.5168 14.8409 64.1486 14.6404C63.4512 14.7842 62.9185 14.7679 62.1713 14.8449C61.7611 14.8884 61.8579 15.0434 61.6154 15.0377C60.0076 15.0246 61.4789 14.588 58.4827 15.4477C58.8694 15.4992 59.2503 15.558 59.6345 15.6185C59.2975 15.7106 58.9642 15.8058 58.6306 15.904C58.3993 15.9209 58.1703 15.9388 57.9393 15.9587C57.9012 15.7148 57.8641 15.4702 57.8261 15.2263C57.5717 15.2575 57.3138 15.2916 57.0582 15.3268C57.489 15.2197 57.9192 15.1182 58.3509 15.0217C58.3836 14.9722 58.4137 14.9232 58.4466 14.8738C57.7873 14.9139 57.1278 14.9652 56.4656 15.0289C56.47 15.1156 56.4748 15.2028 56.4793 15.2895C55.0042 15.4746 54.9482 15.4145 53.6372 15.9854C52.5843 16.2531 51.8375 16.8474 51.2886 17.1738C51.0613 17.1932 50.8334 17.2135 50.6036 17.2365C50.4891 17.3482 50.3738 17.4603 50.2608 17.5727C49.9614 17.5665 49.658 17.5639 49.3564 17.5636C49.2802 17.8306 49.2276 17.9148 50.2963 17.6426C50.0249 18.0184 48.1617 18.5431 47.3968 18.7523C46.8134 18.9057 47.3461 18.4438 47.2663 18.4449C46.9959 18.4444 46.1063 18.8974 45.9095 18.9657C45.0714 19.2486 44.5124 19.513 43.7678 19.8058C43.6229 19.8621 43.1667 19.917 43.1314 19.9294C42.861 20.031 42.1933 20.2852 42.1207 20.321C38.388 22.1902 42.5923 20.6124 39.2074 22.4544C39.3499 22.4686 39.4838 22.4875 39.6236 22.504C39.3762 22.6546 39.1272 22.8085 38.8824 22.9629C38.5322 23.0934 38.843 22.7503 38.2763 23.2224C38.2614 23.1085 38.247 22.9945 38.2351 22.8796C37.9931 23.0955 37.7631 23.3065 37.5191 23.53C36.8886 23.4926 35.2869 24.4873 35.1544 24.0673C35.1055 23.9204 36.1384 23.0364 35.4609 23.3106C34.9639 23.6146 35.3867 23.5343 35.1969 23.6762C33.8353 24.7095 33.7812 24.4691 33.2573 24.9381C33.2319 25.0875 33.2039 25.2418 33.1786 25.3934C32.9514 25.5285 32.7244 25.6658 32.4968 25.806C32.4918 25.8988 32.4851 25.9932 32.4805 26.0858C32.6769 25.9362 32.899 25.769 33.0813 25.6345C32.9823 26.0285 30.8369 27.9544 31.5373 27.0769C31.8217 26.7167 32.491 26.2312 31.8837 26.3098C31.3068 26.8351 30.6622 27.4407 30.0804 28.0168C30.0157 27.9821 29.9523 27.9462 29.8875 27.9117C29.0929 28.6818 30.0259 28.2154 30.1215 28.3287C29.9367 28.4985 29.7508 28.6709 29.5683 28.8432C29.4448 28.8657 29.323 28.8828 29.197 28.9112C29.2618 28.9969 29.3236 29.2699 28.7196 29.7174C28.3315 30.0072 28.6921 29.287 28.0566 29.9536C28.2227 30.0245 28.5952 29.9361 27.9091 30.6895C27.7155 30.6384 27.5043 30.6262 27.3197 30.5545C26.544 31.5805 25.9486 31.818 25.0959 33.068C24.5542 33.8626 24.072 35.128 23.1697 35.194C22.7241 35.7293 22.9933 35.6588 22.8963 35.8435C22.4444 36.7148 21.7692 37.11 21.6467 37.2469C20.8745 38.1157 20.6754 38.6057 20.0309 39.3106C20.1624 39.3356 20.2755 39.3767 20.3986 39.409C20.7197 38.5905 20.9703 38.2308 21.7076 37.2742C21.4897 37.6174 21.2772 37.9614 21.0677 38.3079C21.1878 38.3107 21.3075 38.3143 21.4255 38.3196C23.2904 35.0777 23.2524 36.1525 21.5754 38.7455C21.2713 38.8591 20.9622 38.9845 20.6592 39.1025C19.9018 40.7608 19.2503 41.3422 18.1993 43.0933C18.0744 43.3013 17.7494 44.1287 17.581 44.4684C17.5846 44.4631 17.5881 44.4579 17.5916 44.4526C17.6387 44.7426 17.8574 44.4964 18.0138 44.5359C17.9368 44.7257 17.8602 44.917 17.7858 45.1065C17.4752 45.4578 17.4551 45.2694 17.0881 46.0887C17.2479 46.0313 17.4069 45.9764 17.5667 45.9208C17.1429 46.7988 16.7557 47.3319 16.4435 48.1862C16.4631 48.0281 16.4826 47.8717 16.5036 47.7135C15.6092 49.4892 15.5848 47.7619 15.3269 49.294C15.2342 49.3606 15.1419 49.4251 15.0494 49.4925C15.2674 48.9041 15.4955 48.3202 15.7313 47.7437C15.6572 47.6974 15.5839 47.6503 15.5089 47.6063C15.2631 48.2319 15.0276 48.8661 14.8037 49.502C14.9308 49.0234 15.0653 48.5438 15.2049 48.0688C14.8607 48.7701 14.5281 49.4859 14.2137 50.2001C14.8057 49.5397 14.4595 50.5556 14.8261 50.478C14.1045 51.6667 13.4045 52.5876 13.0165 54.7094C12.9438 55.1323 13.2109 54.9631 12.6446 56.0541C13.0527 55.8623 12.846 57.3541 13.2184 57.245C13.2998 56.8392 13.3953 56.4218 13.4787 56.0304C13.252 56.4409 12.9233 56.438 13.0111 55.7386C13.1211 54.8479 13.7152 53.6571 13.3637 53.6066C13.4852 53.27 13.5955 52.957 13.717 52.6327C13.7554 52.7953 13.796 52.9549 13.8366 53.1144C14.0061 52.1412 14.2604 51.5632 14.627 51.1963C14.2755 52.3153 13.9626 53.4324 13.682 54.5674C13.7448 54.4065 13.8091 54.244 13.8727 54.0839C13.839 54.9927 14.2879 54.184 13.895 55.7662C13.7983 55.7295 13.701 55.6948 13.6038 55.6579C13.7063 56.3018 13.3237 57.8811 13.7539 57.451C13.5458 57.904 13.4637 57.9922 13.5699 58.2971C13.0564 59.4953 12.6132 60.2719 12.3412 59.745C12.3066 60.2334 12.2776 60.727 12.257 61.2079C12.4007 60.9491 12.5458 60.6914 12.6936 60.4332C12.5373 61.2599 12.4003 62.086 12.2815 62.9177C11.9741 62.9564 12.429 61.3038 12.0965 61.749C12.0288 61.838 12.0729 62.3038 12.027 62.4177C11.5328 63.6228 12.0405 61.6929 11.7458 62.0255C11.5026 63.33 11.339 62.9554 11.2592 63.5306C11.2275 63.7742 11.2114 64.1901 11.238 64.9704C11.1469 65.0306 11.0536 65.0961 10.9637 65.1518C10.8772 66.0554 11.0758 65.9927 11.0575 66.773C11.0476 67.2605 10.6791 67.8574 10.8885 68.4046C10.9306 68.5001 11.3604 67.6207 11.2938 69.5032C11.2626 70.9729 10.98 70.3599 10.8805 71.1581C10.7783 71.9579 11.2606 73.7659 10.848 74.3288C10.88 73.9072 10.8828 73.3727 10.9131 72.9057C10.8163 72.7204 10.7214 72.539 10.627 72.3541C10.7749 73.4192 10.7123 74.5237 10.9842 75.2203C10.7744 76.6714 11.29 78.2106 11.5964 77.7363C11.4859 77.2839 11.3891 77.8037 11.4124 77.1518C11.4894 77.0762 11.5657 76.9973 11.643 76.9222C11.7576 78.0061 11.8784 78.7637 11.5482 78.303C11.5657 78.4731 11.5837 78.6415 11.6027 78.8113C11.7935 78.8138 11.9845 78.8125 12.1752 78.8144C12.2262 79.0108 12.2782 79.2075 12.3312 79.4028C12.3261 79.6304 12.3219 79.8586 12.3195 80.0889C11.9774 79.8404 11.8648 79.3216 12.014 81.0589C12.1161 81.0446 12.2182 81.0327 12.3203 81.0184C12.4745 82.4631 12.2294 82.5523 12.6745 84.3287C11.9838 83.0473 12.4559 82.159 11.7533 82.3141C11.7258 81.9579 11.7017 81.5986 11.6809 81.2421C11.5686 81.2089 11.4562 81.1759 11.3444 81.1446C11.736 83.0302 13.1909 85.889 13.1492 87.2257C13.2474 87.3562 13.3394 87.4889 13.4433 87.6193C13.5644 88.8882 14.3209 89.1943 14.4281 90.4927C14.4434 90.627 13.7884 90.5779 14.4263 92.1112C14.4802 92.0446 14.5891 91.9771 14.6642 91.9105C14.756 92.2588 14.8486 92.6055 14.9452 92.9505C15.0343 92.9824 15.1245 93.0169 15.2141 93.048C14.9975 92.4794 14.791 91.9086 14.5926 91.3332C14.8003 91.7944 15.0153 92.2551 15.2347 92.7093C15.082 92.0599 14.9744 91.7859 15.2919 92.0817C15.5195 92.6021 15.7556 93.119 15.9983 93.6313C16.0646 93.6654 16.1314 93.6989 16.1979 93.7328C16.2107 93.4257 16.2227 93.1191 16.2428 92.8135C16.7254 94.2011 17.2798 95.3479 17.56 96.476C17.6099 96.6674 17.1276 96.1498 17.8905 97.235C17.816 97.2983 17.7645 97.3664 17.6977 97.4287C18.711 98.7164 18.903 99.2062 19.6322 100.74C19.2065 99.7191 19.6217 100.608 19.853 100.79C20.0106 100.914 19.6066 100.293 19.711 100.327C19.8138 100.363 20.563 101.019 20.1536 100.312C18.6101 98.903 18.9094 98.0879 17.4784 95.9361C17.7248 96.2564 17.9757 96.576 18.2279 96.8895C18.184 96.7017 18.1461 96.5332 18.1 96.3305C18.6724 97.6459 18.4116 96.9976 18.7701 97.4699C19.1304 97.9415 19.7292 98.8258 20.1235 99.42C20.2476 99.6074 20.0127 99.4732 20.2703 99.9112C20.4449 100.211 21.1167 100.9 21.051 101.205C21.0109 101.407 19.822 100.35 21.0012 102.116C21.1072 102.528 20.572 101.659 20.5473 101.649C20.3 101.588 20.925 102.753 21.3862 103.17C21.4235 103.204 21.2566 102.737 21.599 103.131C22.4153 104.06 22.7239 104.71 23.0551 105.469C23.3009 105.388 24.16 106.021 24.9273 107.053C25.0227 107.057 25.1165 107.059 25.2121 107.063C25.0545 106.937 24.8977 106.809 24.7412 106.681C24.6342 106.487 24.5112 106.29 24.4161 106.094C25.2855 107.046 25.6633 106.958 26.1583 107.336C27.8692 108.603 26.3712 108.265 25.9986 108.082C25.8599 107.837 25.7346 107.593 25.604 107.346C25.5606 107.424 25.517 107.504 25.4717 107.581C27.6025 109.93 25.3817 108.313 26.3723 109.609C26.9634 109.629 27.8035 110.454 28.7267 111.687C28.8504 111.801 28.974 111.916 29.099 112.029C29.1607 112.003 29.2233 111.935 29.2838 111.937C30.6729 113.114 30.5208 113.793 30.6119 113.957C31.0298 114.666 31.7388 114.76 31.9174 114.9C32.6768 115.49 32.7969 115.79 33.5737 116.284C34.4126 116.807 33.9447 116.305 34.2528 116.39C34.4989 116.46 35.1368 116.894 35.4523 116.997C35.3049 116.988 35.1467 116.969 34.9992 116.959C35.7706 117.626 36.411 118.176 37.3775 118.813C38.7722 119.029 39.2639 120.383 39.2561 119.5C38.3377 118.906 37.8674 118.508 37.4814 118.035C38.0949 118.394 38.7157 118.743 39.3434 119.079C39.481 119.256 39.5678 119.401 39.7395 119.596C40.288 119.707 41.3361 120.36 41.794 120.533C43.9298 121.33 43.4175 120.745 45.092 122.057C43.7133 121.5 43.6033 121.722 42.2872 121.036C42.4934 121.339 43.1928 121.636 42.6585 121.613C43.9848 122.192 43.6455 121.814 44.224 121.896C44.7215 121.966 45.6114 122.339 45.6354 122.143C45.6857 122.277 45.7173 122.399 45.7685 122.533C46.6279 122.891 47.4924 123.228 48.3666 123.543C47.9572 123.51 47.5476 123.473 47.1381 123.43C47.4037 123.576 47.6715 123.72 47.9406 123.863C50.1965 124.378 53.8625 125.98 53.4655 124.993C54.5372 125.237 54.6511 125.367 55.2 125.656C55.2783 125.608 55.3523 125.569 55.4318 125.514C56.1099 125.731 56.6918 125.602 57.2956 125.778C57.9017 125.952 58.017 126.2 58.1702 125.838C58.5488 126.014 58.9319 126.167 59.3167 126.327C59.5705 126.276 59.8235 126.225 60.0737 126.172C60.2939 126.229 60.5151 126.285 60.7371 126.339C60.8893 126.376 61.0415 126.413 61.1937 126.449C61.4174 126.295 62.8954 126.524 63.5559 126.443C64.1636 126.681 64.1135 127.311 65.6023 127.261C65.5696 127.106 65.5378 126.952 65.5057 126.797C65.8411 126.842 66.1767 126.884 66.5153 126.923C66.5347 126.973 66.5514 127.024 66.5708 127.074C66.3971 127.055 66.2287 127.036 66.0565 127.015C66.2037 127.104 66.3482 127.192 66.4943 127.28C67.0181 127.165 67.5379 127.043 68.0548 126.914C67.3579 126.823 66.653 126.72 65.9675 126.604C66.8359 126.516 67.4496 126.633 68.2037 126.501C68.8634 126.705 68.6252 126.83 68.3582 127.064C68.6045 127.041 68.8532 127.017 69.0984 126.992C68.941 127.223 69.3647 127.362 67.9146 127.358C68.0147 127.423 68.117 127.485 68.2151 127.552C68.4535 127.54 68.609 127.593 68.8698 127.562C69.5794 127.478 70.1132 127.048 70.0568 126.909C70.028 126.837 69.3347 127.003 69.3592 126.897C69.4239 126.637 71.0112 126.706 68.7164 126.514C69.4676 126.335 69.6427 126.453 70.4823 126.46C70.4126 126.378 70.3449 126.297 70.2782 126.214C70.6666 126.236 71.0555 126.253 71.4438 126.266C70.9281 126.745 73.8236 126.694 71.2536 127.266C72.0236 127.237 72.7965 127.193 73.566 127.133C73.4126 127.194 73.2586 127.255 73.1042 127.315C72.754 127.324 72.4037 127.331 72.0549 127.335C72.4698 127.385 72.8901 127.43 73.3084 127.471C74.2682 127.272 74.6245 127.065 75.0377 126.817C73.9071 126.817 74.2953 126.964 73.4262 127.095C73.4442 126.97 73.3927 126.862 73.4554 126.726C73.932 126.938 75.3715 126.571 75.7075 126.505C76.7301 126.315 75.9613 126.684 76.6508 126.581C77.3413 126.476 78.1207 126.183 78.7293 126.313C78.6922 126.179 78.6195 126.047 78.5551 125.931C79.6059 125.673 79.427 125.871 79.5416 125.87C81.3656 125.824 82.2508 125.3 84.1984 124.676C83.937 124.711 83.6742 124.749 83.4109 124.784C84.8032 124.057 83.835 124.459 82.5274 124.721C83.738 124.416 84.3489 123.959 85.1553 123.616C85.964 123.276 87.4177 122.879 87.9654 122.768C86.8507 123.376 85.5259 123.732 84.2037 124.188C84.3978 124.275 84.5817 124.343 84.7866 124.44C85.5115 123.897 86.0392 123.921 86.3207 123.864C87.1428 123.695 87.0285 123.463 87.5945 123.543C87.5421 123.462 87.5003 123.394 87.4503 123.318C89.0623 122.759 90.8277 122.162 91.6827 121.368C91.8712 121.529 92.0344 121.692 92.2406 121.849C92.8242 121.38 93.4575 121.255 93.9856 120.933C94.5085 120.612 94.2181 120.561 94.8135 120.157C94.9233 120.082 95.221 120.049 95.4637 119.815C95.714 119.58 96.4315 118.426 96.8374 118.82C97.3629 118.505 97.8642 118.214 98.3732 117.895C97.8991 118.24 97.4195 118.576 96.9366 118.905C97.4328 118.76 97.9254 118.61 98.4207 118.45C98.4103 118.315 98.3985 118.179 98.386 118.047C99.4339 117.192 100.345 116.797 101.412 115.95C101.589 115.808 101.023 115.941 101.859 115.384C102.689 114.822 103.561 114.705 104.76 113.454C104.821 113.389 104.983 112.806 105.594 112.568C105.734 112.514 105.347 112.966 105.633 112.803C105.922 112.643 107.016 111.701 107.209 111.738C107.158 111.707 107.051 111.725 106.978 111.712C107.137 111.522 107.296 111.33 107.454 111.136C107.543 111.194 107.633 111.25 107.721 111.307C108.563 110.133 108.793 109.355 110.275 107.881C109.775 108.224 109.271 108.556 108.766 108.878C108.733 109.066 108.7 109.255 108.668 109.442C107.976 110.109 107.265 110.76 106.542 111.389C106.51 111.584 106.479 111.777 106.445 111.973C106.247 112.136 106.051 112.297 105.852 112.457C105.841 112.35 105.83 112.244 105.821 112.135C105.464 112.491 105.101 112.843 104.737 113.188C105.174 112.144 106.872 111.301 106.482 111.079C106.691 110.971 106.899 110.862 107.107 110.752C107.033 110.535 107.403 110.26 107.991 109.704C107.789 109.765 107.574 109.84 107.382 109.887C108.038 109.436 108.981 108.415 109.56 107.844C109.815 107.594 109.69 107.96 109.774 107.892C110.209 107.546 110.685 106.583 110.838 106.429C111.76 105.509 112.683 105.14 113.268 103.793C112.327 104.928 112.83 104.304 112.371 104.611C112.227 104.708 110.976 106.127 112.463 104.287C112.665 104.099 115.388 100.739 114.805 102.054C115.127 101.423 115.343 100.908 115.606 100.319C117.019 99.3414 116.174 99.4669 115.635 99.6699C115.766 99.451 115.888 99.2407 116.022 99.0141C116.067 99.6948 117.524 97.2239 117.781 96.2612C117.873 95.9436 117.351 96.695 117.643 96.0025C117.828 95.6982 118.039 95.3521 118.23 95.0259C117.778 95.4119 118.162 94.4101 117.934 94.32C118.42 93.8002 119.051 93.5043 119.121 93.953C119.266 93.3917 119.403 92.8301 119.529 92.2675C119.374 92.4882 119.217 92.7106 119.06 92.928C119.954 91.2918 120.425 88.9369 121.025 88.7304C121.102 88.4947 121.177 88.2592 121.25 88.0244C121.192 87.9255 121.133 87.8293 121.074 87.7309C121.484 86.7004 121.866 85.6496 122.215 84.5939C122.016 85.5648 122.071 85.8264 121.679 86.7995C121.889 86.4438 122.099 86.0747 122.3 85.7208C122.449 84.1361 122.354 83.885 122.912 81.6034C122.942 81.5039 123.483 79.7812 123.507 79.7255C123.651 79.4656 123.724 79.9083 123.794 79.7935C123.999 79.4818 124.643 77.4162 124.684 77.458C125.372 78.0686 124.042 85.2398 123.384 87.1057C117.939 106.967 101.013 122.257 81.3235 126.993C81.1208 127.043 81.232 127.116 81.1462 127.141C80.6118 127.294 80.0516 127.262 79.8508 127.299C79.4221 127.377 79.6856 127.464 79.3732 127.529C76.1417 128.19 73.0291 128.48 69.7401 128.625C69.5249 128.633 69.7407 128.515 69.3639 128.547C69.1714 128.564 68.5678 128.748 68.1274 128.754C66.5859 128.772 65.3055 128.681 63.6833 128.576C62.8028 128.52 61.4894 128.383 60.501 128.262C60.499 128.261 60.497 128.261 60.495 128.261C60.0588 128.209 59.5953 128.225 59.1666 128.165C58.5587 128.079 58.7075 127.939 58.6159 127.916C58.2154 127.809 58.1313 127.971 57.7458 127.902C57.0277 127.768 57.0058 127.649 56.0956 127.479C55.4458 127.361 53.9467 127.119 53.1284 126.933C51.2705 126.329 48.9065 125.638 47.1821 125.034C46.1638 124.678 46.1322 124.484 45.7235 124.321C44.289 123.739 43.1318 123.445 41.8163 122.808C40.0752 121.958 38.6406 121.004 37.0518 120.014C36.7948 119.853 36.7752 120.017 36.5205 119.861C35.5772 119.287 34.3883 118.515 33.603 117.922C32.7254 117.259 32.5334 116.844 31.6642 116.221C31.4101 116.037 31.219 116.129 30.7931 115.815C30.1126 115.312 29.5198 114.585 29.0927 114.182C28.5081 113.628 28.8992 114.241 28.112 113.49C28.0798 113.459 28.0535 113.248 27.8788 113.094C27.3719 112.642 27.3434 112.77 26.6385 112.066C26.5683 112 25.7348 110.971 25.6477 110.874C25.1107 110.321 24.1024 109.142 23.7851 108.815C22.647 107.646 23.3171 108.753 22.7746 107.404C22.3025 107.004 21.8373 106.601 21.3559 106.153C21.696 106.435 20.7487 104.954 20.6745 104.857C20.0169 104.077 20.2238 104.675 19.5061 103.597C20.8109 104.768 18.5979 102.2 18.2064 101.551C16.2341 98.5022 14.8138 95.5046 13.4485 92.1298C12.9907 91.0013 12.3513 89.4881 11.9623 88.2573C11.8709 87.9704 12.031 88.1581 11.9532 87.9051C11.8757 87.6526 11.8604 87.9646 11.7762 87.6745C11.2589 85.862 11.0916 84.3962 10.4783 82.7724C10.4965 82.6828 10.5253 82.6794 10.5359 82.5355C10.0043 81.2036 9.88001 78.4689 9.8159 77.4588C9.69851 75.878 9.51766 75.4777 9.46707 74.3281C9.39599 72.7981 9.67921 70.5066 9.19734 71.5363C9.16378 70.4905 9.16889 69.466 9.25257 68.4151C9.26208 68.2975 9.38489 68.3833 9.38921 68.3363C9.41862 68.0393 9.31062 67.9373 9.31487 67.7351C9.32826 67.1872 9.41752 68.0867 9.42035 67.305C9.42481 66.8941 9.33388 66.6466 9.42548 65.5121C9.48578 64.7934 9.56052 64.0666 9.65039 63.3331C10.3977 57.0911 12.3153 50.6234 15.1138 44.9381C15.3281 44.5026 15.0769 44.7351 15.356 44.1934C16.3086 42.2904 18.4237 39.1463 19.4511 37.6425C20.4647 36.1317 20.0909 36.3669 20.7097 35.4006C20.8309 35.215 20.803 35.4208 20.9245 35.2622C21.7388 34.1939 22.8781 33.0549 23.6083 32.2563C24.0926 31.7267 23.9365 31.6649 24.2619 31.2861C24.7487 30.7225 25.392 30.2793 25.6707 29.999C26.9826 28.6818 27.8249 27.7073 29.1737 26.6067C29.0994 26.6251 29.0442 26.6304 28.9781 26.6425C30.5287 25.2839 32.1485 24.009 33.8329 22.8211C33.7351 22.8511 33.6397 22.8793 33.5416 22.9096C35.5326 21.5288 35.5151 22.0022 34.9256 21.5029C35.0586 21.3829 35.199 21.2541 35.3278 21.1413C35.4809 21.4959 36.8482 20.9116 38.5016 20.0677C38.6211 20.0046 39.2374 19.2336 39.3633 19.6637C39.5192 19.455 39.6084 19.3222 39.7411 19.1433C40.15 19.071 40.5625 18.9995 40.9704 18.9362C41.149 18.8215 41.3313 18.7071 41.511 18.5945C41.5005 18.5041 41.439 18.4358 41.4622 18.3303C42.3334 17.8675 44.2164 17.1208 44.9303 16.816C46.6959 16.0347 48.4833 15.1492 49.9939 14.9336C50.6855 14.6907 49.9387 14.7434 50.9914 14.4472C51.1341 14.4933 51.2682 14.5387 51.4159 14.5868C52.1676 13.9782 52.4112 14.1457 53.6129 13.9245C54.4284 13.7793 54.9317 13.5703 55.7051 13.4262C55.9011 13.3903 55.8958 13.5051 56.0284 13.4744C56.4711 13.3685 57.7251 12.9846 58.0427 12.9316C60.9244 12.4195 63.4292 12.2125 66.2144 12.1845C66.5124 12.1823 66.1236 12.0805 66.4325 12.079C66.93 12.078 66.6398 12.2514 66.9274 12.2561C67.7296 12.2737 67.7366 12.0915 68.8627 12.1031C70.7136 12.1293 72.7038 12.2923 74.7061 12.5703C76.6939 12.8449 78.6742 13.2305 80.5399 13.6601C80.6573 13.6868 80.6739 13.5836 80.8025 13.6122C81.6411 13.8005 82.4441 14.1515 83.1877 14.3558C84.4283 14.6993 85.3948 14.8456 86.6004 15.2574C88.9566 16.0716 90.9807 16.988 93.2794 18.115C95.1525 19.0435 96.7547 19.9112 98.6967 21.132C107.165 26.4518 114.636 34.0042 119.228 43.0533C119.345 43.283 119.214 43.2334 119.254 43.3009C119.635 43.9426 119.774 43.9487 119.661 44.3017C120.13 45.1261 120.439 45.3112 120.905 46.3638C121.148 46.926 120.689 46.6293 121.243 47.5143C121.729 48.3215 121.523 47.2956 122.371 49.9519C122.392 50.0229 122.347 50.4251 122.586 50.9525C122.822 51.4849 122.733 50.8036 123.218 52.118C124.353 55.2137 125.171 59.32 125.681 63.1057C125.725 63.3378 126.059 65.6299 126.125 66.0826C126.274 66.9564 126.403 66.7632 126.491 67.9148C126.553 68.8105 126.415 69.539 126.443 70.5861C126.446 70.7077 126.609 70.9139 126.571 71.7031ZM12.3237 78.7013C12.5116 78.8834 13.127 79.1598 13.171 80.3987C13.1759 80.5179 12.671 79.9629 12.7324 80.6505C12.5684 79.9964 12.4475 79.3545 12.3231 78.7014C12.3233 78.7013 12.3235 78.7013 12.3237 78.7013ZM122.514 76.9519C122.652 76.0335 122.766 75.1162 122.859 74.1979C122.884 74.8388 122.9 75.4785 122.904 76.1216C122.776 76.4005 122.646 76.6755 122.514 76.9519ZM46.5438 19.0086C46.5447 19.0083 46.5455 19.008 46.5463 19.0076C45.672 19.447 44.8131 19.9079 43.9662 20.3911C44.035 20.2979 44.1044 20.2044 44.174 20.1114C44.8355 19.7075 45.5044 19.3178 46.1824 18.9415C46.303 18.9636 46.4237 18.9858 46.5438 19.0086ZM53.7046 16.0261C54.3306 15.9351 54.2078 16.0803 54.5682 16.103C54.5682 16.1028 54.5681 16.1026 54.5681 16.1024C54.6631 16.1078 55.0809 16.0348 55.2405 16.0033C55.1666 15.9495 55.0756 15.9006 54.9966 15.8488C56.3943 15.3509 59.2938 15.4052 55.7429 16.3615C55.7777 16.2649 55.8105 16.1692 55.8459 16.0727C54.0685 16.4768 52.0446 16.856 53.7046 16.0261ZM16.6333 92.7521C17.5304 94.0619 17.7864 94.4787 18.4825 96.2457C18.2868 96.0471 18.0921 95.8462 17.8988 95.6439C17.8304 95.3276 17.7654 95.0135 17.7028 94.6971C17.7024 94.6963 17.702 94.6955 17.7016 94.6947C17.5966 94.6765 17.4914 94.6578 17.3874 94.6413C17.1249 94.0168 16.872 93.3836 16.6333 92.7521ZM108.673 32.4591C108.549 33.1673 108.714 32.8419 107.766 32.0278C107.436 31.7484 107.654 32.1193 107.457 31.9385C106.389 30.9714 106.562 30.6284 106.934 30.713C107.528 31.2826 108.114 31.8718 108.671 32.4571C108.672 32.4578 108.673 32.4584 108.673 32.4591ZM123.53 66.4065C123.53 66.4074 123.53 66.4083 123.53 66.4092C123.394 66.456 123.315 65.8775 123.231 66.5427C123.197 66.045 123.157 65.5432 123.109 65.0411C123.136 65.1871 123.162 65.3366 123.188 65.4831C123.224 65.3486 123.26 65.2134 123.295 65.0785C123.119 64.9158 123.197 64.7421 123.192 64.2115C123.039 64.3752 122.885 64.5371 122.73 64.6984C122.718 64.0875 122.696 63.4792 122.664 62.8659C122.705 62.8526 122.747 62.8392 122.788 62.8259C122.702 62.6046 122.615 62.3867 122.527 62.1676C122.568 62.0982 122.609 62.031 122.65 61.9613C122.57 61.6924 122.487 61.4243 122.402 61.1578C122.51 61.054 122.668 61.6473 122.451 60.5847C122.635 60.8893 122.816 61.1964 122.995 61.5098C123.246 63.1357 123.424 64.7666 123.53 66.4065ZM100.061 25.0834C101.531 26.1243 101.06 25.9026 100.563 25.8788C100.399 25.6135 100.231 25.3473 100.061 25.0834ZM19.2638 42.0965C19.1631 42.6472 19.0707 43.1942 18.9771 43.7491C18.5625 44.7234 17.7749 45.5154 18.0178 44.7392C18.3177 43.8029 18.9652 43.013 19.2638 42.0965ZM11.9195 65.0841C12.1413 63.7936 12.2398 65.0413 12.3472 65.342C12.1016 65.6805 12.0754 66.1748 11.9987 66.9815C12.0312 66.2222 11.8825 65.3002 11.9189 65.0841C11.9191 65.0841 11.9193 65.0841 11.9195 65.0841ZM33.1708 26.5268C33.5778 26.2005 33.9593 25.8431 34.3733 25.6174C34.3685 25.8474 33.5266 26.2755 34.2211 26.0914C33.9586 26.2948 33.6975 26.5007 33.441 26.7076C33.5369 26.4898 33.2628 26.5967 33.1723 26.5265C33.1718 26.5266 33.1713 26.5267 33.1708 26.5268ZM84.4844 17.5096C83.5778 16.9981 83.3553 17.0292 82.3285 16.8999C82.2327 16.6889 83.5017 16.7314 84.2615 16.9027C84.3362 17.1046 84.41 17.3069 84.4844 17.5096ZM110.86 105.462C110.886 105.798 109.741 107.212 109.079 107.832C109.126 107.73 109.173 107.627 109.219 107.524C109.783 106.849 110.33 106.161 110.86 105.462ZM11.9605 67.3643C11.9747 67.2298 11.9874 67.1021 11.9987 66.9815C11.9927 67.116 11.9811 67.2453 11.9605 67.3643ZM33.3154 115.622C32.8398 115.526 33.8269 116.374 32.627 115.345C32.6269 115.345 32.6267 115.346 32.6266 115.346C31.84 114.657 31.671 114.499 30.9418 113.866C31.3852 113.883 32.9388 115.051 30.9205 113.286C30.8941 113.263 30.8409 113.433 30.5312 113.135C30.4357 113.043 30.2028 112.664 29.7528 112.204C29.6069 112.055 28.4846 110.97 30.0571 112.403C30.1372 112.219 30.3507 112.151 30.4701 112.01C31.1182 112.517 31.3537 113.211 32.0357 113.762C33.0519 114.576 33.8073 114.667 33.7058 115.213C32.7568 114.658 31.2999 113.453 31.3131 113.066C30.5173 112.377 30.1285 112.351 30.6925 113.007C33.5983 115.24 31.2107 113.969 33.8756 115.785C33.9473 115.753 34.0975 115.772 34.1198 115.708C34.7667 116.485 33.4836 115.66 33.3154 115.622ZM27.8807 110.177C28.43 110.521 28.9832 110.852 29.5383 111.172C29.3772 111.344 28.9761 111.27 28.1682 110.666C28.0722 110.504 27.9752 110.339 27.8807 110.177ZM76.5773 125.853C76.6465 125.712 76.8654 125.556 77.0173 125.406C77.2262 125.522 81.6768 124.664 79.4487 125.261C79.1246 125.356 77.0766 125.518 76.5773 125.853ZM91.1562 19.9028C90.7094 19.5993 90.2618 19.3038 89.8085 19.0142C90.5792 19.2868 91.3513 19.5783 92.1138 19.8858C91.7931 19.8883 91.4753 19.8946 91.1562 19.9028ZM15.2523 49.8265C15.3402 49.6174 15.2281 50.3821 15.5311 49.5421C15.3886 50.2026 15.2599 50.8113 15.1406 51.455C14.9961 51.6083 14.8519 51.7649 14.7087 51.9208C14.7095 52.0816 14.7098 52.245 14.7121 52.4055C14.6257 52.2802 14.5391 52.165 14.4532 52.0334C15.0621 51.0858 14.8706 50.7525 15.2523 49.8265ZM34.8042 24.1621C35.1168 24.2641 33.9176 25.3159 35.2134 24.4432C35.0722 24.7569 34.7371 25.1027 34.0186 25.6595C33.8619 25.6937 33.7056 25.7289 33.5487 25.7646C33.641 25.919 33.4936 26.1127 33.1708 26.5268C33.1704 26.5269 33.1699 26.5271 33.1694 26.5272C32.0972 27.3924 32.1319 27.3031 31.6864 27.2879C32.924 26.4843 32.7936 26.2564 33.494 25.5167C33.977 25.0103 34.738 24.5228 34.8042 24.1621ZM71.7703 126.42C72.7842 126.112 71.8415 125.996 73.6888 126.05C73.5774 126.119 73.4651 126.188 73.3528 126.256C72.8274 126.319 72.2951 126.374 71.7703 126.42ZM39.6116 22.1519C39.3045 21.8525 38.2925 22.0822 38.5006 22.7411C39.381 22.3679 38.7916 22.2796 39.6116 22.1519ZM11.3244 64.5738C11.3794 64.0977 11.454 63.7715 11.5326 63.5642C11.717 63.0825 11.9193 63.2426 12.0433 63.6269C12.0718 63.715 12.0964 63.8149 12.1161 63.9218C12.0187 64.0273 11.9215 64.1331 11.8256 64.2371C11.8279 64.561 11.8332 64.884 11.8407 65.206C11.6676 64.9974 11.4952 64.7865 11.3244 64.5738ZM70.3851 14.2466C68.9729 14.4695 71.8857 14.4925 70.8987 14.6219C70.1138 14.719 69.1046 14.393 69.4973 14.2206C69.7675 14.2248 70.0686 14.2337 70.3824 14.2465C70.3834 14.2465 70.3842 14.2466 70.3851 14.2466ZM62.2887 14.5036C62.5468 14.7961 62.2082 14.7282 63.3035 14.5837C63.613 14.5297 66.1218 14.5321 65.059 14.3202C64.16 14.3597 63.2224 14.4188 62.2887 14.5036ZM13.539 85.5743C13.4059 85.6331 12.6218 83.8316 12.6447 83.5658C12.6445 83.5659 12.6443 83.5659 12.6441 83.566C12.6841 82.8661 13.1985 84.8438 13.2583 83.9165C13.4986 85.8747 14.2662 86.2617 13.4672 86.3543C13.1118 85.2497 13.4223 85.7335 13.539 85.5743ZM122.093 84.5778C122.094 84.577 122.094 84.5761 122.094 84.5752C122.058 84.7016 121.585 85.6785 121.551 85.5336C121.944 84.3162 122.014 84.5654 122.085 83.3519C122.168 83.304 122.247 83.2646 122.331 83.2113C122.263 83.6848 122.284 83.9627 122.093 84.5778ZM81.4529 125.124C81.0014 125.277 80.1239 125.333 79.6009 125.454C81.1459 124.541 83.2422 124.502 81.4529 125.124ZM119.5 49.2686C119.5 49.2675 119.499 49.2663 119.498 49.2651C119.499 49.2654 119.499 49.2658 119.5 49.266C119.5 49.2669 119.5 49.2678 119.5 49.2686ZM45.5778 122.004C45.6192 122.062 45.6384 122.105 45.6387 122.135C45.6377 122.138 45.6367 122.14 45.6356 122.143C45.6188 122.098 45.6003 122.052 45.5778 122.004ZM14.7987 89.3827C14.8892 90.21 13.7014 87.7713 13.533 86.9058C13.634 86.9387 13.712 86.9249 13.8491 87.0307C13.8347 87.7725 14.7796 89.2507 14.7987 89.3827ZM26.2854 32.4151C24.853 33.9843 26.1587 31.4233 26.6849 31.7575C26.6894 31.7682 26.3207 32.3737 26.2854 32.4151ZM11.4924 73.0756C11.2443 72.5444 11.2182 73.6357 11.2021 71.8911C11.2586 71.7886 11.3155 71.6864 11.3725 71.5845C11.4057 72.0794 11.4459 72.579 11.4924 73.0756ZM17.3586 43.2034C16.1664 45.6531 15.3693 48.1158 16.6544 46.7798C16.7212 46.5879 16.791 46.3942 16.8599 46.2031C16.5976 46.044 17.0655 45.4386 17.578 44.4729C17.5413 44.2778 17.8018 43.7267 17.7659 43.5773C17.6959 43.2866 17.2374 43.841 17.3586 43.2034ZM113.045 36.6444C112.978 36.6408 112.91 36.6383 112.843 36.6347C112.542 36.3302 112.237 36.0285 111.93 35.7319C112.051 35.7238 112.172 35.7163 112.293 35.709C112.547 36.0178 112.797 36.3278 113.044 36.642C113.044 36.6428 113.045 36.6436 113.045 36.6444ZM25.6085 108.73C26.1997 108.518 25.5371 107.984 24.1994 106.847C24.6548 107.483 25.1258 108.112 25.6085 108.73ZM50.1967 16.256C50.3003 16.3943 50.4025 16.5327 50.5077 16.6707C51.3301 16.2338 51.118 16.1064 50.6292 16.0308C50.4835 16.1056 50.3414 16.1801 50.1967 16.256ZM63.2245 13.6315C62.8405 13.6271 63.0455 13.7437 63.0054 13.7441C62.031 13.7571 61.8852 13.7072 60.7158 13.9435C60.5754 13.9954 60.4382 14.0492 60.2987 14.1032C60.8841 14.3752 61.2548 14.1362 62.4276 14.2284C62.2092 14.1303 61.9906 14.0333 61.7701 13.9372C62.4154 13.8962 63.0623 13.8659 63.7047 13.8473C63.7784 13.806 63.8525 13.7651 63.9267 13.7241C63.6945 13.6922 63.4543 13.6566 63.2245 13.6315ZM115.682 40.7917C115.999 41.3305 116.308 41.8772 116.607 42.4263C116.692 42.4042 116.776 42.3811 116.861 42.3592C116.477 41.8295 116.083 41.3054 115.682 40.7917ZM35.4523 116.997C35.5101 117.001 35.5669 117.003 35.6196 117.002C35.5951 117.031 35.5339 117.024 35.4523 116.997ZM122.932 83.0801C123.148 82.4023 123.317 81.389 123.468 80.619C123.255 80.6457 122.931 82.5994 122.64 83.2437C122.651 83.3612 122.841 83.3694 122.932 83.0801ZM11.666 62.0368C11.588 61.8451 11.5114 61.653 11.4349 61.4625C11.5141 61.0379 11.5981 60.6172 11.688 60.1882C11.6053 60.16 11.5218 60.1319 11.4391 60.1036C11.2175 62.0166 11.0574 61.5354 10.6724 62.4497C11.0032 62.3078 11.3339 62.1722 11.666 62.0368ZM123.509 59.0763C123.17 57.7276 122.941 57.2836 122.863 58.0963C123.027 58.5571 123.186 59.0241 123.339 59.4919C123.396 59.353 123.452 59.2135 123.509 59.0763ZM58.4844 126.467C59.607 126.548 59.61 126.878 60.6743 126.85C60.703 126.849 60.7324 126.848 60.7626 126.847C60.7341 126.84 60.7056 126.834 60.6772 126.827C60.1092 126.696 59.5463 126.555 58.9905 126.408C58.8234 126.429 58.6519 126.448 58.4844 126.467ZM14.685 93.5028C14.775 94.0082 15.667 94.6118 15.9014 96.042C16.1626 96.2828 16.3641 96.4126 16.6042 96.6084C16.5596 96.817 16.525 97.047 16.4801 97.2496C16.4805 97.2504 16.481 97.2512 16.4814 97.2521C17.1156 98.3469 16.8793 97.5422 17.019 97.5009C17.076 97.4853 17.4362 98.3505 17.4097 98.0327C17.3544 97.491 16.384 95.8856 16.63 95.7581C16.8387 96.3857 17.5074 97.4838 17.4889 97.0638C17.4681 96.6086 16.6229 95.6909 16.442 94.9258C16.5294 96.1065 15.6632 93.9926 15.8717 93.6184C15.1044 92.505 15.4842 93.6711 16.0846 94.9062C15.4967 94.2579 16.1467 95.3137 16.0488 95.5885C15.5333 94.8741 14.4436 92.0925 14.685 93.5028ZM23.6191 33.8014C23.0348 34.5196 22.0256 35.5742 21.8201 36.2133C21.6989 36.5815 22.6461 35.4887 22.2033 36.4002C22.7273 35.6744 22.7976 35.4694 22.5663 35.4839C22.6758 35.3094 22.7881 35.1341 22.9003 34.9606C22.9858 34.9072 23.0725 34.8518 23.1581 34.7989C23.1703 34.6706 23.1838 34.542 23.1954 34.4155C23.3441 34.2547 23.4952 34.0929 23.646 33.9344C23.635 33.8919 23.6392 33.8384 23.6191 33.8014ZM90.9167 122.189C90.6852 122.296 90.4553 122.4 90.2224 122.504C90.265 122.532 90.3131 122.558 90.3601 122.585C90.3949 122.607 90.4298 122.629 90.4648 122.651C90.2797 122.602 89.0842 122.892 88.6556 123.199C88.4393 123.354 89.074 123.356 88.066 123.793C88.8037 123.496 89.4767 123.187 90.1773 122.863C90.141 122.954 90.1072 123.044 90.0703 123.134C90.0708 123.134 90.0713 123.134 90.0717 123.134C90.3146 123.047 90.5599 122.958 90.8016 122.868C90.8419 122.641 90.879 122.416 90.9167 122.189ZM49.3818 16.184C48.593 16.5939 48.345 16.7627 48.8056 16.8301C48.8065 16.8299 48.8074 16.8297 48.8083 16.8295C49.0825 16.6306 49.3601 16.4335 49.6383 16.2392C49.5537 16.2204 49.4691 16.2016 49.3818 16.184ZM41.5346 121.471C43.5606 121.579 39.6221 120.112 40.1918 120.719C40.2155 120.751 41.4181 121.314 41.5346 121.471ZM11.0362 64.8864C11.075 64.4325 11.1199 63.9771 11.1701 63.5197C11.176 63.466 11.1819 63.4124 11.1879 63.3587C11.1354 63.4061 11.083 63.4542 11.0306 63.5026C10.9674 63.5609 10.9042 63.6195 10.8412 63.6774C10.9017 64.0827 10.967 64.4864 11.0362 64.8864ZM122.351 53.1155C122.409 52.5318 122.036 51.1774 121.564 50.6267C121.66 50.9715 121.753 51.3173 121.843 51.6638C121.595 51.0361 121.336 50.4221 121.067 49.8006C120.757 49.882 121.217 50.5384 121.521 51.6753C121.572 51.8537 121.564 53.069 121.964 53.3601C122.048 53.4184 121.708 52.2323 122.141 52.9936C122.039 52.6316 121.934 52.3255 121.827 51.9865C121.89 51.9377 121.953 51.889 122.016 51.8376C122.133 52.2643 122.243 52.6873 122.351 53.1155ZM20.3806 38.1159C19.6497 39.1587 19.6787 39.3675 19.7223 39.7091C20.0198 39.1995 20.3256 38.6949 20.6386 38.1952C20.5521 38.1698 20.4677 38.1414 20.3806 38.1159ZM117.903 42.6122C117.594 41.983 117.581 42.3345 117.413 42.1072C116.772 41.2513 116.51 40.5649 115.88 39.7235C115.947 39.7632 116.009 39.7995 116.073 39.8379C116.073 39.8371 116.072 39.8363 116.072 39.8356C113.441 35.6136 114.6 37.992 116.233 40.4575C116.212 40.5521 116.189 40.6443 116.168 40.7384C116.961 41.802 117.649 42.82 117.903 42.6122ZM28.0338 111.911C28.0461 111.981 27.5083 111.844 28.2543 112.376C29.0467 112.579 28.0546 111.919 27.9503 111.604C28.1525 111.747 28.3582 111.892 28.5597 112.029C27.5805 110.947 27.3732 110.853 27.5491 111.434C27.5623 111.475 28.0216 111.842 28.0338 111.911ZM35.4046 118.107C35.8914 117.743 34.2357 116.911 34.186 117.088C34.3899 117.243 34.6077 117.277 34.8043 117.468C35.0035 117.659 34.9832 117.812 35.4046 118.107ZM10.3103 73.4892C10.3099 73.543 10.0981 74.1017 10.2857 74.036C10.6905 73.3396 10.3559 72.0011 10.2073 72.2405C10.2291 72.6912 10.3086 72.988 10.3097 73.4892C10.3099 73.4892 10.3101 73.4892 10.3103 73.4892ZM124.432 61.2842C124.448 61.2555 124.313 59.8975 124.186 59.7397C124.058 59.616 123.937 59.5662 123.812 59.4802C124.058 60.1976 124.225 61.7002 124.432 61.2815C124.432 61.2824 124.432 61.2833 124.432 61.2842Z" fill="white"/>
</svg>
