<svg width="137" height="137" viewBox="0 0 137 137" fill="none" xmlns="http://www.w3.org/2000/svg">
<circle cx="68.3441" cy="68.3441" r="61.3273" transform="rotate(7 68.3441 68.3441)" fill="black"/>
<path d="M118.358 44.7122C118.454 45.5081 117.574 43.089 117.94 44.7879C117.78 44.4703 117.616 44.153 117.45 43.8394C117.527 43.7065 117.602 43.5709 117.678 43.4368C117.91 43.858 118.136 44.2818 118.358 44.712C118.358 44.712 118.358 44.7121 118.358 44.7122ZM120.055 44.7261C119.556 44.4382 118.911 43.1736 119.208 44.7135C119.367 44.7791 119.528 44.8483 119.687 44.9157C119.802 45.4479 119.91 45.9822 120.009 46.5137C120.119 46.6766 120.229 46.8402 120.338 47.005C120.222 47.3073 120.103 47.6058 119.982 47.9043C119.94 47.6912 119.897 47.4753 119.853 47.2625C119.401 46.5224 119.091 45.8376 118.618 44.7887C118.61 44.9012 118.603 45.0135 118.595 45.1257C118.452 44.5555 118.3 43.9871 118.139 43.4224C118.423 43.8476 118.733 44.3299 118.986 44.7341C119.006 43.9084 118.289 42.7625 117.925 42.1712C117.43 41.3646 117.664 41.4865 117.29 40.8923C117.23 40.7975 117.114 40.8427 117.011 40.6481C116.501 39.6616 115.476 37.7589 116.356 38.7139C117.224 40.3319 118.14 41.6331 118.805 43.3213C118.912 42.7486 119.42 43.5649 120.055 44.7261ZM97.9533 19.6881C98.5089 19.8506 99.4143 20.5375 99.9686 21.0732C99.9693 21.0737 99.97 21.0742 99.9707 21.0747C100.094 21.1925 100.276 21.5888 99.8364 21.2637C99.1205 20.738 98.9493 20.2162 98.4304 20.1479C98.2792 19.9961 98.1155 19.8433 97.9533 19.6881ZM96.2914 18.68C95.8609 18.3288 96.2068 18.232 96.7634 18.6487C96.7635 18.6485 96.7636 18.6483 96.7637 18.6482C96.9944 18.8236 96.4083 18.6981 97.3934 19.0662C97.4874 19.3135 97.5842 19.5468 97.6745 19.7884C97.4622 19.6555 97.2669 19.537 97.0426 19.3999C97.3318 19.2707 96.7206 19.0312 96.2914 18.68ZM115.765 37.978C115.516 38.0232 115.705 38.3345 115.865 38.9494C115.586 38.4418 115.299 37.9372 115.006 37.4404C115.26 37.6175 115.512 37.7952 115.765 37.978ZM121.144 50.5401C121.145 50.541 121.145 50.5418 121.145 50.5427C121.234 50.7162 121.323 50.8901 121.409 51.0618C121.358 51.1945 121.307 51.3254 121.256 51.4573C121.509 52.085 121.752 52.7234 121.984 53.3652C121.716 53.3426 121.473 52.1553 121.121 51.5634C120.937 50.5938 120.936 50.0923 121.128 49.9674C121.134 50.1577 121.139 50.3477 121.144 50.5401ZM12.1544 70.5665C12.2444 70.7905 12.3356 71.0105 12.4282 71.2321C12.432 70.9257 12.4306 70.6209 12.4445 70.3128C12.0762 69.5376 12.3418 69.4422 12.2732 68.3933C12.1255 65.1853 11.6514 65.9978 12.459 63.1263C12.3306 65.4506 12.7002 64.5684 12.94 65.9644C12.7436 66.2566 12.3125 64.8606 12.2159 65.8058C12.4183 67.4344 12.6676 68.9886 12.9531 70.7588C12.982 70.7036 13.0112 70.6488 13.0404 70.5938C12.9953 70.311 12.9529 70.035 12.9124 69.7534C13.0231 70.0525 13.1347 70.3409 13.2519 70.6438C13.0144 70.2693 13.2153 71.2578 12.9706 71.1461C12.8606 71.0966 12.676 70.6657 12.5559 70.4097C12.556 71.094 12.575 71.7943 12.6029 72.4837C12.4786 72.1394 12.3574 71.793 12.2398 71.4463C12.2086 71.1547 12.1806 70.8647 12.1539 70.5719C12.154 70.5701 12.1542 70.5683 12.1544 70.5665ZM118.121 89.1681C117.987 90.0466 117.321 91.4607 116.691 92.0493C117.197 91.1004 117.672 90.1443 118.121 89.1681ZM121.281 49.853C121.27 49.9581 121.258 50.06 121.246 50.1648C121.05 49.7757 120.85 49.3876 120.647 49.0057C120.735 48.8912 120.823 48.7745 120.909 48.6569C121.038 49.0529 121.162 49.4535 121.281 49.853ZM107.18 26.6519C107.407 26.8681 107.424 26.8904 107.685 27.1807C107.685 27.1803 107.685 27.1799 107.684 27.1795C107.791 27.2919 108.63 28.2777 108.463 28.2368C108.024 27.7695 107.551 27.2778 107.087 26.8151C107.116 26.7582 107.155 26.7126 107.18 26.6519ZM112.119 32.3667C112.119 32.3675 112.119 32.3684 112.12 32.3692C112.25 32.5634 112.361 32.7571 112.5 32.9535C111.865 32.347 111.987 32.0813 111.441 31.507C110.891 30.9357 110.473 30.657 110.31 29.9161C110.512 30.0712 110.744 30.2278 110.956 30.3866C111.562 31.3457 111.849 31.4988 112.512 32.132C112.381 32.2101 112.25 32.2883 112.119 32.3667ZM13.5245 56.3293C13.3882 56.0862 13.6014 55.8797 13.608 55.8558C13.6081 55.8563 13.6082 55.8568 13.6083 55.8573C13.8081 53.9568 13.6473 56.1135 14.0304 54.3652C14.0183 54.6342 14.0114 54.8997 14.0041 55.1667C13.8419 55.5499 13.6704 55.9475 13.5245 56.3293ZM52.6133 12.6694C52.6444 12.7137 52.6789 12.7571 52.71 12.8014C51.6737 13.0951 51.4769 13.3717 50.5739 13.4778C51.2461 13.195 51.9259 12.9254 52.6131 12.6689C52.6131 12.6691 52.6132 12.6692 52.6133 12.6694ZM103.393 22.732C104.383 23.4178 105.087 23.9728 105.832 24.8665C105.833 24.8672 105.833 24.868 105.834 24.8687C105.876 24.9205 105.567 24.7826 105.613 24.8611C105.799 25.0093 105.995 25.1577 106.183 25.3079C106.148 25.3927 106.112 25.4764 106.077 25.5607C105.605 25.0823 105.122 24.6117 104.629 24.148C104.671 24.2516 104.715 24.3564 104.756 24.4599C104.31 24.0997 103.862 23.7495 103.406 23.4043C103.649 23.423 103.892 23.4432 104.134 23.4634C103.89 23.2176 103.642 22.9742 103.393 22.732ZM36.1842 19.9226C36.3732 19.8593 36.1361 20.1381 36.407 20.0086C36.677 19.8786 37.0713 19.4871 37.0534 19.6895C36.735 19.9295 36.4047 20.1867 36.0866 20.4385C37.3111 19.9188 38.2629 19.0095 38.4696 19.2946C37.3726 19.888 36.5487 20.5031 35.6336 21.2889C35.5057 21.0337 36.3556 20.132 35.58 20.3631C35.7785 20.2166 35.9872 20.0629 36.1824 19.9246C36.183 19.9239 36.1836 19.9232 36.1842 19.9226ZM127.128 67.164C127.096 67.94 127.122 69.7575 126.871 70.7262C126.813 70.9668 126.22 71.7217 126.152 71.7093C125.926 71.6616 125.988 70.6891 125.737 71.7137C125.771 71.364 125.794 71.0244 125.819 70.678C125.659 70.7272 125.5 70.7756 125.341 70.8213C125.328 71.2415 125.311 71.6633 125.289 72.0857C125.236 72.1007 125.183 72.1157 125.129 72.1307C125.283 70.6265 124.996 71.4939 124.884 70.7024C124.73 71.4069 124.563 72.1149 124.384 72.8131C124.446 72.405 124.507 71.9233 124.557 71.5642C124.302 71.49 124.273 72.3535 124.205 72.4953C123.859 73.2857 124.408 69.1076 124.004 68.7386C123.927 69.4058 123.837 70.1043 123.735 70.7774C123.706 70.5786 123.675 70.3779 123.643 70.1804C124.026 68.6561 124.188 66.9203 124.328 65.1005C124.315 64.9369 124.301 64.7731 124.287 64.6124C124.169 64.6627 124.052 64.7103 123.935 64.7601C123.916 64.5146 123.896 64.2693 123.874 64.0222C124.283 64.7377 124.262 63.7307 124.427 62.495C124.604 63.1371 124.549 63.9487 124.802 63.8842C124.535 61.6465 124.552 59.0057 123.978 56.8749C123.834 56.3487 123.519 56.4092 123.312 55.158C123.356 55.1933 123.422 55.1881 123.474 55.2065C122.891 53.084 122.486 51.8272 121.991 49.5999C121.916 49.7602 121.839 49.9179 121.763 50.077C121.956 50.5219 122.144 50.9678 122.325 51.415C122.217 51.7823 122.021 51.3343 122.37 52.7222C122.643 53.8637 122.565 53.164 122.694 53.4618C122.867 53.8658 122.796 54.2692 122.976 54.7069C123.113 55.0467 123.198 54.6311 123.336 55.5654C123.06 55.2308 122.774 54.8955 122.49 54.5699C122.489 54.338 122.489 54.1075 122.486 53.8752C122.59 54.0876 122.692 54.2974 122.794 54.512C122.529 53.7372 122.265 53.0125 121.958 52.2265C122.318 52.4168 121.995 51.6028 121.834 51.1603C121.584 50.4702 121.953 51.0182 121.789 50.5649C121.621 50.1102 121.253 49.6798 121.035 48.841C121.306 49.2424 121.227 48.603 121.382 48.681C121.539 48.7587 121.845 49.6349 121.705 48.7448C121.072 47.1529 121.206 49.0589 120.769 47.9958C120.234 46.7297 120.827 46.155 121.13 46.4859C121.368 46.7467 121.717 47.8235 121.941 48.0962C121.511 46.098 121.042 46.2483 120.842 45.9576C120.083 44.9132 121.214 45.369 120.354 44.1099C120.517 44.0722 120.662 44.0362 120.819 44.0015C120.691 43.7741 120.587 43.6315 120.442 43.3543C120.508 44.3258 120.227 43.6272 120.073 43.276C119.828 42.722 120.061 43.6409 119.959 43.5101C119.689 43.157 119.453 42.5183 119.496 42.9563C119.48 42.759 119.455 42.5462 119.434 42.3436C119.065 41.729 117.724 40.5608 118.532 41.9034C118.239 41.8819 118.131 41.3764 117.989 41.0074C117.847 40.6386 117.705 40.7191 117.574 40.3984C117.041 39.1261 117.704 39.7889 118 39.8846C117 38.3426 117.786 39.9504 116.4 37.7165C116.12 37.5883 116.562 38.7259 115.969 37.9101C116.14 37.5965 115.964 36.837 115.264 35.5575C115.128 35.4773 114.991 35.3984 114.855 35.3197C114.654 34.505 115.13 34.665 114 33.658C114.983 33.9357 114.345 33.7222 113.778 32.4948C113.662 32.2453 114.14 32.6697 113.972 32.3246C113.895 32.1678 113.566 31.8941 113.375 31.5138C113.285 31.3279 112.895 30.4143 112.381 29.9741C112.442 30.5477 111.448 29.7471 111.918 30.7409C110.728 29.1702 109.685 28.2361 111.456 29.6389C111.206 29.192 110.949 28.7475 110.685 28.306C110.396 28.0916 110.103 27.8778 109.809 27.6676C109.962 27.4556 110.061 27.4362 109.068 26.462C109.53 26.8537 109.986 27.2516 110.439 27.6609C110.492 27.6411 110.589 27.6677 110.613 27.6186C110.047 27.1229 108.563 25.643 108.146 25.3426C107.737 25.0356 108.42 25.7368 108.269 25.6818C107.021 25.2219 107.373 25.0038 106.675 24.4768C106.265 24.171 107.11 25.0438 106.895 24.8755C106.103 24.2505 105.952 23.7217 105.278 23.1277C105.41 23.462 105.534 23.7968 105.651 24.1274C104.964 23.4966 104.174 22.8223 103.467 22.3185C103.19 22.1209 103.312 22.3785 103.264 22.35C103.025 22.2074 102.105 21.574 102.01 21.5051C101.302 20.9697 101.383 20.8172 100.684 20.3025C100.97 20.4887 101.236 20.6666 101.512 20.8536C101.799 20.721 102.089 20.5921 102.379 20.4627C101.703 19.9274 101.013 19.4067 100.311 18.9013C100.78 19.3351 101.243 19.7766 101.696 20.2247C100.769 19.821 99.8402 19.4485 98.9035 19.1009C98.5553 18.7072 98.2038 18.3194 97.8431 17.9339C96.6414 17.2409 96.5964 17.8746 96.2764 17.1198C95.9031 16.9522 95.5287 16.7891 95.1525 16.6295C95.237 16.5962 95.3212 16.5626 95.406 16.5297C94.9548 16.3296 94.5012 16.1352 94.0446 15.9475C94.3899 16.405 94.71 16.872 95.0345 17.3261C94.1744 16.9147 94.2532 16.7264 94.152 16.6121C93.8809 16.3108 93.1264 16.1365 92.9142 15.8896C92.8427 15.8034 93.7441 16.1024 93.5269 15.8146C93.4886 15.7581 92.609 14.6651 91.8049 14.4492C91.7746 14.552 91.7773 14.6964 91.7588 14.815C90.7451 14.4195 90.4513 13.701 90.6452 13.6134C90.0651 13.4805 89.2675 13.1686 89.0929 13.283C88.8126 13.1762 88.5382 13.074 88.2582 12.9723C88.6974 12.6948 87.4987 12.3279 87.3016 12.6386C87.7806 12.8196 88.2566 13.0075 88.7285 13.2007C88.2065 13.4769 89.5753 14.24 86.6937 12.7654C86.1861 12.347 87.7164 13.1598 87.2996 12.8325C86.5088 12.4433 85.7062 12.2631 84.9599 11.8666C84.0253 11.3825 85.3031 11.5406 82.9056 11.1323C87.8358 13.2353 82.1131 11.2398 79.6312 10.9911C79.1543 10.3328 77.4941 9.76181 75.0767 9.5502C74.7636 9.52292 74.439 9.50191 74.104 9.48778C74.2714 9.60767 74.6591 9.66108 75.0567 9.71355C75.3344 9.75001 75.6158 9.78562 75.8279 9.83826C76.3426 9.96749 75.7645 9.98879 76.4008 10.1622C77.0369 10.3332 78.3815 10.6751 79.0055 10.9263C78.4354 10.8981 75.6984 10.6921 77.5293 10.7089C76.5534 10.4163 75.9622 10.1993 75.0203 10.0098C74.7022 9.9466 74.3449 9.88785 73.9202 9.83584C73.3877 10.0568 73.4127 10.2105 71.7808 10.1018C72.7816 9.79321 70.9216 9.41067 71.356 9.05174C72.5331 9.21556 71.8499 9.54898 72.5092 9.77767C72.5759 9.79852 73.6676 9.80004 73.9202 9.83584C72.8586 9.38971 72.4793 9.24053 73.1969 8.89663C72.4093 8.86222 71.923 8.78252 71.8375 8.96879C71.6785 8.8749 71.5179 8.78156 71.3602 8.68917C71.1024 8.67662 70.8703 8.67256 70.5979 8.65904C70.9599 8.96548 70.2406 8.75246 69.7225 8.87014C69.2047 8.99022 69.8913 9.22621 68.4789 9.21121C68.9487 9.28235 69.3778 9.34884 69.8254 9.42669C68.9241 9.47345 68.0083 9.54226 67.1124 9.63237C67.7478 9.79322 69.1118 10.0704 69.069 10.3052C68.6569 10.2048 67.2512 10.3649 67.1001 10.3782C66.5079 10.414 66.8274 10.2609 66.7826 10.2581C65.8453 10.2084 65.0739 10.3018 64.7057 10.1014C64.0083 10.2451 63.4756 10.2288 62.7284 10.3058C62.3182 10.3493 62.415 10.5044 62.1726 10.4987C60.5647 10.4856 62.036 10.049 59.0398 10.9087C59.4265 10.9601 59.8074 11.019 60.1917 11.0794C59.8547 11.1716 59.5213 11.2667 59.1877 11.3649C58.9565 11.3819 58.7274 11.3998 58.4965 11.4196C58.4584 11.1757 58.4212 10.9311 58.3832 10.6872C58.1288 10.7185 57.8709 10.7526 57.6153 10.7877C58.0461 10.6807 58.4764 10.5791 58.9081 10.4826C58.9407 10.4331 58.9709 10.3841 59.0037 10.3347C58.3444 10.3748 57.6849 10.4261 57.0227 10.4899C57.0271 10.5766 57.0319 10.6638 57.0365 10.7504C55.5614 10.9355 55.5053 10.8754 54.1943 11.4464C53.1414 11.714 52.3946 12.3084 51.8457 12.6347C51.6184 12.6541 51.3906 12.6744 51.1608 12.6975C51.0462 12.8091 50.931 12.9213 50.8179 13.0336C50.5186 13.0274 50.2151 13.0248 49.9135 13.0246C49.8373 13.2916 49.7847 13.3757 50.8535 13.1035C50.582 13.4793 48.7189 14.004 47.954 14.2133C47.3705 14.3666 47.9032 13.9047 47.8235 13.9058C47.5531 13.9054 46.6634 14.3584 46.4666 14.4266C45.6285 14.7095 45.0695 14.9739 44.3249 15.2667C44.1801 15.3231 43.7239 15.3779 43.6885 15.3903C43.4182 15.4919 42.7505 15.7462 42.6778 15.782C38.9451 17.6511 43.1495 16.0733 39.7645 17.9153C39.907 17.9295 40.0409 17.9485 40.1807 17.965C39.9333 18.1156 39.6844 18.2694 39.4395 18.4238C39.0894 18.5543 39.4001 18.2113 38.8334 18.6833C38.8186 18.5695 38.8041 18.4554 38.7922 18.3405C38.5502 18.5564 38.3202 18.7674 38.0763 18.991C37.4457 18.9536 35.8441 19.9483 35.7116 19.5283C35.6626 19.3814 36.6955 18.4973 36.018 18.7715C35.5211 19.0755 35.9438 18.9952 35.7541 19.1372C34.3924 20.1704 34.3383 19.93 33.8144 20.3991C33.789 20.5484 33.7611 20.7028 33.7357 20.8543C33.5085 20.9894 33.2816 21.1268 33.054 21.2669C33.049 21.3597 33.0422 21.4541 33.0377 21.5468C33.2341 21.3972 33.4561 21.2299 33.6384 21.0955C33.5394 21.4894 31.394 23.4154 32.0944 22.5378C32.3788 22.1777 33.0481 21.6922 32.4408 21.7707C31.864 22.2961 31.2194 22.9016 30.6375 23.4778C30.5729 23.4431 30.5094 23.4072 30.4446 23.3726C29.65 24.1428 30.5831 23.6764 30.6786 23.7896C30.4939 23.9594 30.3079 24.1318 30.1254 24.3041C30.0019 24.3266 29.8801 24.3437 29.7541 24.3721C29.8189 24.4578 29.8808 24.7309 29.2767 25.1783C28.8886 25.4682 29.2492 24.7479 28.6137 25.4145C28.7798 25.4854 29.1523 25.397 28.4662 26.1504C28.2727 26.0994 28.0614 26.0871 27.8768 26.0154C27.1011 27.0415 26.5057 27.279 25.653 28.5289C25.1113 29.3236 24.6291 30.5889 23.7268 30.6549C23.2812 31.1902 23.5504 31.1197 23.4535 31.3044C23.0016 32.1758 22.3264 32.5709 22.2038 32.7078C21.4317 33.5766 21.2325 34.0666 20.588 34.7715C20.7195 34.7965 20.8326 34.8376 20.9557 34.87C21.2768 34.0514 21.5274 33.6917 22.2647 32.7351C22.0468 33.0783 21.8344 33.4223 21.6248 33.7688C21.7449 33.7716 21.8646 33.7753 21.9826 33.7805C23.8475 30.5387 23.8095 31.6135 22.1325 34.2064C21.8284 34.32 21.5193 34.4454 21.2163 34.5635C20.4589 36.2218 19.8075 36.8031 18.7565 38.5542C18.6315 38.7622 18.3065 39.5896 18.1381 39.9294C18.1417 39.9241 18.1452 39.9188 18.1488 39.9135C18.1959 40.2036 18.4145 39.9574 18.571 39.9969C18.494 40.1866 18.4173 40.3779 18.343 40.5674C18.0323 40.9187 18.0122 40.7303 17.6452 41.5496C17.805 41.4923 17.9641 41.4373 18.1238 41.3818C17.7 42.2597 17.3129 42.7929 17.0006 43.6472C17.0203 43.489 17.0397 43.3326 17.0607 43.1745C16.1663 44.9502 16.1419 43.2228 15.8841 44.7549C15.7913 44.8215 15.6991 44.886 15.6065 44.9535C15.8246 44.365 16.0527 43.7812 16.2884 43.2046C16.2143 43.1584 16.1411 43.1113 16.066 43.0673C15.8202 43.6928 15.5847 44.327 15.3608 44.9629C15.488 44.4843 15.6224 44.0047 15.7621 43.5297C15.4178 44.231 15.0853 44.9469 14.7708 45.661C15.3628 45.0007 15.0166 46.0165 15.3832 45.9389C14.6617 47.1276 13.9616 48.0485 13.5736 50.1704C13.5009 50.5932 13.768 50.424 13.2017 51.515C13.6098 51.3233 13.4031 52.815 13.7755 52.706C13.8569 52.3002 13.9524 51.8827 14.0358 51.4914C13.8091 51.9018 13.4804 51.8989 13.5682 51.1996C13.6782 50.3088 14.2723 49.118 13.9208 49.0675C14.0423 48.731 14.1526 48.4179 14.2741 48.0937C14.3125 48.2563 14.3531 48.4159 14.3937 48.5753C14.5633 47.6022 14.8176 47.0241 15.1841 46.6572C14.8326 47.7762 14.5198 48.8934 14.2392 50.0283C14.302 49.8675 14.3662 49.7049 14.4299 49.5448C14.3962 50.4536 14.845 49.645 14.4522 51.2271C14.3554 51.1905 14.2581 51.1557 14.161 51.1188C14.2634 51.7628 13.8809 53.3421 14.311 52.9119C14.1029 53.3649 14.0209 53.4532 14.1271 53.758C13.6136 54.9562 13.1703 55.7328 12.8983 55.206C12.8637 55.6943 12.8348 56.1879 12.8141 56.6688C12.9578 56.41 13.103 56.1523 13.2508 55.8941C13.0945 56.7208 12.9574 57.547 12.8386 58.3787C12.5312 58.4173 12.9862 56.7647 12.6537 57.2099C12.5859 57.2989 12.6301 57.7648 12.5842 57.8786C12.0899 59.0837 12.5976 57.1539 12.3029 57.4864C12.0598 58.791 11.8962 58.4164 11.8163 58.9916C11.7846 59.2352 11.7685 59.6511 11.7951 60.4314C11.704 60.4915 11.6108 60.557 11.5208 60.6127C11.4343 61.5164 11.6329 61.4537 11.6146 62.234C11.6047 62.7214 11.2363 63.3183 11.4456 63.8656C11.4877 63.9611 11.9175 63.0816 11.8509 64.9642C11.8198 66.4338 11.5371 65.8208 11.4377 66.6191C11.3354 67.4189 11.8177 69.2269 11.4051 69.7897C11.4371 69.3681 11.44 68.8337 11.4703 68.3666C11.3734 68.1813 11.2786 68 11.1841 67.8151C11.332 68.8801 11.2694 69.9847 11.5413 70.6812C11.3315 72.1323 11.8471 73.6716 12.1536 73.1972C12.0431 72.7448 11.9462 73.2647 11.9695 72.6127C12.0465 72.5371 12.1229 72.4582 12.2002 72.3832C12.3148 73.467 12.4355 74.2246 12.1054 73.764C12.1228 73.9341 12.1408 74.1024 12.1598 74.2722C12.3506 74.2747 12.5416 74.2734 12.7324 74.2754C12.7833 74.4717 12.8353 74.6685 12.8884 74.8638C12.8832 75.0913 12.879 75.3195 12.8766 75.5498C12.5346 75.3013 12.4219 74.7826 12.5711 76.5198C12.6732 76.5056 12.7754 76.4937 12.8775 76.4793C13.0317 77.9241 12.7866 78.0132 13.2317 79.7896C12.5409 78.5083 13.013 77.6199 12.3104 77.775C12.2829 77.4188 12.2588 77.0595 12.238 76.703C12.1257 76.6698 12.0133 76.6368 11.9015 76.6055C12.2931 78.4912 13.7481 81.3499 13.7063 82.6866C13.8046 82.8172 13.8965 82.9498 14.0004 83.0803C14.1215 84.3492 14.878 84.6553 14.9852 85.9536C15.0005 86.0879 14.3455 86.0389 14.9835 87.5722C15.0373 87.5055 15.1462 87.438 15.2213 87.3714C15.3132 87.7197 15.4057 88.0664 15.5023 88.4115C15.5914 88.4433 15.6817 88.4778 15.7712 88.5089C15.5546 87.9403 15.3481 87.3696 15.1497 86.7941C15.3575 87.2553 15.5724 87.716 15.7918 88.1702C15.6392 87.5208 15.5315 87.2468 15.8491 87.5426C16.0766 88.0631 16.3127 88.58 16.5554 89.0922C16.6217 89.1263 16.6886 89.1599 16.755 89.1937C16.7678 88.8866 16.7798 88.5801 16.7999 88.2745C17.2825 89.662 17.8369 90.8088 18.1172 91.9369C18.1671 92.1284 17.6847 91.6108 18.4477 92.6959C18.3731 92.7592 18.3216 92.8273 18.2548 92.8897C19.2681 94.1774 19.4601 94.6672 20.1893 96.2009C19.7637 95.18 20.1788 96.0691 20.4102 96.2505C20.5678 96.3751 20.1637 95.7542 20.2681 95.7878C20.371 95.8241 21.1201 96.4804 20.7108 95.7726C19.1673 94.3639 19.4665 93.5488 18.0356 91.397C18.2819 91.7174 18.5328 92.0369 18.785 92.3505C18.7412 92.1626 18.7032 91.9941 18.6571 91.7914C19.2295 93.1069 18.9687 92.4586 19.3272 92.9308C19.6875 93.4024 20.2863 94.2867 20.6806 94.8809C20.8047 95.0684 20.5698 94.9341 20.8275 95.3722C21.002 95.6722 21.6738 96.3614 21.6082 96.6662C21.568 96.8684 20.3792 95.8113 21.5583 97.5768C21.6643 97.9887 21.1292 97.1197 21.1044 97.1098C20.8571 97.0493 21.4821 98.2139 21.9433 98.6312C21.9806 98.6645 21.8137 98.198 22.1561 98.5915C22.9724 99.5205 23.281 100.171 23.6122 100.93C23.858 100.849 24.7171 101.482 25.4844 102.514C25.5798 102.518 25.6736 102.52 25.7692 102.524C25.6116 102.398 25.4549 102.27 25.2983 102.142C25.1914 101.948 25.0684 101.751 24.9732 101.555C25.8427 102.507 26.2204 102.419 26.7154 102.796C28.4264 104.064 26.9284 103.726 26.5557 103.543C26.417 103.298 26.2917 103.054 26.1612 102.807C26.1177 102.885 26.0741 102.965 26.0288 103.041C28.1596 105.391 25.9389 103.774 26.9294 105.07C27.5205 105.09 28.3606 105.915 29.2838 107.148C29.4075 107.262 29.5311 107.377 29.6562 107.49C29.7178 107.464 29.7804 107.396 29.8409 107.398C31.2301 108.575 31.078 109.254 31.169 109.418C31.5869 110.127 32.296 110.221 32.4745 110.361C33.2339 110.951 33.354 111.251 34.1309 111.745C34.9697 112.268 34.5019 111.766 34.8099 111.851C35.056 111.921 35.6939 112.355 36.0094 112.458C35.8621 112.449 35.7038 112.43 35.5563 112.42C36.3278 113.086 36.9681 113.637 37.9347 114.274C39.3293 114.49 39.8211 115.844 39.8132 114.961C38.8948 114.367 38.4245 113.969 38.0386 113.496C38.652 113.855 39.2728 114.204 39.9005 114.54C40.0381 114.717 40.125 114.861 40.2966 115.057C40.8451 115.168 41.8933 115.821 42.3511 115.994C44.4869 116.791 43.9746 116.206 45.6492 117.518C44.2704 116.961 44.1604 117.183 42.8443 116.497C43.0505 116.8 43.7499 117.097 43.2157 117.074C44.5419 117.652 44.2027 117.275 44.7811 117.357C45.2786 117.427 46.1686 117.8 46.1925 117.604C46.2428 117.738 46.2744 117.86 46.3257 117.994C47.185 118.352 48.0495 118.689 48.9237 119.004C48.5143 118.971 48.1048 118.934 47.6952 118.891C47.9608 119.037 48.2287 119.181 48.4978 119.324C50.7537 119.839 54.4196 121.44 54.0226 120.454C55.0944 120.698 55.2082 120.828 55.7571 121.117C55.8354 121.068 55.9094 121.03 55.9889 120.975C56.6671 121.192 57.2489 121.062 57.8527 121.239C58.4588 121.413 58.5741 121.661 58.7273 121.299C59.1059 121.475 59.489 121.628 59.8738 121.788C60.1277 121.737 60.3806 121.686 60.6309 121.633C60.851 121.69 61.0722 121.746 61.2942 121.8C61.4464 121.837 61.5986 121.874 61.7508 121.91C61.9746 121.756 63.4525 121.985 64.113 121.904C64.7208 122.141 64.6706 122.772 66.1594 122.722C66.1267 122.567 66.0949 122.413 66.0628 122.258C66.3982 122.303 66.7338 122.345 67.0724 122.384C67.0918 122.434 67.1085 122.485 67.128 122.535C66.9542 122.516 66.7858 122.497 66.6136 122.476C66.7609 122.565 66.9053 122.653 67.0514 122.741C67.5752 122.626 68.095 122.504 68.6119 122.375C67.915 122.284 67.2102 122.181 66.5246 122.065C67.3931 121.977 68.0067 122.094 68.7608 121.962C69.4205 122.166 69.1823 122.291 68.9153 122.525C69.1616 122.502 69.4103 122.478 69.6555 122.452C69.4981 122.684 69.9218 122.823 68.4718 122.819C68.5718 122.884 68.6741 122.946 68.7722 123.013C69.0106 123 69.1661 123.054 69.4269 123.023C70.1365 122.939 70.6704 122.509 70.6139 122.37C70.5852 122.298 69.8918 122.464 69.9163 122.358C69.981 122.098 71.5683 122.167 69.2735 121.975C70.0247 121.795 70.1999 121.914 71.0395 121.921C70.9697 121.839 70.9021 121.758 70.8353 121.675C71.2238 121.696 71.6127 121.713 72.001 121.727C71.4852 122.205 74.3807 122.155 71.8107 122.727C72.5807 122.698 73.3536 122.654 74.1232 122.594C73.9698 122.655 73.8158 122.716 73.6613 122.776C73.3111 122.785 72.9608 122.792 72.612 122.796C73.0269 122.846 73.4472 122.891 73.8656 122.932C74.8253 122.733 75.1817 122.526 75.5948 122.278C74.4642 122.278 74.8524 122.424 73.9833 122.556C74.0014 122.431 73.9498 122.323 74.0125 122.187C74.4892 122.399 75.9286 122.032 76.2646 121.966C77.2873 121.776 76.5184 122.145 77.2079 122.042C77.8984 121.937 78.6778 121.644 79.2865 121.774C79.2493 121.64 79.1766 121.508 79.1123 121.392C80.163 121.134 79.9842 121.332 80.0987 121.331C81.9227 121.285 82.8079 120.761 84.7555 120.137C84.4941 120.172 84.2313 120.21 83.968 120.245C85.3603 119.518 84.3922 119.92 83.0846 120.182C84.2951 119.876 84.9061 119.42 85.7125 119.077C86.5211 118.737 87.9749 118.34 88.5226 118.229C87.4079 118.837 86.0831 119.193 84.7609 119.649C84.9549 119.736 85.1389 119.804 85.3437 119.901C86.0686 119.358 86.5963 119.382 86.8778 119.325C87.6999 119.156 87.5856 118.923 88.1516 119.004C88.0993 118.923 88.0574 118.855 88.0074 118.779C89.6194 118.22 91.3848 117.623 92.2398 116.829C92.4283 116.99 92.5915 117.153 92.7977 117.31C93.3813 116.841 94.0147 116.716 94.5427 116.394C95.0657 116.073 94.7752 116.022 95.3706 115.618C95.4804 115.543 95.7781 115.51 96.0208 115.276C96.2711 115.041 96.9887 113.887 97.3946 114.281C97.92 113.966 98.4213 113.675 98.9303 113.356C98.4562 113.701 97.9766 114.037 97.4937 114.366C97.9899 114.221 98.4825 114.071 98.9778 113.911C98.9674 113.776 98.9556 113.64 98.9432 113.508C99.991 112.653 100.902 112.258 101.969 111.411C102.146 111.268 101.58 111.402 102.416 110.845C103.246 110.282 104.118 110.166 105.317 108.915C105.378 108.85 105.54 108.267 106.151 108.029C106.291 107.975 105.904 108.427 106.19 108.264C106.479 108.104 107.573 107.162 107.766 107.199C107.715 107.168 107.608 107.186 107.535 107.173C107.694 106.983 107.853 106.791 108.012 106.597C108.1 106.655 108.19 106.711 108.278 106.768C109.12 105.594 109.35 104.816 110.832 103.342C110.332 103.684 109.828 104.017 109.323 104.339C109.29 104.527 109.257 104.716 109.225 104.903C108.533 105.57 107.822 106.221 107.099 106.85C107.068 107.045 107.036 107.238 107.002 107.434C106.804 107.597 106.608 107.758 106.409 107.918C106.398 107.811 106.387 107.704 106.378 107.596C106.021 107.952 105.659 108.304 105.294 108.649C105.731 107.605 107.43 106.762 107.039 106.54C107.248 106.432 107.456 106.323 107.664 106.213C107.59 105.995 107.96 105.721 108.548 105.164C108.346 105.226 108.131 105.301 107.939 105.348C108.595 104.897 109.538 103.876 110.117 103.305C110.372 103.055 110.247 103.421 110.331 103.353C110.766 103.007 111.242 102.044 111.395 101.89C112.317 100.97 113.24 100.6 113.826 99.2538C112.884 100.389 113.387 99.7652 112.928 100.072C112.784 100.169 111.534 101.588 113.02 99.748C113.222 99.5602 115.945 96.1995 115.362 97.5149C115.684 96.8841 115.9 96.3693 116.163 95.7796C117.576 94.8024 116.731 94.9279 116.192 95.1308C116.323 94.9119 116.445 94.7016 116.579 94.475C116.624 95.1558 118.081 92.6848 118.338 91.7221C118.43 91.4046 117.908 92.156 118.2 91.4634C118.386 91.1591 118.596 90.8131 118.787 90.4869C118.335 90.8729 118.719 89.871 118.492 89.781C118.977 89.2611 119.608 88.9652 119.678 89.4139C119.823 88.8526 119.96 88.291 120.086 87.7284C119.931 87.9491 119.774 88.1715 119.617 88.3889C120.511 86.7527 120.982 84.3978 121.582 84.1914C121.659 83.9556 121.734 83.7201 121.807 83.4853C121.749 83.3864 121.69 83.2902 121.631 83.1918C122.041 82.1614 122.423 81.1106 122.772 80.0549C122.573 81.0258 122.628 81.2873 122.236 82.2605C122.446 81.9047 122.656 81.5357 122.857 81.1817C123.006 79.597 122.911 79.3459 123.469 77.0644C123.5 76.9648 124.04 75.2422 124.065 75.1864C124.208 74.9265 124.281 75.3692 124.351 75.2544C124.557 74.9427 125.201 72.8771 125.241 72.9189C125.929 73.5295 124.599 80.7008 123.941 82.5666C118.496 102.428 101.57 117.718 81.8807 122.454C81.678 122.504 81.7891 122.577 81.7034 122.601C81.1689 122.755 80.6087 122.723 80.408 122.76C79.9793 122.838 80.2428 122.925 79.9303 122.99C76.6988 123.651 73.5862 123.941 70.2972 124.086C70.0821 124.094 70.2979 123.976 69.9211 124.008C69.7285 124.025 69.125 124.209 68.6845 124.215C67.1431 124.233 65.8627 124.142 64.2405 124.037C63.3599 123.981 62.0465 123.844 61.0581 123.723C61.0561 123.722 61.0541 123.722 61.0521 123.722C60.6159 123.669 60.1525 123.686 59.7237 123.626C59.1158 123.54 59.2647 123.4 59.173 123.377C58.7725 123.27 58.6884 123.432 58.3029 123.363C57.5849 123.229 57.5629 123.11 56.6528 122.94C56.003 122.822 54.5038 122.58 53.6855 122.394C51.8277 121.79 49.4636 121.099 47.7392 120.495C46.721 120.139 46.6893 119.945 46.2806 119.782C44.8461 119.2 43.689 118.906 42.3735 118.269C40.6323 117.418 39.1977 116.465 37.609 115.475C37.3519 115.314 37.3324 115.478 37.0776 115.322C36.1344 114.748 34.9454 113.976 34.1602 113.383C33.2825 112.72 33.0905 112.305 32.2213 111.682C31.9672 111.498 31.7761 111.59 31.3502 111.276C30.6698 110.773 30.077 110.045 29.6498 109.643C29.0653 109.089 29.4564 109.702 28.6691 108.951C28.6369 108.92 28.6107 108.709 28.436 108.555C27.9291 108.103 27.9005 108.231 27.1957 107.527C27.1254 107.461 26.2919 106.432 26.2048 106.335C25.6678 105.782 24.6595 104.603 24.3423 104.276C23.2041 103.107 23.8742 104.214 23.3317 102.864C22.8596 102.465 22.3944 102.062 21.913 101.614C22.2531 101.896 21.3059 100.415 21.2316 100.318C20.574 99.5382 20.7809 100.135 20.0633 99.0575C21.368 100.229 19.155 97.6612 18.7635 97.0115C16.7912 93.9632 15.371 90.9656 14.0056 87.5907C13.5478 86.4622 12.9085 84.949 12.5194 83.7182C12.428 83.4313 12.5881 83.6191 12.5104 83.366C12.4328 83.1135 12.4175 83.4255 12.3333 83.1354C11.816 81.3229 11.6487 79.8572 11.0354 78.2333C11.0536 78.1437 11.0824 78.1403 11.0931 77.9965C10.5615 76.6645 10.4371 73.9298 10.373 72.9197C10.2556 71.339 10.0748 70.9387 10.0242 69.789C9.95312 68.259 10.2363 65.9675 9.75447 66.9972C9.72091 65.9514 9.72602 64.927 9.8097 63.876C9.81921 63.7585 9.94201 63.8442 9.94634 63.7973C9.97575 63.5003 9.86775 63.3983 9.872 63.1961C9.88539 62.6482 9.97465 63.5476 9.97748 62.7659C9.98194 62.3551 9.89101 62.1075 9.98261 60.973C10.0429 60.2543 10.1177 59.5275 10.2075 58.794C10.9548 52.552 12.8724 46.0844 15.671 40.399C15.8853 39.9636 15.6341 40.1961 15.9131 39.6543C16.8658 37.7514 18.9808 34.6072 20.0082 33.1034C21.0218 31.5926 20.648 31.8278 21.2668 30.8615C21.388 30.676 21.3602 30.8818 21.4817 30.7231C22.2959 29.6549 23.4352 28.5158 24.1654 27.7173C24.6497 27.1877 24.4936 27.1258 24.819 26.747C25.3058 26.1834 25.9491 25.7402 26.2279 25.4599C27.5397 24.1427 28.382 23.1682 29.7309 22.0676C29.6566 22.086 29.6014 22.0913 29.5352 22.1034C31.0859 20.7449 32.7056 19.47 34.39 18.282C34.2922 18.312 34.1969 18.3403 34.0988 18.3705C36.0897 16.9897 36.0723 17.4632 35.4828 16.9638C35.6158 16.8438 35.7561 16.7151 35.8849 16.6022C36.0381 16.9568 37.4054 16.3725 39.0588 15.5286C39.1782 15.4656 39.7945 14.6946 39.9204 15.1247C40.0764 14.9159 40.1655 14.7831 40.2982 14.6042C40.7071 14.5319 41.1196 14.4605 41.5275 14.3971C41.7062 14.2825 41.8884 14.168 42.0681 14.0554C42.0577 13.9651 41.9962 13.8967 42.0194 13.7912C42.8905 13.3284 44.7736 12.5818 45.4874 12.277C47.253 11.4957 49.0405 10.6102 50.551 10.3945C51.2427 10.1517 50.4959 10.2044 51.5485 9.90814C51.6912 9.95428 51.8254 9.99961 51.973 10.0478C52.7247 9.43916 52.9683 9.60661 54.17 9.38547C54.9855 9.24026 55.4888 9.03123 56.2622 8.88718C56.4582 8.85124 56.4529 8.96605 56.5855 8.93533C57.0282 8.82949 58.2822 8.44556 58.5999 8.39254C61.4815 7.88042 63.9863 7.67348 66.7715 7.64546C67.0696 7.64326 66.6807 7.54147 66.9897 7.53993C67.4871 7.53897 67.1969 7.71236 67.4846 7.71706C68.2867 7.73463 68.2937 7.55242 69.4198 7.56408C71.2707 7.59028 73.2609 7.7532 75.2632 8.03128C77.2511 8.30588 79.2313 8.69141 81.097 9.12106C81.2145 9.14775 81.2311 9.04459 81.3596 9.07315C82.1982 9.26143 83.0012 9.61239 83.7449 9.81674C84.9854 10.1602 85.9519 10.3065 87.1575 10.7183C89.5137 11.5326 91.5378 12.4489 93.8365 13.576C95.7096 14.5045 97.3118 15.3721 99.2538 16.593C107.722 21.9127 115.193 29.4651 119.785 38.5142C119.902 38.7439 119.771 38.6943 119.811 38.7618C120.192 39.4036 120.331 39.4096 120.218 39.7626C120.687 40.587 120.996 40.7722 121.462 41.8248C121.705 42.387 121.246 42.0902 121.801 42.9753C122.286 43.7824 122.08 42.7565 122.928 45.4128C122.949 45.4839 122.904 45.8861 123.143 46.4135C123.379 46.9458 123.29 46.2645 123.775 47.579C124.91 50.6746 125.728 54.7809 126.238 58.5666C126.282 58.7987 126.616 61.0909 126.682 61.5435C126.831 62.4173 126.96 62.2242 127.048 63.3757C127.11 64.2714 126.972 64.9999 127 66.047C127.003 66.1686 127.166 66.3748 127.128 67.164ZM12.8808 74.1622C13.0688 74.3443 13.6841 74.6207 13.7281 75.8597C13.733 75.9788 13.2281 75.4238 13.2895 76.1114C13.1255 75.4573 13.0046 74.8155 12.8802 74.1623C12.8804 74.1623 12.8806 74.1623 12.8808 74.1622ZM123.071 72.4128C123.209 71.4944 123.323 70.5772 123.416 69.6588C123.442 70.2998 123.457 70.9395 123.461 71.5826C123.333 71.8614 123.203 72.1365 123.071 72.4128ZM47.101 14.4696C47.1018 14.4692 47.1026 14.4689 47.1034 14.4686C46.2291 14.9079 45.3702 15.3688 44.5233 15.8521C44.5921 15.7588 44.6615 15.6654 44.7311 15.5723C45.3926 15.1684 46.0616 14.7787 46.7395 14.4025C46.8601 14.4245 46.9808 14.4468 47.101 14.4696ZM54.2617 11.487C54.8877 11.3961 54.765 11.5413 55.1253 11.5639C55.1253 11.5637 55.1252 11.5635 55.1252 11.5633C55.2203 11.5687 55.638 11.4957 55.7976 11.4643C55.7237 11.4105 55.6328 11.3616 55.5537 11.3097C56.9514 10.8119 59.8509 10.8661 56.3 11.8224C56.3348 11.7258 56.3676 11.6302 56.403 11.5336C54.6256 11.9377 52.6018 12.317 54.2617 11.487ZM17.1904 88.213C18.0875 89.5228 18.3436 89.9396 19.0396 91.7066C18.8439 91.508 18.6492 91.3071 18.456 91.1048C18.3875 90.7885 18.3225 90.4744 18.2599 90.158C18.2595 90.1572 18.2591 90.1564 18.2587 90.1557C18.1537 90.1374 18.0485 90.1188 17.9445 90.1022C17.682 89.4778 17.4291 88.8446 17.1904 88.213ZM109.23 27.92C109.106 28.6283 109.271 28.3029 108.323 27.4887C107.993 27.2094 108.211 27.5802 108.014 27.3994C106.946 26.4324 107.119 26.0893 107.491 26.1739C108.085 26.7435 108.671 27.3327 109.229 27.9181C109.229 27.9187 109.23 27.9194 109.23 27.92ZM124.087 61.8675C124.087 61.8684 124.087 61.8692 124.087 61.8701C123.952 61.917 123.872 61.3385 123.788 62.0037C123.755 61.506 123.714 61.0041 123.666 60.5021C123.693 60.6481 123.719 60.7975 123.745 60.944C123.781 60.8095 123.817 60.6744 123.852 60.5394C123.676 60.3767 123.754 60.2031 123.749 59.6724C123.596 59.8362 123.442 59.998 123.288 60.1593C123.275 59.5484 123.254 58.9401 123.221 58.3268C123.262 58.3136 123.304 58.3001 123.345 58.2868C123.259 58.0655 123.172 57.8477 123.084 57.6285C123.125 57.5591 123.166 57.4919 123.207 57.4222C123.127 57.1534 123.044 56.8852 122.959 56.6187C123.067 56.5149 123.226 57.1083 123.008 56.0456C123.192 56.3503 123.373 56.6574 123.552 56.9708C123.803 58.5966 123.981 60.2276 124.087 61.8675ZM100.619 20.5443C102.089 21.5853 101.617 21.3636 101.12 21.3398C100.956 21.0745 100.788 20.8082 100.619 20.5443ZM19.8209 37.5574C19.7202 38.1081 19.6279 38.6551 19.5343 39.21C19.1196 40.1843 18.332 40.9763 18.5749 40.2001C18.8749 39.2638 19.5223 38.474 19.8209 37.5574ZM12.4767 60.5451C12.6984 59.2545 12.7969 60.5023 12.9043 60.8029C12.6587 61.1414 12.6325 61.6357 12.5559 62.4424C12.5883 61.6832 12.4396 60.7612 12.4761 60.545C12.4763 60.545 12.4765 60.5451 12.4767 60.5451ZM33.728 21.9878C34.1349 21.6614 34.5165 21.304 34.9304 21.0783C34.9256 21.3083 34.0837 21.7364 34.7782 21.5523C34.5157 21.7557 34.2546 21.9616 33.9981 22.1685C34.0941 21.9507 33.8199 22.0576 33.7294 21.9874C33.7289 21.9875 33.7285 21.9876 33.728 21.9878ZM85.0415 12.9706C84.1349 12.459 83.9125 12.4901 82.8857 12.3608C82.7898 12.1498 84.0589 12.1923 84.8186 12.3637C84.8933 12.5656 84.9671 12.7678 85.0415 12.9706ZM111.417 100.923C111.443 101.259 110.298 102.673 109.636 103.293C109.684 103.19 109.73 103.088 109.776 102.985C110.34 102.31 110.887 101.622 111.417 100.923ZM12.5177 62.8252C12.5319 62.6907 12.5445 62.563 12.5559 62.4424C12.5498 62.5769 12.5383 62.7063 12.5177 62.8252ZM33.8726 111.083C33.3969 110.987 34.384 111.835 33.1841 110.806C33.184 110.806 33.1839 110.807 33.1837 110.807C32.3971 110.118 32.2281 109.96 31.499 109.327C31.9424 109.344 33.4959 110.512 31.4777 108.747C31.4512 108.724 31.398 108.894 31.0883 108.596C30.9929 108.504 30.7599 108.125 30.3099 107.665C30.164 107.516 29.0417 106.431 30.6143 107.864C30.6944 107.68 30.9078 107.612 31.0272 107.471C31.6754 107.978 31.9108 108.672 32.5928 109.223C33.609 110.037 34.3644 110.128 34.263 110.674C33.3139 110.119 31.857 108.914 31.8702 108.527C31.0744 107.838 30.6856 107.812 31.2496 108.468C34.1555 110.701 31.7678 109.43 34.4327 111.246C34.5044 111.214 34.6547 111.233 34.6769 111.169C35.3238 111.946 34.0407 111.121 33.8726 111.083ZM28.4378 105.638C28.9872 105.982 29.5403 106.313 30.0954 106.633C29.9344 106.805 29.5332 106.731 28.7253 106.127C28.6293 105.965 28.5323 105.8 28.4378 105.638ZM77.1345 121.314C77.2037 121.173 77.4225 121.017 77.5744 120.866C77.7833 120.983 82.2339 120.125 80.0058 120.721C79.6817 120.817 77.6337 120.979 77.1345 121.314ZM91.7134 15.3637C91.2665 15.0602 90.8189 14.7647 90.3656 14.4751C91.1363 14.7478 91.9084 15.0392 92.6709 15.3468C92.3502 15.3492 92.0324 15.3556 91.7134 15.3637ZM15.8095 45.2875C15.8973 45.0784 15.7852 45.8431 16.0882 45.003C15.9457 45.6636 15.817 46.2722 15.6977 46.9159C15.5533 47.0692 15.409 47.2259 15.2658 47.3818C15.2667 47.5426 15.2669 47.7059 15.2692 47.8664C15.1828 47.7412 15.0962 47.6259 15.0103 47.4943C15.6192 46.5468 15.4277 46.2135 15.8095 45.2875ZM35.3614 19.623C35.6739 19.725 34.4747 20.7768 35.7706 19.9041C35.6293 20.2179 35.2942 20.5636 34.5757 21.1205C34.419 21.1547 34.2627 21.1898 34.1058 21.2256C34.1981 21.38 34.0507 21.5736 33.728 21.9878C33.7275 21.9879 33.727 21.988 33.7265 21.9881C32.6543 22.8533 32.689 22.7641 32.2435 22.7488C33.4811 21.9452 33.3507 21.7173 34.0512 20.9777C34.5341 20.4712 35.2951 19.9837 35.3614 19.623ZM72.3275 121.881C73.3413 121.573 72.3986 121.457 74.2459 121.511C74.1346 121.58 74.0222 121.649 73.91 121.717C73.3846 121.78 72.8523 121.835 72.3275 121.881ZM40.1687 17.6128C39.8616 17.3135 38.8497 17.5432 39.0577 18.202C39.9381 17.8288 39.3487 17.7406 40.1687 17.6128ZM11.8816 60.0347C11.9366 59.5587 12.0111 59.2325 12.0898 59.0251C12.2741 58.5435 12.4765 58.7035 12.6004 59.0878C12.629 59.176 12.6536 59.2759 12.6732 59.3827C12.5758 59.4882 12.4787 59.5941 12.3827 59.698C12.3851 60.022 12.3904 60.345 12.3979 60.6669C12.2248 60.4583 12.0523 60.2474 11.8816 60.0347ZM70.9423 9.70756C69.5301 9.93045 72.4428 9.95347 71.4558 10.0829C70.671 10.18 69.6618 9.85398 70.0544 9.68152C70.3246 9.68575 70.6257 9.69465 70.9396 9.70743C70.9405 9.70747 70.9414 9.70752 70.9423 9.70756ZM62.8458 9.9645C63.1039 10.257 62.7653 10.1891 63.8606 10.0447C64.1701 9.9906 66.679 9.99304 65.6161 9.78113C64.7172 9.82061 63.7796 9.87976 62.8458 9.9645ZM14.0961 81.0352C13.963 81.094 13.1789 79.2925 13.2018 79.0268C13.2016 79.0268 13.2014 79.0269 13.2012 79.0269C13.2412 78.3271 13.7556 80.3048 13.8155 79.3775C14.0558 81.3356 14.8233 81.7226 14.0243 81.8152C13.6689 80.7106 13.9794 81.1945 14.0961 81.0352ZM122.65 80.0388C122.651 80.0379 122.651 80.037 122.651 80.0362C122.615 80.1625 122.142 81.1394 122.108 80.9945C122.501 79.7771 122.572 80.0264 122.642 78.8128C122.725 78.7649 122.804 78.7255 122.889 78.6722C122.82 79.1458 122.841 79.4236 122.65 80.0388ZM82.0101 120.585C81.5585 120.738 80.6811 120.794 80.1581 120.915C81.703 120.002 83.7993 119.963 82.0101 120.585ZM120.057 44.7296C120.057 44.7284 120.056 44.7272 120.055 44.7261C120.056 44.7263 120.056 44.7267 120.057 44.727C120.057 44.7278 120.057 44.7287 120.057 44.7296ZM46.1349 117.465C46.1763 117.523 46.1955 117.566 46.1959 117.596C46.1948 117.599 46.1938 117.601 46.1928 117.604C46.176 117.559 46.1574 117.513 46.1349 117.465ZM15.3559 84.8436C15.4463 85.671 14.2586 83.2323 14.0902 82.3667C14.1911 82.3997 14.2691 82.3859 14.4063 82.4917C14.3919 83.2335 15.3367 84.7116 15.3559 84.8436ZM26.8425 27.8761C25.4101 29.4452 26.7159 26.8842 27.242 27.2184C27.2465 27.2292 26.8778 27.8347 26.8425 27.8761ZM12.0495 68.5366C11.8014 68.0053 11.7753 69.0967 11.7593 67.352C11.8157 67.2495 11.8726 67.1474 11.9297 67.0454C11.9628 67.5403 12.003 68.04 12.0495 68.5366ZM17.9157 38.6644C16.7236 41.114 15.9264 43.5767 17.2115 42.2407C17.2784 42.0489 17.3481 41.8551 17.417 41.664C17.1548 41.5049 17.6226 40.8995 18.1351 39.9339C18.0984 39.7388 18.3589 39.1876 18.3231 39.0383C18.253 38.7475 17.7945 39.3019 17.9157 38.6644ZM113.602 32.1053C113.535 32.1018 113.467 32.0993 113.4 32.0957C113.099 31.7911 112.794 31.4895 112.487 31.1928C112.608 31.1848 112.729 31.1772 112.85 31.1699C113.104 31.4787 113.354 31.7887 113.601 32.103C113.602 32.1038 113.602 32.1045 113.602 32.1053ZM26.1657 104.191C26.7569 103.979 26.0942 103.445 24.7566 102.308C25.2119 102.944 25.6829 103.573 26.1657 104.191ZM50.7538 11.7169C50.8574 11.8553 50.9596 11.9936 51.0648 12.1317C51.8873 11.6947 51.6751 11.5674 51.1863 11.4917C51.0407 11.5665 50.8985 11.641 50.7538 11.7169ZM63.7816 9.09244C63.3976 9.08801 63.6026 9.20461 63.5626 9.20502C62.5882 9.21803 62.4423 9.16811 61.2729 9.40439C61.1326 9.45629 60.9953 9.51018 60.8559 9.56413C61.4413 9.83615 61.8119 9.59714 62.9847 9.68932C62.7663 9.59125 62.5477 9.4942 62.3272 9.39815C62.9725 9.35711 63.6194 9.32681 64.2618 9.30822C64.3356 9.26692 64.4097 9.22608 64.4838 9.18507C64.2516 9.15318 64.0114 9.11751 63.7816 9.09244ZM116.239 36.2526C116.556 36.7914 116.865 37.3382 117.164 37.8872C117.249 37.8651 117.333 37.842 117.418 37.8201C117.034 37.2904 116.64 36.7664 116.239 36.2526ZM36.0094 112.458C36.0672 112.462 36.1241 112.464 36.1768 112.463C36.1522 112.492 36.0911 112.485 36.0094 112.458ZM123.489 78.541C123.705 77.8633 123.874 76.8499 124.025 76.0799C123.812 76.1066 123.488 78.0604 123.197 78.7046C123.208 78.8222 123.398 78.8303 123.489 78.541ZM12.2231 57.4977C12.1451 57.306 12.0685 57.114 11.992 56.9234C12.0712 56.4988 12.1552 56.0781 12.2451 55.6491C12.1624 55.6209 12.0789 55.5928 11.9963 55.5646C11.7746 57.4775 11.6145 56.9964 11.2296 57.9106C11.5603 57.7687 11.891 57.6331 12.2231 57.4977ZM124.066 54.5373C123.727 53.1886 123.498 52.7446 123.42 53.5573C123.584 54.018 123.743 54.4851 123.896 54.9528C123.953 54.8139 124.009 54.6745 124.066 54.5373ZM59.0415 121.928C60.1642 122.009 60.1671 122.339 61.2314 122.311C61.2601 122.31 61.2895 122.309 61.3197 122.308C61.2912 122.301 61.2628 122.294 61.2343 122.288C60.6663 122.157 60.1034 122.016 59.5477 121.869C59.3805 121.89 59.209 121.909 59.0415 121.928ZM15.2422 88.9637C15.3321 89.4692 16.2241 90.0727 16.4585 91.503C16.7197 91.7438 16.9213 91.8735 17.1614 92.0693C17.1167 92.2779 17.0822 92.508 17.0372 92.7105C17.0377 92.7114 17.0381 92.7122 17.0385 92.713C17.6727 93.8079 17.4365 93.0032 17.5761 92.9618C17.6332 92.9462 17.9934 93.8115 17.9668 93.4937C17.9116 92.9519 16.9411 91.3466 17.1871 91.2191C17.3958 91.8467 18.0645 92.9448 18.046 92.5248C18.0252 92.0696 17.18 91.1518 16.9991 90.3867C17.0866 91.5674 16.2204 89.4536 16.4288 89.0793C15.6615 87.9659 16.0413 89.132 16.6417 90.3671C16.0538 89.7189 16.7038 90.7747 16.6059 91.0494C16.0905 90.335 15.0007 87.5535 15.2422 88.9637ZM24.1762 29.2623C23.592 29.9806 22.5828 31.0351 22.3773 31.6742C22.256 32.0424 23.2032 30.9496 22.7605 31.8611C23.2844 31.1353 23.3547 30.9304 23.1235 30.9448C23.2329 30.7704 23.3452 30.595 23.4574 30.4215C23.5429 30.3681 23.6296 30.3127 23.7152 30.2599C23.7274 30.1315 23.741 30.003 23.7525 29.8764C23.9012 29.7156 24.0524 29.5539 24.2031 29.3954C24.1921 29.3529 24.1964 29.2994 24.1762 29.2623ZM91.4738 117.65C91.2423 117.757 91.0124 117.861 90.7796 117.965C90.8221 117.993 90.8703 118.019 90.9172 118.046C90.9521 118.068 90.987 118.09 91.0219 118.111C90.8369 118.063 89.6413 118.353 89.2127 118.66C88.9965 118.815 89.6311 118.817 88.6231 119.254C89.3608 118.957 90.0338 118.648 90.7345 118.324C90.6982 118.415 90.6644 118.505 90.6275 118.595C90.6279 118.595 90.6284 118.595 90.6289 118.595C90.8717 118.508 91.117 118.419 91.3587 118.329C91.399 118.102 91.4361 117.876 91.4738 117.65ZM49.939 11.6449C49.1502 12.0548 48.9022 12.2236 49.3627 12.291C49.3636 12.2908 49.3645 12.2906 49.3654 12.2904C49.6396 12.0915 49.9173 11.8944 50.1954 11.7001C50.1108 11.6813 50.0262 11.6625 49.939 11.6449ZM42.0917 116.932C44.1177 117.04 40.1793 115.573 40.7489 116.18C40.7726 116.212 41.9752 116.775 42.0917 116.932ZM11.5933 60.3473C11.6321 59.8935 11.677 59.438 11.7272 58.9806C11.7331 58.927 11.7391 58.8733 11.7451 58.8196C11.6926 58.867 11.6401 58.9152 11.5877 58.9635C11.5245 59.0219 11.4614 59.0804 11.3983 59.1384C11.4588 59.5437 11.5242 59.9473 11.5933 60.3473ZM122.908 48.5765C122.966 47.9928 122.593 46.6384 122.121 46.0877C122.217 46.4325 122.31 46.7783 122.4 47.1248C122.152 46.4971 121.893 45.883 121.624 45.2615C121.314 45.343 121.774 45.9993 122.078 47.1363C122.129 47.3146 122.121 48.53 122.521 48.821C122.605 48.8793 122.265 47.6932 122.698 48.4546C122.596 48.0925 122.491 47.7864 122.384 47.4475C122.447 47.3987 122.511 47.3499 122.573 47.2985C122.69 47.7252 122.801 48.1483 122.908 48.5765ZM20.9378 33.5768C20.2068 34.6196 20.2358 34.8284 20.2794 35.17C20.577 34.6604 20.8827 34.1558 21.1957 33.6561C21.1092 33.6307 21.0248 33.6023 20.9378 33.5768ZM118.461 38.0731C118.151 37.4439 118.138 37.7955 117.97 37.5681C117.33 36.7122 117.067 36.0259 116.437 35.1845C116.504 35.2242 116.566 35.2604 116.63 35.2988C116.63 35.2981 116.629 35.2973 116.629 35.2965C113.998 31.0745 115.157 33.4529 116.791 35.9184C116.769 36.0131 116.746 36.1053 116.725 36.1994C117.518 37.263 118.206 38.281 118.461 38.0731ZM28.5909 107.372C28.6033 107.442 28.0655 107.305 28.8114 107.837C29.6038 108.04 28.6117 107.38 28.5075 107.065C28.7097 107.208 28.9153 107.353 29.1168 107.49C28.1376 106.408 27.9303 106.314 28.1062 106.895C28.1195 106.936 28.5787 107.303 28.5909 107.372ZM35.9618 113.568C36.4485 113.204 34.7928 112.372 34.7432 112.549C34.9471 112.704 35.1648 112.738 35.3614 112.929C35.5606 113.12 35.5403 113.273 35.9618 113.568ZM10.8675 68.9501C10.867 69.0039 10.6552 69.5626 10.8429 69.497C11.2476 68.8006 10.9131 67.462 10.7644 67.7014C10.7862 68.1521 10.8657 68.449 10.8669 68.9501C10.8671 68.9501 10.8673 68.9501 10.8675 68.9501ZM124.989 56.7452C125.005 56.7164 124.87 55.3584 124.743 55.2006C124.615 55.077 124.494 55.0271 124.369 54.9411C124.615 55.6585 124.782 57.1612 124.989 56.7424C124.989 56.7433 124.989 56.7442 124.989 56.7452Z" fill="white"/>
</svg>
