<svg width="137" height="137" viewBox="0 0 137 137" fill="none" xmlns="http://www.w3.org/2000/svg">
<circle cx="68.3441" cy="68.3441" r="61.3273" transform="rotate(7 68.3441 68.3441)" fill="black"/>
<path d="M117.89 46.0003C117.986 46.7961 117.105 44.3771 117.472 46.076C117.312 45.7584 117.147 45.4411 116.982 45.1275C117.059 44.9946 117.134 44.859 117.21 44.7249C117.442 45.1461 117.668 45.5699 117.89 46.0001C117.89 46.0001 117.89 46.0002 117.89 46.0003ZM119.587 46.0142C119.088 45.7263 118.442 44.4617 118.739 46.0016C118.899 46.0672 119.06 46.1364 119.219 46.2038C119.334 46.736 119.442 47.2702 119.54 47.8018C119.651 47.9647 119.761 48.1283 119.87 48.2931C119.754 48.5954 119.635 48.8939 119.513 49.1924C119.472 48.9793 119.429 48.7634 119.385 48.5506C118.932 47.8105 118.622 47.1257 118.149 46.0768C118.142 46.1893 118.135 46.3016 118.127 46.4138C117.984 45.8436 117.832 45.2752 117.67 44.7104C117.955 45.1357 118.265 45.618 118.518 46.0222C118.538 45.1965 117.82 44.0506 117.457 43.4593C116.962 42.6527 117.196 42.7746 116.822 42.1803C116.761 42.0856 116.646 42.1308 116.543 41.9362C116.033 40.9497 115.008 39.047 115.888 40.002C116.756 41.62 117.672 42.9212 118.337 44.6094C118.443 44.0367 118.951 44.853 119.587 46.0142ZM97.4851 20.9762C98.0407 21.1387 98.9461 21.8256 99.5003 22.3613C99.501 22.3618 99.5018 22.3623 99.5025 22.3628C99.6253 22.4806 99.8077 22.8769 99.3681 22.5518C98.6522 22.0261 98.481 21.5043 97.9622 21.4359C97.811 21.2842 97.6472 21.1313 97.4851 20.9762ZM95.8231 19.9681C95.3926 19.6169 95.7385 19.5201 96.2951 19.9368C96.2952 19.9366 96.2953 19.9364 96.2955 19.9363C96.5261 20.1117 95.94 19.9862 96.9252 20.3543C97.0192 20.6016 97.1159 20.8349 97.2062 21.0765C96.994 20.9436 96.7987 20.8251 96.5744 20.688C96.8636 20.5588 96.2523 20.3192 95.8231 19.9681ZM115.296 39.2661C115.048 39.3113 115.236 39.6226 115.396 40.2374C115.118 39.7298 114.831 39.2253 114.538 38.7285C114.792 38.9056 115.044 39.0833 115.296 39.2661ZM120.676 51.8282C120.676 51.8291 120.677 51.8299 120.677 51.8308C120.766 52.0043 120.855 52.1782 120.941 52.3499C120.89 52.4826 120.839 52.6135 120.788 52.7454C121.041 53.3731 121.284 54.0115 121.515 54.6532C121.248 54.6307 121.004 53.4434 120.653 52.8515C120.469 51.8819 120.468 51.3804 120.659 51.2555C120.666 51.4458 120.671 51.6358 120.676 51.8282ZM11.6861 71.8545C11.7761 72.0786 11.8673 72.2985 11.9599 72.5202C11.9637 72.2138 11.9624 71.909 11.9762 71.6009C11.6079 70.8257 11.8736 70.7303 11.8049 69.6814C11.6572 66.4733 11.1832 67.2859 11.9907 64.4144C11.8624 66.7387 12.2319 65.8565 12.4718 67.2524C12.2753 67.5447 11.8442 66.1487 11.7476 67.0938C11.9501 68.7225 12.1994 70.2767 12.4848 72.0469C12.5138 71.9917 12.543 71.9369 12.5721 71.8819C12.5271 71.599 12.4847 71.3231 12.4441 71.0415C12.5548 71.3406 12.6665 71.629 12.7837 71.9319C12.5461 71.5574 12.7471 72.5459 12.5023 72.4342C12.3924 72.3846 12.2077 71.9537 12.0876 71.6978C12.0877 72.3821 12.1067 73.0824 12.1347 73.7718C12.0104 73.4275 11.8892 73.0811 11.7715 72.7344C11.7403 72.4428 11.7123 72.1528 11.6856 71.86C11.6858 71.8582 11.6859 71.8564 11.6861 71.8545ZM117.653 90.4562C117.518 91.3346 116.853 92.7487 116.222 93.3374C116.729 92.3885 117.203 91.4324 117.653 90.4562ZM120.813 51.1411C120.802 51.2461 120.789 51.3481 120.777 51.4529C120.582 51.0638 120.382 50.6757 120.178 50.2937C120.267 50.1793 120.355 50.0625 120.441 49.945C120.569 50.341 120.694 50.7416 120.813 51.1411ZM106.712 27.94C106.939 28.1562 106.956 28.1785 107.217 28.4688C107.217 28.4684 107.216 28.468 107.216 28.4676C107.323 28.58 108.162 29.5658 107.994 29.5249C107.556 29.0575 107.083 28.5659 106.619 28.1032C106.647 28.0463 106.687 28.0007 106.712 27.94ZM111.65 33.6548C111.651 33.6556 111.651 33.6564 111.651 33.6573C111.782 33.8515 111.892 34.0452 112.032 34.2416C111.397 33.6351 111.519 33.3694 110.972 32.7951C110.422 32.2238 110.004 31.945 109.841 31.2042C110.044 31.3593 110.275 31.5159 110.488 31.6746C111.093 32.6338 111.381 32.7869 112.044 33.42C111.912 33.4982 111.782 33.5764 111.65 33.6548ZM13.0562 57.6174C12.9199 57.3743 13.1332 57.1678 13.1397 57.1439C13.1398 57.1444 13.1399 57.1449 13.1401 57.1454C13.3399 55.2448 13.179 57.4016 13.5622 55.6532C13.5501 55.9223 13.5431 56.1878 13.5358 56.4547C13.3737 56.838 13.2021 57.2356 13.0562 57.6174ZM52.145 13.9575C52.1762 14.0018 52.2106 14.0452 52.2417 14.0895C51.2055 14.3832 51.0087 14.6597 50.1056 14.7659C50.7778 14.4831 51.4576 14.2135 52.1448 13.9569C52.1449 13.9571 52.1449 13.9573 52.145 13.9575ZM102.925 24.0201C103.915 24.7059 104.619 25.2609 105.364 26.1546C105.365 26.1553 105.365 26.1561 105.366 26.1568C105.408 26.2086 105.099 26.0707 105.145 26.1492C105.331 26.2974 105.527 26.4458 105.715 26.596C105.68 26.6808 105.644 26.7645 105.609 26.8488C105.136 26.3704 104.654 25.8998 104.161 25.4361C104.203 25.5396 104.247 25.6444 104.288 25.748C103.842 25.3878 103.394 25.0376 102.938 24.6924C103.181 24.7111 103.423 24.7312 103.665 24.7515C103.422 24.5057 103.174 24.2623 102.925 24.0201ZM35.716 21.2107C35.9049 21.1474 35.6678 21.4262 35.9388 21.2967C36.2087 21.1667 36.6031 20.7751 36.5852 20.9776C36.2667 21.2176 35.9365 21.4748 35.6184 21.7266C36.8429 21.2069 37.7946 20.2976 38.0014 20.5827C36.9044 21.1761 36.0804 21.7912 35.1654 22.577C35.0374 22.3217 35.8873 21.4201 35.1117 21.6512C35.3102 21.5047 35.519 21.351 35.7141 21.2127C35.7147 21.212 35.7153 21.2113 35.716 21.2107ZM126.66 68.4521C126.628 69.2281 126.653 71.0456 126.403 72.0143C126.345 72.2549 125.752 73.0098 125.683 72.9974C125.457 72.9497 125.519 71.9772 125.269 73.0018C125.303 72.6521 125.326 72.3125 125.35 71.9661C125.191 72.0152 125.032 72.0637 124.873 72.1094C124.86 72.5296 124.843 72.9514 124.821 73.3737C124.768 73.3888 124.714 73.4038 124.661 73.4188C124.815 71.9146 124.528 72.782 124.415 71.9905C124.262 72.695 124.095 73.403 123.916 74.1012C123.977 73.6931 124.039 73.2113 124.089 72.8522C123.834 72.7781 123.805 73.6416 123.737 73.7834C123.391 74.5738 123.939 70.3957 123.536 70.0267C123.459 70.6939 123.369 71.3924 123.267 72.0655C123.237 71.8667 123.207 71.666 123.175 71.4685C123.558 69.9442 123.72 68.2084 123.859 66.3886C123.846 66.2249 123.832 66.0611 123.819 65.9004C123.701 65.9508 123.584 65.9983 123.467 66.0482C123.448 65.8027 123.428 65.5574 123.406 65.3103C123.814 66.0258 123.794 65.0188 123.959 63.7831C124.136 64.4252 124.081 65.2368 124.334 65.1723C124.066 62.9346 124.084 60.2938 123.509 58.163C123.365 57.6368 123.051 57.6973 122.844 56.4461C122.888 56.4814 122.954 56.4762 123.006 56.4946C122.423 54.3721 122.018 53.1153 121.523 50.888C121.448 51.0483 121.371 51.206 121.294 51.3651C121.488 51.8099 121.675 52.2559 121.856 52.7031C121.749 53.0704 121.553 52.6223 121.902 54.0103C122.175 55.1518 122.097 54.4521 122.226 54.7499C122.399 55.1538 122.328 55.5573 122.507 55.995C122.644 56.3348 122.73 55.9192 122.867 56.8535C122.592 56.5189 122.306 56.1836 122.021 55.858C122.021 55.6261 122.02 55.3956 122.018 55.1633C122.122 55.3757 122.224 55.5855 122.325 55.8001C122.061 55.0253 121.797 54.3006 121.49 53.5146C121.85 53.7048 121.527 52.8909 121.366 52.4483C121.115 51.7583 121.485 52.3063 121.32 51.853C121.153 51.3983 120.785 50.9679 120.567 50.1291C120.837 50.5305 120.758 49.8911 120.914 49.969C121.071 50.0468 121.376 50.923 121.236 50.0329C120.604 48.441 120.738 50.3469 120.301 49.2839C119.766 48.0178 120.359 47.4431 120.662 47.774C120.9 48.0347 121.248 49.1116 121.473 49.3843C121.042 47.3861 120.574 47.5364 120.374 47.2457C119.615 46.2013 120.746 46.6571 119.886 45.398C120.048 45.3603 120.194 45.3243 120.35 45.2896C120.223 45.0622 120.119 44.9195 119.974 44.6424C120.04 45.6139 119.759 44.9153 119.604 44.564C119.36 44.0101 119.592 44.929 119.491 44.7982C119.221 44.4451 118.985 43.8064 119.028 44.2444C119.011 44.0471 118.987 43.8342 118.966 43.6317C118.597 43.017 117.256 41.8488 118.063 43.1915C117.771 43.17 117.663 42.6645 117.521 42.2954C117.378 41.9267 117.237 42.0072 117.105 41.6865C116.573 40.4142 117.236 41.077 117.532 41.1727C116.532 39.6307 117.318 41.2385 115.932 39.0046C115.652 38.8764 116.094 40.014 115.501 39.1982C115.672 38.8846 115.496 38.1251 114.795 36.8456C114.659 36.7654 114.523 36.6865 114.386 36.6078C114.186 35.793 114.662 35.953 113.532 34.9461C114.515 35.2238 113.877 35.0103 113.31 33.7828C113.194 33.5334 113.671 33.9578 113.503 33.6127C113.427 33.4559 113.098 33.1822 112.907 32.8019C112.816 32.616 112.427 31.7024 111.913 31.2622C111.973 31.8358 110.979 31.0351 111.45 32.029C110.26 30.4583 109.217 29.5242 110.988 30.927C110.738 30.4801 110.481 30.0356 110.217 29.5941C109.928 29.3797 109.635 29.1658 109.341 28.9556C109.493 28.7437 109.592 28.7243 108.6 27.7501C109.062 28.1417 109.518 28.5397 109.971 28.949C110.023 28.9292 110.12 28.9557 110.144 28.9067C109.579 28.411 108.094 26.9311 107.678 26.6307C107.269 26.3236 107.952 27.0249 107.801 26.9699C106.553 26.51 106.905 26.2919 106.207 25.7648C105.797 25.4591 106.642 26.3319 106.427 26.1636C105.635 25.5386 105.484 25.0098 104.81 24.4158C104.942 24.7501 105.066 25.0849 105.183 25.4155C104.495 24.7847 103.706 24.1104 102.999 23.6066C102.722 23.4089 102.844 23.6666 102.796 23.6381C102.557 23.4955 101.637 22.862 101.542 22.7931C100.833 22.2578 100.914 22.1053 100.216 21.5906C100.501 21.7767 100.768 21.9547 101.044 22.1417C101.33 22.0091 101.621 21.8801 101.911 21.7508C101.235 21.2155 100.545 20.6947 99.8429 20.1894C100.312 20.6232 100.775 21.0646 101.228 21.5127C100.301 21.1091 99.3719 20.7366 98.4352 20.389C98.0871 19.9952 97.7356 19.6074 97.3748 19.222C96.1731 18.529 96.1281 19.1627 95.8081 18.4079C95.4348 18.2403 95.0604 18.0772 94.6843 17.9176C94.7688 17.8843 94.853 17.8507 94.9378 17.8178C94.4865 17.6176 94.033 17.4233 93.5763 17.2356C93.9216 17.6931 94.2418 18.1601 94.5663 18.6142C93.7062 18.2027 93.785 18.0145 93.6837 17.9002C93.4126 17.5989 92.6581 17.4246 92.4459 17.1777C92.3745 17.0915 93.2758 17.3905 93.0586 17.1027C93.0203 17.0462 92.1407 15.9531 91.3366 15.7372C91.3063 15.84 91.3091 15.9845 91.2906 16.1031C90.2768 15.7076 89.983 14.9891 90.1769 14.9015C89.5969 14.7686 88.7992 14.4567 88.6246 14.5711C88.3443 14.4643 88.0699 14.3621 87.7899 14.2604C88.2291 13.9829 87.0304 13.616 86.8333 13.9267C87.3124 14.1077 87.7883 14.2955 88.2603 14.4888C87.7382 14.765 89.1071 15.5281 86.2254 14.0535C85.7179 13.6351 87.2482 14.4479 86.8314 14.1205C86.0405 13.7314 85.238 13.5512 84.4916 13.1547C83.557 12.6706 84.8348 12.8287 82.4373 12.4204C87.3676 14.5234 81.6448 12.5278 79.163 12.2791C78.6861 11.6209 77.0259 11.0499 74.6085 10.8383C74.2954 10.811 73.9707 10.79 73.6357 10.7759C73.8032 10.8958 74.1909 10.9492 74.5884 11.0016C74.8661 11.0381 75.1475 11.0737 75.3597 11.1263C75.8743 11.2556 75.2963 11.2769 75.9326 11.4502C76.5686 11.6213 77.9133 11.9632 78.5372 12.2144C77.9671 12.1862 75.2301 11.9802 77.061 11.997C76.0852 11.7044 75.494 11.4874 74.552 11.2979C74.234 11.2347 73.8766 11.1759 73.452 11.1239C72.9194 11.3448 72.9444 11.4986 71.3125 11.3899C72.3133 11.0813 70.4533 10.6988 70.8877 10.3398C72.0648 10.5036 71.3817 10.8371 72.0409 11.0658C72.1076 11.0866 73.1994 11.0881 73.452 11.1239C72.3903 10.6778 72.011 10.5286 72.7286 10.1847C71.941 10.1503 71.4547 10.0706 71.3692 10.2569C71.2102 10.163 71.0496 10.0697 70.8919 9.97725C70.6341 9.9647 70.4021 9.96064 70.1296 9.94713C70.4917 10.2536 69.7723 10.0405 69.2542 10.1582C68.7364 10.2783 69.4231 10.5143 68.0107 10.4993C68.4804 10.5704 68.9096 10.6369 69.3571 10.7148C68.4558 10.7615 67.54 10.8303 66.6441 10.9205C67.2795 11.0813 68.6435 11.3584 68.6007 11.5933C68.1887 11.4929 66.7829 11.653 66.6318 11.6663C66.0396 11.7021 66.3592 11.549 66.3143 11.5462C65.377 11.4965 64.6056 11.5899 64.2375 11.3895C63.5401 11.5332 63.0073 11.5169 62.2602 11.5939C61.8499 11.6374 61.9467 11.7924 61.7043 11.7867C60.0965 11.7737 61.5677 11.337 58.5716 12.1968C58.9582 12.2482 59.3391 12.307 59.7234 12.3675C59.3864 12.4596 59.053 12.5548 58.7194 12.653C58.4882 12.67 58.2591 12.6878 58.0282 12.7077C57.9901 12.4638 57.9529 12.2192 57.915 11.9753C57.6606 12.0065 57.4026 12.0407 57.147 12.0758C57.5778 11.9687 58.0081 11.8672 58.4398 11.7707C58.4725 11.7212 58.5026 11.6722 58.5355 11.6228C57.8762 11.6629 57.2166 11.7142 56.5544 11.778C56.5589 11.8646 56.5637 11.9519 56.5682 12.0385C55.0931 12.2236 55.0371 12.1635 53.7261 12.7344C52.6732 13.0021 51.9264 13.5964 51.3774 13.9228C51.1501 13.9422 50.9223 13.9625 50.6925 13.9856C50.578 14.0972 50.4627 14.2093 50.3496 14.3217C50.0503 14.3155 49.7468 14.3129 49.4452 14.3127C49.3691 14.5797 49.3164 14.6638 50.3852 14.3916C50.1137 14.7674 48.2506 15.2921 47.4857 15.5013C46.9023 15.6547 47.435 15.1928 47.3552 15.1939C47.0848 15.1934 46.1951 15.6465 45.9984 15.7147C45.1602 15.9976 44.6013 16.262 43.8567 16.5548C43.7118 16.6112 43.2556 16.666 43.2203 16.6784C42.9499 16.78 42.2822 17.0343 42.2095 17.0701C38.4769 18.9392 42.6812 17.3614 39.2962 19.2034C39.4387 19.2176 39.5726 19.2365 39.7125 19.2531C39.465 19.4037 39.2161 19.5575 38.9712 19.7119C38.6211 19.8424 38.9319 19.4994 38.3652 19.9714C38.3503 19.8576 38.3359 19.7435 38.3239 19.6286C38.082 19.8445 37.8519 20.0555 37.608 20.279C36.9774 20.2417 35.3758 21.2364 35.2433 20.8164C35.1944 20.6694 36.2273 19.7854 35.5497 20.0596C35.0528 20.3636 35.4755 20.2833 35.2858 20.4253C33.9242 21.4585 33.87 21.2181 33.3461 21.6872C33.3208 21.8365 33.2928 21.9908 33.2674 22.1424C33.0403 22.2775 32.8133 22.4148 32.5857 22.555C32.5807 22.6478 32.5739 22.7422 32.5694 22.8349C32.7658 22.6852 32.9879 22.518 33.1701 22.3835C33.0712 22.7775 30.9257 24.7034 31.6262 23.8259C31.9106 23.4658 32.5798 22.9803 31.9726 23.0588C31.3957 23.5841 30.7511 24.1897 30.1693 24.7659C30.1046 24.7312 30.0411 24.6953 29.9764 24.6607C29.1818 25.4308 30.1148 24.9645 30.2104 25.0777C30.0256 25.2475 29.8397 25.4199 29.6572 25.5922C29.5337 25.6147 29.4118 25.6318 29.2858 25.6602C29.3507 25.7459 29.4125 26.019 28.8085 26.4664C28.4203 26.7562 28.781 26.036 28.1454 26.7026C28.3116 26.7735 28.684 26.6851 27.998 27.4385C27.8044 27.3875 27.5932 27.3752 27.4086 27.3035C26.6328 28.3296 26.0374 28.567 25.1847 29.817C24.6431 30.6117 24.1608 31.877 23.2586 31.943C22.813 32.4783 23.0822 32.4078 22.9852 32.5925C22.5333 33.4638 21.8581 33.859 21.7356 33.9959C20.9634 34.8647 20.7643 35.3547 20.1198 36.0596C20.2513 36.0846 20.3644 36.1257 20.4874 36.158C20.8086 35.3395 21.0591 34.9798 21.7964 34.0232C21.5785 34.3664 21.3661 34.7104 21.1565 35.0569C21.2767 35.0597 21.3963 35.0634 21.5144 35.0686C23.3793 31.8268 23.3412 32.9015 21.6643 35.4945C21.3602 35.6081 21.051 35.7335 20.748 35.8515C19.9906 37.5099 19.3392 38.0912 18.2882 39.8423C18.1633 40.0503 17.8382 40.8777 17.6699 41.2174C17.6734 41.2122 17.677 41.2069 17.6805 41.2016C17.7276 41.4917 17.9462 41.2454 18.1027 41.2849C18.0257 41.4747 17.9491 41.666 17.8747 41.8555C17.5641 42.2068 17.5439 42.0184 17.177 42.8377C17.3367 42.7804 17.4958 42.7254 17.6556 42.6699C17.2317 43.5478 16.8446 44.081 16.5324 44.9352C16.552 44.7771 16.5715 44.6207 16.5925 44.4625C15.6981 46.2383 15.6737 44.5109 15.4158 46.043C15.3231 46.1096 15.2308 46.1741 15.1383 46.2416C15.3563 45.6531 15.5844 45.0693 15.8201 44.4927C15.7461 44.4464 15.6728 44.3994 15.5978 44.3554C15.352 44.9809 15.1165 45.6151 14.8925 46.251C15.0197 45.7724 15.1542 45.2928 15.2938 44.8178C14.9496 45.5191 14.617 46.235 14.3026 46.9491C14.8946 46.2887 14.5484 47.3046 14.9149 47.227C14.1934 48.4157 13.4933 49.3366 13.1053 51.4584C13.0327 51.8813 13.2998 51.7121 12.7334 52.8031C13.1415 52.6114 12.9349 54.1031 13.3072 53.9941C13.3887 53.5883 13.4841 53.1708 13.5676 52.7795C13.3408 53.1899 13.0122 53.187 13.1 52.4877C13.2099 51.5969 13.804 50.4061 13.4526 50.3556C13.574 50.0191 13.6844 49.706 13.8058 49.3818C13.8443 49.5444 13.8849 49.704 13.9255 49.8634C14.095 48.8902 14.3493 48.3122 14.7159 47.9453C14.3644 49.0643 14.0515 50.1815 13.7709 51.3164C13.8337 51.1556 13.8979 50.993 13.9616 50.8329C13.9279 51.7417 14.3767 50.9331 13.9839 52.5152C13.8872 52.4786 13.7899 52.4438 13.6927 52.4069C13.7951 53.0509 13.4126 54.6302 13.8427 54.2C13.6347 54.653 13.5526 54.7413 13.6588 55.0461C13.1453 56.2443 12.702 57.0209 12.43 56.4941C12.3955 56.9824 12.3665 57.476 12.3459 57.9569C12.4896 57.6981 12.6347 57.4404 12.7825 57.1822C12.6262 58.0089 12.4891 58.835 12.3704 59.6668C12.063 59.7054 12.5179 58.0528 12.1854 58.498C12.1177 58.587 12.1618 59.0529 12.1159 59.1667C11.6217 60.3718 12.1294 58.442 11.8346 58.7745C11.5915 60.079 11.4279 59.7045 11.348 60.2797C11.3164 60.5233 11.3003 60.9392 11.3269 61.7195C11.2357 61.7796 11.1425 61.8451 11.0526 61.9008C10.966 62.8044 11.1647 62.7417 11.1464 63.5221C11.1365 64.0095 10.768 64.6064 10.9774 65.1536C11.0195 65.2492 11.4492 64.3697 11.3827 66.2523C11.3515 67.7219 11.0688 67.1089 10.9694 67.9072C10.8672 68.7069 11.3495 70.5149 10.9368 71.0778C10.9688 70.6562 10.9717 70.1218 11.002 69.6547C10.9051 69.4694 10.8103 69.288 10.7158 69.1032C10.8638 70.1682 10.8012 71.2728 11.0731 71.9693C10.8633 73.4204 11.3788 74.9597 11.6853 74.4853C11.5748 74.0329 11.4779 74.5528 11.5012 73.9008C11.5783 73.8252 11.6546 73.7463 11.7319 73.6712C11.8465 74.7551 11.9672 75.5127 11.6371 75.052C11.6546 75.2221 11.6726 75.3905 11.6916 75.5603C11.8824 75.5628 12.0733 75.5615 12.2641 75.5634C12.3151 75.7598 12.3671 75.9566 12.4201 76.1519C12.4149 76.3794 12.4108 76.6076 12.4083 76.8379C12.0663 76.5894 11.9537 76.0706 12.1029 77.8079C12.205 77.7937 12.3071 77.7817 12.4092 77.7674C12.5634 79.2121 12.3183 79.3013 12.7634 81.0777C12.0727 79.7964 12.5448 78.908 11.8422 79.0631C11.8146 78.7069 11.7905 78.3476 11.7698 77.9911C11.6574 77.9579 11.5451 77.9249 11.4333 77.8936C11.8249 79.7792 13.2798 82.638 13.2381 83.9747C13.3363 84.1052 13.4283 84.2379 13.5321 84.3684C13.6532 85.6372 14.4097 85.9434 14.5169 87.2417C14.5323 87.376 13.8772 87.3269 14.5152 88.8602C14.569 88.7936 14.6779 88.7261 14.753 88.6595C14.8449 89.0078 14.9375 89.3545 15.0341 89.6995C15.1231 89.7314 15.2134 89.7659 15.3029 89.797C15.0863 89.2284 14.8798 88.6576 14.6815 88.0822C14.8892 88.5434 15.1041 89.0041 15.3236 89.4583C15.1709 88.8089 15.0632 88.5349 15.3808 88.8307C15.6084 89.3512 15.8445 89.868 16.0871 90.3803C16.1535 90.4144 16.2203 90.448 16.2868 90.4818C16.2996 90.1747 16.3115 89.8682 16.3317 89.5626C16.8143 90.9501 17.3687 92.0969 17.6489 93.225C17.6988 93.4165 17.2164 92.8988 17.9794 93.984C17.9049 94.0473 17.8534 94.1154 17.7865 94.1777C18.7999 95.4655 18.9919 95.9553 19.7211 97.4889C19.2954 96.4681 19.7106 97.3571 19.9419 97.5386C20.0995 97.6632 19.6955 97.0423 19.7999 97.0759C19.9027 97.1122 20.6518 97.7685 20.2425 97.0607C18.699 95.652 18.9983 94.8369 17.5673 92.6851C17.8136 93.0054 18.0645 93.325 18.3168 93.6386C18.2729 93.4507 18.235 93.2822 18.1888 93.0795C18.7613 94.3949 18.5005 93.7466 18.859 94.2189C19.2193 94.6905 19.8181 95.5748 20.2124 96.169C20.3365 96.3564 20.1016 96.2222 20.3592 96.6603C20.5338 96.9603 21.2056 97.6495 21.1399 97.9543C21.0998 98.1565 19.9109 97.0994 21.09 98.8649C21.1961 99.2768 20.6609 98.4078 20.6361 98.3979C20.3888 98.3374 21.0139 99.502 21.4751 99.9193C21.5123 99.9526 21.3455 99.4861 21.6879 99.8796C22.5041 100.809 22.8128 101.459 23.1439 102.218C23.3897 102.138 24.2489 102.77 25.0161 103.802C25.1115 103.807 25.2053 103.808 25.3009 103.812C25.1433 103.686 24.9866 103.558 24.83 103.43C24.7231 103.236 24.6001 103.039 24.505 102.843C25.3744 103.795 25.7522 103.707 26.2472 104.085C27.9581 105.352 26.4601 105.014 26.0875 104.831C25.9487 104.586 25.8235 104.342 25.6929 104.095C25.6494 104.173 25.6059 104.253 25.5605 104.33C27.6914 106.679 25.4706 105.062 26.4612 106.358C27.0523 106.378 27.8923 107.203 28.8155 108.436C28.9392 108.55 29.0628 108.665 29.1879 108.778C29.2496 108.752 29.3121 108.684 29.3727 108.686C30.7618 109.863 30.6097 110.542 30.7007 110.706C31.1187 111.415 31.8277 111.509 32.0062 111.649C32.7657 112.239 32.8857 112.539 33.6626 113.033C34.5014 113.556 34.0336 113.054 34.3417 113.139C34.5878 113.209 35.2256 113.643 35.5411 113.746C35.3938 113.737 35.2355 113.718 35.088 113.708C35.8595 114.375 36.4999 114.925 37.4664 115.562C38.8611 115.778 39.3528 117.132 39.3449 116.249C38.4266 115.656 37.9562 115.257 37.5703 114.784C38.1837 115.143 38.8046 115.492 39.4323 115.828C39.5699 116.005 39.6567 116.15 39.8284 116.345C40.3769 116.456 41.425 117.109 41.8828 117.282C44.0187 118.079 43.5064 117.495 45.1809 118.806C43.8022 118.249 43.6922 118.471 42.3761 117.785C42.5823 118.088 43.2817 118.385 42.7474 118.362C44.0737 118.941 43.7344 118.563 44.3128 118.645C44.8103 118.715 45.7003 119.088 45.7243 118.892C45.7746 119.026 45.8061 119.148 45.8574 119.282C46.7168 119.64 47.5813 119.977 48.4555 120.292C48.046 120.259 47.6365 120.222 47.227 120.179C47.4926 120.325 47.7604 120.469 48.0295 120.612C50.2854 121.127 53.9514 122.729 53.5544 121.742C54.6261 121.986 54.7399 122.116 55.2889 122.405C55.3671 122.357 55.4412 122.318 55.5207 122.263C56.1988 122.48 56.7806 122.351 57.3844 122.527C57.9905 122.701 58.1059 122.949 58.2591 122.587C58.6377 122.763 59.0208 122.916 59.4055 123.076C59.6594 123.025 59.9124 122.974 60.1626 122.921C60.3827 122.978 60.604 123.034 60.8259 123.088C60.9781 123.125 61.1304 123.162 61.2825 123.198C61.5063 123.044 62.9843 123.273 63.6447 123.192C64.2525 123.43 64.2023 124.06 65.6911 124.01C65.6584 123.855 65.6266 123.701 65.5946 123.546C65.9299 123.591 66.2656 123.633 66.6042 123.672C66.6235 123.722 66.6402 123.773 66.6597 123.823C66.486 123.804 66.3176 123.785 66.1454 123.764C66.2926 123.853 66.437 123.941 66.5832 124.029C67.1069 123.914 67.6268 123.792 68.1437 123.663C67.4468 123.572 66.7419 123.469 66.0564 123.353C66.9248 123.265 67.5385 123.382 68.2926 123.25C68.9522 123.454 68.7141 123.579 68.4471 123.813C68.6934 123.79 68.942 123.766 69.1872 123.741C69.0298 123.972 69.4536 124.111 68.0035 124.107C68.1035 124.172 68.2059 124.234 68.304 124.301C68.5423 124.289 68.6979 124.342 68.9587 124.311C69.6683 124.227 70.2021 123.797 70.1456 123.658C70.1169 123.586 69.4236 123.752 69.448 123.646C69.5127 123.387 71.1001 123.455 68.8053 123.263C69.5565 123.084 69.7316 123.202 70.5712 123.209C70.5014 123.127 70.4338 123.046 70.3671 122.963C70.7555 122.985 71.1444 123.002 71.5327 123.015C71.017 123.494 73.9124 123.443 71.3425 124.015C72.1124 123.987 72.8853 123.942 73.6549 123.882C73.5015 123.943 73.3475 124.004 73.193 124.064C72.8429 124.073 72.4926 124.08 72.1437 124.084C72.5587 124.134 72.9789 124.179 73.3973 124.22C74.3571 124.021 74.7134 123.814 75.1265 123.566C73.9959 123.566 74.3842 123.713 73.5151 123.844C73.5331 123.719 73.4816 123.611 73.5443 123.475C74.0209 123.687 75.4604 123.32 75.7964 123.254C76.819 123.064 76.0501 123.433 76.7397 123.33C77.4301 123.225 78.2096 122.932 78.8182 123.062C78.7811 122.928 78.7084 122.796 78.644 122.68C79.6947 122.422 79.5159 122.62 79.6304 122.619C81.4544 122.573 82.3396 122.049 84.2872 121.425C84.0259 121.46 83.763 121.498 83.4997 121.533C84.892 120.806 83.9239 121.208 82.6163 121.47C83.8268 121.165 84.4378 120.708 85.2442 120.365C86.0528 120.025 87.5066 119.628 88.0543 119.517C86.9396 120.125 85.6148 120.481 84.2926 120.937C84.4866 121.024 84.6706 121.092 84.8754 121.189C85.6004 120.646 86.1281 120.67 86.4096 120.613C87.2317 120.444 87.1174 120.212 87.6833 120.292C87.631 120.211 87.5891 120.143 87.5392 120.068C89.1511 119.508 90.9166 118.911 91.7716 118.117C91.9601 118.278 92.1232 118.441 92.3294 118.598C92.9131 118.129 93.5464 118.004 94.0745 117.682C94.5974 117.361 94.3069 117.31 94.9024 116.906C95.0121 116.831 95.3098 116.798 95.5525 116.564C95.8029 116.329 96.5204 115.175 96.9263 115.569C97.4517 115.254 97.953 114.963 98.462 114.644C97.9879 114.989 97.5083 115.325 97.0255 115.654C97.5217 115.51 98.0143 115.359 98.5095 115.199C98.4992 115.064 98.4874 114.928 98.4749 114.796C99.5228 113.941 100.434 113.546 101.501 112.699C101.678 112.557 101.112 112.69 101.948 112.133C102.778 111.571 103.65 111.454 104.849 110.203C104.91 110.138 105.072 109.555 105.683 109.317C105.823 109.263 105.436 109.715 105.722 109.552C106.011 109.392 107.105 108.45 107.298 108.487C107.246 108.456 107.139 108.474 107.067 108.461C107.226 108.271 107.385 108.079 107.543 107.885C107.632 107.943 107.722 107.999 107.81 108.056C108.652 106.882 108.882 106.104 110.364 104.63C109.864 104.973 109.36 105.305 108.854 105.627C108.822 105.815 108.789 106.004 108.756 106.191C108.064 106.858 107.354 107.509 106.631 108.138C106.599 108.333 106.568 108.526 106.534 108.722C106.336 108.885 106.14 109.046 105.94 109.206C105.93 109.099 105.919 108.993 105.91 108.884C105.552 109.24 105.19 109.592 104.826 109.937C105.263 108.893 106.961 108.05 106.571 107.828C106.779 107.72 106.988 107.611 107.196 107.501C107.122 107.284 107.492 107.009 108.08 106.453C107.877 106.514 107.663 106.589 107.471 106.636C108.127 106.185 109.07 105.164 109.649 104.593C109.904 104.343 109.779 104.709 109.863 104.641C110.298 104.295 110.774 103.332 110.927 103.178C111.849 102.258 112.772 101.889 113.357 100.542C112.416 101.677 112.919 101.053 112.46 101.36C112.316 101.457 111.065 102.876 112.552 101.036C112.754 100.848 115.477 97.4876 114.894 98.803C115.216 98.1722 115.432 97.6574 115.695 97.0677C117.107 96.0905 116.263 96.216 115.723 96.4189C115.855 96.2 115.977 95.9897 116.111 95.7631C116.156 96.4439 117.613 93.9729 117.87 93.0102C117.962 92.6927 117.44 93.444 117.732 92.7515C117.917 92.4472 118.128 92.1011 118.319 91.775C117.867 92.1609 118.251 91.1591 118.023 91.0691C118.508 90.5492 119.14 90.2533 119.21 90.702C119.355 90.1407 119.491 89.5791 119.618 89.0165C119.463 89.2372 119.306 89.4596 119.149 89.677C120.043 88.0408 120.514 85.6859 121.114 85.4794C121.191 85.2437 121.266 85.0082 121.339 84.7734C121.281 84.6745 121.221 84.5783 121.163 84.4799C121.573 83.4495 121.955 82.3987 122.304 81.343C122.105 82.3138 122.16 82.5754 121.767 83.5486C121.978 83.1928 122.188 82.8237 122.389 82.4698C122.538 80.8851 122.443 80.634 123 78.3524C123.031 78.2529 123.572 76.5302 123.596 76.4745C123.74 76.2146 123.813 76.6573 123.883 76.5425C124.088 76.2308 124.732 74.1652 124.772 74.207C125.461 74.8176 124.131 81.9889 123.473 83.8547C118.028 103.716 101.102 119.006 81.4124 123.742C81.2097 123.792 81.3209 123.865 81.2351 123.89C80.7006 124.043 80.1404 124.011 79.9397 124.048C79.511 124.126 79.7745 124.213 79.4621 124.278C76.2305 124.939 73.118 125.229 69.829 125.374C69.6138 125.382 69.8296 125.264 69.4528 125.296C69.2603 125.313 68.6567 125.497 68.2162 125.503C66.6748 125.521 65.3944 125.43 63.7722 125.325C62.8917 125.269 61.5783 125.132 60.5899 125.011C60.5879 125.01 60.5858 125.01 60.5838 125.01C60.1476 124.958 59.6842 124.974 59.2554 124.914C58.6476 124.828 58.7964 124.689 58.7048 124.665C58.3043 124.558 58.2202 124.721 57.8347 124.651C57.1166 124.517 57.0947 124.398 56.1845 124.228C55.5347 124.11 54.0355 123.868 53.2173 123.682C51.3594 123.078 48.9954 122.387 47.271 121.783C46.2527 121.427 46.221 121.233 45.8123 121.07C44.3779 120.489 43.2207 120.194 41.9052 119.557C40.164 118.707 38.7294 117.753 37.1407 116.763C36.8836 116.602 36.8641 116.766 36.6094 116.61C35.6661 116.036 34.4772 115.264 33.6919 114.671C32.8143 114.008 32.6223 113.593 31.7531 112.97C31.4989 112.786 31.3079 112.878 30.882 112.564C30.2015 112.061 29.6087 111.334 29.1816 110.931C28.597 110.377 28.9881 110.99 28.2009 110.239C28.1687 110.208 28.1424 109.997 27.9677 109.843C27.4608 109.391 27.4322 109.519 26.7274 108.815C26.6572 108.749 25.8236 107.72 25.7366 107.623C25.1996 107.07 24.1912 105.891 23.874 105.564C22.7359 104.395 23.4059 105.502 22.8634 104.153C22.3914 103.753 21.9261 103.35 21.4448 102.902C21.7848 103.184 20.8376 101.703 20.7634 101.606C20.1057 100.826 20.3126 101.424 19.595 100.346C20.8998 101.517 18.6868 98.9493 18.2952 98.2995C16.323 95.2513 14.9027 92.2537 13.5373 88.8788C13.0796 87.7503 12.4402 86.2371 12.0512 85.0063C11.9597 84.7194 12.1199 84.9072 12.0421 84.6541C11.9646 84.4016 11.9492 84.7136 11.8651 84.4235C11.3477 82.611 11.1805 81.1453 10.5672 79.5214C10.5854 79.4318 10.6142 79.4284 10.6248 79.2846C10.0932 77.9526 9.96888 75.2179 9.90477 74.2078C9.78737 72.6271 9.60653 72.2268 9.55594 71.0771C9.48486 69.5471 9.76808 67.2556 9.28621 68.2853C9.25265 67.2395 9.25776 66.215 9.34144 65.1641C9.35095 65.0466 9.47375 65.1323 9.47808 65.0854C9.50749 64.7884 9.39948 64.6863 9.40374 64.4842C9.41713 63.9363 9.50639 64.8357 9.50922 64.054C9.51368 63.6432 9.42275 63.3956 9.51434 62.2611C9.57464 61.5424 9.64939 60.8156 9.73925 60.0821C10.4866 53.8401 12.4041 47.3725 15.2027 41.6871C15.417 41.2517 15.1658 41.4841 15.4448 40.9424C16.3975 39.0394 18.5125 35.8953 19.5399 34.3915C20.5536 32.8807 20.1798 33.1159 20.7986 32.1496C20.9197 31.964 20.8919 32.1698 21.0134 32.0112C21.8276 30.943 22.9669 29.8039 23.6971 29.0053C24.1815 28.4758 24.0254 28.4139 24.3507 28.0351C24.8376 27.4715 25.4808 27.0283 25.7596 26.748C27.0715 25.4308 27.9137 24.4563 29.2626 23.3557C29.1883 23.3741 29.1331 23.3794 29.067 23.3915C30.6176 22.033 32.2373 20.758 33.9218 19.5701C33.8239 19.6001 33.7286 19.6284 33.6305 19.6586C35.6215 18.2778 35.604 18.7513 35.0145 18.2519C35.1475 18.1319 35.2878 18.0031 35.4167 17.8903C35.5698 18.2449 36.9371 17.6606 38.5905 16.8167C38.71 16.7536 39.3263 15.9826 39.4522 16.4128C39.6081 16.204 39.6973 16.0712 39.83 15.8923C40.2389 15.82 40.6513 15.7486 41.0593 15.6852C41.2379 15.5706 41.4202 15.4561 41.5998 15.3435C41.5894 15.2531 41.5279 15.1848 41.5511 15.0793C42.4222 14.6165 44.3053 13.8699 45.0191 13.565C46.7848 12.7837 48.5722 11.8983 50.0828 11.6826C50.7744 11.4397 50.0276 11.4924 51.0803 11.1962C51.2229 11.2424 51.3571 11.2877 51.5048 11.3359C52.2565 10.7273 52.5001 10.8947 53.7018 10.6736C54.5173 10.5283 55.0206 10.3193 55.794 10.1753C55.9899 10.1393 55.9847 10.2541 56.1172 10.2234C56.56 10.1176 57.8139 9.73365 58.1316 9.68063C61.0133 9.16851 63.518 8.96156 66.3033 8.93355C66.6013 8.93135 66.2124 8.82956 66.5214 8.82801C67.0188 8.82705 66.7287 9.00045 67.0163 9.00515C67.8185 9.02272 67.8254 8.8405 68.9516 8.85217C70.8025 8.87837 72.7927 9.04129 74.795 9.31937C76.7828 9.59397 78.7631 9.97949 80.6288 10.4091C80.7462 10.4358 80.7628 10.3327 80.8913 10.3612C81.73 10.5495 82.5329 10.9005 83.2766 11.1048C84.5172 11.4483 85.4836 11.5946 86.6892 12.0064C89.0455 12.8207 91.0696 13.737 93.3683 14.8641C95.2414 15.7926 96.8435 16.6602 98.7856 17.8811C107.254 23.2008 114.725 30.7532 119.317 39.8023C119.433 40.032 119.303 39.9824 119.343 40.0499C119.724 40.6916 119.863 40.6977 119.75 41.0507C120.218 41.8751 120.528 42.0603 120.994 43.1128C121.237 43.6751 120.778 43.3783 121.332 44.2633C121.818 45.0705 121.612 44.0446 122.46 46.7009C122.481 46.7719 122.436 47.1742 122.675 47.7016C122.911 48.2339 122.822 47.5526 123.307 48.8671C124.442 51.9627 125.26 56.069 125.77 59.8547C125.814 60.0868 126.148 62.3789 126.214 62.8316C126.363 63.7054 126.492 63.5122 126.58 64.6638C126.642 65.5595 126.503 66.288 126.532 67.3351C126.535 67.4567 126.698 67.6629 126.66 68.4521ZM12.4126 75.4503C12.6005 75.6324 13.2159 75.9088 13.2599 77.1478C13.2647 77.2669 12.7598 76.7119 12.8212 77.3995C12.6572 76.7454 12.5364 76.1036 12.412 75.4504C12.4122 75.4504 12.4124 75.4503 12.4126 75.4503ZM122.603 73.7009C122.741 72.7825 122.855 71.8652 122.947 70.9469C122.973 71.5879 122.988 72.2275 122.993 72.8707C122.865 73.1495 122.735 73.4246 122.603 73.7009ZM46.6327 15.7577C46.6335 15.7573 46.6344 15.757 46.6352 15.7567C45.7609 16.196 44.9019 16.6569 44.055 17.1402C44.1239 17.0469 44.1932 16.9534 44.2629 16.8604C44.9243 16.4565 45.5933 16.0668 46.2712 15.6906C46.3918 15.7126 46.5125 15.7349 46.6327 15.7577ZM53.7935 12.7751C54.4194 12.6841 54.2967 12.8294 54.6571 12.852C54.657 12.8518 54.657 12.8516 54.6569 12.8514C54.752 12.8568 55.1698 12.7838 55.3293 12.7524C55.2555 12.6985 55.1645 12.6497 55.0854 12.5978C56.4831 12.1 59.3827 12.1542 55.8317 13.1105C55.8666 13.0139 55.8994 12.9183 55.9347 12.8217C54.1574 13.2258 52.1335 13.6051 53.7935 12.7751ZM16.7222 89.5011C17.6192 90.8109 17.8753 91.2277 18.5714 92.9947C18.3757 92.7961 18.181 92.5952 17.9877 92.3929C17.9193 92.0766 17.8543 91.7625 17.7917 91.4461C17.7913 91.4453 17.7909 91.4445 17.7905 91.4437C17.6855 91.4255 17.5802 91.4069 17.4763 91.3903C17.2137 90.7659 16.9608 90.1327 16.7222 89.5011ZM108.762 29.2081C108.638 29.9163 108.803 29.591 107.854 28.7768C107.525 28.4975 107.743 28.8683 107.546 28.6875C106.478 27.7205 106.651 27.3774 107.023 27.462C107.617 28.0316 108.203 28.6208 108.76 29.2062C108.761 29.2068 108.761 29.2075 108.762 29.2081ZM123.619 63.1556C123.619 63.1565 123.619 63.1573 123.619 63.1582C123.483 63.2051 123.404 62.6265 123.32 63.2918C123.286 62.7941 123.246 62.2922 123.198 61.7902C123.225 61.9362 123.251 62.0856 123.277 62.2321C123.313 62.0976 123.349 61.9625 123.384 61.8275C123.208 61.6648 123.286 61.4912 123.281 60.9605C123.128 61.1242 122.974 61.2861 122.819 61.4474C122.807 60.8365 122.785 60.2282 122.752 59.6149C122.794 59.6017 122.836 59.5882 122.877 59.5749C122.791 59.3536 122.704 59.1358 122.616 58.9166C122.657 58.8472 122.698 58.78 122.739 58.7103C122.659 58.4415 122.576 58.1733 122.491 57.9068C122.598 57.803 122.757 58.3964 122.54 57.3337C122.724 57.6384 122.905 57.9455 123.084 58.2588C123.335 59.8847 123.513 61.5157 123.619 63.1556ZM100.15 21.8324C101.62 22.8734 101.149 22.6516 100.651 22.6279C100.488 22.3626 100.319 22.0963 100.15 21.8324ZM19.3527 38.8455C19.2519 39.3962 19.1596 39.9432 19.066 40.4981C18.6514 41.4724 17.8637 42.2644 18.1066 41.4882C18.4066 40.5519 19.054 39.762 19.3527 38.8455ZM12.0084 61.8332C12.2302 60.5426 12.3286 61.7903 12.4361 62.091C12.1905 62.4295 12.1642 62.9238 12.0876 63.7305C12.12 62.9713 11.9713 62.0492 12.0078 61.8331C12.008 61.8331 12.0082 61.8332 12.0084 61.8332ZM33.2597 23.2758C33.6666 22.9495 34.0482 22.5921 34.4621 22.3664C34.4574 22.5964 33.6155 23.0245 34.3099 22.8404C34.0474 23.0438 33.7864 23.2497 33.5299 23.4566C33.6258 23.2388 33.3516 23.3457 33.2611 23.2755C33.2607 23.2756 33.2602 23.2757 33.2597 23.2758ZM84.5732 14.2587C83.6667 13.7471 83.4442 13.7782 82.4174 13.6489C82.3216 13.4379 83.5906 13.4804 84.3504 13.6518C84.4251 13.8537 84.4989 14.0559 84.5732 14.2587ZM110.949 102.211C110.974 102.547 109.83 103.961 109.168 104.581C109.215 104.479 109.262 104.376 109.308 104.273C109.872 103.598 110.419 102.91 110.949 102.211ZM12.0494 64.1133C12.0636 63.9788 12.0762 63.8511 12.0876 63.7305C12.0815 63.865 12.07 63.9944 12.0494 64.1133ZM33.4043 112.371C32.9287 112.275 33.9158 113.123 32.7158 112.094C32.7157 112.095 32.7156 112.095 32.7155 112.095C31.9289 111.406 31.7598 111.248 31.0307 110.615C31.4741 110.632 33.0277 111.8 31.0094 110.035C30.9829 110.012 30.9297 110.182 30.62 109.884C30.5246 109.792 30.2917 109.413 29.8417 108.953C29.6958 108.804 28.5735 107.719 30.146 109.152C30.2261 108.968 30.4396 108.9 30.5589 108.759C31.2071 109.266 31.4426 109.96 32.1246 110.511C33.1407 111.326 33.8961 111.416 33.7947 111.962C32.8457 111.407 31.3888 110.202 31.4019 109.815C30.6061 109.126 30.2174 109.1 30.7813 109.756C33.6872 111.989 31.2995 110.718 33.9644 112.534C34.0361 112.502 34.1864 112.521 34.2087 112.457C34.8555 113.234 33.5725 112.409 33.4043 112.371ZM27.9696 106.926C28.5189 107.27 29.0721 107.601 29.6272 107.921C29.4661 108.093 29.0649 108.019 28.2571 107.415C28.161 107.253 28.064 107.088 27.9696 106.926ZM76.6662 122.602C76.7354 122.461 76.9543 122.305 77.1062 122.155C77.315 122.271 81.7656 121.413 79.5376 122.01C79.2134 122.105 77.1654 122.267 76.6662 122.602ZM91.2451 16.6518C90.7982 16.3483 90.3506 16.0528 89.8973 15.7632C90.6681 16.0358 91.4402 16.3273 92.2026 16.6348C91.882 16.6373 91.5641 16.6437 91.2451 16.6518ZM15.3412 46.5755C15.4291 46.3665 15.317 47.1311 15.6199 46.2911C15.4775 46.9517 15.3487 47.5603 15.2295 48.204C15.085 48.3573 14.9408 48.5139 14.7975 48.6699C14.7984 48.8306 14.7987 48.994 14.801 49.1545C14.7146 49.0293 14.628 48.914 14.542 48.7824C15.151 47.8348 14.9594 47.5016 15.3412 46.5755ZM34.8931 20.9111C35.2056 21.0131 34.0065 22.0649 35.3023 21.1922C35.1611 21.506 34.8259 21.8517 34.1075 22.4086C33.9507 22.4427 33.7944 22.4779 33.6375 22.5137C33.7299 22.6681 33.5824 22.8617 33.2597 23.2758C33.2592 23.276 33.2588 23.2761 33.2583 23.2762C32.186 24.1414 32.2208 24.0521 31.7753 24.0369C33.0128 23.2333 32.8824 23.0054 33.5829 22.2657C34.0658 21.7593 34.8269 21.2718 34.8931 20.9111ZM71.8592 123.169C72.873 122.861 71.9304 122.745 73.7776 122.799C73.6663 122.868 73.5539 122.937 73.4417 123.005C72.9163 123.068 72.384 123.123 71.8592 123.169ZM39.7004 18.9009C39.3934 18.6016 38.3814 18.8313 38.5895 19.4901C39.4699 19.1169 38.8805 19.0287 39.7004 18.9009ZM11.4133 61.3228C11.4683 60.8468 11.5428 60.5205 11.6215 60.3132C11.8059 59.8315 12.0082 59.9916 12.1322 60.3759C12.1607 60.464 12.1853 60.5639 12.2049 60.6708C12.1076 60.7763 12.0104 60.8821 11.9144 60.9861C11.9168 61.3101 11.9221 61.6331 11.9296 61.955C11.7565 61.7464 11.5841 61.5355 11.4133 61.3228ZM70.474 10.9956C69.0618 11.2185 71.9745 11.2416 70.9875 11.3709C70.2027 11.4681 69.1935 11.1421 69.5862 10.9696C69.8563 10.9738 70.1574 10.9827 70.4713 10.9955C70.4722 10.9956 70.4731 10.9956 70.474 10.9956ZM62.3776 11.2526C62.6356 11.5451 62.2971 11.4772 63.3924 11.3327C63.7018 11.2787 66.2107 11.2811 65.1478 11.0692C64.2489 11.1087 63.3113 11.1678 62.3776 11.2526ZM13.6278 82.3233C13.4948 82.3821 12.7106 80.5806 12.7336 80.3149C12.7334 80.3149 12.7332 80.315 12.733 80.315C12.773 79.6151 13.2874 81.5929 13.3472 80.6655C13.5875 82.6237 14.355 83.0107 13.556 83.1033C13.2007 81.9987 13.5111 82.4826 13.6278 82.3233ZM122.182 81.3269C122.182 81.326 122.183 81.3251 122.183 81.3243C122.146 81.4506 121.674 82.4275 121.64 82.2826C122.032 81.0652 122.103 81.3145 122.174 80.1009C122.257 80.053 122.336 80.0136 122.42 79.9603C122.352 80.4339 122.372 80.7117 122.182 81.3269ZM81.5418 121.873C81.0902 122.026 80.2128 122.082 79.6898 122.203C81.2348 121.29 83.331 121.251 81.5418 121.873ZM119.589 46.0177C119.588 46.0165 119.588 46.0153 119.587 46.0142C119.588 46.0144 119.588 46.0148 119.588 46.0151C119.589 46.0159 119.589 46.0168 119.589 46.0177ZM45.6666 118.753C45.7081 118.811 45.7272 118.854 45.7276 118.884C45.7266 118.887 45.7255 118.889 45.7245 118.892C45.7077 118.847 45.6891 118.801 45.6666 118.753ZM14.8876 86.1317C14.9781 86.9591 13.7903 84.5204 13.6219 83.6548C13.7228 83.6877 13.8009 83.6739 13.938 83.7798C13.9236 84.5216 14.8684 85.9997 14.8876 86.1317ZM26.3742 29.1641C24.9419 30.7333 26.2476 28.1723 26.7737 28.5065C26.7782 28.5173 26.4095 29.1228 26.3742 29.1641ZM11.5813 69.8247C11.3332 69.2934 11.307 70.3848 11.291 68.6401C11.3475 68.5376 11.4044 68.4354 11.4614 68.3335C11.4946 68.8284 11.5348 69.3281 11.5813 69.8247ZM17.4475 39.9525C16.2553 42.4021 15.4582 44.8648 16.7433 43.5288C16.8101 43.3369 16.8798 43.1432 16.9488 42.9521C16.6865 42.793 17.1543 42.1876 17.6668 41.222C17.6302 41.0269 17.8906 40.4757 17.8548 40.3263C17.7847 40.0356 17.3263 40.59 17.4475 39.9525ZM113.134 33.3934C113.066 33.3899 112.999 33.3874 112.932 33.3837C112.63 33.0792 112.326 32.7776 112.018 32.4809C112.139 32.4729 112.261 32.4653 112.382 32.458C112.636 32.7668 112.885 33.0768 113.133 33.391C113.133 33.3918 113.134 33.3926 113.134 33.3934ZM25.6974 105.479C26.2886 105.267 25.626 104.733 24.2883 103.596C24.7437 104.232 25.2147 104.861 25.6974 105.479ZM50.2856 13.005C50.3892 13.1434 50.4914 13.2817 50.5965 13.4197C51.419 12.9828 51.2069 12.8554 50.7181 12.7798C50.5724 12.8546 50.4303 12.9291 50.2856 13.005ZM63.3134 10.3805C62.9294 10.3761 63.1343 10.4927 63.0943 10.4931C62.1199 10.5061 61.974 10.4562 60.8046 10.6925C60.6643 10.7444 60.527 10.7983 60.3876 10.8522C60.973 11.1242 61.3436 10.8852 62.5165 10.9774C62.2981 10.8793 62.0794 10.7823 61.8589 10.6862C62.5043 10.6452 63.1512 10.6149 63.7935 10.5963C63.8673 10.555 63.9414 10.5142 64.0155 10.4732C63.7834 10.4413 63.5432 10.4056 63.3134 10.3805ZM115.771 37.5407C116.088 38.0795 116.397 38.6263 116.696 39.1753C116.78 39.1532 116.865 39.1301 116.95 39.1082C116.565 38.5785 116.171 38.0545 115.771 37.5407ZM35.5411 113.746C35.5989 113.75 35.6558 113.752 35.7085 113.751C35.6839 113.78 35.6228 113.773 35.5411 113.746ZM123.021 79.8291C123.237 79.1513 123.406 78.138 123.556 77.368C123.344 77.3947 123.02 79.3484 122.729 79.9927C122.74 80.1103 122.93 80.1184 123.021 79.8291ZM11.7549 58.7858C11.6769 58.5941 11.6003 58.402 11.5238 58.2115C11.603 57.7869 11.687 57.3662 11.7769 56.9372C11.6941 56.909 11.6107 56.8809 11.528 56.8527C11.3063 58.7656 11.1463 58.2844 10.7613 59.1987C11.092 59.0568 11.4228 58.9212 11.7549 58.7858ZM123.598 55.8253C123.259 54.4767 123.03 54.0326 122.952 54.8453C123.116 55.3061 123.275 55.7732 123.427 56.2409C123.485 56.102 123.541 55.9625 123.598 55.8253ZM58.5733 123.216C59.6959 123.297 59.6989 123.627 60.7632 123.599C60.7918 123.598 60.8212 123.597 60.8515 123.596C60.823 123.589 60.7945 123.583 60.766 123.576C60.198 123.445 59.6352 123.305 59.0794 123.158C58.9122 123.178 58.7407 123.197 58.5733 123.216ZM14.7739 90.2518C14.8638 90.7572 15.7559 91.3608 15.9903 92.791C16.2515 93.0319 16.453 93.1616 16.6931 93.3574C16.6484 93.566 16.6139 93.796 16.569 93.9986C16.5694 93.9995 16.5698 94.0003 16.5703 94.0011C17.2044 95.0959 16.9682 94.2912 17.1079 94.2499C17.1649 94.2343 17.5251 95.0995 17.4986 94.7818C17.4433 94.24 16.4728 92.6347 16.7188 92.5072C16.9275 93.1348 17.5963 94.2328 17.5778 93.8129C17.557 93.3576 16.7117 92.4399 16.5308 91.6748C16.6183 92.8555 15.7521 90.7417 15.9605 90.3674C15.1932 89.254 15.5731 90.4201 16.1735 91.6552C15.5855 91.007 16.2356 92.0628 16.1377 92.3375C15.6222 91.6231 14.5324 88.8416 14.7739 90.2518ZM23.7079 30.5504C23.1237 31.2687 22.1145 32.3232 21.909 32.9623C21.7877 33.3305 22.7349 32.2377 22.2922 33.1492C22.8162 32.4234 22.8865 32.2185 22.6552 32.2329C22.7647 32.0585 22.877 31.8831 22.9892 31.7096C23.0746 31.6562 23.1614 31.6008 23.247 31.548C23.2592 31.4196 23.2727 31.291 23.2842 31.1645C23.4329 31.0037 23.5841 30.842 23.7349 30.6835C23.7239 30.6409 23.7281 30.5874 23.7079 30.5504ZM91.0056 118.938C90.774 119.045 90.5441 119.149 90.3113 119.253C90.3538 119.281 90.402 119.307 90.4489 119.334C90.4838 119.356 90.5187 119.378 90.5537 119.4C90.3686 119.351 89.1731 119.641 88.7444 119.948C88.5282 120.103 89.1629 120.105 88.1548 120.542C88.8925 120.245 89.5656 119.936 90.2662 119.612C90.2299 119.703 90.1961 119.793 90.1592 119.883C90.1597 119.883 90.1602 119.883 90.1606 119.883C90.4034 119.796 90.6488 119.707 90.8905 119.617C90.9308 119.39 90.9679 119.165 91.0056 118.938ZM49.4707 12.933C48.6819 13.3429 48.4339 13.5117 48.8945 13.5791C48.8954 13.5789 48.8963 13.5787 48.8971 13.5785C49.1714 13.3796 49.449 13.1825 49.7272 12.9882C49.6426 12.9694 49.558 12.9506 49.4707 12.933ZM41.6234 118.221C43.6495 118.328 39.711 116.861 40.2806 117.468C40.3044 117.5 41.507 118.063 41.6234 118.221ZM11.1251 61.6354C11.1639 61.1815 11.2087 60.7261 11.2589 60.2687C11.2648 60.215 11.2708 60.1614 11.2768 60.1077C11.2243 60.1551 11.1719 60.2032 11.1195 60.2516C11.0562 60.3099 10.9931 60.3685 10.93 60.4265C10.9906 60.8318 11.0559 61.2354 11.1251 61.6354ZM122.439 49.8646C122.498 49.2808 122.125 47.9265 121.653 47.3757C121.749 47.7206 121.842 48.0664 121.932 48.4129C121.684 47.7851 121.425 47.1711 121.155 46.5496C120.845 46.631 121.306 47.2874 121.61 48.4244C121.661 48.6027 121.653 49.8181 122.052 50.1091C122.137 50.1674 121.797 48.9813 122.23 49.7426C122.128 49.3806 122.023 49.0745 121.916 48.7356C121.979 48.6867 122.042 48.638 122.105 48.5866C122.222 49.0133 122.332 49.4364 122.439 49.8646ZM20.4695 34.8649C19.7385 35.9077 19.7676 36.1165 19.8112 36.4581C20.1087 35.9485 20.4145 35.4439 20.7275 34.9442C20.641 34.9188 20.5565 34.8904 20.4695 34.8649ZM117.992 39.3612C117.683 38.732 117.67 39.0835 117.502 38.8562C116.861 38.0003 116.599 37.314 115.969 36.4725C116.036 36.5122 116.098 36.5485 116.162 36.5869C116.162 36.5862 116.161 36.5854 116.161 36.5846C113.53 32.3626 114.689 34.741 116.322 37.2065C116.301 37.3012 116.278 37.3934 116.257 37.4875C117.05 38.5511 117.738 39.5691 117.992 39.3612ZM28.1226 108.66C28.135 108.73 27.5972 108.593 28.3431 109.125C29.1356 109.328 28.1434 108.668 28.0392 108.353C28.2414 108.496 28.447 108.641 28.6486 108.778C27.6694 107.696 27.4621 107.602 27.638 108.183C27.6512 108.224 28.1104 108.591 28.1226 108.66ZM35.4935 114.856C35.9803 114.492 34.3246 113.66 34.2749 113.837C34.4788 113.992 34.6965 114.026 34.8932 114.217C35.0924 114.408 35.0721 114.561 35.4935 114.856ZM10.3992 70.2382C10.3987 70.292 10.1869 70.8507 10.3746 70.7851C10.7794 70.0887 10.4448 68.7501 10.2962 68.9895C10.3179 69.4402 10.3974 69.7371 10.3986 70.2382C10.3988 70.2382 10.399 70.2382 10.3992 70.2382ZM124.521 58.0332C124.537 58.0045 124.401 56.6465 124.275 56.4887C124.147 56.365 124.025 56.3152 123.901 56.2292C124.147 56.9466 124.314 58.4493 124.521 58.0305C124.521 58.0314 124.521 58.0323 124.521 58.0332Z" fill="white"/>
</svg>
