<svg width="137" height="137" viewBox="0 0 137 137" fill="none" xmlns="http://www.w3.org/2000/svg">
<circle cx="68.3441" cy="68.3441" r="61.3273" transform="rotate(7 68.3441 68.3441)" fill="black"/>
<path d="M117.153 49.1688C117.249 49.9646 116.369 47.5456 116.735 49.2444C116.575 48.9269 116.411 48.6095 116.245 48.296C116.322 48.163 116.397 48.0275 116.473 47.8934C116.705 48.3145 116.931 48.7383 117.153 49.1685C117.153 49.1686 117.153 49.1687 117.153 49.1688ZM118.85 49.1826C118.351 48.8947 117.706 47.6301 118.003 49.1701C118.162 49.2356 118.323 49.3048 118.482 49.3722C118.597 49.9045 118.705 50.4387 118.804 50.9702C118.914 51.1331 119.024 51.2967 119.133 51.4615C119.017 51.7639 118.898 52.0624 118.777 52.3608C118.735 52.1477 118.692 51.9318 118.648 51.719C118.196 50.979 117.886 50.2942 117.413 49.2453C117.405 49.3577 117.398 49.4701 117.39 49.5823C117.247 49.0121 117.095 48.4436 116.934 47.8789C117.218 48.3042 117.528 48.7865 117.781 49.1907C117.801 48.365 117.084 47.2191 116.72 46.6278C116.225 45.8212 116.459 45.9431 116.085 45.3488C116.025 45.2541 115.909 45.2992 115.806 45.1046C115.296 44.1182 114.271 42.2154 115.151 43.1704C116.019 44.7885 116.935 46.0896 117.6 47.7778C117.706 47.2051 118.214 48.0214 118.85 49.1826ZM96.7482 24.1446C97.3038 24.3071 98.2092 24.994 98.7635 25.5297C98.7642 25.5302 98.765 25.5308 98.7657 25.5313C98.8885 25.6491 99.0709 26.0454 98.6313 25.7203C97.9154 25.1946 97.7442 24.6728 97.2253 24.6044C97.0741 24.4527 96.9104 24.2998 96.7482 24.1446ZM95.0863 23.1366C94.6558 22.7853 95.0017 22.6885 95.5583 23.1052C95.5584 23.1051 95.5585 23.1049 95.5586 23.1047C95.7893 23.2801 95.2032 23.1547 96.1883 23.5228C96.2823 23.77 96.3791 24.0034 96.4694 24.245C96.2572 24.1121 96.0618 23.9936 95.8376 23.8564C96.1268 23.7272 95.5155 23.4877 95.0863 23.1366ZM114.56 42.4345C114.311 42.4797 114.5 42.7911 114.66 43.4059C114.381 42.8983 114.094 42.3938 113.801 41.897C114.055 42.0741 114.307 42.2518 114.56 42.4345ZM119.939 54.9967C119.94 54.9975 119.94 54.9984 119.94 54.9992C120.029 55.1727 120.118 55.3467 120.204 55.5184C120.153 55.651 120.102 55.7819 120.051 55.9138C120.304 56.5416 120.547 57.18 120.779 57.8217C120.511 57.7991 120.268 56.6119 119.916 56.0199C119.732 55.0503 119.731 54.5489 119.923 54.4239C119.929 54.6143 119.934 54.8042 119.939 54.9967ZM10.9493 75.023C11.0393 75.2471 11.1305 75.467 11.2231 75.6886C11.2269 75.3822 11.2256 75.0774 11.2394 74.7694C10.8711 73.9942 11.1368 73.8987 11.0681 72.8498C10.9204 69.6418 10.4463 70.4544 11.2539 67.5829C11.1255 69.9071 11.4951 69.0249 11.735 70.4209C11.5385 70.7132 11.1074 69.3172 11.0108 70.2623C11.2133 71.8909 11.4625 73.4451 11.748 75.2153C11.777 75.1602 11.8061 75.1053 11.8353 75.0503C11.7903 74.7675 11.7478 74.4916 11.7073 74.2099C11.818 74.509 11.9297 74.7975 12.0468 75.1003C11.8093 74.7259 12.0102 75.7144 11.7655 75.6026C11.6555 75.5531 11.4709 75.1222 11.3508 74.8662C11.3509 75.5505 11.3699 76.2509 11.3979 76.9403C11.2735 76.596 11.1524 76.2495 11.0347 75.9028C11.0035 75.6112 10.9755 75.3212 10.9488 75.0285C10.949 75.0266 10.9491 75.0248 10.9493 75.023ZM116.916 93.6246C116.782 94.5031 116.116 95.9172 115.485 96.5059C115.992 95.557 116.467 94.6008 116.916 93.6246ZM120.076 54.3095C120.065 54.4146 120.053 54.5165 120.041 54.6214C119.845 54.2323 119.645 53.8442 119.441 53.4622C119.53 53.3477 119.618 53.231 119.704 53.1134C119.833 53.5094 119.957 53.9101 120.076 54.3095ZM105.975 31.1084C106.202 31.3247 106.219 31.3469 106.48 31.6372C106.48 31.6368 106.48 31.6364 106.479 31.636C106.586 31.7484 107.425 32.7343 107.257 32.6934C106.819 32.226 106.346 31.7344 105.882 31.2716C105.91 31.2148 105.95 31.1692 105.975 31.1084ZM110.914 36.8232C110.914 36.8241 110.914 36.8249 110.915 36.8257C111.045 37.02 111.156 37.2137 111.295 37.4101C110.66 36.8036 110.782 36.5379 110.235 35.9635C109.685 35.3923 109.268 35.1135 109.105 34.3726C109.307 34.5277 109.539 34.6843 109.751 34.8431C110.356 35.8022 110.644 35.9554 111.307 36.5885C111.175 36.6667 111.045 36.7448 110.914 36.8232ZM12.3194 60.7858C12.1831 60.5428 12.3964 60.3362 12.4029 60.3124C12.403 60.3129 12.4031 60.3133 12.4032 60.3138C12.6031 58.4133 12.4422 60.5701 12.8253 58.8217C12.8132 59.0908 12.8063 59.3562 12.799 59.6232C12.6369 60.0064 12.4653 60.4041 12.3194 60.7858ZM51.4082 17.126C51.4393 17.1702 51.4738 17.2137 51.5049 17.258C50.4686 17.5517 50.2719 17.8282 49.3688 17.9343C50.041 17.6516 50.7208 17.3819 51.408 17.1254C51.4081 17.1256 51.4081 17.1258 51.4082 17.126ZM102.188 27.1886C103.178 27.8743 103.882 28.4294 104.627 29.323C104.628 29.3238 104.628 29.3245 104.629 29.3253C104.671 29.3771 104.362 29.2392 104.408 29.3177C104.594 29.4659 104.79 29.6143 104.978 29.7645C104.943 29.8493 104.907 29.933 104.872 30.0173C104.399 29.5389 103.917 29.0682 103.424 28.6046C103.466 28.7081 103.51 28.8129 103.551 28.9164C103.105 28.5563 102.657 28.2061 102.201 27.8608C102.444 27.8795 102.687 27.8997 102.929 27.9199C102.685 27.6741 102.437 27.4308 102.188 27.1886ZM34.9791 24.3791C35.1681 24.3159 34.931 24.5946 35.202 24.4652C35.4719 24.3351 35.8662 23.9436 35.8484 24.1461C35.5299 24.3861 35.1996 24.6432 34.8816 24.895C36.1061 24.3754 37.0578 23.4661 37.2646 23.7512C36.1676 24.3446 35.3436 24.9597 34.4285 25.7454C34.3006 25.4902 35.1505 24.5885 34.3749 24.8197C34.5734 24.6731 34.7821 24.5194 34.9773 24.3811C34.9779 24.3805 34.9785 24.3798 34.9791 24.3791ZM125.923 71.6206C125.891 72.3966 125.916 74.2141 125.666 75.1828C125.608 75.4234 125.015 76.1783 124.946 76.1658C124.721 76.1182 124.782 75.1457 124.532 76.1703C124.566 75.8206 124.589 75.481 124.613 75.1345C124.454 75.1837 124.295 75.2321 124.136 75.2778C124.123 75.698 124.106 76.1198 124.084 76.5422C124.031 76.5573 123.978 76.5723 123.924 76.5872C124.078 75.083 123.791 75.9505 123.679 75.159C123.525 75.8634 123.358 76.5715 123.179 77.2697C123.241 76.8616 123.302 76.3798 123.352 76.0207C123.097 75.9465 123.068 76.81 123 76.9518C122.654 77.7422 123.203 73.5641 122.799 73.1951C122.722 73.8623 122.632 74.5608 122.53 75.234C122.5 75.0352 122.47 74.8345 122.438 74.637C122.821 73.1127 122.983 71.3768 123.123 69.5571C123.11 69.3934 123.096 69.2296 123.082 69.0689C122.964 69.1193 122.847 69.1668 122.73 69.2166C122.711 68.9712 122.691 68.7258 122.669 68.4788C123.078 69.1942 123.057 68.1873 123.222 66.9516C123.399 67.5937 123.344 68.4052 123.597 68.3407C123.33 66.103 123.347 63.4622 122.772 61.3314C122.629 60.8052 122.314 60.8657 122.107 59.6146C122.151 59.6499 122.217 59.6447 122.269 59.663C121.686 57.5405 121.281 56.2837 120.786 54.0565C120.711 54.2167 120.634 54.3745 120.558 54.5335C120.751 54.9784 120.939 55.4243 121.12 55.8716C121.012 56.2388 120.816 55.7908 121.165 57.1787C121.438 58.3202 121.36 57.6206 121.489 57.9184C121.662 58.3223 121.591 58.7258 121.771 59.1634C121.907 59.5032 121.993 59.0876 122.13 60.0219C121.855 59.6874 121.569 59.3521 121.285 59.0265C121.284 58.7946 121.284 58.5641 121.281 58.3318C121.385 58.5441 121.487 58.7539 121.589 58.9685C121.324 58.1937 121.06 57.469 120.753 56.683C121.113 56.8733 120.79 56.0594 120.629 55.6168C120.379 54.9268 120.748 55.4748 120.584 55.0214C120.416 54.5668 120.048 54.1363 119.83 53.2976C120.101 53.699 120.022 53.0595 120.177 53.1375C120.334 53.2153 120.64 54.0914 120.499 53.2014C119.867 51.6094 120.001 53.5154 119.564 52.4523C119.029 51.1862 119.622 50.6116 119.925 50.9424C120.163 51.2032 120.512 52.28 120.736 52.5527C120.305 50.5545 119.837 50.7049 119.637 50.4142C118.878 49.3698 120.009 49.8255 119.149 48.5665C119.312 48.5288 119.457 48.4927 119.613 48.458C119.486 48.2306 119.382 48.088 119.237 47.8108C119.303 48.7824 119.022 48.0838 118.868 47.7325C118.623 47.1785 118.856 48.0975 118.754 47.9666C118.484 47.6135 118.248 46.9748 118.291 47.4128C118.275 47.2156 118.25 47.0027 118.229 46.8002C117.86 46.1855 116.519 45.0173 117.326 46.36C117.034 46.3385 116.926 45.833 116.784 45.4639C116.642 45.0952 116.5 45.1757 116.369 44.855C115.836 43.5827 116.499 44.2455 116.795 44.3411C115.795 42.7991 116.581 44.4069 115.195 42.1731C114.915 42.0449 115.357 43.1825 114.764 42.3666C114.935 42.0531 114.759 41.2935 114.059 40.0141C113.922 39.9338 113.786 39.855 113.649 39.7762C113.449 38.9615 113.925 39.1215 112.795 38.1146C113.778 38.3922 113.14 38.1788 112.573 36.9513C112.457 36.7019 112.934 37.1263 112.766 36.7811C112.69 36.6243 112.361 36.3506 112.17 35.9703C112.079 35.7844 111.69 34.8708 111.176 34.4307C111.237 35.0043 110.243 34.2036 110.713 35.1975C109.523 33.6268 108.48 32.6926 110.251 34.0955C110.001 33.6486 109.744 33.204 109.48 32.7625C109.191 32.5481 108.898 32.3343 108.604 32.1241C108.757 31.9121 108.856 31.8928 107.863 30.9186C108.325 31.3102 108.781 31.7082 109.234 32.1175C109.287 32.0976 109.384 32.1242 109.408 32.0752C108.842 31.5794 107.358 30.0996 106.941 29.7991C106.532 29.4921 107.215 30.1934 107.064 30.1383C105.816 29.6784 106.168 29.4603 105.47 28.9333C105.06 28.6276 105.905 29.5004 105.69 29.3321C104.898 28.707 104.747 28.1783 104.073 27.5843C104.205 27.9185 104.329 28.2534 104.446 28.5839C103.759 27.9532 102.969 27.2789 102.262 26.775C101.985 26.5774 102.107 26.835 102.059 26.8065C101.82 26.6639 100.9 26.0305 100.805 25.9616C100.096 25.4262 100.178 25.2738 99.4793 24.759C99.7647 24.9452 100.031 25.1231 100.307 25.3101C100.593 25.1775 100.884 25.0486 101.174 24.9192C100.498 24.3839 99.8079 23.8632 99.1061 23.3578C99.5754 23.7916 100.038 24.2331 100.491 24.6812C99.5637 24.2775 98.6351 23.9051 97.6984 23.5575C97.3503 23.1637 96.9987 22.7759 96.638 22.3904C95.4363 21.6975 95.3913 22.3312 95.0713 21.5764C94.698 21.4088 94.3236 21.2457 93.9475 21.086C94.032 21.0527 94.1162 21.0192 94.2009 20.9862C93.7497 20.7861 93.2962 20.5917 92.8395 20.404C93.1848 20.8616 93.5049 21.3286 93.8294 21.7826C92.9694 21.3712 93.0481 21.1829 92.9469 21.0687C92.6758 20.7673 91.9213 20.593 91.7091 20.3462C91.6376 20.26 92.539 20.5589 92.3218 20.2711C92.2835 20.2147 91.4039 19.1216 90.5998 18.9057C90.5695 19.0085 90.5722 19.1529 90.5538 19.2715C89.54 18.8761 89.2462 18.1575 89.4401 18.0699C88.86 17.937 88.0624 17.6251 87.8878 17.7395C87.6075 17.6327 87.3331 17.5305 87.0531 17.4288C87.4923 17.1513 86.2936 16.7844 86.0965 17.0951C86.5756 17.2762 87.0515 17.464 87.5235 17.6573C87.0014 17.9335 88.3702 18.6965 85.4886 17.222C84.9811 16.8036 86.5113 17.6164 86.0946 17.289C85.3037 16.8998 84.5012 16.7196 83.7548 16.3231C82.8202 15.839 84.098 15.9971 81.7005 15.5888C86.6308 17.6918 80.908 15.6963 78.4262 15.4476C77.9493 14.7893 76.289 14.2184 73.8717 14.0067C73.5585 13.9795 73.2339 13.9585 72.8989 13.9443C73.0663 14.0642 73.4541 14.1176 73.8516 14.1701C74.1293 14.2066 74.4107 14.2422 74.6228 14.2948C75.1375 14.424 74.5595 14.4453 75.1958 14.6187C75.8318 14.7898 77.1765 15.1317 77.8004 15.3828C77.2303 15.3547 74.4933 15.1486 76.3242 15.1654C75.3484 14.8729 74.7572 14.6558 73.8152 14.4664C73.4972 14.4031 73.1398 14.3444 72.7151 14.2924C72.1826 14.5133 72.2076 14.667 70.5757 14.5583C71.5765 14.2498 69.7165 13.8672 70.1509 13.5083C71.328 13.6721 70.6448 14.0055 71.3041 14.2342C71.3708 14.2551 72.4625 14.2566 72.7151 14.2924C71.6535 13.8463 71.2742 13.6971 71.9918 13.3532C71.2042 13.3188 70.7179 13.2391 70.6324 13.4253C70.4734 13.3314 70.3128 13.2381 70.1551 13.1457C69.8973 13.1332 69.6653 13.1291 69.3928 13.1156C69.7549 13.422 69.0355 13.209 68.5174 13.3267C67.9996 13.4468 68.6863 13.6828 67.2738 13.6678C67.7436 13.7389 68.1727 13.8054 68.6203 13.8832C67.719 13.93 66.8032 13.9988 65.9073 14.0889C66.5427 14.2498 67.9067 14.5269 67.8639 14.7617C67.4519 14.6614 66.0461 14.8215 65.895 14.8348C65.3028 14.8706 65.6224 14.7175 65.5775 14.7146C64.6402 14.6649 63.8688 14.7584 63.5007 14.5579C62.8032 14.7017 62.2705 14.6854 61.5234 14.7624C61.1131 14.8059 61.2099 14.9609 60.9675 14.9552C59.3597 14.9421 60.8309 14.5055 57.8348 15.3652C58.2214 15.4167 58.6023 15.4755 58.9866 15.536C58.6496 15.6281 58.3162 15.7232 57.9826 15.8215C57.7514 15.8384 57.5223 15.8563 57.2914 15.8761C57.2533 15.6322 57.2161 15.3877 57.1781 15.1437C56.9238 15.175 56.6658 15.2091 56.4102 15.2442C56.841 15.1372 57.2713 15.0357 57.703 14.9392C57.7357 14.8897 57.7658 14.8407 57.7987 14.7913C57.1394 14.8314 56.4798 14.8826 55.8176 14.9464C55.8221 15.0331 55.8268 15.1203 55.8314 15.207C54.3563 15.3921 54.3002 15.332 52.9892 15.9029C51.9364 16.1706 51.1896 16.7649 50.6406 17.0912C50.4133 17.1107 50.1855 17.131 49.9557 17.154C49.8411 17.2657 49.7259 17.3778 49.6128 17.4901C49.3135 17.4839 49.01 17.4814 48.7084 17.4811C48.6323 17.7481 48.5796 17.8323 49.6484 17.56C49.3769 17.9359 47.5138 18.4606 46.7489 18.6698C46.1655 18.8232 46.6982 18.3613 46.6184 18.3624C46.348 18.3619 45.4583 18.8149 45.2616 18.8832C44.4234 19.1661 43.8644 19.4305 43.1199 19.7233C42.975 19.7796 42.5188 19.8345 42.4834 19.8469C42.2131 19.9484 41.5454 20.2027 41.4727 20.2385C37.7401 22.1077 41.9444 20.5299 38.5594 22.3719C38.7019 22.386 38.8358 22.405 38.9756 22.4215C38.7282 22.5721 38.4793 22.726 38.2344 22.8803C37.8843 23.0109 38.195 22.6678 37.6283 23.1399C37.6135 23.026 37.599 22.9119 37.5871 22.797C37.3452 23.013 37.1151 23.2239 36.8712 23.4475C36.2406 23.4101 34.639 24.4048 34.5065 23.9848C34.4576 23.8379 35.4905 22.9539 34.8129 23.2281C34.316 23.532 34.7387 23.4518 34.549 23.5937C33.1874 24.6269 33.1332 24.3866 32.6093 24.8556C32.584 25.005 32.556 25.1593 32.5306 25.3108C32.3035 25.446 32.0765 25.5833 31.8489 25.7234C31.8439 25.8162 31.8371 25.9106 31.8326 26.0033C32.029 25.8537 32.2511 25.6865 32.4333 25.552C32.3344 25.946 30.1889 27.8719 30.8894 26.9944C31.1737 26.6342 31.843 26.1487 31.2357 26.2273C30.6589 26.7526 30.0143 27.3582 29.4325 27.9343C29.3678 27.8996 29.3043 27.8637 29.2395 27.8292C28.4449 28.5993 29.378 28.1329 29.4735 28.2461C29.2888 28.416 29.1028 28.5884 28.9204 28.7607C28.7968 28.7832 28.675 28.8002 28.549 28.8287C28.6139 28.9144 28.6757 29.1874 28.0716 29.6348C27.6835 29.9247 28.0441 29.2045 27.4086 29.871C27.5747 29.942 27.9472 29.8536 27.2612 30.607C27.0676 30.5559 26.8564 30.5436 26.6718 30.472C25.896 31.498 25.3006 31.7355 24.4479 32.9855C23.9063 33.7801 23.424 35.0454 22.5217 35.1115C22.0761 35.6468 22.3454 35.5763 22.2484 35.761C21.7965 36.6323 21.1213 37.0275 20.9987 37.1644C20.2266 38.0332 20.0275 38.5232 19.383 39.228C19.5145 39.2531 19.6275 39.2942 19.7506 39.3265C20.0717 38.508 20.3223 38.1483 21.0596 37.1917C20.8417 37.5349 20.6293 37.8789 20.4197 38.2254C20.5398 38.2281 20.6595 38.2318 20.7776 38.2371C22.6424 34.9952 22.6044 36.07 20.9274 38.663C20.6234 38.7766 20.3142 38.9019 20.0112 39.02C19.2538 40.6783 18.6024 41.2597 17.5514 43.0107C17.4265 43.2188 17.1014 44.0461 16.9331 44.3859C16.9366 44.3806 16.9402 44.3754 16.9437 44.3701C16.9908 44.6601 17.2094 44.4139 17.3659 44.4534C17.2889 44.6431 17.2122 44.8344 17.1379 45.024C16.8273 45.3752 16.8071 45.1869 16.4402 46.0061C16.5999 45.9488 16.759 45.8938 16.9187 45.8383C16.4949 46.7163 16.1078 47.2494 15.7955 48.1037C15.8152 47.9456 15.8346 47.7891 15.8557 47.631C14.9613 49.4067 14.9369 47.6794 14.679 49.2115C14.5863 49.2781 14.494 49.3426 14.4015 49.41C14.6195 48.8216 14.8476 48.2377 15.0833 47.6611C15.0093 47.6149 14.936 47.5678 14.861 47.5238C14.6152 48.1494 14.3797 48.7836 14.1557 49.4194C14.2829 48.9408 14.4173 48.4613 14.557 47.9863C14.2128 48.6876 13.8802 49.4034 13.5658 50.1176C14.1577 49.4572 13.8116 50.4731 14.1781 50.3955C13.4566 51.5842 12.7565 52.5051 12.3685 54.6269C12.2958 55.0498 12.563 54.8806 11.9966 55.9716C12.4047 55.7798 12.198 57.2715 12.5704 57.1625C12.6519 56.7567 12.7473 56.3392 12.8308 55.9479C12.604 56.3584 12.2754 56.3554 12.3631 55.6561C12.4731 54.7653 13.0672 53.5745 12.7158 53.5241C12.8372 53.1875 12.9475 52.8745 13.069 52.5502C13.1075 52.7128 13.148 52.8724 13.1886 53.0318C13.3582 52.0587 13.6125 51.4806 13.9791 51.1138C13.6276 52.2327 13.3147 53.3499 13.0341 54.4849C13.0969 54.324 13.1611 54.1614 13.2248 54.0014C13.1911 54.9102 13.6399 54.1015 13.2471 55.6837C13.1504 55.647 13.0531 55.6122 12.9559 55.5753C13.0583 56.2193 12.6758 57.7986 13.1059 57.3685C12.8979 57.8215 12.8158 57.9097 12.922 58.2146C12.4085 59.4128 11.9652 60.1894 11.6932 59.6625C11.6586 60.1509 11.6297 60.6444 11.6091 61.1253C11.7528 60.8666 11.8979 60.6089 12.0457 60.3507C11.8894 61.1773 11.7523 62.0035 11.6335 62.8352C11.3262 62.8738 11.7811 61.2213 11.4486 61.6664C11.3808 61.7555 11.425 62.2213 11.3791 62.3352C10.8848 63.5403 11.3925 61.6104 11.0978 61.943C10.8547 63.2475 10.6911 62.8729 10.6112 63.4481C10.5795 63.6917 10.5635 64.1076 10.59 64.8879C10.4989 64.9481 10.4057 65.0135 10.3158 65.0693C10.2292 65.9729 10.4279 65.9102 10.4096 66.6905C10.3996 67.178 10.0312 67.7749 10.2405 68.3221C10.2827 68.4176 10.7124 67.5382 10.6458 69.4207C10.6147 70.8904 10.332 70.2774 10.2326 71.0756C10.1303 71.8754 10.6127 73.6834 10.2 74.2463C10.232 73.8246 10.2349 73.2902 10.2652 72.8232C10.1683 72.6379 10.0735 72.4565 9.97901 72.2716C10.127 73.3367 10.0644 74.4412 10.3363 75.1378C10.1265 76.5889 10.642 78.1281 10.9485 77.6538C10.838 77.2014 10.7411 77.7212 10.7644 77.0693C10.8414 76.9936 10.9178 76.9148 10.9951 76.8397C11.1097 77.9236 11.2304 78.6812 10.9003 78.2205C10.9178 78.3906 10.9358 78.559 10.9547 78.7287C11.1455 78.7313 11.3365 78.73 11.5273 78.7319C11.5783 78.9283 11.6302 79.125 11.6833 79.3203C11.6781 79.5478 11.674 79.7761 11.6715 80.0064C11.3295 79.7578 11.2168 79.2391 11.366 80.9764C11.4681 80.9621 11.5703 80.9502 11.6724 80.9359C11.8266 82.3806 11.5815 82.4698 12.0266 84.2462C11.3359 82.9648 11.808 82.0765 11.1054 82.2316C11.0778 81.8754 11.0537 81.5161 11.033 81.1596C10.9206 81.1264 10.8083 81.0933 10.6965 81.062C11.0881 82.9477 12.543 85.8065 12.5013 87.1432C12.5995 87.2737 12.6915 87.4064 12.7953 87.5368C12.9164 88.8057 13.6729 89.1118 13.7801 90.4101C13.7954 90.5444 13.1404 90.4954 13.7784 92.0287C13.8322 91.9621 13.9411 91.8946 14.0162 91.828C14.1081 92.1763 14.2006 92.523 14.2973 92.868C14.3863 92.8999 14.4766 92.9343 14.5661 92.9654C14.3495 92.3968 14.143 91.8261 13.9446 91.2506C14.1524 91.7118 14.3673 92.1726 14.5868 92.6268C14.4341 91.9774 14.3264 91.7034 14.644 91.9992C14.8716 92.5196 15.1077 93.0365 15.3503 93.5488C15.4167 93.5828 15.4835 93.6164 15.55 93.6503C15.5628 93.3431 15.5747 93.0366 15.5949 92.731C16.0775 94.1186 16.6318 95.2653 16.9121 96.3934C16.962 96.5849 16.4796 96.0673 17.2426 97.1524C17.1681 97.2158 17.1166 97.2839 17.0497 97.3462C18.0631 98.6339 18.2551 99.1237 18.9843 100.657C18.5586 99.6366 18.9738 100.526 19.2051 100.707C19.3627 100.832 18.9586 100.211 19.0631 100.244C19.1659 100.281 19.915 100.937 19.5057 100.229C17.9622 98.8204 18.2614 98.0053 16.8305 95.8535C17.0768 96.1739 17.3277 96.4935 17.58 96.807C17.5361 96.6191 17.4982 96.4507 17.452 96.2479C18.0245 97.5634 17.7636 96.9151 18.1222 97.3873C18.4825 97.8589 19.0812 98.7432 19.4755 99.3375C19.5997 99.5249 19.3648 99.3907 19.6224 99.8287C19.797 100.129 20.4688 100.818 20.4031 101.123C20.3629 101.325 19.1741 100.268 20.3532 102.033C20.4592 102.445 19.9241 101.576 19.8993 101.566C19.652 101.506 20.2771 102.67 20.7382 103.088C20.7755 103.121 20.6086 102.655 20.9511 103.048C21.7673 103.977 22.076 104.628 22.4071 105.386C22.6529 105.306 23.5121 105.939 24.2793 106.97C24.3747 106.975 24.4685 106.977 24.5641 106.981C24.4065 106.854 24.2498 106.726 24.0932 106.598C23.9863 106.404 23.8633 106.207 23.7681 106.012C24.6376 106.964 25.0154 106.875 25.5103 107.253C27.2213 108.52 25.7233 108.183 25.3507 108C25.2119 107.754 25.0867 107.51 24.9561 107.264C24.9126 107.342 24.869 107.421 24.8237 107.498C26.9546 109.848 24.7338 108.23 25.7244 109.527C26.3154 109.546 27.1555 110.372 28.0787 111.605C28.2024 111.719 28.326 111.834 28.4511 111.946C28.5128 111.921 28.5753 111.853 28.6359 111.854C30.025 113.032 29.8729 113.711 29.9639 113.875C30.3819 114.583 31.0909 114.678 31.2694 114.817C32.0289 115.407 32.1489 115.708 32.9258 116.201C33.7646 116.725 33.2968 116.223 33.6048 116.308C33.851 116.377 34.4888 116.811 34.8043 116.915C34.657 116.905 34.4987 116.886 34.3512 116.876C35.1227 117.543 35.7631 118.094 36.7296 118.731C38.1243 118.946 38.616 120.301 38.6081 119.418C37.6897 118.824 37.2194 118.426 36.8335 117.952C37.4469 118.312 38.0677 118.66 38.6955 118.997C38.8331 119.174 38.9199 119.318 39.0915 119.514C39.6401 119.624 40.6882 120.277 41.146 120.451C43.2818 121.247 42.7695 120.663 44.4441 121.975C43.0654 121.417 42.9554 121.639 41.6393 120.954C41.8455 121.256 42.5448 121.553 42.0106 121.53C43.3369 122.109 42.9976 121.731 43.576 121.814C44.0735 121.883 44.9635 122.257 44.9874 122.061C45.0378 122.195 45.0693 122.317 45.1206 122.45C45.9799 122.809 46.8445 123.145 47.7187 123.46C47.3092 123.427 46.8997 123.39 46.4902 123.348C46.7558 123.494 47.0236 123.638 47.2927 123.78C49.5486 124.295 53.2146 125.897 52.8176 124.91C53.8893 125.155 54.0031 125.284 54.5521 125.573C54.6303 125.525 54.7044 125.487 54.7838 125.431C55.462 125.648 56.0438 125.519 56.6476 125.695C57.2537 125.87 57.3691 126.117 57.5222 125.756C57.9009 125.931 58.2839 126.084 58.6687 126.244C58.9226 126.194 59.1756 126.143 59.4258 126.09C59.6459 126.146 59.8672 126.202 60.0891 126.257C60.2413 126.294 60.3936 126.331 60.5457 126.367C60.7695 126.213 62.2475 126.441 62.9079 126.361C63.5157 126.598 63.4655 127.228 64.9543 127.179C64.9216 127.024 64.8898 126.869 64.8578 126.714C65.1931 126.759 65.5288 126.801 65.8673 126.84C65.8867 126.891 65.9034 126.941 65.9229 126.992C65.7491 126.973 65.5807 126.953 65.4086 126.932C65.5558 127.022 65.7002 127.11 65.8464 127.197C66.3701 127.083 66.8899 126.96 67.4069 126.831C66.7099 126.741 66.0051 126.637 65.3196 126.521C66.188 126.433 66.8016 126.55 67.5558 126.418C68.2154 126.622 67.9772 126.747 67.7102 126.981C67.9566 126.959 68.2052 126.935 68.4504 126.909C68.293 127.14 68.7167 127.28 67.2667 127.275C67.3667 127.341 67.469 127.402 67.5671 127.47C67.8055 127.457 67.9611 127.51 68.2218 127.48C68.9315 127.395 69.4653 126.965 69.4088 126.826C69.3801 126.754 68.6867 126.921 68.7112 126.814C68.7759 126.555 70.3633 126.623 68.0684 126.431C68.8196 126.252 68.9948 126.37 69.8344 126.378C69.7646 126.296 69.697 126.214 69.6303 126.132C70.0187 126.153 70.4076 126.17 70.7959 126.183C70.2802 126.662 73.1756 126.612 70.6056 127.184C71.3756 127.155 72.1485 127.11 72.9181 127.051C72.7647 127.112 72.6107 127.172 72.4562 127.232C72.106 127.242 71.7557 127.249 71.4069 127.252C71.8218 127.303 72.2421 127.348 72.6605 127.389C73.6202 127.189 73.9766 126.982 74.3897 126.734C73.2591 126.734 73.6473 126.881 72.7783 127.013C72.7963 126.888 72.7447 126.78 72.8075 126.644C73.2841 126.855 74.7236 126.489 75.0596 126.423C76.0822 126.233 75.3133 126.601 76.0028 126.499C76.6933 126.394 77.4728 126.1 78.0814 126.231C78.0442 126.097 77.9715 125.965 77.9072 125.849C78.9579 125.591 78.7791 125.789 78.8936 125.788C80.7176 125.741 81.6028 125.217 83.5504 124.593C83.2891 124.629 83.0262 124.667 82.7629 124.702C84.1552 123.975 83.1871 124.376 81.8795 124.639C83.09 124.333 83.701 123.877 84.5074 123.533C85.316 123.193 86.7698 122.796 87.3175 122.685C86.2028 123.294 84.878 123.649 83.5558 124.105C83.7498 124.193 83.9338 124.26 84.1386 124.358C84.8636 123.815 85.3913 123.838 85.6728 123.782C86.4948 123.612 86.3805 123.38 86.9465 123.461C86.8942 123.38 86.8523 123.311 86.8023 123.236C88.4143 122.676 90.1797 122.08 91.0348 121.286C91.2232 121.446 91.3864 121.61 91.5926 121.767C92.1763 121.297 92.8096 121.172 93.3376 120.851C93.8606 120.53 93.5701 120.479 94.1656 120.075C94.2753 120 94.573 119.966 94.8157 119.732C95.066 119.497 95.7836 118.343 96.1895 118.738C96.7149 118.422 97.2162 118.132 97.7252 117.812C97.2511 118.157 96.7715 118.494 96.2886 118.823C96.7849 118.678 97.2775 118.527 97.7727 118.368C97.7623 118.233 97.7505 118.096 97.7381 117.964C98.786 117.11 99.6973 116.714 100.764 115.867C100.941 115.725 100.375 115.859 101.211 115.302C102.041 114.739 102.913 114.622 104.112 113.371C104.173 113.307 104.335 112.723 104.946 112.486C105.086 112.431 104.699 112.883 104.985 112.72C105.274 112.56 106.368 111.618 106.561 111.656C106.51 111.624 106.403 111.643 106.33 111.63C106.489 111.44 106.648 111.247 106.807 111.054C106.895 111.111 106.985 111.167 107.073 111.224C107.915 110.05 108.145 109.272 109.627 107.798C109.127 108.141 108.623 108.474 108.118 108.795C108.085 108.983 108.052 109.173 108.02 109.359C107.328 110.026 106.617 110.677 105.894 111.306C105.863 111.501 105.831 111.695 105.797 111.89C105.599 112.054 105.403 112.214 105.204 112.375C105.193 112.268 105.182 112.161 105.173 112.053C104.816 112.408 104.454 112.76 104.089 113.105C104.526 112.062 106.225 111.219 105.834 110.996C106.043 110.889 106.251 110.78 106.459 110.67C106.385 110.452 106.755 110.177 107.343 109.621C107.141 109.683 106.926 109.757 106.734 109.805C107.39 109.353 108.333 108.333 108.912 107.762C109.167 107.511 109.042 107.877 109.126 107.81C109.561 107.463 110.037 106.501 110.19 106.346C111.112 105.426 112.035 105.057 112.62 103.71C111.679 104.845 112.182 104.222 111.723 104.529C111.579 104.626 110.329 106.045 111.815 104.205C112.017 104.017 114.74 100.656 114.157 101.971C114.479 101.341 114.695 100.826 114.958 100.236C116.371 99.2589 115.526 99.3844 114.987 99.5874C115.118 99.3684 115.24 99.1582 115.374 98.9316C115.419 99.6123 116.876 97.1414 117.133 96.1787C117.225 95.8611 116.703 96.6125 116.995 95.92C117.18 95.6157 117.391 95.2696 117.582 94.9434C117.13 95.3294 117.514 94.3276 117.286 94.2375C117.772 93.7177 118.403 93.4218 118.473 93.8704C118.618 93.3091 118.755 92.7476 118.881 92.1849C118.726 92.4057 118.569 92.6281 118.412 92.8454C119.306 91.2092 119.777 88.8544 120.377 88.6479C120.454 88.4122 120.529 88.1767 120.602 87.9419C120.544 87.843 120.485 87.7467 120.426 87.6484C120.836 86.6179 121.218 85.5671 121.567 84.5114C121.368 85.4823 121.423 85.7438 121.031 86.717C121.241 86.3613 121.451 85.9922 121.652 85.6383C121.801 84.0536 121.706 83.8025 122.264 81.5209C122.295 81.4214 122.835 79.6987 122.859 79.643C123.003 79.3831 123.076 79.8258 123.146 79.711C123.351 79.3992 123.995 77.3336 124.036 77.3755C124.724 77.9861 123.394 85.1573 122.736 87.0232C117.291 106.884 100.365 122.175 80.6756 126.91C80.4729 126.961 80.584 127.033 80.4983 127.058C79.9638 127.211 79.4036 127.18 79.2029 127.217C78.7742 127.295 79.0377 127.381 78.7253 127.446C75.4937 128.107 72.3812 128.398 69.0922 128.542C68.877 128.551 69.0928 128.433 68.716 128.464C68.5235 128.481 67.9199 128.666 67.4794 128.671C65.938 128.689 64.6576 128.599 63.0354 128.493C62.1548 128.437 60.8414 128.301 59.853 128.179C59.851 128.179 59.849 128.179 59.847 128.178C59.4108 128.126 58.9474 128.143 58.5186 128.083C57.9107 127.996 58.0596 127.857 57.9679 127.833C57.5675 127.727 57.4834 127.889 57.0978 127.82C56.3798 127.686 56.3579 127.566 55.4477 127.397C54.7979 127.279 53.2987 127.037 52.4804 126.851C50.6226 126.246 48.2586 125.555 46.5342 124.951C45.5159 124.596 45.4842 124.401 45.0755 124.238C43.6411 123.657 42.4839 123.362 41.1684 122.725C39.4272 121.875 37.9926 120.921 36.4039 119.932C36.1468 119.771 36.1273 119.934 35.8726 119.779C34.9293 119.204 33.7403 118.433 32.9551 117.84C32.0775 117.177 31.8854 116.762 31.0162 116.139C30.7621 115.955 30.571 116.046 30.1452 115.732C29.4647 115.23 28.8719 114.502 28.4448 114.099C27.8602 113.545 28.2513 114.159 27.4641 113.408C27.4318 113.377 27.4056 113.165 27.2309 113.011C26.724 112.56 26.6954 112.688 25.9906 111.984C25.9203 111.918 25.0868 110.888 24.9998 110.792C24.4627 110.239 23.4544 109.06 23.1372 108.732C21.999 107.564 22.6691 108.671 22.1266 107.321C21.6546 106.921 21.1893 106.518 20.7079 106.07C21.048 106.353 20.1008 104.872 20.0265 104.775C19.3689 103.995 19.5758 104.592 18.8582 103.514C20.163 104.685 17.95 102.118 17.5584 101.468C15.5862 98.4197 14.1659 95.4221 12.8005 92.0472C12.3428 90.9188 11.7034 89.4056 11.3144 88.1748C11.2229 87.8879 11.3831 88.0756 11.3053 87.8226C11.2278 87.57 11.2124 87.8821 11.1282 87.592C10.6109 85.7795 10.4437 84.3137 9.83033 82.6899C9.84856 82.6003 9.87736 82.5968 9.88799 82.453C9.35637 81.1211 9.23206 78.3863 9.16795 77.3762C9.05056 75.7955 8.86971 75.3952 8.81912 74.2456C8.74804 72.7155 9.03126 70.424 8.54939 71.4538C8.51583 70.408 8.52094 69.3835 8.60462 68.3326C8.61413 68.215 8.73694 68.3008 8.74126 68.2538C8.77067 67.9568 8.66267 67.8548 8.66692 67.6526C8.68031 67.1047 8.76957 68.0042 8.7724 67.2225C8.77686 66.8116 8.68593 66.5641 8.77753 65.4296C8.83783 64.7109 8.91257 63.9841 9.00244 63.2506C9.74977 57.0085 11.6673 50.5409 14.4659 44.8555C14.6802 44.4201 14.429 44.6526 14.708 44.1109C15.6607 42.2079 17.7757 39.0637 18.8031 37.56C19.8168 36.0491 19.4429 36.2843 20.0618 35.3181C20.1829 35.1325 20.1551 35.3383 20.2766 35.1797C21.0908 34.1114 22.2301 32.9723 22.9603 32.1738C23.4447 31.6442 23.2885 31.5823 23.6139 31.2036C24.1008 30.64 24.744 30.1968 25.0228 29.9165C26.3347 28.5993 27.1769 27.6247 28.5258 26.5242C28.4515 26.5426 28.3963 26.5478 28.3302 26.56C29.8808 25.2014 31.5005 23.9265 33.1849 22.7385C33.0871 22.7686 32.9918 22.7968 32.8937 22.827C34.8847 21.4462 34.8672 21.9197 34.2777 21.4204C34.4107 21.3004 34.551 21.1716 34.6798 21.0588C34.833 21.4133 36.2003 20.829 37.8537 19.9851C37.9731 19.9221 38.5895 19.1511 38.7154 19.5812C38.8713 19.3724 38.9605 19.2397 39.0932 19.0607C39.502 18.9885 39.9145 18.917 40.3225 18.8537C40.5011 18.739 40.6833 18.6246 40.863 18.5119C40.8526 18.4216 40.7911 18.3533 40.8143 18.2478C41.6854 17.7849 43.5685 17.0383 44.2823 16.7335C46.0479 15.9522 47.8354 15.0667 49.3459 14.8511C50.0376 14.6082 49.2908 14.6609 50.3435 14.3647C50.4861 14.4108 50.6203 14.4562 50.7679 14.5043C51.5197 13.8957 51.7632 14.0632 52.965 13.842C53.7805 13.6968 54.2838 13.4878 55.0572 13.3437C55.2531 13.3078 55.2479 13.4226 55.3804 13.3919C55.8232 13.286 57.0771 12.9021 57.3948 12.8491C60.2765 12.337 62.7812 12.13 65.5664 12.102C65.8645 12.0998 65.4756 11.998 65.7846 11.9965C66.282 11.9955 65.9918 12.1689 66.2795 12.1736C67.0817 12.1912 67.0886 12.009 68.2147 12.0206C70.0657 12.0468 72.0558 12.2097 74.0582 12.4878C76.046 12.7624 78.0262 13.148 79.8919 13.5776C80.0094 13.6043 80.026 13.5011 80.1545 13.5297C80.9932 13.718 81.7961 14.0689 82.5398 14.2733C83.7804 14.6168 84.7468 14.7631 85.9524 15.1748C88.3086 15.9891 90.3327 16.9054 92.6315 18.0325C94.5045 18.961 96.1067 19.8287 98.0487 21.0495C106.517 26.3693 113.988 33.9216 118.58 42.9708C118.697 43.2004 118.566 43.1508 118.606 43.2183C118.987 43.8601 119.126 43.8661 119.013 44.2191C119.482 45.0435 119.791 45.2287 120.257 46.2813C120.5 46.8435 120.041 46.5468 120.596 47.4318C121.081 48.239 120.875 47.2131 121.723 49.8694C121.744 49.9404 121.699 50.3426 121.938 50.87C122.174 51.4024 122.085 50.7211 122.57 52.0355C123.705 55.1312 124.523 59.2375 125.033 63.0231C125.077 63.2553 125.411 65.5474 125.477 66.0001C125.626 66.8739 125.755 66.6807 125.843 67.8323C125.905 68.728 125.767 69.4564 125.795 70.5035C125.798 70.6252 125.961 70.8314 125.923 71.6206ZM11.6757 78.6188C11.8637 78.8009 12.479 79.0773 12.5231 80.3162C12.5279 80.4354 12.023 79.8804 12.0844 80.568C11.9204 79.9138 11.7995 79.272 11.6751 78.6189C11.6753 78.6188 11.6755 78.6188 11.6757 78.6188ZM121.866 76.8694C122.004 75.951 122.118 75.0337 122.211 74.1154C122.237 74.7563 122.252 75.396 122.256 76.0391C122.128 76.318 121.998 76.593 121.866 76.8694ZM45.8959 18.9261C45.8967 18.9258 45.8975 18.9254 45.8984 18.9251C45.0241 19.3645 44.1651 19.8254 43.3182 20.3086C43.3871 20.2154 43.4564 20.1219 43.526 20.0289C44.1875 19.6249 44.8565 19.2353 45.5344 18.859C45.655 18.881 45.7757 18.9033 45.8959 18.9261ZM53.0567 15.9436C53.6826 15.8526 53.5599 15.9978 53.9203 16.0204C53.9202 16.0202 53.9202 16.02 53.9201 16.0198C54.0152 16.0253 54.4329 15.9523 54.5925 15.9208C54.5187 15.867 54.4277 15.8181 54.3486 15.7663C55.7463 15.2684 58.6458 15.3227 55.0949 16.279C55.1298 16.1823 55.1626 16.0867 55.1979 15.9901C53.4205 16.3943 51.3967 16.7735 53.0567 15.9436ZM15.9854 92.6696C16.8824 93.9794 17.1385 94.3962 17.8346 96.1631C17.6389 95.9645 17.4441 95.7636 17.2509 95.5614C17.1825 95.2451 17.1174 94.931 17.0548 94.6146C17.0544 94.6138 17.0541 94.613 17.0537 94.6122C16.9487 94.594 16.8434 94.5753 16.7395 94.5587C16.4769 93.9343 16.224 93.3011 15.9854 92.6696ZM108.025 32.3766C107.901 33.0848 108.066 32.7594 107.118 31.9453C106.788 31.6659 107.006 32.0368 106.809 31.8559C105.741 30.8889 105.914 30.5458 106.286 30.6304C106.88 31.2 107.466 31.7893 108.023 32.3746C108.024 32.3753 108.025 32.3759 108.025 32.3766ZM122.882 66.324C122.882 66.3249 122.882 66.3258 122.882 66.3267C122.746 66.3735 122.667 65.795 122.583 66.4602C122.549 65.9625 122.509 65.4607 122.461 64.9586C122.488 65.1046 122.514 65.2541 122.54 65.4005C122.576 65.2661 122.612 65.1309 122.647 64.996C122.471 64.8333 122.549 64.6596 122.544 64.129C122.391 64.2927 122.237 64.4546 122.083 64.6159C122.07 64.0049 122.049 63.3967 122.016 62.7834C122.057 62.7701 122.099 62.7567 122.14 62.7434C122.054 62.5221 121.967 62.3042 121.879 62.085C121.92 62.0157 121.961 61.9485 122.002 61.8788C121.922 61.6099 121.839 61.3418 121.754 61.0753C121.862 60.9715 122.02 61.5648 121.803 60.5022C121.987 60.8068 122.168 61.1139 122.347 61.4273C122.598 63.0532 122.776 64.6841 122.882 66.324ZM99.4134 25.0009C100.883 26.0418 100.412 25.8201 99.9147 25.7963C99.7513 25.531 99.5826 25.2647 99.4134 25.0009ZM18.6158 42.014C18.5151 42.5647 18.4228 43.1117 18.3292 43.6666C17.9146 44.6408 17.1269 45.4329 17.3698 44.6566C17.6698 43.7203 18.3172 42.9305 18.6158 42.014ZM11.2716 65.0016C11.4934 63.7111 11.5918 64.9588 11.6992 65.2595C11.4537 65.598 11.4274 66.0923 11.3508 66.899C11.3832 66.1397 11.2345 65.2177 11.271 65.0016C11.2712 65.0016 11.2714 65.0016 11.2716 65.0016ZM32.5229 26.4443C32.9298 26.1179 33.3114 25.7605 33.7253 25.5349C33.7205 25.7648 32.8787 26.1929 33.5731 26.0089C33.3106 26.2123 33.0495 26.4182 32.7931 26.6251C32.889 26.4073 32.6148 26.5141 32.5243 26.444C32.5239 26.4441 32.5234 26.4442 32.5229 26.4443ZM83.8364 17.4271C82.9299 16.9155 82.7074 16.9466 81.6806 16.8173C81.5847 16.6064 82.8538 16.6488 83.6136 16.8202C83.6883 17.0221 83.7621 17.2243 83.8364 17.4271ZM110.212 105.379C110.238 105.715 109.093 107.129 108.431 107.749C108.478 107.647 108.525 107.544 108.571 107.442C109.135 106.767 109.682 106.079 110.212 105.379ZM11.3126 67.2818C11.3268 67.1472 11.3394 67.0196 11.3508 66.899C11.3447 67.0335 11.3332 67.1628 11.3126 67.2818ZM32.6675 115.54C32.1919 115.443 33.1789 116.292 31.979 115.263C31.9789 115.263 31.9788 115.263 31.9787 115.263C31.1921 114.575 31.023 114.417 30.2939 113.783C30.7373 113.801 32.2909 114.969 30.2726 113.204C30.2461 113.181 30.1929 113.351 29.8832 113.053C29.7878 112.96 29.5549 112.582 29.1049 112.121C28.959 111.972 27.8367 110.888 29.4092 112.32C29.4893 112.136 29.7028 112.069 29.8221 111.928C30.4703 112.434 30.7058 113.129 31.3877 113.68C32.4039 114.494 33.1593 114.585 33.0579 115.131C32.1089 114.575 30.652 113.371 30.6651 112.983C29.8693 112.295 29.4805 112.268 30.0445 112.925C32.9504 115.158 30.5627 113.887 33.2276 115.702C33.2993 115.67 33.4496 115.689 33.4719 115.625C34.1187 116.403 32.8357 115.578 32.6675 115.54ZM27.2328 110.094C27.7821 110.438 28.3353 110.77 28.8903 111.09C28.7293 111.261 28.3281 111.187 27.5203 110.584C27.4242 110.421 27.3272 110.257 27.2328 110.094ZM75.9294 125.771C75.9986 125.629 76.2174 125.474 76.3693 125.323C76.5782 125.44 81.0288 124.582 78.8007 125.178C78.4766 125.274 76.4286 125.435 75.9294 125.771ZM90.5083 19.8202C90.0614 19.5168 89.6138 19.2212 89.1605 18.9316C89.9313 19.2043 90.7033 19.4957 91.4658 19.8033C91.1451 19.8057 90.8273 19.8121 90.5083 19.8202ZM14.6044 49.744C14.6922 49.5349 14.5802 50.2996 14.8831 49.4596C14.7407 50.1201 14.6119 50.7288 14.4927 51.3725C14.3482 51.5258 14.204 51.6824 14.0607 51.8383C14.0616 51.9991 14.0619 52.1625 14.0641 52.323C13.9777 52.1977 13.8912 52.0825 13.8052 51.9508C14.4142 51.0033 14.2226 50.67 14.6044 49.744ZM34.1563 24.0796C34.4688 24.1815 33.2696 25.2334 34.5655 24.3606C34.4242 24.6744 34.0891 25.0201 33.3707 25.577C33.2139 25.6112 33.0576 25.6464 32.9007 25.6821C32.9931 25.8365 32.8456 26.0302 32.5229 26.4443C32.5224 26.4444 32.5219 26.4445 32.5215 26.4446C31.4492 27.3099 31.484 27.2206 31.0385 27.2053C32.276 26.4018 32.1456 26.1739 32.8461 25.4342C33.329 24.9277 34.0901 24.4402 34.1563 24.0796ZM71.1224 126.337C72.1362 126.03 71.1935 125.913 73.0408 125.967C72.9295 126.036 72.8171 126.105 72.7049 126.174C72.1795 126.236 71.6472 126.291 71.1224 126.337ZM38.9636 22.0694C38.6566 21.77 37.6446 21.9997 37.8527 22.6586C38.733 22.2854 38.1437 22.1971 38.9636 22.0694ZM10.6765 64.4913C10.7315 64.0152 10.806 63.689 10.8847 63.4817C11.0691 63 11.2714 63.16 11.3954 63.5444C11.4239 63.6325 11.4485 63.7324 11.4681 63.8393C11.3708 63.9448 11.2736 64.0506 11.1776 64.1546C11.18 64.4785 11.1853 64.8015 11.1928 65.1235C11.0197 64.9149 10.8472 64.704 10.6765 64.4913ZM69.7372 14.1641C68.325 14.387 71.2377 14.41 70.2507 14.5394C69.4659 14.6365 68.4567 14.3105 68.8493 14.1381C69.1195 14.1423 69.4206 14.1512 69.7345 14.164C69.7354 14.164 69.7363 14.1641 69.7372 14.1641ZM61.6408 14.421C61.8988 14.7135 61.5603 14.6456 62.6556 14.5012C62.965 14.4471 65.4739 14.4496 64.411 14.2377C63.5121 14.2771 62.5745 14.3363 61.6408 14.421ZM12.891 85.4918C12.758 85.5505 11.9738 83.749 11.9968 83.4833C11.9966 83.4834 11.9964 83.4834 11.9962 83.4835C12.0362 82.7836 12.5506 84.7613 12.6104 83.834C12.8507 85.7922 13.6182 86.1792 12.8192 86.2718C12.4639 85.1671 12.7743 85.651 12.891 85.4918ZM121.445 84.4953C121.446 84.4944 121.446 84.4936 121.446 84.4927C121.41 84.6191 120.937 85.5959 120.903 85.4511C121.296 84.2337 121.366 84.4829 121.437 83.2694C121.52 83.2215 121.599 83.182 121.684 83.1288C121.615 83.6023 121.636 83.8802 121.445 84.4953ZM80.805 125.041C80.3534 125.194 79.476 125.25 78.953 125.372C80.4979 124.459 82.5942 124.42 80.805 125.041ZM118.852 49.1861C118.852 49.185 118.851 49.1838 118.85 49.1826C118.851 49.1829 118.851 49.1833 118.852 49.1835C118.852 49.1844 118.852 49.1853 118.852 49.1861ZM44.9298 121.921C44.9713 121.979 44.9904 122.022 44.9908 122.053C44.9897 122.055 44.9887 122.058 44.9877 122.06C44.9709 122.016 44.9523 121.97 44.9298 121.921ZM14.1508 89.3002C14.2413 90.1275 13.0535 87.6888 12.8851 86.8233C12.986 86.8562 13.0641 86.8424 13.2012 86.9482C13.1868 87.69 14.1316 89.1681 14.1508 89.3002ZM25.6374 32.3326C24.205 33.9018 25.5108 31.3408 26.0369 31.675C26.0414 31.6857 25.6727 32.2912 25.6374 32.3326ZM10.8445 72.9931C10.5964 72.4618 10.5702 73.5532 10.5542 71.8085C10.6107 71.7061 10.6676 71.6039 10.7246 71.502C10.7578 71.9969 10.798 72.4965 10.8445 72.9931ZM16.7107 43.1209C15.5185 45.5706 14.7213 48.0333 16.0064 46.6973C16.0733 46.5054 16.143 46.3116 16.212 46.1205C15.9497 45.9615 16.4175 45.3561 16.93 44.3904C16.8933 44.1953 17.1538 43.6442 17.118 43.4948C17.0479 43.2041 16.5895 43.7584 16.7107 43.1209ZM112.397 36.5619C112.33 36.5583 112.262 36.5558 112.195 36.5522C111.894 36.2477 111.589 35.946 111.282 35.6494C111.403 35.6413 111.524 35.6338 111.645 35.6265C111.899 35.9353 112.149 36.2452 112.396 36.5595C112.396 36.5603 112.397 36.5611 112.397 36.5619ZM24.9606 108.648C25.5518 108.436 24.8892 107.901 23.5515 106.764C24.0069 107.4 24.4779 108.03 24.9606 108.648ZM49.5488 16.1735C49.6524 16.3118 49.7546 16.4502 49.8597 16.5882C50.6822 16.1513 50.4701 16.0239 49.9813 15.9483C49.8356 16.023 49.6935 16.0976 49.5488 16.1735ZM62.5765 13.549C62.1925 13.5446 62.3975 13.6612 62.3575 13.6616C61.3831 13.6746 61.2372 13.6247 60.0678 13.8609C59.9275 13.9128 59.7902 13.9667 59.6508 14.0207C60.2362 14.2927 60.6068 14.0537 61.7796 14.1459C61.5612 14.0478 61.3426 13.9507 61.1221 13.8547C61.7674 13.8137 62.4144 13.7834 63.0567 13.7648C63.1305 13.7235 63.2046 13.6826 63.2787 13.6416C63.0466 13.6097 62.8064 13.5741 62.5765 13.549ZM115.034 40.7091C115.351 41.2479 115.66 41.7947 115.959 42.3438C116.044 42.3217 116.128 42.2986 116.213 42.2767C115.829 41.747 115.435 41.2229 115.034 40.7091ZM34.8043 116.915C34.8621 116.918 34.919 116.921 34.9717 116.92C34.9471 116.948 34.886 116.942 34.8043 116.915ZM122.284 82.9975C122.5 82.3198 122.669 81.3064 122.82 80.5365C122.607 80.5631 122.283 82.5169 121.992 83.1612C122.003 83.2787 122.193 83.2869 122.284 82.9975ZM11.018 61.9543C10.94 61.7626 10.8635 61.5705 10.7869 61.38C10.8661 60.9554 10.9502 60.5347 11.04 60.1056C10.9573 60.0775 10.8739 60.0494 10.7912 60.0211C10.5695 61.9341 10.4095 61.4529 10.0245 62.3672C10.3552 62.2253 10.686 62.0897 11.018 61.9543ZM122.861 58.9938C122.522 57.6451 122.293 57.2011 122.215 58.0138C122.379 58.4746 122.538 58.9416 122.691 59.4093C122.748 59.2704 122.804 59.131 122.861 58.9938ZM57.8364 126.384C58.9591 126.465 58.962 126.795 60.0264 126.768C60.055 126.767 60.0844 126.766 60.1147 126.764C60.0862 126.758 60.0577 126.751 60.0292 126.744C59.4612 126.613 58.8984 126.473 58.3426 126.326C58.1754 126.346 58.0039 126.365 57.8364 126.384ZM14.0371 93.4202C14.127 93.9257 15.019 94.5293 15.2535 95.9595C15.5147 96.2003 15.7162 96.33 15.9563 96.5259C15.9116 96.7344 15.8771 96.9645 15.8322 97.1671C15.8326 97.1679 15.833 97.1687 15.8334 97.1695C16.4676 98.2644 16.2314 97.4597 16.371 97.4183C16.4281 97.4028 16.7883 98.268 16.7618 97.9502C16.7065 97.4084 15.736 95.8031 15.982 95.6756C16.1907 96.3032 16.8594 97.4013 16.841 96.9813C16.8202 96.5261 15.9749 95.6084 15.794 94.8433C15.8815 96.024 15.0153 93.9101 15.2237 93.5358C14.4564 92.4225 14.8363 93.5885 15.4367 94.8237C14.8487 94.1754 15.4988 95.2312 15.4009 95.5059C14.8854 94.7915 13.7956 92.01 14.0371 93.4202ZM22.9711 33.7188C22.3869 34.4371 21.3777 35.4917 21.1722 36.1308C21.0509 36.4989 21.9981 35.4062 21.5554 36.3177C22.0794 35.5918 22.1497 35.3869 21.9184 35.4013C22.0278 35.2269 22.1401 35.0515 22.2524 34.8781C22.3378 34.8246 22.4245 34.7693 22.5101 34.7164C22.5224 34.5881 22.5359 34.4595 22.5474 34.3329C22.6961 34.1722 22.8473 34.0104 22.998 33.8519C22.9871 33.8094 22.9913 33.7559 22.9711 33.7188ZM90.2687 122.106C90.0372 122.213 89.8073 122.318 89.5745 122.422C89.617 122.449 89.6652 122.476 89.7121 122.502C89.747 122.524 89.7819 122.546 89.8168 122.568C89.6318 122.519 88.4363 122.809 88.0076 123.117C87.7914 123.272 88.4261 123.274 87.418 123.71C88.1557 123.413 88.8287 123.104 89.5294 122.78C89.4931 122.871 89.4593 122.961 89.4224 123.052C89.4229 123.052 89.4233 123.052 89.4238 123.052C89.6666 122.965 89.912 122.876 90.1536 122.785C90.1939 122.558 90.2311 122.333 90.2687 122.106ZM48.7339 16.1015C47.9451 16.5113 47.6971 16.6801 48.1576 16.7476C48.1585 16.7474 48.1594 16.7471 48.1603 16.7469C48.4346 16.5481 48.7122 16.351 48.9904 16.1567C48.9058 16.1379 48.8212 16.1191 48.7339 16.1015ZM40.8866 121.389C42.9127 121.496 38.9742 120.029 39.5438 120.636C39.5676 120.668 40.7701 121.231 40.8866 121.389ZM10.3883 64.8038C10.427 64.35 10.4719 63.8946 10.5221 63.4372C10.528 63.3835 10.534 63.3298 10.54 63.2762C10.4875 63.3236 10.435 63.3717 10.3827 63.42C10.3194 63.4784 10.2563 63.537 10.1932 63.5949C10.2537 64.0002 10.3191 64.4038 10.3883 64.8038ZM121.703 53.033C121.761 52.4493 121.388 51.0949 120.916 50.5442C121.012 50.889 121.105 51.2348 121.195 51.5813C120.947 50.9536 120.688 50.3396 120.419 49.718C120.109 49.7995 120.569 50.4559 120.873 51.5928C120.924 51.7711 120.916 52.9865 121.316 53.2776C121.4 53.3359 121.06 52.1498 121.493 52.9111C121.391 52.549 121.286 52.243 121.179 51.904C121.242 51.8552 121.305 51.8065 121.368 51.755C121.485 52.1817 121.595 52.6048 121.703 53.033ZM19.7327 38.0334C19.0017 39.0762 19.0308 39.2849 19.0744 39.6265C19.3719 39.117 19.6777 38.6123 19.9907 38.1127C19.9041 38.0873 19.8197 38.0589 19.7327 38.0334ZM117.255 42.5296C116.946 41.9005 116.933 42.252 116.765 42.0247C116.124 41.1687 115.862 40.4824 115.232 39.641C115.299 39.6807 115.361 39.717 115.425 39.7554C115.425 39.7546 115.424 39.7538 115.424 39.7531C112.793 35.5311 113.952 37.9095 115.585 40.375C115.564 40.4696 115.541 40.5618 115.52 40.6559C116.313 41.7195 117.001 42.7375 117.255 42.5296ZM27.3858 111.829C27.3982 111.898 26.8604 111.761 27.6063 112.294C28.3987 112.496 27.4066 111.837 27.3024 111.522C27.5046 111.664 27.7102 111.809 27.9118 111.947C26.9325 110.865 26.7253 110.77 26.9011 111.352C26.9144 111.393 27.3736 111.76 27.3858 111.829ZM34.7567 118.025C35.2435 117.661 33.5878 116.828 33.5381 117.006C33.742 117.161 33.9597 117.195 34.1564 117.385C34.3556 117.577 34.3353 117.729 34.7567 118.025ZM9.66239 73.4066C9.6619 73.4605 9.4501 74.0192 9.63777 73.9535C10.0426 73.2571 9.70799 71.9185 9.55934 72.158C9.58112 72.6087 9.6606 72.9055 9.66179 73.4067C9.66199 73.4067 9.66219 73.4067 9.66239 73.4066ZM123.784 61.2017C123.8 61.173 123.665 59.815 123.538 59.6572C123.41 59.5335 123.289 59.4837 123.164 59.3976C123.41 60.1151 123.577 61.6177 123.784 61.199C123.784 61.1999 123.784 61.2008 123.784 61.2017Z" fill="white"/>
</svg>
