<svg width="137" height="137" viewBox="0 0 137 137" fill="none" xmlns="http://www.w3.org/2000/svg">
<circle cx="68.3441" cy="68.3441" r="61.3273" transform="rotate(7 68.3441 68.3441)" fill="black"/>
<path d="M119.304 42.3826C119.4 43.1785 118.52 40.7594 118.886 42.4583C118.726 42.1408 118.562 41.8234 118.396 41.5098C118.473 41.3769 118.549 41.2413 118.625 41.1072C118.856 41.5284 119.083 41.9522 119.305 42.3824C119.305 42.3825 119.304 42.3825 119.304 42.3826ZM121.002 42.3965C120.502 42.1086 119.857 40.844 120.154 42.3839C120.313 42.4495 120.474 42.5187 120.633 42.5861C120.749 43.1183 120.856 43.6526 120.955 44.1841C121.066 44.347 121.176 44.5106 121.285 44.6754C121.169 44.9777 121.049 45.2762 120.928 45.5747C120.887 45.3616 120.843 45.1457 120.799 44.9329C120.347 44.1928 120.037 43.5081 119.564 42.4591C119.557 42.5716 119.55 42.6839 119.542 42.7961C119.398 42.226 119.246 41.6575 119.085 41.0928C119.369 41.5181 119.68 42.0004 119.933 42.4045C119.953 41.5788 119.235 40.4329 118.871 39.8417C118.376 39.035 118.61 39.157 118.236 38.5627C118.176 38.4679 118.06 38.5131 117.957 38.3185C117.448 37.3321 116.422 35.4293 117.302 36.3843C118.171 38.0023 119.086 39.3035 119.751 40.9917C119.858 40.419 120.366 41.2353 121.002 42.3965ZM98.8996 17.3585C99.4552 17.521 100.361 18.2079 100.915 18.7436C100.916 18.7441 100.916 18.7446 100.917 18.7451C101.04 18.8629 101.222 19.2592 100.783 18.9342C100.067 18.4084 99.8955 17.8866 99.3767 17.8183C99.2255 17.6665 99.0618 17.5137 98.8996 17.3585ZM97.2377 16.3504C96.8072 15.9992 97.1531 15.9024 97.7097 16.3191C97.7098 16.3189 97.7099 16.3188 97.71 16.3186C97.9407 16.494 97.3546 16.3685 98.3397 16.7367C98.4337 16.9839 98.5304 17.2172 98.6208 17.4588C98.4085 17.3259 98.2132 17.2074 97.9889 17.0703C98.2781 16.9411 97.6669 16.7016 97.2377 16.3504ZM116.711 35.6484C116.463 35.6936 116.651 36.0049 116.811 36.6198C116.532 36.1122 116.246 35.6077 115.952 35.1108C116.207 35.2879 116.458 35.4656 116.711 35.6484ZM122.091 48.2106C122.091 48.2114 122.091 48.2122 122.091 48.2131C122.181 48.3866 122.269 48.5605 122.355 48.7322C122.305 48.8649 122.254 48.9958 122.202 49.1277C122.455 49.7554 122.698 50.3939 122.93 51.0356C122.663 51.013 122.419 49.8257 122.068 49.2338C121.884 48.2642 121.882 47.7627 122.074 47.6378C122.081 47.8281 122.085 48.0181 122.091 48.2106ZM13.1006 68.2369C13.1907 68.4609 13.2818 68.6809 13.3745 68.9025C13.3783 68.5961 13.3769 68.2913 13.3908 67.9832C13.0225 67.208 13.2881 67.1126 13.2195 66.0637C13.0718 62.8557 12.5977 63.6682 13.4053 60.7967C13.2769 63.121 13.6464 62.2388 13.8863 63.6348C13.6899 63.9271 13.2588 62.531 13.1621 63.4762C13.3646 65.1048 13.6139 66.659 13.8994 68.4292C13.9283 68.374 13.9575 68.3192 13.9866 68.2642C13.9416 67.9814 13.8992 67.7055 13.8586 67.4238C13.9694 67.7229 14.081 68.0113 14.1982 68.3142C13.9607 67.9397 14.1616 68.9283 13.9169 68.8165C13.8069 68.767 13.6223 68.3361 13.5022 68.0801C13.5023 68.7644 13.5213 69.4647 13.5492 70.1542C13.4249 69.8098 13.3037 69.4634 13.186 69.1167C13.1548 68.8251 13.1268 68.5351 13.1002 68.2423C13.1003 68.2405 13.1005 68.2387 13.1006 68.2369ZM119.068 86.8385C118.933 87.717 118.267 89.1311 117.637 89.7197C118.143 88.7708 118.618 87.8147 119.068 86.8385ZM122.227 47.5234C122.216 47.6285 122.204 47.7304 122.192 47.8352C121.996 47.4461 121.797 47.058 121.593 46.6761C121.681 46.5616 121.769 46.4449 121.856 46.3273C121.984 46.7233 122.108 47.1239 122.227 47.5234ZM108.127 24.3223C108.353 24.5385 108.37 24.5608 108.631 24.8511C108.631 24.8507 108.631 24.8503 108.631 24.8499C108.738 24.9623 109.577 25.9481 109.409 25.9072C108.971 25.4399 108.497 24.9482 108.033 24.4855C108.062 24.4286 108.101 24.3831 108.127 24.3223ZM113.065 30.0371C113.065 30.0379 113.066 30.0388 113.066 30.0396C113.197 30.2338 113.307 30.4276 113.447 30.6239C112.812 30.0174 112.934 29.7517 112.387 29.1774C111.837 28.6061 111.419 28.3274 111.256 27.5865C111.458 27.7416 111.69 27.8982 111.902 28.057C112.508 29.0161 112.795 29.1692 113.458 29.8024C113.327 29.8806 113.196 29.9587 113.065 30.0371ZM14.4708 53.9997C14.3345 53.7567 14.5477 53.5501 14.5542 53.5263C14.5544 53.5267 14.5545 53.5272 14.5546 53.5277C14.7544 51.6272 14.5936 53.7839 14.9767 52.0356C14.9646 52.3046 14.9577 52.5701 14.9504 52.8371C14.7882 53.2203 14.6166 53.6179 14.4708 53.9997ZM53.5595 10.3399C53.5907 10.3841 53.6252 10.4275 53.6562 10.4718C52.62 10.7655 52.4232 11.0421 51.5201 11.1482C52.1924 10.8654 52.8721 10.5958 53.5594 10.3393C53.5594 10.3395 53.5595 10.3397 53.5595 10.3399ZM104.34 20.4025C105.329 21.0882 106.033 21.6432 106.779 22.5369C106.779 22.5376 106.78 22.5384 106.78 22.5391C106.823 22.591 106.514 22.453 106.559 22.5315C106.745 22.6797 106.942 22.8281 107.13 22.9783C107.095 23.0632 107.058 23.1469 107.024 23.2311C106.551 22.7527 106.069 22.2821 105.576 21.8185C105.618 21.922 105.661 22.0268 105.703 22.1303C105.257 21.7701 104.809 21.42 104.353 21.0747C104.595 21.0934 104.838 21.1136 105.08 21.1338C104.836 20.888 104.588 20.6446 104.34 20.4025ZM37.1305 17.593C37.3195 17.5298 37.0824 17.8085 37.3533 17.679C37.6233 17.549 38.0176 17.1575 37.9997 17.3599C37.6813 17.5999 37.351 17.8571 37.0329 18.1089C38.2574 17.5892 39.2092 16.68 39.4159 16.9651C38.3189 17.5584 37.4949 18.1735 36.5799 18.9593C36.4519 18.7041 37.3018 17.8024 36.5263 18.0336C36.7248 17.887 36.9335 17.7333 37.1286 17.595C37.1293 17.5943 37.1299 17.5937 37.1305 17.593ZM128.075 64.8344C128.043 65.6105 128.068 67.4279 127.818 68.3966C127.759 68.6373 127.166 69.3922 127.098 69.3797C126.872 69.332 126.934 68.3595 126.684 69.3841C126.717 69.0344 126.74 68.6948 126.765 68.3484C126.605 68.3976 126.446 68.446 126.288 68.4917C126.275 68.9119 126.257 69.3337 126.235 69.7561C126.182 69.7712 126.129 69.7861 126.076 69.8011C126.23 68.2969 125.942 69.1644 125.83 68.3728C125.677 69.0773 125.51 69.7853 125.33 70.4835C125.392 70.0754 125.454 69.5937 125.503 69.2346C125.248 69.1604 125.219 70.0239 125.152 70.1657C124.806 70.9561 125.354 66.778 124.95 66.409C124.873 67.0762 124.783 67.7747 124.682 68.4478C124.652 68.2491 124.621 68.0483 124.589 67.8508C124.972 66.3266 125.134 64.5907 125.274 62.7709C125.261 62.6073 125.247 62.4435 125.233 62.2828C125.116 62.3331 124.999 62.3807 124.881 62.4305C124.862 62.185 124.842 61.9397 124.82 61.6926C125.229 62.4081 125.209 61.4011 125.373 60.1654C125.55 60.8075 125.495 61.6191 125.748 61.5546C125.481 59.3169 125.499 56.6761 124.924 54.5453C124.78 54.0191 124.466 54.0796 124.259 52.8284C124.302 52.8637 124.368 52.8585 124.42 52.8769C123.837 50.7544 123.433 49.4976 122.937 47.2703C122.862 47.4306 122.785 47.5884 122.709 47.7474C122.902 48.1923 123.09 48.6382 123.271 49.0854C123.164 49.4527 122.968 49.0047 123.316 50.3926C123.59 51.5341 123.511 50.8344 123.641 51.1322C123.814 51.5362 123.742 51.9397 123.922 52.3773C124.059 52.7171 124.145 52.3015 124.282 53.2358C124.007 52.9012 123.72 52.5659 123.436 52.2403C123.436 52.0084 123.435 51.7779 123.432 51.5457C123.537 51.758 123.638 51.9678 123.74 52.1824C123.476 51.4076 123.211 50.6829 122.904 49.8969C123.265 50.0872 122.941 49.2732 122.78 48.8307C122.53 48.1406 122.9 48.6886 122.735 48.2353C122.567 47.7806 122.2 47.3502 121.982 46.5115C122.252 46.9129 122.173 46.2734 122.328 46.3514C122.485 46.4291 122.791 47.3053 122.651 46.4153C122.018 44.8233 122.153 46.7293 121.715 45.6662C121.181 44.4001 121.774 43.8254 122.076 44.1563C122.314 44.4171 122.663 45.4939 122.887 45.7666C122.457 43.7684 121.988 43.9187 121.788 43.628C121.029 42.5836 122.161 43.0394 121.3 41.7804C121.463 41.7426 121.608 41.7066 121.765 41.6719C121.637 41.4445 121.534 41.3019 121.388 41.0247C121.455 41.9962 121.174 41.2976 121.019 40.9464C120.775 40.3924 121.007 41.3113 120.905 41.1805C120.636 40.8274 120.4 40.1887 120.442 40.6267C120.426 40.4295 120.402 40.2166 120.38 40.014C120.011 39.3994 118.67 38.2312 119.478 39.5738C119.185 39.5523 119.077 39.0469 118.935 38.6778C118.793 38.309 118.651 38.3895 118.52 38.0689C117.988 36.7965 118.65 37.4593 118.947 37.555C117.946 36.013 118.733 37.6208 117.346 35.3869C117.067 35.2587 117.509 36.3963 116.916 35.5805C117.087 35.2669 116.91 34.5074 116.21 33.2279C116.074 33.1477 115.937 33.0689 115.801 32.9901C115.6 32.1754 116.076 32.3354 114.947 31.3284C115.929 31.6061 115.292 31.3927 114.725 30.1652C114.608 29.9158 115.086 30.3401 114.918 29.995C114.841 29.8382 114.513 29.5645 114.322 29.1842C114.231 28.9983 113.841 28.0847 113.328 27.6445C113.388 28.2181 112.394 27.4175 112.864 28.4113C111.674 26.8406 110.631 25.9065 112.403 27.3093C112.153 26.8624 111.895 26.4179 111.632 25.9764C111.342 25.762 111.049 25.5482 110.755 25.338C110.908 25.126 111.007 25.1066 110.014 24.1324C110.476 24.5241 110.933 24.922 111.385 25.3314C111.438 25.3115 111.535 25.3381 111.559 25.2891C110.993 24.7933 109.509 23.3134 109.093 23.013C108.683 22.706 109.367 23.4073 109.215 23.3522C107.967 22.8923 108.319 22.6742 107.621 22.1472C107.212 21.8414 108.056 22.7143 107.841 22.546C107.049 21.9209 106.899 21.3921 106.225 20.7981C106.356 21.1324 106.48 21.4672 106.597 21.7978C105.91 21.1671 105.12 20.4927 104.414 19.9889C104.136 19.7913 104.259 20.0489 104.21 20.0204C103.971 19.8778 103.052 19.2444 102.956 19.1755C102.248 18.6401 102.329 18.4876 101.631 17.9729C101.916 18.1591 102.182 18.337 102.458 18.524C102.745 18.3914 103.035 18.2625 103.325 18.1331C102.649 17.5978 101.959 17.0771 101.257 16.5717C101.727 17.0055 102.189 17.447 102.642 17.8951C101.715 17.4914 100.786 17.1189 99.8497 16.7714C99.5016 16.3776 99.1501 15.9898 98.7894 15.6043C97.5877 14.9113 97.5426 15.545 97.2227 14.7903C96.8494 14.6227 96.475 14.4595 96.0988 14.2999C96.1833 14.2666 96.2675 14.233 96.3523 14.2001C95.9011 14 95.4475 13.8056 94.9909 13.6179C95.3362 14.0755 95.6563 14.5424 95.9808 14.9965C95.1207 14.5851 95.1995 14.3968 95.0983 14.2825C94.8271 13.9812 94.0727 13.8069 93.8605 13.5601C93.789 13.4738 94.6903 13.7728 94.4732 13.485C94.4349 13.4285 93.5553 12.3355 92.7512 12.1196C92.7209 12.2224 92.7236 12.3668 92.7051 12.4854C91.6914 12.0899 91.3976 11.3714 91.5915 11.2838C91.0114 11.1509 90.2138 10.839 90.0392 10.9534C89.7589 10.8466 89.4845 10.7444 89.2044 10.6427C89.6437 10.3652 88.4449 9.9983 88.2478 10.309C88.7269 10.49 89.2029 10.6779 89.6748 10.8711C89.1528 11.1473 90.5216 11.9104 87.64 10.4358C87.1324 10.0175 88.6627 10.8302 88.2459 10.5029C87.4551 10.1137 86.6525 9.93348 85.9062 9.53698C84.9716 9.05291 86.2494 9.211 83.8519 8.80268C88.7821 10.9057 83.0594 8.91017 80.5775 8.66146C80.1006 8.0032 78.4404 7.43222 76.023 7.22061C75.7099 7.19333 75.3852 7.17232 75.0503 7.15819C75.2177 7.27808 75.6054 7.3315 76.003 7.38396C76.2807 7.42042 76.5621 7.45603 76.7742 7.50867C77.2889 7.6379 76.7108 7.6592 77.3471 7.83257C77.9832 8.00365 79.3278 8.34554 79.9517 8.5967C79.3816 8.56854 76.6447 8.36249 78.4756 8.37931C77.4997 8.08672 76.9085 7.86971 75.9666 7.68023C75.6485 7.61701 75.2912 7.55826 74.8665 7.50625C74.3339 7.72717 74.359 7.88088 72.7271 7.7722C73.7279 7.46362 71.8679 7.08108 72.3023 6.72215C73.4794 6.88597 72.7962 7.21939 73.4554 7.44808C73.5222 7.46893 74.6139 7.47045 74.8665 7.50625C73.8049 7.06012 73.4256 6.91094 74.1431 6.56704C73.3555 6.53263 72.8692 6.45293 72.7838 6.6392C72.6248 6.54531 72.4642 6.45197 72.3065 6.35958C72.0487 6.34703 71.8166 6.34297 71.5441 6.32945C71.9062 6.63589 71.1869 6.42287 70.6688 6.54055C70.151 6.66063 70.8376 6.89662 69.4252 6.88162C69.895 6.95276 70.3241 7.01925 70.7717 7.0971C69.8704 7.14386 68.9546 7.21267 68.0587 7.30278C68.6941 7.46363 70.0581 7.74077 70.0153 7.97562C69.6032 7.87525 68.1975 8.03535 68.0464 8.04862C67.4542 8.08442 67.7737 7.93136 67.7289 7.92849C66.7916 7.87878 66.0202 7.97226 65.652 7.77178C64.9546 7.91553 64.4219 7.89923 63.6747 7.97624C63.2645 8.01973 63.3613 8.17477 63.1189 8.16907C61.511 8.15599 62.9823 7.71937 59.9861 8.57907C60.3728 8.63054 60.7537 8.68936 61.138 8.74982C60.8009 8.84197 60.4676 8.93711 60.134 9.03534C59.9027 9.05228 59.6737 9.07017 59.4428 9.09C59.4046 8.8461 59.3675 8.60152 59.3295 8.3576C59.0751 8.38886 58.8172 8.42298 58.5616 8.45811C58.9924 8.35106 59.4226 8.24953 59.8544 8.15302C59.887 8.10356 59.9171 8.05454 59.95 8.00513C59.2907 8.04525 58.6312 8.09651 57.969 8.16029C57.9734 8.24697 57.9782 8.3342 57.9828 8.42086C56.5077 8.60596 56.4516 8.54584 55.1406 9.11676C54.0877 9.38442 53.3409 9.97877 52.792 10.3051C52.5647 10.3245 52.3368 10.3449 52.107 10.3679C51.9925 10.4795 51.8772 10.5917 51.7642 10.704C51.4649 10.6978 51.1614 10.6953 50.8598 10.695C50.7836 10.962 50.731 11.0461 51.7998 10.7739C51.5283 11.1497 49.6652 11.6744 48.9003 11.8837C48.3168 12.037 48.8495 11.5751 48.7697 11.5762C48.4994 11.5758 47.6097 12.0288 47.4129 12.097C46.5748 12.3799 46.0158 12.6443 45.2712 12.9371C45.1263 12.9935 44.6702 13.0483 44.6348 13.0607C44.3645 13.1623 43.6968 13.4166 43.6241 13.4524C39.8914 15.3215 44.0958 13.7437 40.7108 15.5857C40.8533 15.5999 40.9872 15.6189 41.127 15.6354C40.8796 15.786 40.6307 15.9398 40.3858 16.0942C40.0357 16.2247 40.3464 15.8817 39.7797 16.3537C39.7649 16.2399 39.7504 16.1258 39.7385 16.0109C39.4965 16.2268 39.2665 16.4378 39.0226 16.6614C38.392 16.624 36.7903 17.6187 36.6578 17.1987C36.6089 17.0518 37.6418 16.1678 36.9643 16.442C36.4674 16.7459 36.8901 16.6656 36.7003 16.8076C35.3387 17.8408 35.2846 17.6004 34.7607 18.0695C34.7353 18.2189 34.7074 18.3732 34.682 18.5247C34.4548 18.6599 34.2278 18.7972 34.0002 18.9373C33.9952 19.0301 33.9885 19.1245 33.984 19.2172C34.1804 19.0676 34.4024 18.9003 34.5847 18.7659C34.4857 19.1598 32.3403 21.0858 33.0407 20.2082C33.3251 19.8481 33.9944 19.3626 33.3871 19.4411C32.8103 19.9665 32.1656 20.5721 31.5838 21.1482C31.5192 21.1135 31.4557 21.0776 31.3909 21.043C30.5963 21.8132 31.5293 21.3468 31.6249 21.46C31.4401 21.6298 31.2542 21.8023 31.0717 21.9745C30.9482 21.997 30.8264 22.0141 30.7004 22.0425C30.7652 22.1283 30.8271 22.4013 30.223 22.8487C29.8349 23.1386 30.1955 22.4183 29.56 23.0849C29.7261 23.1558 30.0986 23.0675 29.4125 23.8208C29.219 23.7698 29.0077 23.7575 28.8231 23.6858C28.0474 24.7119 27.452 24.9494 26.5993 26.1993C26.0576 26.994 25.5754 28.2593 24.6731 28.3253C24.2275 28.8607 24.4967 28.7901 24.3998 28.9748C23.9478 29.8462 23.2727 30.2413 23.1501 30.3782C22.378 31.247 22.1788 31.737 21.5343 32.4419C21.6658 32.4669 21.7789 32.508 21.902 32.5404C22.2231 31.7218 22.4737 31.3621 23.211 30.4055C22.9931 30.7487 22.7807 31.0927 22.5711 31.4392C22.6912 31.442 22.8109 31.4457 22.9289 31.4509C24.7938 28.2091 24.7558 29.2839 23.0788 31.8768C22.7747 31.9904 22.4656 32.1158 22.1626 32.2339C21.4052 33.8922 20.7538 34.4736 19.7027 36.2246C19.5778 36.4327 19.2528 37.26 19.0844 37.5998C19.088 37.5945 19.0915 37.5892 19.0951 37.5839C19.1422 37.874 19.3608 37.6278 19.5173 37.6673C19.4402 37.857 19.3636 38.0483 19.2892 38.2378C18.9786 38.5891 18.9585 38.4007 18.5915 39.22C18.7513 39.1627 18.9104 39.1077 19.0701 39.0522C18.6463 39.9302 18.2591 40.4633 17.9469 41.3176C17.9665 41.1595 17.986 41.003 18.007 40.8449C17.1126 42.6206 17.0882 40.8932 16.8304 42.4253C16.7376 42.4919 16.6454 42.5564 16.5528 42.6239C16.7709 42.0354 16.9989 41.4516 17.2347 40.875C17.1606 40.8288 17.0873 40.7817 17.0123 40.7377C16.7665 41.3633 16.531 41.9974 16.3071 42.6333C16.4343 42.1547 16.5687 41.6752 16.7083 41.2001C16.3641 41.9015 16.0316 42.6173 15.7171 43.3314C16.3091 42.6711 15.9629 43.6869 16.3295 43.6093C15.608 44.7981 14.9079 45.7189 14.5199 47.8408C14.4472 48.2636 14.7143 48.0944 14.148 49.1854C14.5561 48.9937 14.3494 50.4854 14.7218 50.3764C14.8032 49.9706 14.8987 49.5531 14.9821 49.1618C14.7554 49.5722 14.4267 49.5693 14.5145 48.87C14.6245 47.9792 15.2186 46.7884 14.8671 46.7379C14.9886 46.4014 15.0989 46.0883 15.2204 45.7641C15.2588 45.9267 15.2994 46.0863 15.34 46.2457C15.5095 45.2726 15.7639 44.6945 16.1304 44.3277C15.7789 45.4466 15.466 46.5638 15.1855 47.6988C15.2482 47.5379 15.3125 47.3753 15.3762 47.2153C15.3425 48.124 15.7913 47.3154 15.3984 48.8975C15.3017 48.8609 15.2044 48.8261 15.1072 48.7892C15.2097 49.4332 14.8271 51.0125 15.2573 50.5823C15.0492 51.0354 14.9671 51.1236 15.0734 51.4284C14.5599 52.6266 14.1166 53.4032 13.8446 52.8764C13.81 53.3647 13.7811 53.8583 13.7604 54.3392C13.9041 54.0805 14.0493 53.8227 14.1971 53.5645C14.0408 54.3912 13.9037 55.2174 13.7849 56.0491C13.4775 56.0877 13.9325 54.4351 13.6 54.8803C13.5322 54.9693 13.5763 55.4352 13.5304 55.549C13.0362 56.7542 13.5439 54.8243 13.2492 55.1568C13.0061 56.4614 12.8425 56.0868 12.7626 56.662C12.7309 56.9056 12.7148 57.3215 12.7414 58.1018C12.6503 58.1619 12.5571 58.2274 12.4671 58.2831C12.3806 59.1868 12.5792 59.1241 12.5609 59.9044C12.551 60.3918 12.1826 60.9888 12.3919 61.536C12.434 61.6315 12.8638 60.752 12.7972 62.6346C12.766 64.1042 12.4834 63.4913 12.384 64.2895C12.2817 65.0893 12.764 66.8973 12.3514 67.4601C12.3834 67.0385 12.3863 66.5041 12.4166 66.0371C12.3197 65.8518 12.2249 65.6704 12.1304 65.4855C12.2783 66.5505 12.2157 67.6551 12.4876 68.3516C12.2778 69.8027 12.7934 71.342 13.0999 70.8676C12.9894 70.4152 12.8925 70.9351 12.9158 70.2831C12.9928 70.2075 13.0691 70.1286 13.1465 70.0536C13.2611 71.1374 13.3818 71.895 13.0517 71.4344C13.0691 71.6045 13.0871 71.7728 13.1061 71.9426C13.2969 71.9451 13.4879 71.9438 13.6786 71.9458C13.7296 72.1421 13.7816 72.3389 13.8346 72.5342C13.8295 72.7617 13.8253 72.9899 13.8229 73.2203C13.4808 72.9717 13.3682 72.453 13.5174 74.1903C13.6195 74.176 13.7217 74.1641 13.8238 74.1497C13.978 75.5945 13.7329 75.6836 14.178 77.4601C13.4872 76.1787 13.9593 75.2903 13.2567 75.4454C13.2292 75.0893 13.2051 74.7299 13.1843 74.3734C13.072 74.3402 12.9596 74.3072 12.8478 74.2759C13.2394 76.1616 14.6944 79.0203 14.6526 80.357C14.7509 80.4876 14.8428 80.6202 14.9467 80.7507C15.0678 82.0196 15.8243 82.3257 15.9315 83.624C15.9468 83.7583 15.2918 83.7093 15.9297 85.2426C15.9836 85.1759 16.0925 85.1084 16.1676 85.0418C16.2595 85.3901 16.352 85.7368 16.4486 86.0819C16.5377 86.1137 16.628 86.1482 16.7175 86.1793C16.5009 85.6107 16.2944 85.04 16.096 84.4645C16.3037 84.9257 16.5187 85.3865 16.7381 85.8406C16.5854 85.1912 16.4778 84.9173 16.7954 85.213C17.0229 85.7335 17.259 86.2504 17.5017 86.7626C17.568 86.7967 17.6349 86.8303 17.7013 86.8642C17.7141 86.557 17.7261 86.2505 17.7462 85.9449C18.2288 87.3324 18.7832 88.4792 19.0634 89.6073C19.1134 89.7988 18.631 89.2812 19.394 90.3663C19.3194 90.4296 19.2679 90.4977 19.2011 90.5601C20.2144 91.8478 20.4064 92.3376 21.1356 93.8713C20.71 92.8505 21.1251 93.7395 21.3564 93.9209C21.514 94.0455 21.11 93.4246 21.2144 93.4582C21.3173 93.4945 22.0664 94.1508 21.6571 93.443C20.1136 92.0343 20.4128 91.2192 18.9819 89.0674C19.2282 89.3878 19.4791 89.7073 19.7313 90.0209C19.6875 89.833 19.6495 89.6645 19.6034 89.4618C20.1758 90.7773 19.915 90.129 20.2735 90.6012C20.6338 91.0728 21.2326 91.9571 21.6269 92.5514C21.751 92.7388 21.5161 92.6045 21.7738 93.0426C21.9483 93.3426 22.6201 94.0318 22.5545 94.3366C22.5143 94.5388 21.3254 93.4818 22.5046 95.2472C22.6106 95.6591 22.0755 94.7901 22.0507 94.7802C21.8034 94.7197 22.4284 95.8843 22.8896 96.3016C22.9269 96.3349 22.76 95.8685 23.1024 96.2619C23.9187 97.1909 24.2273 97.8417 24.5585 98.6001C24.8043 98.5198 25.6634 99.1527 26.4307 100.184C26.5261 100.189 26.6199 100.191 26.7155 100.195C26.5579 100.068 26.4012 99.9404 26.2446 99.8119C26.1377 99.618 26.0147 99.4213 25.9195 99.2255C26.7889 100.178 27.1667 100.089 27.6617 100.467C29.3726 101.734 27.8747 101.397 27.502 101.214C27.3633 100.968 27.238 100.724 27.1074 100.477C27.064 100.556 27.0204 100.635 26.9751 100.712C29.1059 103.062 26.8852 101.444 27.8757 102.741C28.4668 102.76 29.3069 103.585 30.2301 104.819C30.3538 104.933 30.4774 105.048 30.6025 105.16C30.6641 105.135 30.7267 105.067 30.7872 105.068C32.1763 106.246 32.0243 106.925 32.1153 107.089C32.5332 107.797 33.2422 107.892 33.4208 108.031C34.1802 108.621 34.3003 108.922 35.0771 109.415C35.916 109.939 35.4481 109.437 35.7562 109.522C36.0023 109.591 36.6402 110.025 36.9557 110.128C36.8083 110.119 36.6501 110.1 36.5026 110.09C37.274 110.757 37.9144 111.308 38.881 111.944C40.2756 112.16 40.7673 113.515 40.7595 112.631C39.8411 112.038 39.3708 111.639 38.9848 111.166C39.5983 111.525 40.2191 111.874 40.8468 112.211C40.9844 112.388 41.0712 112.532 41.2429 112.728C41.7914 112.838 42.8396 113.491 43.2974 113.664C45.4332 114.461 44.9209 113.877 46.5955 115.188C45.2167 114.631 45.1067 114.853 43.7906 114.168C43.9968 114.47 44.6962 114.767 44.1619 114.744C45.4882 115.323 45.1489 114.945 45.7274 115.028C46.2249 115.097 47.1149 115.47 47.1388 115.275C47.1891 115.408 47.2207 115.531 47.272 115.664C48.1313 116.023 48.9958 116.359 49.87 116.674C49.4606 116.641 49.0511 116.604 48.6415 116.561C48.9071 116.708 49.1749 116.852 49.4441 116.994C51.7 117.509 55.3659 119.111 54.9689 118.124C56.0406 118.369 56.1545 118.498 56.7034 118.787C56.7817 118.739 56.8557 118.701 56.9352 118.645C57.6133 118.862 58.1952 118.733 58.799 118.909C59.4051 119.083 59.5204 119.331 59.6736 118.97C60.0522 119.145 60.4353 119.298 60.8201 119.458C61.0739 119.408 61.3269 119.357 61.5772 119.303C61.7973 119.36 62.0185 119.416 62.2405 119.47C62.3927 119.508 62.5449 119.544 62.6971 119.58C62.9208 119.427 64.3988 119.655 65.0593 119.575C65.6671 119.812 65.6169 120.442 67.1057 120.393C67.073 120.238 67.0412 120.083 67.0091 119.928C67.3445 119.973 67.6801 120.015 68.0187 120.054C68.0381 120.105 68.0548 120.155 68.0743 120.206C67.9005 120.187 67.7321 120.167 67.5599 120.146C67.7072 120.235 67.8516 120.323 67.9977 120.411C68.5215 120.296 69.0413 120.174 69.5582 120.045C68.8613 119.955 68.1564 119.851 67.4709 119.735C68.3393 119.647 68.953 119.764 69.7071 119.632C70.3668 119.836 70.1286 119.961 69.8616 120.195C70.1079 120.172 70.3566 120.149 70.6018 120.123C70.4444 120.354 70.8681 120.494 69.4181 120.489C69.5181 120.554 69.6204 120.616 69.7185 120.684C69.9569 120.671 70.1124 120.724 70.3732 120.693C71.0828 120.609 71.6167 120.179 71.5602 120.04C71.5315 119.968 70.8381 120.135 70.8626 120.028C70.9273 119.769 72.5146 119.837 70.2198 119.645C70.971 119.466 71.1462 119.584 71.9857 119.592C71.916 119.51 71.8483 119.428 71.7816 119.346C72.17 119.367 72.5589 119.384 72.9473 119.397C72.4315 119.876 75.327 119.825 72.757 120.398C73.527 120.369 74.2999 120.324 75.0695 120.264C74.9161 120.326 74.7621 120.386 74.6076 120.446C74.2574 120.456 73.9071 120.462 73.5583 120.466C73.9732 120.516 74.3935 120.561 74.8118 120.603C75.7716 120.403 76.128 120.196 76.5411 119.948C75.4105 119.948 75.7987 120.095 74.9296 120.227C74.9477 120.102 74.8961 119.994 74.9588 119.858C75.4354 120.069 76.8749 119.703 77.2109 119.637C78.2336 119.446 77.4647 119.815 78.1542 119.712C78.8447 119.608 79.6241 119.314 80.2327 119.444C80.1956 119.31 80.1229 119.179 80.0586 119.063C81.1093 118.805 80.9305 119.003 81.045 119.001C82.869 118.955 83.7542 118.431 85.7018 117.807C85.4404 117.842 85.1776 117.881 84.9143 117.915C86.3066 117.188 85.3385 117.59 84.0308 117.852C85.2414 117.547 85.8524 117.09 86.6588 116.747C87.4674 116.407 88.9212 116.01 89.4689 115.899C88.3542 116.508 87.0294 116.863 85.7072 117.319C85.9012 117.407 86.0852 117.474 86.29 117.572C87.0149 117.029 87.5426 117.052 87.8241 116.996C88.6462 116.826 88.5319 116.594 89.0979 116.675C89.0455 116.594 89.0037 116.525 88.9537 116.45C90.5657 115.89 92.3311 115.294 93.1861 114.499C93.3746 114.66 93.5378 114.824 93.744 114.981C94.3276 114.511 94.961 114.386 95.489 114.065C96.012 113.744 95.7215 113.693 96.3169 113.289C96.4267 113.214 96.7244 113.18 96.9671 112.946C97.2174 112.711 97.9349 111.557 98.3408 111.951C98.8663 111.636 99.3676 111.345 99.8766 111.026C99.4025 111.371 98.9229 111.708 98.44 112.037C98.9362 111.892 99.4288 111.741 99.9241 111.582C99.9137 111.447 99.9019 111.31 99.8894 111.178C100.937 110.323 101.849 109.928 102.916 109.081C103.092 108.939 102.526 109.073 103.363 108.516C104.192 107.953 105.065 107.836 106.264 106.585C106.324 106.521 106.486 105.937 107.097 105.7C107.237 105.645 106.85 106.097 107.136 105.934C107.426 105.774 108.519 104.832 108.713 104.87C108.661 104.838 108.554 104.857 108.481 104.844C108.64 104.654 108.8 104.461 108.958 104.268C109.046 104.325 109.136 104.381 109.225 104.438C110.067 103.264 110.296 102.486 111.779 101.012C111.279 101.355 110.774 101.688 110.269 102.009C110.237 102.197 110.204 102.386 110.171 102.573C109.479 103.24 108.769 103.891 108.046 104.52C108.014 104.715 107.983 104.909 107.948 105.104C107.751 105.268 107.554 105.428 107.355 105.589C107.344 105.482 107.334 105.375 107.324 105.266C106.967 105.622 106.605 105.974 106.24 106.319C106.678 105.276 108.376 104.433 107.986 104.21C108.194 104.103 108.402 103.994 108.61 103.884C108.536 103.666 108.906 103.391 109.494 102.835C109.292 102.896 109.077 102.971 108.885 103.018C109.541 102.567 110.484 101.547 111.063 100.976C111.318 100.725 111.194 101.091 111.277 101.024C111.712 100.677 112.188 99.7144 112.341 99.5601C113.263 98.6404 114.187 98.2709 114.772 96.9242C113.83 98.059 114.334 97.4356 113.875 97.7428C113.73 97.8396 112.48 99.2585 113.967 97.4184C114.169 97.2306 116.891 93.8699 116.309 95.1853C116.63 94.5545 116.846 94.0397 117.11 93.45C118.522 92.4728 117.677 92.5983 117.138 92.8012C117.27 92.5823 117.391 92.3721 117.525 92.1454C117.57 92.8262 119.027 90.3552 119.284 89.3926C119.377 89.075 118.855 89.8264 119.147 89.1338C119.332 88.8295 119.543 88.4835 119.733 88.1573C119.281 88.5433 119.665 87.5414 119.438 87.4514C119.923 86.9315 120.555 86.6357 120.624 87.0843C120.77 86.523 120.906 85.9615 121.033 85.3988C120.878 85.6196 120.721 85.842 120.563 86.0593C121.457 84.4231 121.928 82.0682 122.529 81.8618C122.605 81.6261 122.68 81.3905 122.753 81.1557C122.695 81.0569 122.636 80.9606 122.577 80.8623C122.987 79.8318 123.37 78.781 123.719 77.7253C123.519 78.6962 123.574 78.9577 123.182 79.9309C123.392 79.5751 123.602 79.2061 123.803 78.8521C123.952 77.2674 123.857 77.0164 124.415 74.7348C124.446 74.6353 124.986 72.9126 125.011 72.8568C125.154 72.5969 125.228 73.0396 125.297 72.9249C125.503 72.6131 126.147 70.5475 126.187 70.5893C126.875 71.1999 125.545 78.3712 124.887 80.237C119.443 100.098 102.517 115.389 82.8269 120.124C82.6243 120.175 82.7354 120.247 82.6497 120.272C82.1152 120.425 81.555 120.394 81.3543 120.43C80.9256 120.509 81.189 120.595 80.8766 120.66C77.6451 121.321 74.5325 121.612 71.2435 121.756C71.0284 121.765 71.2441 121.647 70.8673 121.678C70.6748 121.695 70.0713 121.88 69.6308 121.885C68.0894 121.903 66.8089 121.813 65.1868 121.707C64.3062 121.651 62.9928 121.515 62.0044 121.393C62.0024 121.393 62.0004 121.393 61.9984 121.392C61.5622 121.34 61.0988 121.356 60.67 121.296C60.0621 121.21 60.2109 121.071 60.1193 121.047C59.7188 120.941 59.6347 121.103 59.2492 121.033C58.5312 120.9 58.5092 120.78 57.5991 120.611C56.9493 120.492 55.4501 120.25 54.6318 120.064C52.7739 119.46 50.4099 118.769 48.6855 118.165C47.6672 117.81 47.6356 117.615 47.2269 117.452C45.7924 116.871 44.6352 116.576 43.3198 115.939C41.5786 115.089 40.144 114.135 38.5553 113.146C38.2982 112.985 38.2787 113.148 38.0239 112.993C37.0806 112.418 35.8917 111.646 35.1065 111.054C34.2288 110.391 34.0368 109.975 33.1676 109.352C32.9135 109.168 32.7224 109.26 32.2965 108.946C31.6161 108.444 31.0232 107.716 30.5961 107.313C30.0115 106.759 30.4026 107.373 29.6154 106.622C29.5832 106.59 29.557 106.379 29.3823 106.225C28.8754 105.774 28.8468 105.902 28.1419 105.198C28.0717 105.132 27.2382 104.102 27.1511 104.005C26.6141 103.453 25.6058 102.274 25.2886 101.946C24.1504 100.778 24.8205 101.885 24.278 100.535C23.8059 100.135 23.3407 99.7321 22.8593 99.2841C23.1994 99.5666 22.2522 98.0854 22.1779 97.9886C21.5203 97.2086 21.7272 97.8059 21.0095 96.7279C22.3143 97.8989 20.1013 95.3316 19.7098 94.6819C17.7375 91.6336 16.3172 88.636 14.9519 85.2611C14.4941 84.1327 13.8547 82.6195 13.4657 81.3886C13.3743 81.1017 13.5344 81.2895 13.4567 81.0364C13.3791 80.7839 13.3638 81.0959 13.2796 80.8058C12.7623 78.9933 12.595 77.5276 11.9817 75.9037C11.9999 75.8142 12.0287 75.8107 12.0394 75.6669C11.5077 74.3349 11.3834 71.6002 11.3193 70.5901C11.2019 69.0094 11.0211 68.6091 10.9705 67.4594C10.8994 65.9294 11.1826 63.6379 10.7008 64.6676C10.6672 63.6218 10.6723 62.5974 10.756 61.5464C10.7655 61.4289 10.8883 61.5147 10.8926 61.4677C10.922 61.1707 10.814 61.0687 10.8183 60.8665C10.8317 60.3186 10.9209 61.218 10.9238 60.4364C10.9282 60.0255 10.8373 59.7779 10.9289 58.6434C10.9892 57.9247 11.0639 57.1979 11.1538 56.4644C11.9011 50.2224 13.8187 43.7548 16.6173 38.0694C16.8316 37.634 16.5804 37.8665 16.8594 37.3247C17.812 35.4218 19.9271 32.2776 20.9545 30.7738C21.9681 29.263 21.5943 29.4982 22.2131 28.5319C22.3343 28.3464 22.3064 28.5522 22.4279 28.3935C23.2422 27.3253 24.3815 26.1862 25.1117 25.3877C25.596 24.8581 25.4399 24.7962 25.7653 24.4174C26.2521 23.8539 26.8954 23.4106 27.1741 23.1303C28.486 21.8131 29.3283 20.8386 30.6771 19.7381C30.6029 19.7564 30.5476 19.7617 30.4815 19.7738C32.0322 18.4153 33.6519 17.1404 35.3363 15.9524C35.2385 15.9825 35.1432 16.0107 35.0451 16.0409C37.036 14.6601 37.0185 15.1336 36.429 14.6342C36.562 14.5142 36.7024 14.3855 36.8312 14.2726C36.9844 14.6272 38.3516 14.0429 40.0051 13.199C40.1245 13.136 40.7408 12.365 40.8667 12.7951C41.0227 12.5863 41.1118 12.4535 41.2445 12.2746C41.6534 12.2023 42.0659 12.1309 42.4738 12.0676C42.6525 11.9529 42.8347 11.8384 43.0144 11.7258C43.0039 11.6355 42.9425 11.5671 42.9656 11.4617C43.8368 10.9988 45.7199 10.2522 46.4337 9.94737C48.1993 9.16606 49.9868 8.28059 51.4973 8.06494C52.189 7.82207 51.4422 7.87477 52.4948 7.57855C52.6375 7.62469 52.7717 7.67002 52.9193 7.71819C53.671 7.10957 53.9146 7.27702 55.1163 7.05588C55.9318 6.91067 56.4351 6.70164 57.2085 6.55759C57.4045 6.52165 57.3992 6.63646 57.5318 6.60574C57.9745 6.4999 59.2285 6.11597 59.5462 6.06295C62.4278 5.55083 64.9326 5.34389 67.7178 5.31588C68.0158 5.31367 67.627 5.21188 67.9359 5.21034C68.4334 5.20938 68.1432 5.38277 68.4308 5.38747C69.233 5.40504 69.24 5.22283 70.3661 5.23449C72.217 5.26069 74.2072 5.42361 76.2095 5.70169C78.1974 5.97629 80.1776 6.36182 82.0433 6.79147C82.1607 6.81816 82.1773 6.715 82.3059 6.74356C83.1445 6.93184 83.9475 7.2828 84.6911 7.48715C85.9317 7.83063 86.8982 7.97695 88.1038 8.3887C90.46 9.20298 92.4841 10.1193 94.7828 11.2464C96.6559 12.1749 98.2581 13.0425 100.2 14.2634C108.668 19.5832 116.139 27.1355 120.731 36.1846C120.848 36.4143 120.717 36.3647 120.758 36.4322C121.139 37.074 121.277 37.08 121.165 37.433C121.633 38.2574 121.942 38.4426 122.408 39.4952C122.652 40.0574 122.193 39.7606 122.747 40.6457C123.232 41.4528 123.026 40.4269 123.874 43.0833C123.896 43.1543 123.851 43.5565 124.089 44.0839C124.325 44.6162 124.236 43.9349 124.721 45.2494C125.856 48.345 126.674 52.4513 127.184 56.237C127.228 56.4691 127.563 58.7613 127.629 59.2139C127.777 60.0877 127.907 59.8946 127.994 61.0462C128.056 61.9419 127.918 62.6703 127.947 63.7174C127.949 63.839 128.112 64.0452 128.075 64.8344ZM13.8271 71.8326C14.0151 72.0147 14.6304 72.2911 14.6744 73.5301C14.6793 73.6493 14.1744 73.0942 14.2358 73.7818C14.0718 73.1277 13.9509 72.4859 13.8265 71.8327C13.8267 71.8327 13.8269 71.8327 13.8271 71.8326ZM124.017 70.0832C124.155 69.1648 124.27 68.2476 124.362 67.3292C124.388 67.9702 124.403 68.6099 124.407 69.253C124.279 69.5318 124.149 69.8069 124.017 70.0832ZM48.0473 12.14C48.0481 12.1397 48.0489 12.1393 48.0497 12.139C47.1754 12.5783 46.3165 13.0392 45.4696 13.5225C45.5384 13.4292 45.6078 13.3358 45.6774 13.2427C46.3389 12.8388 47.0078 12.4491 47.6858 12.0729C47.8064 12.0949 47.9271 12.1172 48.0473 12.14ZM55.208 9.15745C55.834 9.06646 55.7112 9.21168 56.0716 9.2343C56.0716 9.2341 56.0715 9.2339 56.0715 9.23371C56.1666 9.23916 56.5843 9.16615 56.7439 9.13468C56.67 9.08087 56.579 9.03199 56.5 8.98016C57.8977 8.48229 60.7972 8.53653 57.2463 9.49282C57.2811 9.39621 57.3139 9.30058 57.3493 9.20401C55.5719 9.60813 53.548 9.98739 55.208 9.15745ZM18.1367 85.8834C19.0338 87.1932 19.2898 87.61 19.9859 89.377C19.7902 89.1784 19.5955 88.9775 19.4023 88.7753C19.3338 88.4589 19.2688 88.1448 19.2062 87.8285C19.2058 87.8277 19.2054 87.8269 19.205 87.8261C19.1 87.8078 18.9948 87.7892 18.8908 87.7726C18.6283 87.1482 18.3754 86.515 18.1367 85.8834ZM110.177 25.5904C110.053 26.2987 110.217 25.9733 109.269 25.1592C108.939 24.8798 109.158 25.2506 108.961 25.0698C107.893 24.1028 108.065 23.7597 108.438 23.8443C109.032 24.4139 109.617 25.0031 110.175 25.5885C110.175 25.5891 110.176 25.5898 110.177 25.5904ZM125.033 59.5379C125.033 59.5388 125.033 59.5397 125.033 59.5406C124.898 59.5874 124.819 59.0089 124.735 59.6741C124.701 59.1764 124.66 58.6745 124.613 58.1725C124.64 58.3185 124.666 58.4679 124.692 58.6144C124.728 58.4799 124.764 58.3448 124.799 58.2098C124.622 58.0471 124.7 57.8735 124.695 57.3428C124.542 57.5066 124.388 57.6684 124.234 57.8298C124.222 57.2188 124.2 56.6105 124.167 55.9973C124.209 55.984 124.25 55.9705 124.292 55.9572C124.206 55.7359 124.118 55.5181 124.03 55.2989C124.071 55.2295 124.113 55.1623 124.154 55.0927C124.073 54.8238 123.991 54.5556 123.906 54.2892C124.013 54.1853 124.172 54.7787 123.954 53.716C124.138 54.0207 124.319 54.3278 124.498 54.6412C124.75 56.2671 124.927 57.898 125.033 59.5379ZM101.565 18.2147C103.035 19.2557 102.564 19.034 102.066 19.0102C101.903 18.7449 101.734 18.4786 101.565 18.2147ZM20.7672 35.2278C20.6665 35.7785 20.5741 36.3255 20.4806 36.8804C20.0659 37.8547 19.2783 38.6467 19.5212 37.8705C19.8211 36.9342 20.4686 36.1444 20.7672 35.2278ZM13.423 58.2155C13.6447 56.9249 13.7432 58.1727 13.8506 58.4733C13.605 58.8118 13.5788 59.3061 13.5022 60.1129C13.5346 59.3536 13.3859 58.4316 13.4223 58.2154C13.4225 58.2155 13.4228 58.2155 13.423 58.2155ZM34.6743 19.6582C35.0812 19.3318 35.4628 18.9744 35.8767 18.7487C35.8719 18.9787 35.03 19.4068 35.7245 19.2228C35.462 19.4262 35.2009 19.632 34.9444 19.8389C35.0404 19.6211 34.7662 19.728 34.6757 19.6578C34.6752 19.6579 34.6747 19.6581 34.6743 19.6582ZM85.9878 10.641C85.0812 10.1294 84.8587 10.1605 83.8319 10.0312C83.7361 9.82025 85.0052 9.8627 85.7649 10.0341C85.8396 10.236 85.9134 10.4382 85.9878 10.641ZM112.363 98.5933C112.389 98.9292 111.244 100.343 110.583 100.963C110.63 100.861 110.677 100.758 110.723 100.655C111.286 99.9805 111.833 99.2927 112.363 98.5933ZM13.464 60.4956C13.4782 60.3611 13.4908 60.2334 13.5022 60.1129C13.4961 60.2474 13.4846 60.3767 13.464 60.4956ZM34.8189 108.754C34.3432 108.657 35.3303 109.506 34.1304 108.477C34.1303 108.477 34.1301 108.477 34.13 108.477C33.3434 107.789 33.1744 107.631 32.4452 106.997C32.8886 107.015 34.4422 108.182 32.4239 106.418C32.3975 106.394 32.3443 106.565 32.0346 106.267C31.9392 106.174 31.7062 105.796 31.2562 105.335C31.1103 105.186 29.988 104.102 31.5606 105.534C31.6407 105.35 31.8541 105.283 31.9735 105.141C32.6217 105.648 32.8571 106.343 33.5391 106.894C34.5553 107.708 35.3107 107.798 35.2093 108.345C34.2602 107.789 32.8033 106.585 32.8165 106.197C32.0207 105.509 31.6319 105.482 32.1959 106.139C35.1017 108.372 32.7141 107.1 35.379 108.916C35.4507 108.884 35.6009 108.903 35.6232 108.839C36.2701 109.617 34.987 108.792 34.8189 108.754ZM29.3841 103.308C29.9334 103.652 30.4866 103.984 31.0417 104.303C30.8806 104.475 30.4795 104.401 29.6716 103.798C29.5756 103.635 29.4786 103.471 29.3841 103.308ZM78.0808 118.985C78.1499 118.843 78.3688 118.687 78.5207 118.537C78.7296 118.654 83.1802 117.796 80.9521 118.392C80.628 118.488 78.58 118.649 78.0808 118.985ZM92.6596 13.0341C92.2128 12.7306 91.7652 12.4351 91.3119 12.1455C92.0826 12.4182 92.8547 12.7096 93.6172 13.0172C93.2965 13.0196 92.9787 13.026 92.6596 13.0341ZM16.7558 42.9579C16.8436 42.7488 16.7315 43.5135 17.0345 42.6734C16.892 43.334 16.7633 43.9426 16.644 44.5863C16.4995 44.7397 16.3553 44.8963 16.2121 45.0522C16.2129 45.213 16.2132 45.3763 16.2155 45.5368C16.1291 45.4116 16.0425 45.2963 15.9566 45.1647C16.5655 44.2172 16.374 43.8839 16.7558 42.9579ZM36.3077 17.2935C36.6202 17.3954 35.421 18.4472 36.7168 17.5745C36.5756 17.8883 36.2405 18.234 35.522 18.7909C35.3653 18.8251 35.209 18.8603 35.0521 18.896C35.1444 19.0504 34.997 19.244 34.6743 19.6582C34.6738 19.6583 34.6733 19.6584 34.6728 19.6585C33.6006 20.5237 33.6353 20.4345 33.1898 20.4192C34.4274 19.6156 34.297 19.3877 34.9975 18.6481C35.4804 18.1416 36.2414 17.6541 36.3077 17.2935ZM73.2738 119.551C74.2876 119.244 73.3449 119.127 75.1922 119.181C75.0809 119.25 74.9685 119.319 74.8563 119.388C74.3308 119.45 73.7985 119.505 73.2738 119.551ZM41.115 15.2832C40.8079 14.9839 39.7959 15.2136 40.004 15.8724C40.8844 15.4992 40.295 15.411 41.115 15.2832ZM12.8279 57.7051C12.8829 57.2291 12.9574 56.9029 13.0361 56.6956C13.2204 56.2139 13.4227 56.3739 13.5467 56.7583C13.5752 56.8464 13.5998 56.9463 13.6195 57.0531C13.5221 57.1586 13.4249 57.2645 13.329 57.3684C13.3314 57.6924 13.3367 58.0154 13.3442 58.3373C13.1711 58.1287 12.9986 57.9178 12.8279 57.7051ZM71.8886 7.37797C70.4764 7.60086 73.3891 7.62388 72.4021 7.75327C71.6172 7.85039 70.6081 7.52439 71.0007 7.35193C71.2709 7.35616 71.572 7.36506 71.8859 7.37784C71.8868 7.37788 71.8877 7.37793 71.8886 7.37797ZM63.7921 7.63491C64.0502 7.92741 63.7116 7.8595 64.8069 7.71506C65.1164 7.66101 67.6252 7.66345 66.5624 7.45154C65.6635 7.49102 64.7259 7.55017 63.7921 7.63491ZM15.0424 78.7056C14.9093 78.7644 14.1252 76.9629 14.1481 76.6972C14.1479 76.6972 14.1477 76.6973 14.1475 76.6973C14.1875 75.9975 14.7019 77.9752 14.7618 77.0479C15.002 79.006 15.7696 79.393 14.9706 79.4856C14.6152 78.381 14.9257 78.8649 15.0424 78.7056ZM123.597 77.7092C123.597 77.7083 123.597 77.7074 123.597 77.7066C123.561 77.8329 123.088 78.8098 123.055 78.6649C123.447 77.4475 123.518 77.6968 123.589 76.4832C123.672 76.4354 123.75 76.3959 123.835 76.3426C123.767 76.8162 123.787 77.094 123.597 77.7092ZM82.9564 118.255C82.5048 118.408 81.6273 118.464 81.1044 118.586C82.6493 117.672 84.7456 117.634 82.9564 118.255ZM121.004 42.4C121.003 42.3988 121.002 42.3977 121.002 42.3965C121.002 42.3967 121.003 42.3971 121.003 42.3974C121.003 42.3983 121.004 42.3991 121.004 42.4ZM47.0812 115.135C47.1226 115.193 47.1418 115.236 47.1421 115.267C47.1411 115.269 47.1401 115.272 47.139 115.274C47.1223 115.229 47.1037 115.184 47.0812 115.135ZM16.3022 82.5141C16.3926 83.3414 15.2049 80.9027 15.0365 80.0371C15.1374 80.0701 15.2154 80.0563 15.3526 80.1621C15.3382 80.9039 16.283 82.382 16.3022 82.5141ZM27.7888 25.5465C26.3564 27.1156 27.6621 24.5546 28.1883 24.8889C28.1928 24.8996 27.8241 25.5051 27.7888 25.5465ZM12.9958 66.207C12.7477 65.6757 12.7216 66.7671 12.7056 65.0224C12.762 64.9199 12.8189 64.8178 12.876 64.7158C12.9091 65.2107 12.9493 65.7104 12.9958 66.207ZM18.862 36.3348C17.6699 38.7845 16.8727 41.2471 18.1578 39.9111C18.2247 39.7193 18.2944 39.5255 18.3633 39.3344C18.1011 39.1753 18.5689 38.5699 19.0814 37.6043C19.0447 37.4092 19.3052 36.858 19.2694 36.7087C19.1993 36.418 18.7408 36.9723 18.862 36.3348ZM114.549 29.7757C114.481 29.7722 114.414 29.7697 114.346 29.7661C114.045 29.4616 113.74 29.1599 113.433 28.8632C113.554 28.8552 113.675 28.8476 113.797 28.8403C114.05 29.1491 114.3 29.4591 114.547 29.7734C114.548 29.7742 114.548 29.7749 114.549 29.7757ZM27.1119 101.862C27.7031 101.65 27.0405 101.115 25.7029 99.9781C26.1582 100.614 26.6292 101.243 27.1119 101.862ZM51.7001 9.38735C51.8037 9.52569 51.9059 9.66404 52.0111 9.80207C52.8336 9.36512 52.6214 9.23777 52.1326 9.16214C51.987 9.23691 51.8448 9.31146 51.7001 9.38735ZM64.7279 6.76285C64.3439 6.75842 64.5489 6.87502 64.5088 6.87543C63.5344 6.88844 63.3886 6.83852 62.2192 7.0748C62.0788 7.1267 61.9416 7.18059 61.8022 7.23454C62.3876 7.50656 62.7582 7.26755 63.931 7.35973C63.7126 7.26166 63.494 7.16461 63.2735 7.06856C63.9188 7.02752 64.5657 6.99722 65.2081 6.97863C65.2818 6.93733 65.356 6.89649 65.4301 6.85548C65.1979 6.82359 64.9577 6.78792 64.7279 6.76285ZM117.185 33.923C117.502 34.4618 117.811 35.0086 118.11 35.5576C118.195 35.5356 118.28 35.5124 118.364 35.4905C117.98 34.9608 117.586 34.4368 117.185 33.923ZM36.9557 110.128C37.0135 110.132 37.0704 110.135 37.1231 110.134C37.0985 110.162 37.0373 110.155 36.9557 110.128ZM124.436 76.2114C124.652 75.5337 124.821 74.5203 124.971 73.7503C124.758 73.777 124.434 75.7308 124.143 76.3751C124.155 76.4926 124.344 76.5007 124.436 76.2114ZM13.1694 55.1682C13.0914 54.9765 13.0148 54.7844 12.9383 54.5939C13.0175 54.1692 13.1015 53.7485 13.1914 53.3195C13.1087 53.2914 13.0252 53.2632 12.9426 53.235C12.7209 55.148 12.5608 54.6668 12.1759 55.581C12.5066 55.4391 12.8373 55.3035 13.1694 55.1682ZM125.012 52.2077C124.674 50.859 124.444 50.415 124.367 51.2277C124.531 51.6884 124.69 52.1555 124.842 52.6232C124.899 52.4843 124.956 52.3449 125.012 52.2077ZM59.9878 119.598C61.1104 119.679 61.1134 120.009 62.1777 119.981C62.2064 119.981 62.2358 119.979 62.266 119.978C62.2375 119.971 62.2091 119.965 62.1806 119.958C61.6126 119.827 61.0497 119.687 60.494 119.54C60.3268 119.56 60.1553 119.579 59.9878 119.598ZM16.1885 86.6341C16.2784 87.1396 17.1704 87.7431 17.4048 89.1734C17.666 89.4142 17.8676 89.5439 18.1076 89.7397C18.063 89.9483 18.0284 90.1784 17.9835 90.381C17.984 90.3818 17.9844 90.3826 17.9848 90.3834C18.619 91.4783 18.3828 90.6736 18.5224 90.6322C18.5795 90.6166 18.9397 91.4819 18.9131 91.1641C18.8578 90.6223 17.8874 89.017 18.1334 88.8895C18.3421 89.5171 19.0108 90.6152 18.9923 90.1952C18.9715 89.74 18.1263 88.8222 17.9454 88.0571C18.0329 89.2378 17.1667 87.124 17.3751 86.7497C16.6078 85.6363 16.9876 86.8024 17.588 88.0375C17.0001 87.3893 17.6501 88.4451 17.5522 88.7198C17.0367 88.0054 15.947 85.2239 16.1885 86.6341ZM25.1225 26.9327C24.5383 27.651 23.5291 28.7055 23.3235 29.3447C23.2023 29.7128 24.1495 28.62 23.7068 29.5315C24.2307 28.8057 24.301 28.6008 24.0697 28.6152C24.1792 28.4408 24.2915 28.2654 24.4037 28.0919C24.4892 28.0385 24.5759 27.9831 24.6615 27.9303C24.6737 27.8019 24.6872 27.6734 24.6988 27.5468C24.8475 27.386 24.9987 27.2243 25.1494 27.0658C25.1384 27.0233 25.1427 26.9698 25.1225 26.9327ZM92.4201 115.32C92.1886 115.427 91.9587 115.531 91.7259 115.636C91.7684 115.663 91.8166 115.69 91.8635 115.716C91.8984 115.738 91.9333 115.76 91.9682 115.782C91.7831 115.733 90.5876 116.023 90.159 116.33C89.9428 116.486 90.5774 116.488 89.5694 116.924C90.3071 116.627 90.9801 116.318 91.6808 115.994C91.6444 116.085 91.6107 116.175 91.5738 116.266C91.5742 116.266 91.5747 116.266 91.5752 116.266C91.818 116.179 92.0633 116.089 92.305 115.999C92.3453 115.772 92.3824 115.547 92.4201 115.32ZM50.8853 9.31535C50.0965 9.72522 49.8485 9.89401 50.309 9.96143C50.3099 9.96122 50.3108 9.96102 50.3117 9.96081C50.5859 9.76192 50.8636 9.56486 51.1417 9.37054C51.0571 9.35175 50.9725 9.33294 50.8853 9.31535ZM43.038 114.603C45.064 114.71 41.1256 113.243 41.6952 113.85C41.7189 113.882 42.9215 114.445 43.038 114.603ZM12.5396 58.0177C12.5784 57.5639 12.6233 57.1084 12.6735 56.651C12.6794 56.5974 12.6853 56.5437 12.6914 56.49C12.6389 56.5374 12.5864 56.5856 12.534 56.6339C12.4708 56.6923 12.4076 56.7509 12.3446 56.8088C12.4051 57.2141 12.4705 57.6177 12.5396 58.0177ZM123.854 46.2469C123.912 45.6632 123.539 44.3088 123.068 43.7581C123.164 44.1029 123.257 44.4487 123.346 44.7952C123.098 44.1675 122.839 43.5534 122.57 42.9319C122.26 43.0134 122.72 43.6697 123.025 44.8067C123.075 44.985 123.068 46.2004 123.467 46.4915C123.552 46.5497 123.211 45.3637 123.644 46.125C123.543 45.7629 123.438 45.4568 123.33 45.1179C123.394 45.0691 123.457 45.0204 123.519 44.9689C123.636 45.3956 123.747 45.8187 123.854 46.2469ZM21.884 31.2472C21.1531 32.29 21.1821 32.4988 21.2257 32.8404C21.5232 32.3309 21.829 31.8262 22.142 31.3266C22.0555 31.3011 21.9711 31.2727 21.884 31.2472ZM119.407 35.7435C119.098 35.1144 119.084 35.4659 118.916 35.2385C118.276 34.3826 118.014 33.6963 117.383 32.8549C117.45 32.8946 117.512 32.9308 117.577 32.9692C117.576 32.9685 117.576 32.9677 117.575 32.9669C114.945 28.745 116.104 31.1234 117.737 33.5888C117.716 33.6835 117.693 33.7757 117.671 33.8698C118.464 34.9334 119.152 35.9514 119.407 35.7435ZM29.5372 105.043C29.5496 105.112 29.0117 104.975 29.7577 105.508C30.5501 105.71 29.558 105.051 29.4538 104.735C29.6559 104.878 29.8616 105.023 30.0631 105.161C29.0839 104.079 28.8766 103.984 29.0525 104.565C29.0658 104.607 29.525 104.974 29.5372 105.043ZM36.9081 111.239C37.3948 110.875 35.7391 110.042 35.6895 110.22C35.8933 110.375 36.1111 110.409 36.3077 110.599C36.5069 110.791 36.4866 110.943 36.9081 111.239ZM11.8138 66.6205C11.8133 66.6743 11.6015 67.233 11.7891 67.1674C12.1939 66.471 11.8594 65.1324 11.7107 65.3719C11.7325 65.8225 11.812 66.1194 11.8132 66.6205C11.8134 66.6205 11.8136 66.6205 11.8138 66.6205ZM125.936 54.4156C125.951 54.3869 125.816 53.0288 125.689 52.871C125.561 52.7474 125.44 52.6976 125.315 52.6115C125.561 53.3289 125.729 54.8316 125.935 54.4128C125.935 54.4137 125.935 54.4146 125.936 54.4156Z" fill="white"/>
</svg>
