<svg width="46" height="94" viewBox="0 0 46 94" fill="none" xmlns="http://www.w3.org/2000/svg">
<path d="M8.466 -0.00010252V23.6639C8.466 32.9799 12.682 37.6379 21.114 37.6379C24.31 37.6379 27.302 37.2299 30.09 36.4139C32.878 35.5299 35.156 34.3739 36.924 32.9459V-0.00010252H45.39V74.1539C45.39 80.4779 44.234 85.2039 41.922 88.3319C39.678 91.4599 36.142 93.0239 31.314 93.0239C30.77 93.0239 30.192 92.9899 29.58 92.9219C28.968 92.9219 28.492 92.8879 28.152 92.8199V85.8839C30.056 85.8839 31.586 85.5779 32.742 84.9659C33.898 84.4219 34.782 83.5379 35.394 82.3139C36.006 81.1579 36.414 79.6619 36.618 77.8259C36.822 75.9899 36.924 73.8479 36.924 71.3999V40.5959C35.088 41.6159 32.674 42.6359 29.682 43.6559C26.69 44.6759 23.256 45.1859 19.38 45.1859C16.524 45.1859 13.906 44.8799 11.526 44.2679C9.146 43.5879 7.106 42.4999 5.406 41.0039C3.706 39.4399 2.38 37.3659 1.428 34.7819C0.475997 32.1979 -3.18885e-06 29.0019 -3.18885e-06 25.1939V-0.00010252H8.466Z" fill="white"/>
</svg>
